<?xml version="1.0" encoding="utf-8"?>
<!-- Generator: Adobe Illustrator 22.0.1, SVG Export Plug-In . SVG Version: 6.00 Build 0)  -->
<svg version="1.1" id="Calque_1" xmlns="http://www.w3.org/2000/svg" xmlns:xlink="http://www.w3.org/1999/xlink" x="0px" y="0px"
	 viewBox="0 0 4096 2180" style="enable-background:new 0 0 4096 2180;" xml:space="preserve">
<style type="text/css">
	.st0{fill:none;stroke:#766DAF;stroke-width:991.864;stroke-opacity:0.4;}
	.st1{fill:none;stroke:#5D71A8;stroke-width:673.051;stroke-opacity:0.4;}
	.st2{fill:none;stroke:#6B5359;stroke-width:318.814;stroke-opacity:0.4;}
	.st3{fill:none;stroke:#EA6A61;stroke-width:70.8475;stroke-opacity:0.4;}
	.st4{fill:none;stroke:#FF4AD2;stroke-width:35.4237;stroke-opacity:0.4;}
	.st5{fill:none;stroke:#F19854;stroke-opacity:0.4;}
	.st6{fill:none;stroke:#4E6562;stroke-opacity:0.4;}
	.st7{display:none;fill:none;stroke:#69BFBF;stroke-opacity:0.4;}
	.st8{fill:#666666;}
	.st9{font-family:'ArialMT';}
	.st10{font-size:11px;}
	.st11{fill:#766DAF;}
	.st12{fill:none;}
	.st13{fill:#E6E0D8;}
	.st14{font-family:'OpenSans-Bold';}
	.st15{font-size:87px;glyph-orientation-vertical:0;writing-mode:tb;}
</style>
<path class="st0" d="M5,1628.6c2043,0,2043-293.4,4086-293.4">
<title>28</title>
</path>
<path class="st1" d="M5,685.3c2043,0,2043-273.4,4086-273.4">
<title>19</title>
</path>
<path class="st2" d="M5,169.4c2043,0,2043,1831.2,4086,1831.2">
<title>9</title>
</path>
<path class="st3" d="M5,1087.3c2043,0,2043-293.4,4086-293.4">
<title>2</title>
</path>
<path class="st4" d="M5,2152.3c2043,0,2043-2104.6,4086-2104.6">
<title>1</title>
</path>
<path class="st5" d="M5,338.8C2048,338.8,2048,20,4091,20">
<title>0</title>
</path>
<path class="st6" d="M5,1041.9C2048,1041.9,2048,30,4091,30">
<title>0</title>
</path>
<path class="st7" d="M5,1041.9C2048,1041.9,2048,20,4091,20">
<title>0</title>
</path>
<polygon class="st8" points="4091,20 4096,20 4096,20 ">
<title>0</title>
</polygon>
<text transform="matrix(1 0 0 1 4078.8823 51.5619)" class="st9 st10">1</text>
<text transform="matrix(1 0 0 1 4072.7646 415.7992)" class="st9 st10">19</text>
<text transform="matrix(1 0 0 1 4078.8823 797.7483)" class="st9 st10">2</text>
<text transform="matrix(1 0 0 1 4072.7646 1339.1042)" class="st9 st10">28</text>
<text transform="matrix(1 0 0 1 4078.8823 2004.4432)" class="st9 st10">9</text>
<text transform="matrix(1 0 0 1 11 173.2568)" class="st9 st10">1</text>
<polygon points="0,338.8 5,338.8 5,338.8 ">
<title>2
0</title>
</polygon>
<text transform="matrix(1 0 0 1 11 342.6636)" class="st9 st10">2</text>
<text transform="matrix(1 0 0 1 11 689.189)" class="st9 st10">3</text>
<polygon points="0,1031.9 5,1031.9 5,1031.9 ">
<title>4
0</title>
</polygon>
<text transform="matrix(1 0 0 1 11 1035.7144)" class="st9 st10">4</text>
<polygon points="0,1041.9 5,1041.9 5,1041.9 ">
<title>5
0</title>
</polygon>
<text transform="matrix(1 0 0 1 11 1091.1382)" class="st9 st10">6</text>
<text transform="matrix(1 0 0 1 11 1632.4941)" class="st9 st10">7</text>
<text transform="matrix(1 0 0 1 11 2156.1382)" class="st9 st10">n.a.</text>
<rect x="3926.4" class="st11" width="169.6" height="2180"/>
<rect x="3978.1" y="746" class="st12" width="66.2" height="678"/>
<text transform="matrix(1 0 0 1 4009.2166 746.0128)" class="st13 st14 st15">OCEANIA</text>
</svg>
