<?xml version="1.0" encoding="utf-8"?>
<!-- Generator: Adobe Illustrator 22.0.1, SVG Export Plug-In . SVG Version: 6.00 Build 0)  -->
<svg version="1.1" id="Calque_1" xmlns="http://www.w3.org/2000/svg" xmlns:xlink="http://www.w3.org/1999/xlink" x="0px" y="0px"
	 viewBox="0 0 4096 2180" style="enable-background:new 0 0 4096 2180;" xml:space="preserve">
<style type="text/css">
	.st0{fill:none;stroke:#5D71A8;stroke-width:826.5;stroke-opacity:0.4;}
	.st1{fill:none;stroke:#6B5359;stroke-width:684;stroke-opacity:0.4;}
	.st2{fill:none;stroke:#F19854;stroke-width:437;stroke-opacity:0.4;}
	.st3{fill:none;stroke:#FF4AD2;stroke-width:47.5;stroke-opacity:0.4;}
	.st4{fill:none;stroke:#EA6A61;stroke-width:38;stroke-opacity:0.4;}
	.st5{fill:none;stroke:#4E6562;stroke-width:28.5;stroke-opacity:0.4;}
	.st6{fill:none;stroke:#766DAF;stroke-width:19;stroke-opacity:0.4;}
	.st7{fill:none;stroke:#BC3631;stroke-width:9.5;stroke-opacity:0.4;}
	.st8{font-family:'ArialMT';}
	.st9{font-size:11px;}
	.st10{fill:#666666;}
	.st11{fill:#F19854;stroke:#F19854;stroke-miterlimit:10;}
	.st12{fill:none;}
	.st13{writing-mode:tb;}
	.st14{fill:#6B5359;}
	.st15{font-family:'OpenSans-Bold';}
	.st16{font-size:87px;glyph-orientation-vertical:0;}
	.st17{font-size:87px;glyph-orientation-vertical:1;}
</style>
<path class="st0" d="M5,1564.2c2043,0,2043,192.5,4086,192.5">
<title>87</title>
</path>
<path class="st1" d="M5,352c2043,0,2043,639.5,4086,639.5">
<title>72</title>
</path>
<path class="st2" d="M5,922.5c2043,0,2043-559,4086-559">
<title>46</title>
</path>
<path class="st3" d="M5,2146.2c2043,0,2043-1530.5,4086-1530.5">
<title>5</title>
</path>
<path class="st4" d="M5,2064.5C2048,2064.5,2048,116,4091,116">
<title>4</title>
</path>
<path class="st5" d="M5,2001.8c2043,0,2043-1929,4086-1929">
<title>3</title>
</path>
<path class="st6" d="M5,2103C2048,2103,2048,39,4091,39">
<title>2</title>
</path>
<path class="st7" d="M5,2030.8c2043,0,2043-2016,4086-2016">
<title>1</title>
</path>
<rect y="10" width="5" height="684">
<title>1
72</title>
</rect>
<text transform="matrix(1 0 0 1 11 355.85)" class="st8 st9">1</text>
<rect y="704" width="5" height="437">
<title>2
46</title>
</rect>
<text transform="matrix(1 0 0 1 11 926.35)" class="st8 st9">2</text>
<rect y="1151" width="5" height="826.5">
<title>3
87</title>
</rect>
<text transform="matrix(1 0 0 1 11 1568.1)" class="st8 st9">3</text>
<rect y="1987.5" width="5" height="28.5">
<title>4
3</title>
</rect>
<text transform="matrix(1 0 0 1 11 2005.6)" class="st8 st9">4</text>
<rect y="2026" width="5" height="9.5">
<title>5
1</title>
</rect>
<text transform="matrix(1 0 0 1 11 2034.6)" class="st8 st9">5</text>
<rect y="2045.5" width="5" height="38">
<title>6
4</title>
</rect>
<text transform="matrix(1 0 0 1 11 2068.3501)" class="st8 st9">6</text>
<rect y="2093.5" width="5" height="19">
<title>7
2</title>
</rect>
<text transform="matrix(1 0 0 1 11 2106.8501)" class="st8 st9">7</text>
<rect y="2122.5" width="5" height="47.5">
<title>n.a.
5</title>
</rect>
<text transform="matrix(1 0 0 1 11 2150.1001)" class="st8 st9">n.a.</text>
<rect x="4091" y="10" class="st10" width="5" height="9.5">
<title>1
1</title>
</rect>
<text transform="matrix(1 0 0 1 4078.8823 18.6)" class="st8 st9">1</text>
<rect x="4091" y="29.5" class="st10" width="5" height="19">
<title>2
2</title>
</rect>
<text transform="matrix(1 0 0 1 4078.8823 42.85)" class="st8 st9">2</text>
<rect x="4091" y="58.5" class="st10" width="5" height="28.5">
<title>3
3</title>
</rect>
<text transform="matrix(1 0 0 1 4078.8823 76.6)" class="st8 st9">3</text>
<rect x="4091" y="97" class="st10" width="5" height="38">
<title>4
4</title>
</rect>
<text transform="matrix(1 0 0 1 4078.8823 119.85)" class="st8 st9">4</text>
<rect x="4091" y="145" class="st10" width="5" height="437">
<title>46
46</title>
</rect>
<text transform="matrix(1 0 0 1 4072.7646 367.35)" class="st8 st9">46</text>
<rect x="4091" y="592" class="st10" width="5" height="47.5">
<title>5
5</title>
</rect>
<text transform="matrix(1 0 0 1 4078.8823 619.6)" class="st8 st9">5</text>
<rect x="4091" y="649.5" class="st10" width="5" height="684">
<title>72
72</title>
</rect>
<text transform="matrix(1 0 0 1 4072.7646 995.35)" class="st8 st9">72</text>
<rect x="4091" y="1343.5" class="st10" width="5" height="826.5">
<title>87
87</title>
</rect>
<text transform="matrix(1 0 0 1 4072.7646 1760.6)" class="st8 st9">87</text>
<rect x="3926.4" class="st11" width="169.6" height="2180"/>
<rect x="3978.1" y="122.8" class="st12" width="66.2" height="1904.8"/>
<text transform="matrix(1 0 0 1 4009.2166 122.7501)" class="st13"><tspan x="0" y="0" class="st14 st15 st16">CENTRAL</tspan><tspan x="0" y="609" class="st14 st15 st17">  </tspan><tspan x="0" y="654.2" class="st14 st15 st16">&amp;</tspan><tspan x="0" y="741.2" class="st14 st15 st17"> </tspan><tspan x="0" y="763.8" class="st14 st15 st16">SOUTH</tspan><tspan x="0" y="1198.8" class="st14 st15 st17"> </tspan><tspan x="0" y="1221.4" class="st14 st15 st16">AMERICA</tspan></text>
</svg>
