<?xml version="1.0" encoding="utf-8"?>
<!-- Generator: Adobe Illustrator 22.0.1, SVG Export Plug-In . SVG Version: 6.00 Build 0)  -->
<svg version="1.1" id="Calque_1" xmlns="http://www.w3.org/2000/svg" xmlns:xlink="http://www.w3.org/1999/xlink" x="0px" y="0px"
	 viewBox="0 0 4096 2180" style="enable-background:new 0 0 4096 2180;" xml:space="preserve">
<style type="text/css">
	.st0{fill:none;stroke:#BC3631;stroke-width:818.178;stroke-opacity:0.4;}
	.st1{fill:none;stroke:#5D71A8;stroke-width:737.171;stroke-opacity:0.4;}
	.st2{fill:none;stroke:#6B5359;stroke-width:396.938;stroke-opacity:0.4;}
	.st3{fill:none;stroke:#EA6A61;stroke-width:48.6047;stroke-opacity:0.4;}
	.st4{fill:none;stroke:#4E6562;stroke-width:36.4535;stroke-opacity:0.4;}
	.st5{fill:none;stroke:#766DAF;stroke-width:32.4031;stroke-opacity:0.4;}
	.st6{fill:none;stroke:#FF4AD2;stroke-width:12.1512;stroke-opacity:0.4;}
	.st7{fill:none;stroke:#F19854;stroke-width:8.1008;stroke-opacity:0.4;}
	.st8{fill:#666666;}
	.st9{font-family:'ArialMT';}
	.st10{font-size:11px;}
	.st11{fill:#BC3631;}
	.st12{fill:none;}
	.st13{fill:#BFCEE7;}
	.st14{font-family:'OpenSans-Bold';}
	.st15{font-size:87px;glyph-orientation-vertical:0;writing-mode:tb;}
</style>
<g>
	<g>
		<path class="st0" d="M5,1637.8c2043,0,2043-394.8,4086-394.8		">
<title>202</title>
		</path>
		<path class="st1" d="M5,803.6c2043,0,2043-366.4,4086-366.4		">
<title>182</title>
		</path>
		<path class="st2" d="M5,208.5c2043,0,2043,1763.1,4086,1763.1		">
<title>98</title>
		</path>
		<path class="st3" d="M5,2081.1c2043,0,2043-2046.8,4086-2046.8		">
<title>12</title>
		</path>
		<path class="st4" d="M5,1200.4c2043,0,2043,544.4,4086,544.4		">
<title>9</title>
		</path>
		<path class="st5" d="M5,2131.6c2043,0,2043-431.2,4086-431.2		">
<title>8</title>
		</path>
		<path class="st6" d="M5,2163.9c2043,0,2043-495.8,4086-495.8		">
<title>3</title>
		</path>
		<path class="st7" d="M5,421c2043,0,2043,398.8,4086,398.8		">
<title>2</title>
		</path>
		<rect x="4091" y="10" class="st8" width="5" height="48.6">
		<title>12
12</title>
		</rect>
		<text transform="matrix(1 0 0 1 4072.7646 38.1523)" class="st9 st10">12</text>
		<rect x="4091" y="68.6" class="st8" width="5" height="737.2">
		<title>182
182</title>
		</rect>
		<text transform="matrix(1 0 0 1 4066.647 441.0399)" class="st9 st10">182</text>
		<rect x="4091" y="815.8" class="st8" width="5" height="8.1">
		<title>2
2</title>
		</rect>
		<text transform="matrix(1 0 0 1 4078.8823 823.6756)" class="st9 st10">2</text>
		<rect x="4091" y="833.9" class="st8" width="5" height="818.2">
		<title>202
202</title>
		</rect>
		<text transform="matrix(1 0 0 1 4066.647 1246.8152)" class="st9 st10">202</text>
		<rect x="4091" y="1662.1" class="st8" width="5" height="12.2">
		<title>3
3</title>
		</rect>
		<text transform="matrix(1 0 0 1 4078.8823 1671.98)" class="st9 st10">3</text>
		<rect x="4091" y="1684.2" class="st8" width="5" height="32.4">
		<title>8
8</title>
		</rect>
		<text transform="matrix(1 0 0 1 4078.8823 1704.2571)" class="st9 st10">8</text>
		<rect x="4091" y="1726.6" class="st8" width="5" height="36.5">
		<title>9
9</title>
		</rect>
		<text transform="matrix(1 0 0 1 4078.8823 1748.6853)" class="st9 st10">9</text>
		<rect x="4091" y="1773.1" class="st8" width="5" height="396.9">
		<title>98
98</title>
		</rect>
		<text transform="matrix(1 0 0 1 4072.7646 1975.381)" class="st9 st10">98</text>
		<rect y="10" width="5" height="396.9">
		<title>1
98</title>
		</rect>
		<text transform="matrix(1 0 0 1 11 212.319)" class="st9 st10">1</text>
		<rect y="416.9" width="5" height="8.1">
		<title>2
2</title>
		</rect>
		<text transform="matrix(1 0 0 1 11 424.8384)" class="st9 st10">2</text>
		<rect y="435" width="5" height="737.2">
		<title>3
182</title>
		</rect>
		<text transform="matrix(1 0 0 1 11 807.474)" class="st9 st10">3</text>
		<rect y="1182.2" width="5" height="36.5">
		<title>4
9</title>
		</rect>
		<text transform="matrix(1 0 0 1 11 1204.2861)" class="st9 st10">4</text>
		<rect y="1228.7" width="5" height="818.2">
		<title>5
202</title>
		</rect>
		<text transform="matrix(1 0 0 1 11 1641.6021)" class="st9 st10">5</text>
		<rect y="2056.8" width="5" height="48.6">
		<title>6
12</title>
		</rect>
		<text transform="matrix(1 0 0 1 11 2084.9934)" class="st9 st10">6</text>
		<rect y="2115.4" width="5" height="32.4">
		<title>7
8</title>
		</rect>
		<text transform="matrix(1 0 0 1 11 2135.4973)" class="st9 st10">7</text>
		<rect y="2157.8" width="5" height="12.2">
		<title>n.a.
3</title>
		</rect>
		<text transform="matrix(1 0 0 1 11 2167.7744)" class="st9 st10">n.a.</text>
	</g>
	<rect x="3926.4" class="st11" width="169.6" height="2180"/>
	<rect x="3978.1" y="817.1" class="st12" width="66.2" height="545.8"/>
	<text transform="matrix(1 0 0 1 4009.2166 817.0905)" class="st13 st14 st15">AFRICA</text>
</g>
</svg>
