<?xml version="1.0" encoding="utf-8"?>
<!-- Generator: Adobe Illustrator 22.0.1, SVG Export Plug-In . SVG Version: 6.00 Build 0)  -->
<svg version="1.1" id="Calque_1" xmlns="http://www.w3.org/2000/svg" xmlns:xlink="http://www.w3.org/1999/xlink" x="0px" y="0px"
	 viewBox="0 0 848 848" style="enable-background:new 0 0 848 848;" xml:space="preserve">
<style type="text/css">
	.st0{fill-opacity:0;stroke:#DDDDDD;}
	.st1{fill:#BF6969;stroke:#DDDDDD;stroke-opacity:0;}
	.st2{fill:#94BF69;stroke:#DDDDDD;stroke-opacity:0;}
	.st3{fill:#69BFBF;stroke:#DDDDDD;stroke-opacity:0;}
	.st4{fill:#9469BF;stroke:#DDDDDD;stroke-opacity:0;}
	.st5{font-family:'ArialMT';}
	.st6{font-size:11px;}
</style>
<circle class="st0" cx="472.5" cy="424" r="462.5"/>
<circle class="st0" cx="246.8" cy="177.2" r="28.5"/>
<polygon class="st1" points="267.5,424 267.5,424 267.5,424 267.5,424 "/>
<circle class="st1" cx="246.8" cy="177.2" r="28.5"/>
<g>
	<circle class="st0" cx="580.5" cy="424" r="256.1"/>
	<circle class="st2" cx="410.7" cy="424" r="86.3"/>
</g>
<g>
	<circle class="st0" cx="267.5" cy="753.7" r="49.2"/>
	<circle class="st3" cx="236.4" cy="753.7" r="18"/>
</g>
<circle class="st0" cx="178.1" cy="467" r="129.3"/>
<circle class="st4" cx="94.6" cy="467" r="45.9"/>
<text transform="matrix(1 0 0 1 230.6811 167.9128)" class="st5 st6">Buddhists</text>
<text transform="matrix(1 0 0 1 230.6808 183.8399)" class="st5 st6">Not Target</text>
<text transform="matrix(1 0 0 1 556.0715 424)" class="st5 st6">Christians</text>
<text transform="matrix(1 0 0 1 395.4583 395.545)" class="st5 st6">Target</text>
<text transform="matrix(1 0 0 1 267.5262 771.6778)" class="st5 st6">Jew</text>
<text transform="matrix(1 0 0 1 218.3587 761.4378)" class="st5 st6">Target</text>
<text transform="matrix(1 0 0 1 120.5524 452.0916)" class="st5 st6">Muslims</text>
<text transform="matrix(1 0 0 1 41.9856 452.0916)" class="st5 st6">Target</text>
</svg>
