<svg width="4096" height="2160" xmlns="http://www.w3.org/2000/svg" version="1.1"><g class="x axis" transform="translate(0,2145)" style="stroke-width: 1px; font-size: 10px; font-family: Arial, Helvetica;"><g class="tick" transform="translate(400.1709439365569,0)" style="opacity: 1;"><line y2="-2145" x2="0" style="shape-rendering: crispEdges; fill: none; stroke: rgb(204, 204, 204);"></line><text dy=".71em" y="3" x="0" style="text-anchor: middle;">1860</text></g><g class="tick" transform="translate(870.9792456689692,0)" style="opacity: 1;"><line y2="-2145" x2="0" style="shape-rendering: crispEdges; fill: none; stroke: rgb(204, 204, 204);"></line><text dy=".71em" y="3" x="0" style="text-anchor: middle;">1880</text></g><g class="tick" transform="translate(1341.7875474013815,0)" style="opacity: 1;"><line y2="-2145" x2="0" style="shape-rendering: crispEdges; fill: none; stroke: rgb(204, 204, 204);"></line><text dy=".71em" y="3" x="0" style="text-anchor: middle;">1900</text></g><g class="tick" transform="translate(1812.5313989898195,0)" style="opacity: 1;"><line y2="-2145" x2="0" style="shape-rendering: crispEdges; fill: none; stroke: rgb(204, 204, 204);"></line><text dy=".71em" y="3" x="0" style="text-anchor: middle;">1920</text></g><g class="tick" transform="translate(2283.339700722232,0)" style="opacity: 1;"><line y2="-2145" x2="0" style="shape-rendering: crispEdges; fill: none; stroke: rgb(204, 204, 204);"></line><text dy=".71em" y="3" x="0" style="text-anchor: middle;">1940</text></g><g class="tick" transform="translate(2754.148002454644,0)" style="opacity: 1;"><line y2="-2145" x2="0" style="shape-rendering: crispEdges; fill: none; stroke: rgb(204, 204, 204);"></line><text dy=".71em" y="3" x="0" style="text-anchor: middle;">1960</text></g><g class="tick" transform="translate(3224.9563041870565,0)" style="opacity: 1;"><line y2="-2145" x2="0" style="shape-rendering: crispEdges; fill: none; stroke: rgb(204, 204, 204);"></line><text dy=".71em" y="3" x="0" style="text-anchor: middle;">1980</text></g><g class="tick" transform="translate(3695.764605919469,0)" style="opacity: 1;"><line y2="-2145" x2="0" style="shape-rendering: crispEdges; fill: none; stroke: rgb(204, 204, 204);"></line><text dy=".71em" y="3" x="0" style="text-anchor: middle;">2000</text></g><path class="domain" d="M0,-2145V0H4096V-2145" style="shape-rendering: crispEdges; fill: none; stroke: rgb(204, 204, 204);"></path></g><g class="flow" title="Athée" transform="translate(0,0)"><path class="area" d="M0,710L3.9207170917711722,710C7.8414341835423444,710,15.682868367084689,710,78.457308598073,710C141.2317488290613,710,258.93919510749555,710,333.48652830445974,707.1138211382113C408.033861501424,704.2276422764228,439.4210816169182,698.4552845528455,459.0354087664364,695.5691056910568C478.64973591595464,692.6829268292682,486.49117009949697,692.6829268292682,494.34334597370173,689.7967479674796C502.19552184790643,686.910569105691,510.05843941277357,681.1382113821138,517.9106152869783,681.1382113821139C525.762791161183,681.1382113821138,533.6042253447254,686.910569105691,541.4456595282677,692.6829268292682C549.28709371181,698.4552845528455,557.1285278953524,704.2276422764228,564.9699620788948,707.1138211382114C572.8113962624371,710,580.6528304459795,710,592.4257234119553,707.1138211382113C604.1986163779313,704.2276422764228,619.9029681263407,698.4552845528455,635.5965781840878,698.4552845528456C651.2901882418349,698.4552845528455,666.9730566089196,704.2276422764228,690.508100850209,707.1138211382114C714.0431450914984,710,745.4303652069925,710,765.0554340471732,710C784.6805028873538,710,792.543420452221,710,808.237030509968,707.1138211382113C823.930640567715,704.2276422764228,847.454943118342,698.4552845528455,863.1485531760891,695.5691056910568C878.8421632338362,692.6829268292682,886.7050807987034,692.6829268292682,906.3301496388841,692.6829268292684C925.9552184790648,692.6829268292682,957.3424385945589,692.6829268292682,976.9567657440771,689.7967479674796C996.5710928935953,686.910569105691,1004.4125270771376,681.1382113821138,1012.2539612606801,681.1382113821139C1020.0953954442224,681.1382113821138,1027.9368296277648,686.910569105691,1051.4718738690542,689.7967479674796C1075.0069181103436,692.6829268292682,1114.23557240938,692.6829268292682,1137.781358341332,692.6829268292684C1161.3271442732837,692.6829268292682,1169.1900618381508,692.6829268292682,1180.9629548041266,692.6829268292684C1192.7358477701025,692.6829268292682,1208.4187161371872,692.6829268292682,1220.1808674125007,692.6829268292684C1231.9430186878144,692.6829268292682,1239.7844528713567,692.6829268292682,1247.6366287455612,695.569105691057C1255.4888046197661,698.4552845528455,1263.3517221846332,704.2276422764228,1282.9660493341516,707.1138211382114C1302.5803764836699,710,1333.9461132178392,710,1361.3911328602373,707.1138211382113C1388.8361525026355,704.2276422764228,1412.3604550532627,698.4552845528455,1435.895499294552,695.5691056910568C1459.4305435358415,692.6829268292682,1482.9763294677932,692.6829268292682,1498.6699395255405,695.569105691057C1514.3635495832873,698.4552845528455,1522.2049837668296,704.2276422764228,1530.0571596410346,701.3414634146341C1537.909335515239,698.4552845528456,1545.772253080106,686.910569105691,1553.624428954311,684.0243902439024C1561.4766048285155,681.1382113821138,1569.3180390120579,686.910569105691,1577.1594731956004,686.9105691056909C1585.0009073791427,686.910569105691,1592.8423415626853,681.1382113821138,1608.5359516204323,678.2520325203252C1624.2295616781794,675.3658536585366,1647.7753476101311,675.3658536585366,1663.4689576678782,675.3658536585365C1679.1625677256252,675.3658536585366,1687.0040019091675,675.3658536585366,1698.7768948751434,678.2520325203252C1710.5497878411193,681.1382113821138,1726.2541395895287,686.910569105691,1738.0270325555045,689.7967479674796C1749.7999255214804,692.6829268292682,1757.641359705023,692.6829268292682,1765.4827938885653,686.9105691056911C1773.3242280721079,681.1382113821138,1781.1656622556502,669.5934959349594,1789.0070964391923,666.7073170731708C1796.8485306227349,663.8211382113822,1804.6899648062772,669.5934959349594,1812.5421406804817,672.479674796748C1820.3943165546866,675.3658536585366,1828.2572341195537,675.3658536585366,1836.1094099937586,675.3658536585365C1843.9615858679633,675.3658536585366,1851.8030200515057,675.3658536585366,1863.565171326819,681.1382113821138C1875.3273226021327,686.910569105691,1891.0101909692173,698.4552845528456,1902.7830839351932,701.3414634146341C1914.555976901169,704.2276422764228,1922.4188944660361,698.4552845528455,1930.2710703402408,698.4552845528456C1938.1232462144455,698.4552845528455,1945.9646803979879,704.2276422764228,1953.8061145815304,704.2276422764228C1961.6475487650725,704.2276422764228,1969.4889829486149,698.4552845528455,1985.1825930063621,695.5691056910568C2000.8762030641092,692.6829268292682,2024.421988996061,692.6829268292682,2040.1155990538077,692.6829268292684C2055.809209111555,692.6829268292682,2063.6506432950973,692.6829268292682,2071.4920774786397,686.9105691056911C2079.333511662182,681.1382113821138,2087.1749458457243,669.5934959349594,2095.0271217199293,669.5934959349595C2102.879297594134,669.5934959349594,2110.7422151590013,681.1382113821138,2118.594391033206,689.7967479674797C2126.4465669074107,698.4552845528455,2134.288001090953,704.2276422764228,2142.1294352744953,704.2276422764228C2149.9708694580377,704.2276422764228,2157.81230364158,698.4552845528455,2169.585196607556,686.910569105691C2181.3580895735317,675.3658536585365,2197.062441321941,658.0487804878048,2212.7560513796884,652.2764227642276C2228.449661437435,646.5040650406504,2244.1325298045203,652.2764227642276,2255.894681079834,660.9349593495936C2267.6568323551473,669.5934959349594,2275.4982665386897,681.1382113821138,2283.350442412894,689.7967479674797C2291.202618287099,698.4552845528455,2299.065535851966,704.2276422764228,2306.9177117261706,701.3414634146341C2314.7698876003756,698.4552845528456,2322.611321783918,686.910569105691,2330.4527559674602,684.0243902439024C2338.2941901510026,681.1382113821138,2346.135624334545,686.910569105691,2353.9770585180872,689.7967479674796C2361.8184927016296,692.6829268292682,2369.659926885172,692.6829268292682,2377.5121027593764,658.0487804878048C2385.3642786335813,623.4146341463414,2393.2271961984484,554.1463414634145,2401.079372072653,545.4878048780487C2408.931547946858,536.8292682926829,2416.7729821304,588.780487804878,2424.6144163139425,611.869918699187C2432.455850497485,634.9593495934959,2440.297284681027,629.1869918699186,2448.13871886457,626.30081300813C2455.980153048112,623.4146341463414,2463.821587231654,623.4146341463414,2471.673763105859,626.30081300813C2479.525938980064,629.1869918699186,2487.3888565449306,634.9593495934959,2495.2410324191355,626.30081300813C2503.0932082933405,617.6422764227642,2510.934642476883,594.5528455284552,2518.7760766604247,588.780487804878C2526.6175108439675,583.0081300813008,2534.45894502751,594.5528455284552,2542.3003792110517,608.9837398373984C2550.1418133945945,623.4146341463415,2557.983247578137,640.7317073170732,2565.8354234523413,652.2764227642276C2573.687599326546,663.8211382113822,2581.5505168914133,669.5934959349594,2589.402692765618,675.3658536585367C2597.254868639823,681.1382113821138,2605.0963028233655,686.910569105691,2612.937737006908,686.9105691056909C2620.77917119045,686.910569105691,2628.6206053739925,681.1382113821138,2636.462039557535,672.479674796748C2644.303473741077,663.821138211382,2652.1449079246195,652.2764227642276,2659.997083798824,649.3902439024391C2667.849259673029,646.5040650406504,2675.712177237896,652.2764227642276,2683.5643531121004,652.2764227642276C2691.4165289863054,652.2764227642276,2699.2579631698477,646.5040650406504,2707.0993973533896,652.2764227642276C2714.9408315369324,658.0487804878048,2722.7822657204747,675.3658536585365,2730.6236999040175,681.1382113821137C2738.4651340875594,686.910569105691,2746.3065682711017,681.1382113821138,2754.158744145306,669.5934959349594C2762.010920019511,658.0487804878048,2769.8738375843786,640.7317073170732,2777.726013458583,634.9593495934959C2785.578189332788,629.1869918699186,2793.4196235163304,634.9593495934959,2801.2610576998727,620.5284552845528C2809.102491883415,606.0975609756097,2816.9439260669574,571.4634146341464,2824.7853602504997,568.5772357723577C2832.626794434042,565.691056910569,2840.4682286175844,594.5528455284552,2848.3204044917893,585.8943089430893C2856.172580365994,577.2357723577235,2864.035497930861,531.0569105691056,2871.887673805066,525.2845528455284C2879.7398496792703,519.5121951219512,2887.5812838628126,554.1463414634146,2895.422718046355,568.5772357723577C2903.2641522298973,583.0081300813008,2911.1055864134396,577.2357723577236,2918.947020596982,568.5772357723578C2926.7884547805243,559.918699186992,2934.6298889640666,548.3739837398374,2942.482064838271,565.6910569105692C2950.334240712476,583.0081300813008,2958.197158277343,629.1869918699188,2966.049334151548,640.7317073170732C2973.901510025753,652.2764227642276,2981.7429442092953,629.1869918699188,2989.584378392837,617.6422764227642C2997.42581257638,606.0975609756098,3005.2672467599223,606.0975609756098,3013.108680943464,577.2357723577236C3020.950115127007,548.3739837398374,3028.7915493105493,490.650406504065,3036.6437251847537,484.8780487804878C3044.495901058958,479.1056910569106,3052.3588186238258,525.2845528455284,3060.2109944980302,545.4878048780488C3068.0631703722347,565.6910569105692,3075.904604555777,559.9186991869918,3083.74603873932,565.691056910569C3091.5874729228617,571.4634146341463,3099.428907106404,588.780487804878,3107.270341289947,594.5528455284552C3115.1117754734887,600.3252032520325,3122.953209657031,594.5528455284552,3130.8053855312364,597.4390243902438C3138.657561405441,600.3252032520325,3146.5204789703084,611.8699186991869,3154.372654844513,611.869918699187C3162.224830718718,611.8699186991869,3170.06626490226,600.3252032520325,3177.907699085803,565.691056910569C3185.749133269345,531.0569105691056,3193.590567452887,473.33333333333337,3201.432001636429,456.01626016260167C3209.273435819972,438.69918699186996,3217.114870003514,461.7886178861788,3224.967045877719,473.3333333333333C3232.8192217519236,484.8780487804877,3240.6821393167907,484.8780487804877,3248.534315190995,493.5365853658536C3256.3864910652,502.19512195121945,3264.2279252487424,519.5121951219512,3272.0693594322847,507.9674796747968C3279.910793615827,496.4227642276423,3287.7522277993694,456.01626016260167,3295.5936619829117,444.4715447154472C3303.435096166454,432.9268292682927,3311.2765303499964,450.24390243902434,3319.128706224201,458.9024390243901C3326.980882098406,467.560975609756,3334.843799663273,467.560975609756,3342.6959755374774,450.2439024390243C3350.5481514116823,432.92682926829264,3358.3895855952246,398.29268292682923,3366.2310197787665,401.1788617886179C3374.0724539623093,404.06504065040644,3381.9138881458516,444.47154471544707,3389.7553223293944,450.24390243902434C3397.5967565129363,456.01626016260155,3405.4381906964786,427.1544715447154,3413.290366570683,395.4065040650406C3421.142542444888,363.6585365853658,3429.005460009755,329.0243902439024,3436.85763588396,317.47967479674793C3444.7098117581645,305.9349593495935,3452.551245941707,317.47967479674793,3460.392680125249,308.82113821138205C3468.2341143087915,300.1626016260162,3476.075548492334,271.30081300813004,3483.916982675876,219.34959349593493C3491.7584168594185,167.39837398373982,3499.5998510429613,92.35772357723577,3507.452026917166,75.04065040650406C3515.3042027913707,57.72357723577235,3523.1671203562382,98.13008130081299,3531.0192962304427,95.24390243902437C3538.871472104647,92.35772357723575,3546.7129062881895,46.17886178861787,3554.5543404717323,46.17886178861787C3562.395774655274,46.17886178861787,3570.2372088388165,92.35772357723575,3578.0786430223593,138.53658536585363C3585.920077205901,184.71544715447152,3593.7615113894435,230.89430894308938,3601.6136872636484,242.4390243902439C3609.4658631378534,253.98373983739836,3617.32878070272,230.89430894308944,3625.180956576925,184.71544715447158C3633.03313245113,138.53658536585368,3640.874566634672,69.26829268292684,3648.7160008182145,51.95121951219513C3656.557435001757,34.63414634146342,3664.398869185299,69.26829268292684,3672.2403033688415,89.47154471544717C3680.0817375523843,109.67479674796749,3687.9231717359266,115.44715447154474,3695.775347610131,118.33333333333336C3703.627523484336,121.21951219512198,3711.490441049203,121.21951219512198,3719.342616923408,152.96747967479675C3727.1947927976125,184.71544715447155,3735.036226981155,248.21138211382112,3742.877661164697,251.09756097560975C3750.7190953482395,253.98373983739833,3758.560529531782,196.26016260162598,3766.401963715324,155.85365853658533C3774.2433978988665,115.44715447154468,3782.084832082409,92.35772357723575,3789.9370079566133,92.35772357723575C3797.7891838308183,92.35772357723575,3805.6521013956853,115.44715447154468,3813.50427726989,135.65040650406502C3821.3564531440948,155.85365853658533,3829.197887327637,173.17073170731706,3837.03932151118,176.0569105691057C3844.8807556947218,178.9430894308943,3852.722189878264,167.39837398373982,3860.563624061806,161.62601626016257C3868.4050582453488,155.85365853658536,3876.246492428891,155.85365853658536,3884.098668303096,144.3089430894309C3891.9508441773005,132.7642276422764,3899.8137617421676,109.67479674796746,3907.665937616372,109.67479674796746C3915.518113490577,109.67479674796746,3923.3595476741193,132.7642276422764,3931.2009818576616,126.99186991869917C3939.042416041204,121.21951219512192,3946.8838502247463,86.58536585365852,3954.7252844082886,83.69918699186988C3962.566718591831,80.81300813008127,3970.4081527753733,109.67479674796743,3978.260328649578,164.5121951219512C3986.1125045237827,219.34959349593493,3993.97542208865,300.1626016260163,4001.8275979628547,349.2276422764228C4009.6797738370597,398.2926829268293,4017.521208020602,415.609756097561,4025.362642204145,418.4959349593496C4033.2040763876867,421.3821138211382,4041.045510571229,409.8373983739837,4048.886944754772,435.81300813008124C4056.7283789383137,461.7886178861788,4064.569813121856,525.2845528455284,4072.421988996061,568.5772357723577C4080.274164870266,611.869918699187,4088.1370824351325,634.959349593496,4092.0685412175662,646.5040650406504L4096,658.048780487805L4096,710L4092.0685412175662,710C4088.1370824351325,710,4080.274164870266,710,4072.421988996061,710C4064.569813121856,710,4056.7283789383137,710,4048.886944754772,710C4041.045510571229,710,4033.2040763876867,710,4025.3626422041443,710C4017.521208020602,710,4009.6797738370597,710,4001.8275979628547,710C3993.97542208865,710,3986.1125045237827,710,3978.260328649578,710C3970.4081527753733,710,3962.566718591831,710,3954.7252844082886,710C3946.8838502247463,710,3939.042416041204,710,3931.2009818576616,710C3923.3595476741193,710,3915.518113490577,710,3907.6659376163725,710C3899.8137617421676,710,3891.9508441773005,710,3884.098668303096,710C3876.246492428891,710,3868.4050582453488,710,3860.563624061806,710C3852.722189878264,710,3844.8807556947218,710,3837.03932151118,710C3829.197887327637,710,3821.3564531440948,710,3813.50427726989,710C3805.6521013956853,710,3797.7891838308183,710,3789.937007956614,710C3782.084832082409,710,3774.2433978988665,710,3766.401963715324,710C3758.560529531782,710,3750.7190953482395,710,3742.877661164697,710C3735.036226981155,710,3727.1947927976125,710,3719.342616923408,710C3711.490441049203,710,3703.627523484336,710,3695.7753476101316,710C3687.9231717359266,710,3680.0817375523843,710,3672.240303368842,710C3664.398869185299,710,3656.557435001757,710,3648.7160008182145,710C3640.874566634672,710,3633.03313245113,710,3625.180956576925,710C3617.32878070272,710,3609.4658631378534,710,3601.6136872636484,710C3593.7615113894435,710,3585.920077205901,710,3578.0786430223593,710C3570.2372088388165,710,3562.395774655274,710,3554.5543404717323,710C3546.7129062881895,710,3538.871472104647,710,3531.0192962304427,710C3523.1671203562382,710,3515.3042027913707,710,3507.452026917166,710C3499.5998510429613,710,3491.7584168594185,710,3483.916982675876,710C3476.075548492334,710,3468.2341143087915,710,3460.392680125249,710C3452.551245941707,710,3444.7098117581645,710,3436.85763588396,710C3429.005460009755,710,3421.142542444888,710,3413.2903665706835,710C3405.4381906964786,710,3397.5967565129363,710,3389.7553223293944,710C3381.9138881458516,710,3374.0724539623093,710,3366.2310197787665,710C3358.3895855952246,710,3350.5481514116823,710,3342.695975537478,710C3334.843799663273,710,3326.980882098406,710,3319.128706224201,710C3311.2765303499964,710,3303.435096166454,710,3295.5936619829117,710C3287.7522277993694,710,3279.910793615827,710,3272.0693594322847,710C3264.2279252487424,710,3256.3864910652,710,3248.5343151909956,710C3240.6821393167907,710,3232.8192217519236,710,3224.967045877719,710C3217.114870003514,710,3209.273435819972,710,3201.432001636429,710C3193.590567452887,710,3185.749133269345,710,3177.907699085803,710C3170.06626490226,710,3162.224830718718,710,3154.372654844513,710C3146.5204789703084,710,3138.657561405441,710,3130.805385531236,710C3122.953209657031,710,3115.1117754734887,710,3107.270341289947,710C3099.428907106404,710,3091.5874729228617,710,3083.74603873932,710C3075.904604555777,710,3068.0631703722347,710,3060.2109944980302,710C3052.3588186238258,710,3044.495901058958,710,3036.6437251847537,710C3028.7915493105493,710,3020.950115127007,710,3013.108680943464,710C3005.2672467599223,710,2997.42581257638,710,2989.584378392837,710C2981.7429442092953,710,2973.901510025753,710,2966.049334151548,710C2958.197158277343,710,2950.334240712476,710,2942.4820648382715,710C2934.6298889640666,710,2926.7884547805243,710,2918.947020596982,710C2911.1055864134396,710,2903.2641522298973,710,2895.422718046355,710C2887.5812838628126,710,2879.7398496792703,710,2871.8876738050653,710C2864.035497930861,710,2856.172580365994,710,2848.320404491789,710C2840.4682286175844,710,2832.626794434042,710,2824.7853602504997,710C2816.9439260669574,710,2809.102491883415,710,2801.2610576998727,710C2793.4196235163304,710,2785.578189332788,710,2777.726013458583,710C2769.8738375843786,710,2762.010920019511,710,2754.1587441453066,710C2746.3065682711017,710,2738.4651340875594,710,2730.6236999040175,710C2722.7822657204747,710,2714.9408315369324,710,2707.0993973533896,710C2699.2579631698477,710,2691.4165289863054,710,2683.564353112101,710C2675.712177237896,710,2667.849259673029,710,2659.997083798824,710C2652.1449079246195,710,2644.303473741077,710,2636.462039557535,710C2628.6206053739925,710,2620.77917119045,710,2612.937737006908,710C2605.0963028233655,710,2597.254868639823,710,2589.402692765618,710C2581.5505168914133,710,2573.687599326546,710,2565.8354234523413,710C2557.983247578137,710,2550.1418133945945,710,2542.3003792110517,710C2534.45894502751,710,2526.6175108439675,710,2518.7760766604247,710C2510.934642476883,710,2503.0932082933405,710,2495.2410324191355,710C2487.3888565449306,710,2479.525938980064,710,2471.673763105859,710C2463.821587231654,710,2455.980153048112,710,2448.13871886457,710C2440.297284681027,710,2432.455850497485,710,2424.614416313943,710C2416.7729821304,710,2408.931547946858,710,2401.079372072653,710C2393.2271961984484,710,2385.3642786335813,710,2377.5121027593764,710C2369.659926885172,710,2361.8184927016296,710,2353.9770585180872,710C2346.135624334545,710,2338.2941901510026,710,2330.4527559674602,710C2322.611321783918,710,2314.7698876003756,710,2306.9177117261706,710C2299.065535851966,710,2291.202618287099,710,2283.350442412894,710C2275.4982665386897,710,2267.6568323551473,710,2255.8946810798334,710C2244.1325298045203,710,2228.449661437435,710,2212.756051379688,710C2197.062441321941,710,2181.3580895735317,710,2169.585196607556,710C2157.81230364158,710,2149.9708694580377,710,2142.1294352744953,710C2134.288001090953,710,2126.4465669074107,710,2118.594391033206,710C2110.7422151590013,710,2102.879297594134,710,2095.0271217199293,710C2087.1749458457243,710,2079.333511662182,710,2071.4920774786397,710C2063.6506432950973,710,2055.809209111555,710,2040.1155990538082,710C2024.421988996061,710,2000.8762030641092,710,1985.182593006362,710C1969.4889829486149,710,1961.6475487650725,710,1953.8061145815304,710C1945.9646803979879,710,1938.1232462144455,710,1930.2710703402408,710C1922.4188944660361,710,1914.555976901169,710,1902.7830839351932,710C1891.0101909692173,710,1875.3273226021327,710,1863.565171326819,710C1851.8030200515057,710,1843.9615858679633,710,1836.1094099937584,710C1828.2572341195537,710,1820.3943165546866,710,1812.542140680482,710C1804.6899648062772,710,1796.8485306227349,710,1789.0070964391923,710C1781.1656622556502,710,1773.3242280721079,710,1765.4827938885653,710C1757.641359705023,710,1749.7999255214804,710,1738.0270325555045,710C1726.2541395895287,710,1710.5497878411193,710,1698.7768948751434,710C1687.0040019091675,710,1679.1625677256252,710,1663.4689576678782,710C1647.7753476101311,710,1624.2295616781794,710,1608.5359516204323,710C1592.8423415626853,710,1585.0009073791427,710,1577.1594731956004,710C1569.3180390120579,710,1561.4766048285155,710,1553.624428954311,710C1545.772253080106,710,1537.909335515239,710,1530.0571596410346,710C1522.2049837668296,710,1514.3635495832873,710,1498.6699395255405,710C1482.9763294677932,710,1459.4305435358415,710,1435.8954992945519,710C1412.3604550532627,710,1388.8361525026355,710,1361.3911328602376,710C1333.9461132178392,710,1302.5803764836699,710,1282.9660493341514,710C1263.3517221846332,710,1255.4888046197661,710,1247.6366287455614,710C1239.7844528713567,710,1231.9430186878144,710,1220.1808674125007,710C1208.4187161371872,710,1192.7358477701025,710,1180.9629548041266,710C1169.1900618381508,710,1161.3271442732837,710,1137.7813583413317,710C1114.23557240938,710,1075.0069181103436,710,1051.4718738690542,710C1027.9368296277648,710,1020.0953954442224,710,1012.2539612606801,710C1004.4125270771376,710,996.5710928935953,710,976.9567657440771,710C957.3424385945589,710,925.9552184790648,710,906.3301496388841,710C886.7050807987034,710,878.8421632338362,710,863.1485531760892,710C847.454943118342,710,823.930640567715,710,808.237030509968,710C792.543420452221,710,784.6805028873538,710,765.0554340471731,710C745.4303652069925,710,714.0431450914984,710,690.5081008502091,710C666.9730566089196,710,651.2901882418349,710,635.5965781840878,710C619.9029681263407,710,604.1986163779313,710,592.4257234119553,710C580.6528304459795,710,572.8113962624371,710,564.9699620788947,710C557.1285278953524,710,549.28709371181,710,541.4456595282677,710C533.6042253447254,710,525.762791161183,710,517.9106152869783,710C510.05843941277357,710,502.19552184790643,710,494.34334597370173,710C486.49117009949697,710,478.64973591595464,710,459.03540876643643,710C439.4210816169182,710,408.033861501424,710,333.48652830445974,710C258.93919510749555,710,141.2317488290613,710,78.457308598073,710C15.682868367084689,710,7.8414341835423444,710,3.9207170917711722,710L0,710Z" style="fill: rgb(191, 105, 105);"></path><text x="4090" y="704" style="font-size: 10px; fill: rgb(34, 34, 34); font-family: Arial, Helvetica; text-anchor: end;">Athée</text></g><g class="flow" title="Religieuse" transform="translate(0,715)"><path class="area" d="M0,692.6829268292682L3.9207170917711722,692.6829268292684C7.8414341835423444,692.6829268292682,15.682868367084689,692.6829268292682,78.457308598073,692.6829268292684C141.2317488290613,692.6829268292682,258.93919510749555,692.6829268292682,333.48652830445974,695.569105691057C408.033861501424,698.4552845528455,439.4210816169182,704.2276422764228,459.0354087664364,707.1138211382114C478.64973591595464,710,486.49117009949697,710,494.34334597370173,707.1138211382113C502.19552184790643,704.2276422764228,510.05843941277357,698.4552845528455,517.9106152869783,698.4552845528456C525.762791161183,698.4552845528455,533.6042253447254,704.2276422764228,541.4456595282677,707.1138211382114C549.28709371181,710,557.1285278953524,710,564.9699620788948,710C572.8113962624371,710,580.6528304459795,710,592.4257234119553,710C604.1986163779313,710,619.9029681263407,710,635.5965781840878,707.1138211382113C651.2901882418349,704.2276422764228,666.9730566089196,698.4552845528455,690.508100850209,698.4552845528456C714.0431450914984,698.4552845528455,745.4303652069925,704.2276422764228,765.0554340471732,707.1138211382114C784.6805028873538,710,792.543420452221,710,808.237030509968,710C823.930640567715,710,847.454943118342,710,863.1485531760891,707.1138211382113C878.8421632338362,704.2276422764228,886.7050807987034,698.4552845528455,906.3301496388841,698.4552845528456C925.9552184790648,698.4552845528455,957.3424385945589,704.2276422764228,976.9567657440771,707.1138211382114C996.5710928935953,710,1004.4125270771376,710,1012.2539612606801,710C1020.0953954442224,710,1027.9368296277648,710,1051.4718738690542,710C1075.0069181103436,710,1114.23557240938,710,1137.781358341332,710C1161.3271442732837,710,1169.1900618381508,710,1180.9629548041266,710C1192.7358477701025,710,1208.4187161371872,710,1220.1808674125007,710C1231.9430186878144,710,1239.7844528713567,710,1247.6366287455612,707.1138211382113C1255.4888046197661,704.2276422764228,1263.3517221846332,698.4552845528455,1282.9660493341516,695.5691056910568C1302.5803764836699,692.6829268292682,1333.9461132178392,692.6829268292682,1361.3911328602373,692.6829268292684C1388.8361525026355,692.6829268292682,1412.3604550532627,692.6829268292682,1435.895499294552,695.569105691057C1459.4305435358415,698.4552845528455,1482.9763294677932,704.2276422764228,1498.6699395255405,704.2276422764228C1514.3635495832873,704.2276422764228,1522.2049837668296,698.4552845528455,1530.0571596410346,698.4552845528456C1537.909335515239,698.4552845528455,1545.772253080106,704.2276422764228,1553.624428954311,707.1138211382114C1561.4766048285155,710,1569.3180390120579,710,1577.1594731956004,710C1585.0009073791427,710,1592.8423415626853,710,1608.5359516204323,707.1138211382113C1624.2295616781794,704.2276422764228,1647.7753476101311,698.4552845528455,1663.4689576678782,698.4552845528456C1679.1625677256252,698.4552845528455,1687.0040019091675,704.2276422764228,1698.7768948751434,704.2276422764228C1710.5497878411193,704.2276422764228,1726.2541395895287,698.4552845528455,1738.0270325555045,698.4552845528456C1749.7999255214804,698.4552845528455,1757.641359705023,704.2276422764228,1765.4827938885653,707.1138211382114C1773.3242280721079,710,1781.1656622556502,710,1789.0070964391923,707.1138211382113C1796.8485306227349,704.2276422764228,1804.6899648062772,698.4552845528455,1812.5421406804817,698.4552845528456C1820.3943165546866,698.4552845528455,1828.2572341195537,704.2276422764228,1836.1094099937586,704.2276422764228C1843.9615858679633,704.2276422764228,1851.8030200515057,698.4552845528455,1863.565171326819,695.5691056910568C1875.3273226021327,692.6829268292682,1891.0101909692173,692.6829268292682,1902.7830839351932,695.569105691057C1914.555976901169,698.4552845528455,1922.4188944660361,704.2276422764228,1930.2710703402408,704.2276422764228C1938.1232462144455,704.2276422764228,1945.9646803979879,698.4552845528455,1953.8061145815304,698.4552845528456C1961.6475487650725,698.4552845528455,1969.4889829486149,704.2276422764228,1985.1825930063621,704.2276422764228C2000.8762030641092,704.2276422764228,2024.421988996061,698.4552845528455,2040.1155990538077,698.4552845528456C2055.809209111555,698.4552845528455,2063.6506432950973,704.2276422764228,2071.4920774786397,704.2276422764228C2079.333511662182,704.2276422764228,2087.1749458457243,698.4552845528455,2095.0271217199293,695.5691056910568C2102.879297594134,692.6829268292682,2110.7422151590013,692.6829268292682,2118.594391033206,695.569105691057C2126.4465669074107,698.4552845528455,2134.288001090953,704.2276422764228,2142.1294352744953,707.1138211382114C2149.9708694580377,710,2157.81230364158,710,2169.585196607556,707.1138211382113C2181.3580895735317,704.2276422764228,2197.062441321941,698.4552845528455,2212.7560513796884,695.5691056910568C2228.449661437435,692.6829268292682,2244.1325298045203,692.6829268292682,2255.894681079834,689.7967479674796C2267.6568323551473,686.910569105691,2275.4982665386897,681.1382113821138,2283.350442412894,684.0243902439025C2291.202618287099,686.910569105691,2299.065535851966,698.4552845528456,2306.9177117261706,704.2276422764228C2314.7698876003756,710,2322.611321783918,710,2330.4527559674602,707.1138211382113C2338.2941901510026,704.2276422764228,2346.135624334545,698.4552845528455,2353.9770585180872,695.5691056910568C2361.8184927016296,692.6829268292682,2369.659926885172,692.6829268292682,2377.5121027593764,684.0243902439024C2385.3642786335813,675.3658536585365,2393.2271961984484,658.0487804878048,2401.079372072653,652.2764227642276C2408.931547946858,646.5040650406504,2416.7729821304,652.2764227642276,2424.6144163139425,652.2764227642276C2432.455850497485,652.2764227642276,2440.297284681027,646.5040650406504,2448.13871886457,643.6178861788617C2455.980153048112,640.7317073170732,2463.821587231654,640.7317073170732,2471.673763105859,652.2764227642276C2479.525938980064,663.821138211382,2487.3888565449306,686.910569105691,2495.2410324191355,692.6829268292684C2503.0932082933405,698.4552845528456,2510.934642476883,686.910569105691,2518.7760766604247,678.2520325203252C2526.6175108439675,669.5934959349594,2534.45894502751,663.8211382113822,2542.3003792110517,666.7073170731708C2550.1418133945945,669.5934959349594,2557.983247578137,681.1382113821138,2565.8354234523413,689.7967479674797C2573.687599326546,698.4552845528455,2581.5505168914133,704.2276422764228,2589.402692765618,701.3414634146341C2597.254868639823,698.4552845528456,2605.0963028233655,686.910569105691,2612.937737006908,686.9105691056911C2620.77917119045,686.910569105691,2628.6206053739925,698.4552845528456,2636.462039557535,698.4552845528456C2644.303473741077,698.4552845528456,2652.1449079246195,686.910569105691,2659.997083798824,681.1382113821139C2667.849259673029,675.3658536585366,2675.712177237896,675.3658536585366,2683.5643531121004,678.2520325203252C2691.4165289863054,681.1382113821138,2699.2579631698477,686.910569105691,2707.0993973533896,686.9105691056909C2714.9408315369324,686.910569105691,2722.7822657204747,681.1382113821138,2730.6236999040175,672.479674796748C2738.4651340875594,663.821138211382,2746.3065682711017,652.2764227642276,2754.158744145306,658.048780487805C2762.010920019511,663.821138211382,2769.8738375843786,686.910569105691,2777.726013458583,684.0243902439024C2785.578189332788,681.1382113821138,2793.4196235163304,652.2764227642276,2801.2610576998727,652.2764227642276C2809.102491883415,652.2764227642276,2816.9439260669574,681.1382113821138,2824.7853602504997,684.0243902439024C2832.626794434042,686.910569105691,2840.4682286175844,663.821138211382,2848.3204044917893,655.1626016260163C2856.172580365994,646.5040650406504,2864.035497930861,652.2764227642276,2871.887673805066,649.390243902439C2879.7398496792703,646.5040650406504,2887.5812838628126,634.959349593496,2895.422718046355,617.6422764227642C2903.2641522298973,600.3252032520325,2911.1055864134396,577.2357723577235,2918.947020596982,585.8943089430893C2926.7884547805243,594.5528455284552,2934.6298889640666,634.959349593496,2942.482064838271,660.9349593495936C2950.334240712476,686.910569105691,2958.197158277343,698.4552845528456,2966.049334151548,692.6829268292682C2973.901510025753,686.910569105691,2981.7429442092953,663.821138211382,2989.584378392837,646.5040650406504C2997.42581257638,629.1869918699186,3005.2672467599223,617.6422764227642,3013.108680943464,611.869918699187C3020.950115127007,606.0975609756098,3028.7915493105493,606.0975609756098,3036.6437251847537,608.9837398373984C3044.495901058958,611.869918699187,3052.3588186238258,617.6422764227642,3060.2109944980302,629.1869918699188C3068.0631703722347,640.7317073170732,3075.904604555777,658.0487804878048,3083.74603873932,663.821138211382C3091.5874729228617,669.5934959349594,3099.428907106404,663.8211382113822,3107.270341289947,669.5934959349594C3115.1117754734887,675.3658536585366,3122.953209657031,692.6829268292684,3130.8053855312364,692.6829268292684C3138.657561405441,692.6829268292684,3146.5204789703084,675.3658536585366,3154.372654844513,660.9349593495936C3162.224830718718,646.5040650406504,3170.06626490226,634.959349593496,3177.907699085803,632.0731707317073C3185.749133269345,629.1869918699186,3193.590567452887,634.9593495934959,3201.432001636429,640.7317073170732C3209.273435819972,646.5040650406504,3217.114870003514,652.2764227642276,3224.967045877719,655.1626016260163C3232.8192217519236,658.048780487805,3240.6821393167907,658.048780487805,3248.534315190995,652.2764227642277C3256.3864910652,646.5040650406504,3264.2279252487424,634.959349593496,3272.0693594322847,632.0731707317073C3279.910793615827,629.1869918699186,3287.7522277993694,634.9593495934959,3295.5936619829117,623.4146341463414C3303.435096166454,611.8699186991869,3311.2765303499964,583.0081300813008,3319.128706224201,574.3495934959349C3326.980882098406,565.691056910569,3334.843799663273,577.2357723577236,3342.6959755374774,583.0081300813008C3350.5481514116823,588.780487804878,3358.3895855952246,588.780487804878,3366.2310197787665,600.3252032520325C3374.0724539623093,611.869918699187,3381.9138881458516,634.959349593496,3389.7553223293944,643.6178861788618C3397.5967565129363,652.2764227642276,3405.4381906964786,646.5040650406504,3413.290366570683,640.7317073170731C3421.142542444888,634.9593495934959,3429.005460009755,629.1869918699186,3436.85763588396,623.4146341463414C3444.7098117581645,617.6422764227642,3452.551245941707,611.869918699187,3460.392680125249,614.7560975609756C3468.2341143087915,617.6422764227642,3476.075548492334,629.1869918699186,3483.916982675876,620.5284552845528C3491.7584168594185,611.8699186991869,3499.5998510429613,583.0081300813008,3507.452026917166,577.2357723577235C3515.3042027913707,571.4634146341463,3523.1671203562382,588.780487804878,3531.0192962304427,606.0975609756097C3538.871472104647,623.4146341463415,3546.7129062881895,640.7317073170732,3554.5543404717323,649.3902439024391C3562.395774655274,658.048780487805,3570.2372088388165,658.048780487805,3578.0786430223593,655.1626016260163C3585.920077205901,652.2764227642276,3593.7615113894435,646.5040650406504,3601.6136872636484,646.5040650406504C3609.4658631378534,646.5040650406504,3617.32878070272,652.2764227642276,3625.180956576925,660.9349593495936C3633.03313245113,669.5934959349594,3640.874566634672,681.1382113821138,3648.7160008182145,681.1382113821139C3656.557435001757,681.1382113821138,3664.398869185299,669.5934959349594,3672.2403033688415,663.8211382113823C3680.0817375523843,658.048780487805,3687.9231717359266,658.048780487805,3695.775347610131,637.8455284552847C3703.627523484336,617.6422764227643,3711.490441049203,577.2357723577236,3719.342616923408,580.1219512195122C3727.1947927976125,583.0081300813008,3735.036226981155,629.1869918699188,3742.877661164697,646.5040650406504C3750.7190953482395,663.821138211382,3758.560529531782,652.2764227642276,3766.401963715324,652.2764227642276C3774.2433978988665,652.2764227642276,3782.084832082409,663.821138211382,3789.9370079566133,660.9349593495934C3797.7891838308183,658.0487804878048,3805.6521013956853,640.7317073170732,3813.50427726989,640.7317073170732C3821.3564531440948,640.7317073170732,3829.197887327637,658.0487804878048,3837.03932151118,663.821138211382C3844.8807556947218,669.5934959349594,3852.722189878264,663.8211382113822,3860.563624061806,660.9349593495936C3868.4050582453488,658.048780487805,3876.246492428891,658.048780487805,3884.098668303096,660.9349593495936C3891.9508441773005,663.8211382113822,3899.8137617421676,669.5934959349594,3907.665937616372,666.7073170731708C3915.518113490577,663.821138211382,3923.3595476741193,652.2764227642276,3931.2009818576616,652.2764227642276C3939.042416041204,652.2764227642276,3946.8838502247463,663.821138211382,3954.7252844082886,669.5934959349593C3962.566718591831,675.3658536585366,3970.4081527753733,675.3658536585366,3978.260328649578,681.1382113821138C3986.1125045237827,686.910569105691,3993.97542208865,698.4552845528456,4001.8275979628547,698.4552845528456C4009.6797738370597,698.4552845528456,4017.521208020602,686.910569105691,4025.362642204145,684.0243902439024C4033.2040763876867,681.1382113821138,4041.045510571229,686.910569105691,4048.886944754772,689.7967479674796C4056.7283789383137,692.6829268292682,4064.569813121856,692.6829268292682,4072.421988996061,695.569105691057C4080.274164870266,698.4552845528455,4088.1370824351325,704.2276422764228,4092.0685412175662,707.1138211382114L4096,710L4096,710L4092.0685412175662,710C4088.1370824351325,710,4080.274164870266,710,4072.421988996061,710C4064.569813121856,710,4056.7283789383137,710,4048.886944754772,710C4041.045510571229,710,4033.2040763876867,710,4025.3626422041443,710C4017.521208020602,710,4009.6797738370597,710,4001.8275979628547,710C3993.97542208865,710,3986.1125045237827,710,3978.260328649578,710C3970.4081527753733,710,3962.566718591831,710,3954.7252844082886,710C3946.8838502247463,710,3939.042416041204,710,3931.2009818576616,710C3923.3595476741193,710,3915.518113490577,710,3907.6659376163725,710C3899.8137617421676,710,3891.9508441773005,710,3884.098668303096,710C3876.246492428891,710,3868.4050582453488,710,3860.563624061806,710C3852.722189878264,710,3844.8807556947218,710,3837.03932151118,710C3829.197887327637,710,3821.3564531440948,710,3813.50427726989,710C3805.6521013956853,710,3797.7891838308183,710,3789.937007956614,710C3782.084832082409,710,3774.2433978988665,710,3766.401963715324,710C3758.560529531782,710,3750.7190953482395,710,3742.877661164697,710C3735.036226981155,710,3727.1947927976125,710,3719.342616923408,710C3711.490441049203,710,3703.627523484336,710,3695.7753476101316,710C3687.9231717359266,710,3680.0817375523843,710,3672.240303368842,710C3664.398869185299,710,3656.557435001757,710,3648.7160008182145,710C3640.874566634672,710,3633.03313245113,710,3625.180956576925,710C3617.32878070272,710,3609.4658631378534,710,3601.6136872636484,710C3593.7615113894435,710,3585.920077205901,710,3578.0786430223593,710C3570.2372088388165,710,3562.395774655274,710,3554.5543404717323,710C3546.7129062881895,710,3538.871472104647,710,3531.0192962304427,710C3523.1671203562382,710,3515.3042027913707,710,3507.452026917166,710C3499.5998510429613,710,3491.7584168594185,710,3483.916982675876,710C3476.075548492334,710,3468.2341143087915,710,3460.392680125249,710C3452.551245941707,710,3444.7098117581645,710,3436.85763588396,710C3429.005460009755,710,3421.142542444888,710,3413.2903665706835,710C3405.4381906964786,710,3397.5967565129363,710,3389.7553223293944,710C3381.9138881458516,710,3374.0724539623093,710,3366.2310197787665,710C3358.3895855952246,710,3350.5481514116823,710,3342.695975537478,710C3334.843799663273,710,3326.980882098406,710,3319.128706224201,710C3311.2765303499964,710,3303.435096166454,710,3295.5936619829117,710C3287.7522277993694,710,3279.910793615827,710,3272.0693594322847,710C3264.2279252487424,710,3256.3864910652,710,3248.5343151909956,710C3240.6821393167907,710,3232.8192217519236,710,3224.967045877719,710C3217.114870003514,710,3209.273435819972,710,3201.432001636429,710C3193.590567452887,710,3185.749133269345,710,3177.907699085803,710C3170.06626490226,710,3162.224830718718,710,3154.372654844513,710C3146.5204789703084,710,3138.657561405441,710,3130.805385531236,710C3122.953209657031,710,3115.1117754734887,710,3107.270341289947,710C3099.428907106404,710,3091.5874729228617,710,3083.74603873932,710C3075.904604555777,710,3068.0631703722347,710,3060.2109944980302,710C3052.3588186238258,710,3044.495901058958,710,3036.6437251847537,710C3028.7915493105493,710,3020.950115127007,710,3013.108680943464,710C3005.2672467599223,710,2997.42581257638,710,2989.584378392837,710C2981.7429442092953,710,2973.901510025753,710,2966.049334151548,710C2958.197158277343,710,2950.334240712476,710,2942.4820648382715,710C2934.6298889640666,710,2926.7884547805243,710,2918.947020596982,710C2911.1055864134396,710,2903.2641522298973,710,2895.422718046355,710C2887.5812838628126,710,2879.7398496792703,710,2871.8876738050653,710C2864.035497930861,710,2856.172580365994,710,2848.320404491789,710C2840.4682286175844,710,2832.626794434042,710,2824.7853602504997,710C2816.9439260669574,710,2809.102491883415,710,2801.2610576998727,710C2793.4196235163304,710,2785.578189332788,710,2777.726013458583,710C2769.8738375843786,710,2762.010920019511,710,2754.1587441453066,710C2746.3065682711017,710,2738.4651340875594,710,2730.6236999040175,710C2722.7822657204747,710,2714.9408315369324,710,2707.0993973533896,710C2699.2579631698477,710,2691.4165289863054,710,2683.564353112101,710C2675.712177237896,710,2667.849259673029,710,2659.997083798824,710C2652.1449079246195,710,2644.303473741077,710,2636.462039557535,710C2628.6206053739925,710,2620.77917119045,710,2612.937737006908,710C2605.0963028233655,710,2597.254868639823,710,2589.402692765618,710C2581.5505168914133,710,2573.687599326546,710,2565.8354234523413,710C2557.983247578137,710,2550.1418133945945,710,2542.3003792110517,710C2534.45894502751,710,2526.6175108439675,710,2518.7760766604247,710C2510.934642476883,710,2503.0932082933405,710,2495.2410324191355,710C2487.3888565449306,710,2479.525938980064,710,2471.673763105859,710C2463.821587231654,710,2455.980153048112,710,2448.13871886457,710C2440.297284681027,710,2432.455850497485,710,2424.614416313943,710C2416.7729821304,710,2408.931547946858,710,2401.079372072653,710C2393.2271961984484,710,2385.3642786335813,710,2377.5121027593764,710C2369.659926885172,710,2361.8184927016296,710,2353.9770585180872,710C2346.135624334545,710,2338.2941901510026,710,2330.4527559674602,710C2322.611321783918,710,2314.7698876003756,710,2306.9177117261706,710C2299.065535851966,710,2291.202618287099,710,2283.350442412894,710C2275.4982665386897,710,2267.6568323551473,710,2255.8946810798334,710C2244.1325298045203,710,2228.449661437435,710,2212.756051379688,710C2197.062441321941,710,2181.3580895735317,710,2169.585196607556,710C2157.81230364158,710,2149.9708694580377,710,2142.1294352744953,710C2134.288001090953,710,2126.4465669074107,710,2118.594391033206,710C2110.7422151590013,710,2102.879297594134,710,2095.0271217199293,710C2087.1749458457243,710,2079.333511662182,710,2071.4920774786397,710C2063.6506432950973,710,2055.809209111555,710,2040.1155990538082,710C2024.421988996061,710,2000.8762030641092,710,1985.182593006362,710C1969.4889829486149,710,1961.6475487650725,710,1953.8061145815304,710C1945.9646803979879,710,1938.1232462144455,710,1930.2710703402408,710C1922.4188944660361,710,1914.555976901169,710,1902.7830839351932,710C1891.0101909692173,710,1875.3273226021327,710,1863.565171326819,710C1851.8030200515057,710,1843.9615858679633,710,1836.1094099937584,710C1828.2572341195537,710,1820.3943165546866,710,1812.542140680482,710C1804.6899648062772,710,1796.8485306227349,710,1789.0070964391923,710C1781.1656622556502,710,1773.3242280721079,710,1765.4827938885653,710C1757.641359705023,710,1749.7999255214804,710,1738.0270325555045,710C1726.2541395895287,710,1710.5497878411193,710,1698.7768948751434,710C1687.0040019091675,710,1679.1625677256252,710,1663.4689576678782,710C1647.7753476101311,710,1624.2295616781794,710,1608.5359516204323,710C1592.8423415626853,710,1585.0009073791427,710,1577.1594731956004,710C1569.3180390120579,710,1561.4766048285155,710,1553.624428954311,710C1545.772253080106,710,1537.909335515239,710,1530.0571596410346,710C1522.2049837668296,710,1514.3635495832873,710,1498.6699395255405,710C1482.9763294677932,710,1459.4305435358415,710,1435.8954992945519,710C1412.3604550532627,710,1388.8361525026355,710,1361.3911328602376,710C1333.9461132178392,710,1302.5803764836699,710,1282.9660493341514,710C1263.3517221846332,710,1255.4888046197661,710,1247.6366287455614,710C1239.7844528713567,710,1231.9430186878144,710,1220.1808674125007,710C1208.4187161371872,710,1192.7358477701025,710,1180.9629548041266,710C1169.1900618381508,710,1161.3271442732837,710,1137.7813583413317,710C1114.23557240938,710,1075.0069181103436,710,1051.4718738690542,710C1027.9368296277648,710,1020.0953954442224,710,1012.2539612606801,710C1004.4125270771376,710,996.5710928935953,710,976.9567657440771,710C957.3424385945589,710,925.9552184790648,710,906.3301496388841,710C886.7050807987034,710,878.8421632338362,710,863.1485531760892,710C847.454943118342,710,823.930640567715,710,808.237030509968,710C792.543420452221,710,784.6805028873538,710,765.0554340471731,710C745.4303652069925,710,714.0431450914984,710,690.5081008502091,710C666.9730566089196,710,651.2901882418349,710,635.5965781840878,710C619.9029681263407,710,604.1986163779313,710,592.4257234119553,710C580.6528304459795,710,572.8113962624371,710,564.9699620788947,710C557.1285278953524,710,549.28709371181,710,541.4456595282677,710C533.6042253447254,710,525.762791161183,710,517.9106152869783,710C510.05843941277357,710,502.19552184790643,710,494.34334597370173,710C486.49117009949697,710,478.64973591595464,710,459.03540876643643,710C439.4210816169182,710,408.033861501424,710,333.48652830445974,710C258.93919510749555,710,141.2317488290613,710,78.457308598073,710C15.682868367084689,710,7.8414341835423444,710,3.9207170917711722,710L0,710Z" style="fill: rgb(105, 191, 105);"></path><text x="4090" y="704" style="font-size: 10px; fill: rgb(34, 34, 34); font-family: Arial, Helvetica; text-anchor: end;">Religieuse</text></g><g class="flow" title="On sait pas" transform="translate(0,1430)"><path class="area" d="M0,710L3.9207170917711722,710C7.8414341835423444,710,15.682868367084689,710,78.457308598073,710C141.2317488290613,710,258.93919510749555,710,333.48652830445974,710C408.033861501424,710,439.4210816169182,710,459.0354087664364,710C478.64973591595464,710,486.49117009949697,710,494.34334597370173,710C502.19552184790643,710,510.05843941277357,710,517.9106152869783,710C525.762791161183,710,533.6042253447254,710,541.4456595282677,707.1138211382113C549.28709371181,704.2276422764228,557.1285278953524,698.4552845528455,564.9699620788948,695.5691056910568C572.8113962624371,692.6829268292682,580.6528304459795,692.6829268292682,592.4257234119553,695.569105691057C604.1986163779313,698.4552845528455,619.9029681263407,704.2276422764228,635.5965781840878,707.1138211382114C651.2901882418349,710,666.9730566089196,710,690.508100850209,707.1138211382113C714.0431450914984,704.2276422764228,745.4303652069925,698.4552845528455,765.0554340471732,695.5691056910568C784.6805028873538,692.6829268292682,792.543420452221,692.6829268292682,808.237030509968,695.569105691057C823.930640567715,698.4552845528455,847.454943118342,704.2276422764228,863.1485531760891,707.1138211382114C878.8421632338362,710,886.7050807987034,710,906.3301496388841,710C925.9552184790648,710,957.3424385945589,710,976.9567657440771,710C996.5710928935953,710,1004.4125270771376,710,1012.2539612606801,710C1020.0953954442224,710,1027.9368296277648,710,1051.4718738690542,710C1075.0069181103436,710,1114.23557240938,710,1137.781358341332,710C1161.3271442732837,710,1169.1900618381508,710,1180.9629548041266,710C1192.7358477701025,710,1208.4187161371872,710,1220.1808674125007,710C1231.9430186878144,710,1239.7844528713567,710,1247.6366287455612,710C1255.4888046197661,710,1263.3517221846332,710,1282.9660493341516,710C1302.5803764836699,710,1333.9461132178392,710,1361.3911328602373,710C1388.8361525026355,710,1412.3604550532627,710,1435.895499294552,710C1459.4305435358415,710,1482.9763294677932,710,1498.6699395255405,710C1514.3635495832873,710,1522.2049837668296,710,1530.0571596410346,710C1537.909335515239,710,1545.772253080106,710,1553.624428954311,710C1561.4766048285155,710,1569.3180390120579,710,1577.1594731956004,710C1585.0009073791427,710,1592.8423415626853,710,1608.5359516204323,710C1624.2295616781794,710,1647.7753476101311,710,1663.4689576678782,710C1679.1625677256252,710,1687.0040019091675,710,1698.7768948751434,707.1138211382113C1710.5497878411193,704.2276422764228,1726.2541395895287,698.4552845528455,1738.0270325555045,698.4552845528456C1749.7999255214804,698.4552845528455,1757.641359705023,704.2276422764228,1765.4827938885653,701.3414634146341C1773.3242280721079,698.4552845528456,1781.1656622556502,686.910569105691,1789.0070964391923,686.9105691056911C1796.8485306227349,686.910569105691,1804.6899648062772,698.4552845528456,1812.5421406804817,701.3414634146341C1820.3943165546866,704.2276422764228,1828.2572341195537,698.4552845528455,1836.1094099937586,695.5691056910568C1843.9615858679633,692.6829268292682,1851.8030200515057,692.6829268292682,1863.565171326819,695.569105691057C1875.3273226021327,698.4552845528455,1891.0101909692173,704.2276422764228,1902.7830839351932,707.1138211382114C1914.555976901169,710,1922.4188944660361,710,1930.2710703402408,707.1138211382113C1938.1232462144455,704.2276422764228,1945.9646803979879,698.4552845528455,1953.8061145815304,698.4552845528456C1961.6475487650725,698.4552845528455,1969.4889829486149,704.2276422764228,1985.1825930063621,707.1138211382114C2000.8762030641092,710,2024.421988996061,710,2040.1155990538077,710C2055.809209111555,710,2063.6506432950973,710,2071.4920774786397,710C2079.333511662182,710,2087.1749458457243,710,2095.0271217199293,710C2102.879297594134,710,2110.7422151590013,710,2118.594391033206,707.1138211382113C2126.4465669074107,704.2276422764228,2134.288001090953,698.4552845528455,2142.1294352744953,698.4552845528456C2149.9708694580377,698.4552845528455,2157.81230364158,704.2276422764228,2169.585196607556,707.1138211382114C2181.3580895735317,710,2197.062441321941,710,2212.7560513796884,710C2228.449661437435,710,2244.1325298045203,710,2255.894681079834,710C2267.6568323551473,710,2275.4982665386897,710,2283.350442412894,707.1138211382113C2291.202618287099,704.2276422764228,2299.065535851966,698.4552845528455,2306.9177117261706,698.4552845528456C2314.7698876003756,698.4552845528455,2322.611321783918,704.2276422764228,2330.4527559674602,707.1138211382114C2338.2941901510026,710,2346.135624334545,710,2353.9770585180872,710C2361.8184927016296,710,2369.659926885172,710,2377.5121027593764,707.1138211382113C2385.3642786335813,704.2276422764228,2393.2271961984484,698.4552845528455,2401.079372072653,698.4552845528456C2408.931547946858,698.4552845528455,2416.7729821304,704.2276422764228,2424.6144163139425,707.1138211382114C2432.455850497485,710,2440.297284681027,710,2448.13871886457,710C2455.980153048112,710,2463.821587231654,710,2471.673763105859,710C2479.525938980064,710,2487.3888565449306,710,2495.2410324191355,707.1138211382113C2503.0932082933405,704.2276422764228,2510.934642476883,698.4552845528455,2518.7760766604247,698.4552845528456C2526.6175108439675,698.4552845528455,2534.45894502751,704.2276422764228,2542.3003792110517,707.1138211382114C2550.1418133945945,710,2557.983247578137,710,2565.8354234523413,710C2573.687599326546,710,2581.5505168914133,710,2589.402692765618,710C2597.254868639823,710,2605.0963028233655,710,2612.937737006908,710C2620.77917119045,710,2628.6206053739925,710,2636.462039557535,707.1138211382113C2644.303473741077,704.2276422764228,2652.1449079246195,698.4552845528455,2659.997083798824,695.5691056910568C2667.849259673029,692.6829268292682,2675.712177237896,692.6829268292682,2683.5643531121004,695.569105691057C2691.4165289863054,698.4552845528455,2699.2579631698477,704.2276422764228,2707.0993973533896,707.1138211382114C2714.9408315369324,710,2722.7822657204747,710,2730.6236999040175,707.1138211382113C2738.4651340875594,704.2276422764228,2746.3065682711017,698.4552845528455,2754.158744145306,698.4552845528456C2762.010920019511,698.4552845528455,2769.8738375843786,704.2276422764228,2777.726013458583,707.1138211382114C2785.578189332788,710,2793.4196235163304,710,2801.2610576998727,710C2809.102491883415,710,2816.9439260669574,710,2824.7853602504997,710C2832.626794434042,710,2840.4682286175844,710,2848.3204044917893,707.1138211382113C2856.172580365994,704.2276422764228,2864.035497930861,698.4552845528455,2871.887673805066,695.5691056910568C2879.7398496792703,692.6829268292682,2887.5812838628126,692.6829268292682,2895.422718046355,695.569105691057C2903.2641522298973,698.4552845528455,2911.1055864134396,704.2276422764228,2918.947020596982,707.1138211382114C2926.7884547805243,710,2934.6298889640666,710,2942.482064838271,710C2950.334240712476,710,2958.197158277343,710,2966.049334151548,710C2973.901510025753,710,2981.7429442092953,710,2989.584378392837,710C2997.42581257638,710,3005.2672467599223,710,3013.108680943464,710C3020.950115127007,710,3028.7915493105493,710,3036.6437251847537,710C3044.495901058958,710,3052.3588186238258,710,3060.2109944980302,710C3068.0631703722347,710,3075.904604555777,710,3083.74603873932,710C3091.5874729228617,710,3099.428907106404,710,3107.270341289947,710C3115.1117754734887,710,3122.953209657031,710,3130.8053855312364,704.2276422764228C3138.657561405441,698.4552845528456,3146.5204789703084,686.910569105691,3154.372654844513,684.0243902439024C3162.224830718718,681.1382113821138,3170.06626490226,686.910569105691,3177.907699085803,692.6829268292682C3185.749133269345,698.4552845528455,3193.590567452887,704.2276422764228,3201.432001636429,704.2276422764228C3209.273435819972,704.2276422764228,3217.114870003514,698.4552845528455,3224.967045877719,695.5691056910568C3232.8192217519236,692.6829268292682,3240.6821393167907,692.6829268292682,3248.534315190995,689.7967479674796C3256.3864910652,686.910569105691,3264.2279252487424,681.1382113821138,3272.0693594322847,684.0243902439025C3279.910793615827,686.910569105691,3287.7522277993694,698.4552845528456,3295.5936619829117,698.4552845528456C3303.435096166454,698.4552845528456,3311.2765303499964,686.910569105691,3319.128706224201,686.9105691056911C3326.980882098406,686.910569105691,3334.843799663273,698.4552845528456,3342.6959755374774,704.2276422764228C3350.5481514116823,710,3358.3895855952246,710,3366.2310197787665,710C3374.0724539623093,710,3381.9138881458516,710,3389.7553223293944,710C3397.5967565129363,710,3405.4381906964786,710,3413.290366570683,704.2276422764228C3421.142542444888,698.4552845528456,3429.005460009755,686.910569105691,3436.85763588396,686.9105691056911C3444.7098117581645,686.910569105691,3452.551245941707,698.4552845528456,3460.392680125249,701.3414634146341C3468.2341143087915,704.2276422764228,3476.075548492334,698.4552845528455,3483.916982675876,695.5691056910568C3491.7584168594185,692.6829268292682,3499.5998510429613,692.6829268292682,3507.452026917166,689.7967479674796C3515.3042027913707,686.910569105691,3523.1671203562382,681.1382113821138,3531.0192962304427,675.3658536585367C3538.871472104647,669.5934959349594,3546.7129062881895,663.8211382113822,3554.5543404717323,669.5934959349594C3562.395774655274,675.3658536585366,3570.2372088388165,692.6829268292684,3578.0786430223593,698.4552845528456C3585.920077205901,704.2276422764228,3593.7615113894435,698.4552845528455,3601.6136872636484,689.7967479674796C3609.4658631378534,681.1382113821138,3617.32878070272,669.5934959349594,3625.180956576925,666.7073170731708C3633.03313245113,663.8211382113822,3640.874566634672,669.5934959349594,3648.7160008182145,672.479674796748C3656.557435001757,675.3658536585366,3664.398869185299,675.3658536585366,3672.2403033688415,681.1382113821138C3680.0817375523843,686.910569105691,3687.9231717359266,698.4552845528456,3695.775347610131,704.2276422764228C3703.627523484336,710,3711.490441049203,710,3719.342616923408,710C3727.1947927976125,710,3735.036226981155,710,3742.877661164697,710C3750.7190953482395,710,3758.560529531782,710,3766.401963715324,710C3774.2433978988665,710,3782.084832082409,710,3789.9370079566133,707.1138211382113C3797.7891838308183,704.2276422764228,3805.6521013956853,698.4552845528455,3813.50427726989,698.4552845528456C3821.3564531440948,698.4552845528455,3829.197887327637,704.2276422764228,3837.03932151118,704.2276422764228C3844.8807556947218,704.2276422764228,3852.722189878264,698.4552845528455,3860.563624061806,698.4552845528456C3868.4050582453488,698.4552845528455,3876.246492428891,704.2276422764228,3884.098668303096,704.2276422764228C3891.9508441773005,704.2276422764228,3899.8137617421676,698.4552845528455,3907.665937616372,698.4552845528456C3915.518113490577,698.4552845528455,3923.3595476741193,704.2276422764228,3931.2009818576616,707.1138211382114C3939.042416041204,710,3946.8838502247463,710,3954.7252844082886,707.1138211382113C3962.566718591831,704.2276422764228,3970.4081527753733,698.4552845528455,3978.260328649578,689.7967479674796C3986.1125045237827,681.1382113821138,3993.97542208865,669.5934959349594,4001.8275979628547,669.5934959349595C4009.6797738370597,669.5934959349594,4017.521208020602,681.1382113821138,4025.362642204145,689.7967479674797C4033.2040763876867,698.4552845528455,4041.045510571229,704.2276422764228,4048.886944754772,707.1138211382114C4056.7283789383137,710,4064.569813121856,710,4072.421988996061,710C4080.274164870266,710,4088.1370824351325,710,4092.0685412175662,710L4096,710L4096,710L4092.0685412175662,710C4088.1370824351325,710,4080.274164870266,710,4072.421988996061,710C4064.569813121856,710,4056.7283789383137,710,4048.886944754772,710C4041.045510571229,710,4033.2040763876867,710,4025.3626422041443,710C4017.521208020602,710,4009.6797738370597,710,4001.8275979628547,710C3993.97542208865,710,3986.1125045237827,710,3978.260328649578,710C3970.4081527753733,710,3962.566718591831,710,3954.7252844082886,710C3946.8838502247463,710,3939.042416041204,710,3931.2009818576616,710C3923.3595476741193,710,3915.518113490577,710,3907.6659376163725,710C3899.8137617421676,710,3891.9508441773005,710,3884.098668303096,710C3876.246492428891,710,3868.4050582453488,710,3860.563624061806,710C3852.722189878264,710,3844.8807556947218,710,3837.03932151118,710C3829.197887327637,710,3821.3564531440948,710,3813.50427726989,710C3805.6521013956853,710,3797.7891838308183,710,3789.937007956614,710C3782.084832082409,710,3774.2433978988665,710,3766.401963715324,710C3758.560529531782,710,3750.7190953482395,710,3742.877661164697,710C3735.036226981155,710,3727.1947927976125,710,3719.342616923408,710C3711.490441049203,710,3703.627523484336,710,3695.7753476101316,710C3687.9231717359266,710,3680.0817375523843,710,3672.240303368842,710C3664.398869185299,710,3656.557435001757,710,3648.7160008182145,710C3640.874566634672,710,3633.03313245113,710,3625.180956576925,710C3617.32878070272,710,3609.4658631378534,710,3601.6136872636484,710C3593.7615113894435,710,3585.920077205901,710,3578.0786430223593,710C3570.2372088388165,710,3562.395774655274,710,3554.5543404717323,710C3546.7129062881895,710,3538.871472104647,710,3531.0192962304427,710C3523.1671203562382,710,3515.3042027913707,710,3507.452026917166,710C3499.5998510429613,710,3491.7584168594185,710,3483.916982675876,710C3476.075548492334,710,3468.2341143087915,710,3460.392680125249,710C3452.551245941707,710,3444.7098117581645,710,3436.85763588396,710C3429.005460009755,710,3421.142542444888,710,3413.2903665706835,710C3405.4381906964786,710,3397.5967565129363,710,3389.7553223293944,710C3381.9138881458516,710,3374.0724539623093,710,3366.2310197787665,710C3358.3895855952246,710,3350.5481514116823,710,3342.695975537478,710C3334.843799663273,710,3326.980882098406,710,3319.128706224201,710C3311.2765303499964,710,3303.435096166454,710,3295.5936619829117,710C3287.7522277993694,710,3279.910793615827,710,3272.0693594322847,710C3264.2279252487424,710,3256.3864910652,710,3248.5343151909956,710C3240.6821393167907,710,3232.8192217519236,710,3224.967045877719,710C3217.114870003514,710,3209.273435819972,710,3201.432001636429,710C3193.590567452887,710,3185.749133269345,710,3177.907699085803,710C3170.06626490226,710,3162.224830718718,710,3154.372654844513,710C3146.5204789703084,710,3138.657561405441,710,3130.805385531236,710C3122.953209657031,710,3115.1117754734887,710,3107.270341289947,710C3099.428907106404,710,3091.5874729228617,710,3083.74603873932,710C3075.904604555777,710,3068.0631703722347,710,3060.2109944980302,710C3052.3588186238258,710,3044.495901058958,710,3036.6437251847537,710C3028.7915493105493,710,3020.950115127007,710,3013.108680943464,710C3005.2672467599223,710,2997.42581257638,710,2989.584378392837,710C2981.7429442092953,710,2973.901510025753,710,2966.049334151548,710C2958.197158277343,710,2950.334240712476,710,2942.4820648382715,710C2934.6298889640666,710,2926.7884547805243,710,2918.947020596982,710C2911.1055864134396,710,2903.2641522298973,710,2895.422718046355,710C2887.5812838628126,710,2879.7398496792703,710,2871.8876738050653,710C2864.035497930861,710,2856.172580365994,710,2848.320404491789,710C2840.4682286175844,710,2832.626794434042,710,2824.7853602504997,710C2816.9439260669574,710,2809.102491883415,710,2801.2610576998727,710C2793.4196235163304,710,2785.578189332788,710,2777.726013458583,710C2769.8738375843786,710,2762.010920019511,710,2754.1587441453066,710C2746.3065682711017,710,2738.4651340875594,710,2730.6236999040175,710C2722.7822657204747,710,2714.9408315369324,710,2707.0993973533896,710C2699.2579631698477,710,2691.4165289863054,710,2683.564353112101,710C2675.712177237896,710,2667.849259673029,710,2659.997083798824,710C2652.1449079246195,710,2644.303473741077,710,2636.462039557535,710C2628.6206053739925,710,2620.77917119045,710,2612.937737006908,710C2605.0963028233655,710,2597.254868639823,710,2589.402692765618,710C2581.5505168914133,710,2573.687599326546,710,2565.8354234523413,710C2557.983247578137,710,2550.1418133945945,710,2542.3003792110517,710C2534.45894502751,710,2526.6175108439675,710,2518.7760766604247,710C2510.934642476883,710,2503.0932082933405,710,2495.2410324191355,710C2487.3888565449306,710,2479.525938980064,710,2471.673763105859,710C2463.821587231654,710,2455.980153048112,710,2448.13871886457,710C2440.297284681027,710,2432.455850497485,710,2424.614416313943,710C2416.7729821304,710,2408.931547946858,710,2401.079372072653,710C2393.2271961984484,710,2385.3642786335813,710,2377.5121027593764,710C2369.659926885172,710,2361.8184927016296,710,2353.9770585180872,710C2346.135624334545,710,2338.2941901510026,710,2330.4527559674602,710C2322.611321783918,710,2314.7698876003756,710,2306.9177117261706,710C2299.065535851966,710,2291.202618287099,710,2283.350442412894,710C2275.4982665386897,710,2267.6568323551473,710,2255.8946810798334,710C2244.1325298045203,710,2228.449661437435,710,2212.756051379688,710C2197.062441321941,710,2181.3580895735317,710,2169.585196607556,710C2157.81230364158,710,2149.9708694580377,710,2142.1294352744953,710C2134.288001090953,710,2126.4465669074107,710,2118.594391033206,710C2110.7422151590013,710,2102.879297594134,710,2095.0271217199293,710C2087.1749458457243,710,2079.333511662182,710,2071.4920774786397,710C2063.6506432950973,710,2055.809209111555,710,2040.1155990538082,710C2024.421988996061,710,2000.8762030641092,710,1985.182593006362,710C1969.4889829486149,710,1961.6475487650725,710,1953.8061145815304,710C1945.9646803979879,710,1938.1232462144455,710,1930.2710703402408,710C1922.4188944660361,710,1914.555976901169,710,1902.7830839351932,710C1891.0101909692173,710,1875.3273226021327,710,1863.565171326819,710C1851.8030200515057,710,1843.9615858679633,710,1836.1094099937584,710C1828.2572341195537,710,1820.3943165546866,710,1812.542140680482,710C1804.6899648062772,710,1796.8485306227349,710,1789.0070964391923,710C1781.1656622556502,710,1773.3242280721079,710,1765.4827938885653,710C1757.641359705023,710,1749.7999255214804,710,1738.0270325555045,710C1726.2541395895287,710,1710.5497878411193,710,1698.7768948751434,710C1687.0040019091675,710,1679.1625677256252,710,1663.4689576678782,710C1647.7753476101311,710,1624.2295616781794,710,1608.5359516204323,710C1592.8423415626853,710,1585.0009073791427,710,1577.1594731956004,710C1569.3180390120579,710,1561.4766048285155,710,1553.624428954311,710C1545.772253080106,710,1537.909335515239,710,1530.0571596410346,710C1522.2049837668296,710,1514.3635495832873,710,1498.6699395255405,710C1482.9763294677932,710,1459.4305435358415,710,1435.8954992945519,710C1412.3604550532627,710,1388.8361525026355,710,1361.3911328602376,710C1333.9461132178392,710,1302.5803764836699,710,1282.9660493341514,710C1263.3517221846332,710,1255.4888046197661,710,1247.6366287455614,710C1239.7844528713567,710,1231.9430186878144,710,1220.1808674125007,710C1208.4187161371872,710,1192.7358477701025,710,1180.9629548041266,710C1169.1900618381508,710,1161.3271442732837,710,1137.7813583413317,710C1114.23557240938,710,1075.0069181103436,710,1051.4718738690542,710C1027.9368296277648,710,1020.0953954442224,710,1012.2539612606801,710C1004.4125270771376,710,996.5710928935953,710,976.9567657440771,710C957.3424385945589,710,925.9552184790648,710,906.3301496388841,710C886.7050807987034,710,878.8421632338362,710,863.1485531760892,710C847.454943118342,710,823.930640567715,710,808.237030509968,710C792.543420452221,710,784.6805028873538,710,765.0554340471731,710C745.4303652069925,710,714.0431450914984,710,690.5081008502091,710C666.9730566089196,710,651.2901882418349,710,635.5965781840878,710C619.9029681263407,710,604.1986163779313,710,592.4257234119553,710C580.6528304459795,710,572.8113962624371,710,564.9699620788947,710C557.1285278953524,710,549.28709371181,710,541.4456595282677,710C533.6042253447254,710,525.762791161183,710,517.9106152869783,710C510.05843941277357,710,502.19552184790643,710,494.34334597370173,710C486.49117009949697,710,478.64973591595464,710,459.03540876643643,710C439.4210816169182,710,408.033861501424,710,333.48652830445974,710C258.93919510749555,710,141.2317488290613,710,78.457308598073,710C15.682868367084689,710,7.8414341835423444,710,3.9207170917711722,710L0,710Z" style="fill: rgb(105, 105, 191);"></path><text x="4090" y="704" style="font-size: 10px; fill: rgb(34, 34, 34); font-family: Arial, Helvetica; text-anchor: end;">On sait pas</text></g></svg>