<svg width="4096" height="2160" xmlns="http://www.w3.org/2000/svg" version="1.1"><g class="x axis" transform="translate(0,2145)" style="stroke-width: 1px; font-size: 10px; font-family: Arial, Helvetica;"><g class="tick" transform="translate(400.1709439365569,0)" style="opacity: 1;"><line y2="-2145" x2="0" style="shape-rendering: crispEdges; fill: none; stroke: rgb(204, 204, 204);"></line><text dy=".71em" y="3" x="0" style="text-anchor: middle;">1860</text></g><g class="tick" transform="translate(870.9792456689692,0)" style="opacity: 1;"><line y2="-2145" x2="0" style="shape-rendering: crispEdges; fill: none; stroke: rgb(204, 204, 204);"></line><text dy=".71em" y="3" x="0" style="text-anchor: middle;">1880</text></g><g class="tick" transform="translate(1341.7875474013815,0)" style="opacity: 1;"><line y2="-2145" x2="0" style="shape-rendering: crispEdges; fill: none; stroke: rgb(204, 204, 204);"></line><text dy=".71em" y="3" x="0" style="text-anchor: middle;">1900</text></g><g class="tick" transform="translate(1812.5313989898195,0)" style="opacity: 1;"><line y2="-2145" x2="0" style="shape-rendering: crispEdges; fill: none; stroke: rgb(204, 204, 204);"></line><text dy=".71em" y="3" x="0" style="text-anchor: middle;">1920</text></g><g class="tick" transform="translate(2283.339700722232,0)" style="opacity: 1;"><line y2="-2145" x2="0" style="shape-rendering: crispEdges; fill: none; stroke: rgb(204, 204, 204);"></line><text dy=".71em" y="3" x="0" style="text-anchor: middle;">1940</text></g><g class="tick" transform="translate(2754.148002454644,0)" style="opacity: 1;"><line y2="-2145" x2="0" style="shape-rendering: crispEdges; fill: none; stroke: rgb(204, 204, 204);"></line><text dy=".71em" y="3" x="0" style="text-anchor: middle;">1960</text></g><g class="tick" transform="translate(3224.9563041870565,0)" style="opacity: 1;"><line y2="-2145" x2="0" style="shape-rendering: crispEdges; fill: none; stroke: rgb(204, 204, 204);"></line><text dy=".71em" y="3" x="0" style="text-anchor: middle;">1980</text></g><g class="tick" transform="translate(3695.764605919469,0)" style="opacity: 1;"><line y2="-2145" x2="0" style="shape-rendering: crispEdges; fill: none; stroke: rgb(204, 204, 204);"></line><text dy=".71em" y="3" x="0" style="text-anchor: middle;">2000</text></g><path class="domain" d="M0,-2145V0H4096V-2145" style="shape-rendering: crispEdges; fill: none; stroke: rgb(204, 204, 204);"></path></g><g class="flow" title="Athée" transform="translate(0,0)"><path class="area" d="M0,355L3.9207170917711722,355C7.8414341835423444,355,15.682868367084689,355,78.457308598073,355C141.2317488290613,355,258.93919510749555,355,333.48652830445974,353.55691056910564C408.033861501424,352.1138211382114,439.4210816169182,349.2276422764227,459.0354087664364,347.7845528455284C478.64973591595464,346.3414634146341,486.49117009949697,346.3414634146341,494.34334597370173,344.8983739837398C502.19552184790643,343.4552845528455,510.05843941277357,340.5691056910569,517.9106152869783,340.56910569105696C525.762791161183,340.5691056910569,533.6042253447254,343.4552845528455,541.4456595282677,346.3414634146341C549.28709371181,349.2276422764227,557.1285278953524,352.1138211382114,564.9699620788948,353.5569105691057C572.8113962624371,355,580.6528304459795,355,592.4257234119553,353.55691056910564C604.1986163779313,352.1138211382114,619.9029681263407,349.2276422764227,635.5965781840878,349.2276422764228C651.2901882418349,349.2276422764227,666.9730566089196,352.1138211382114,690.508100850209,353.5569105691057C714.0431450914984,355,745.4303652069925,355,765.0554340471732,355C784.6805028873538,355,792.543420452221,355,808.237030509968,353.55691056910564C823.930640567715,352.1138211382114,847.454943118342,349.2276422764227,863.1485531760891,347.7845528455284C878.8421632338362,346.3414634146341,886.7050807987034,346.3414634146341,906.3301496388841,346.3414634146342C925.9552184790648,346.3414634146341,957.3424385945589,346.3414634146341,976.9567657440771,344.8983739837398C996.5710928935953,343.4552845528455,1004.4125270771376,340.5691056910569,1012.2539612606801,340.56910569105696C1020.0953954442224,340.5691056910569,1027.9368296277648,343.4552845528455,1051.4718738690542,344.8983739837398C1075.0069181103436,346.3414634146341,1114.23557240938,346.3414634146341,1137.781358341332,346.3414634146342C1161.3271442732837,346.3414634146341,1169.1900618381508,346.3414634146341,1180.9629548041266,346.3414634146342C1192.7358477701025,346.3414634146341,1208.4187161371872,346.3414634146341,1220.1808674125007,346.3414634146342C1231.9430186878144,346.3414634146341,1239.7844528713567,346.3414634146341,1247.6366287455612,347.7845528455285C1255.4888046197661,349.2276422764227,1263.3517221846332,352.1138211382114,1282.9660493341516,353.5569105691057C1302.5803764836699,355,1333.9461132178392,355,1361.3911328602373,353.55691056910564C1388.8361525026355,352.1138211382114,1412.3604550532627,349.2276422764227,1435.895499294552,347.7845528455284C1459.4305435358415,346.3414634146341,1482.9763294677932,346.3414634146341,1498.6699395255405,347.7845528455285C1514.3635495832873,349.2276422764227,1522.2049837668296,352.1138211382114,1530.0571596410346,350.67073170731703C1537.909335515239,349.2276422764228,1545.772253080106,343.4552845528455,1553.624428954311,342.0121951219512C1561.4766048285155,340.5691056910569,1569.3180390120579,343.4552845528455,1577.1594731956004,343.45528455284546C1585.0009073791427,343.4552845528455,1592.8423415626853,340.5691056910569,1608.5359516204323,339.1260162601626C1624.2295616781794,337.6829268292683,1647.7753476101311,337.6829268292683,1663.4689576678782,337.68292682926824C1679.1625677256252,337.6829268292683,1687.0040019091675,337.6829268292683,1698.7768948751434,339.1260162601626C1710.5497878411193,340.5691056910569,1726.2541395895287,343.4552845528455,1738.0270325555045,344.8983739837398C1749.7999255214804,346.3414634146341,1757.641359705023,346.3414634146341,1765.4827938885653,343.45528455284557C1773.3242280721079,340.5691056910569,1781.1656622556502,334.7967479674797,1789.0070964391923,333.3536585365854C1796.8485306227349,331.9105691056911,1804.6899648062772,334.7967479674797,1812.5421406804817,336.239837398374C1820.3943165546866,337.6829268292683,1828.2572341195537,337.6829268292683,1836.1094099937586,337.68292682926824C1843.9615858679633,337.6829268292683,1851.8030200515057,337.6829268292683,1863.565171326819,340.5691056910569C1875.3273226021327,343.4552845528455,1891.0101909692173,349.2276422764228,1902.7830839351932,350.67073170731703C1914.555976901169,352.1138211382114,1922.4188944660361,349.2276422764227,1930.2710703402408,349.2276422764228C1938.1232462144455,349.2276422764227,1945.9646803979879,352.1138211382114,1953.8061145815304,352.1138211382114C1961.6475487650725,352.1138211382114,1969.4889829486149,349.2276422764227,1985.1825930063621,347.7845528455284C2000.8762030641092,346.3414634146341,2024.421988996061,346.3414634146341,2040.1155990538077,346.3414634146342C2055.809209111555,346.3414634146341,2063.6506432950973,346.3414634146341,2071.4920774786397,343.45528455284557C2079.333511662182,340.5691056910569,2087.1749458457243,334.7967479674797,2095.0271217199293,334.79674796747975C2102.879297594134,334.7967479674797,2110.7422151590013,340.5691056910569,2118.594391033206,344.8983739837399C2126.4465669074107,349.2276422764227,2134.288001090953,352.1138211382114,2142.1294352744953,352.1138211382114C2149.9708694580377,352.1138211382114,2157.81230364158,349.2276422764227,2169.585196607556,343.4552845528455C2181.3580895735317,337.68292682926824,2197.062441321941,329.0243902439024,2212.7560513796884,326.1382113821138C2228.449661437435,323.2520325203252,2244.1325298045203,326.1382113821138,2255.894681079834,330.4674796747968C2267.6568323551473,334.7967479674797,2275.4982665386897,340.5691056910569,2283.350442412894,344.8983739837399C2291.202618287099,349.2276422764227,2299.065535851966,352.1138211382114,2306.9177117261706,350.67073170731703C2314.7698876003756,349.2276422764228,2322.611321783918,343.4552845528455,2330.4527559674602,342.0121951219512C2338.2941901510026,340.5691056910569,2346.135624334545,343.4552845528455,2353.9770585180872,344.8983739837398C2361.8184927016296,346.3414634146341,2369.659926885172,346.3414634146341,2377.5121027593764,329.0243902439024C2385.3642786335813,311.7073170731707,2393.2271961984484,277.07317073170725,2401.079372072653,272.74390243902434C2408.931547946858,268.4146341463414,2416.7729821304,294.390243902439,2424.6144163139425,305.9349593495935C2432.455850497485,317.47967479674793,2440.297284681027,314.5934959349593,2448.13871886457,313.150406504065C2455.980153048112,311.7073170731707,2463.821587231654,311.7073170731707,2471.673763105859,313.150406504065C2479.525938980064,314.5934959349593,2487.3888565449306,317.47967479674793,2495.2410324191355,313.150406504065C2503.0932082933405,308.8211382113821,2510.934642476883,297.2764227642276,2518.7760766604247,294.390243902439C2526.6175108439675,291.5040650406504,2534.45894502751,297.2764227642276,2542.3003792110517,304.4918699186992C2550.1418133945945,311.70731707317077,2557.983247578137,320.3658536585366,2565.8354234523413,326.1382113821138C2573.687599326546,331.9105691056911,2581.5505168914133,334.7967479674797,2589.402692765618,337.68292682926835C2597.254868639823,340.5691056910569,2605.0963028233655,343.4552845528455,2612.937737006908,343.45528455284546C2620.77917119045,343.4552845528455,2628.6206053739925,340.5691056910569,2636.462039557535,336.239837398374C2644.303473741077,331.910569105691,2652.1449079246195,326.1382113821138,2659.997083798824,324.69512195121956C2667.849259673029,323.2520325203252,2675.712177237896,326.1382113821138,2683.5643531121004,326.1382113821138C2691.4165289863054,326.1382113821138,2699.2579631698477,323.2520325203252,2707.0993973533896,326.1382113821138C2714.9408315369324,329.0243902439024,2722.7822657204747,337.68292682926824,2730.6236999040175,340.56910569105685C2738.4651340875594,343.4552845528455,2746.3065682711017,340.5691056910569,2754.158744145306,334.7967479674797C2762.010920019511,329.0243902439024,2769.8738375843786,320.3658536585366,2777.726013458583,317.47967479674793C2785.578189332788,314.5934959349593,2793.4196235163304,317.47967479674793,2801.2610576998727,310.2642276422764C2809.102491883415,303.04878048780483,2816.9439260669574,285.7317073170732,2824.7853602504997,284.2886178861788C2832.626794434042,282.8455284552845,2840.4682286175844,297.2764227642276,2848.3204044917893,292.94715447154465C2856.172580365994,288.61788617886174,2864.035497930861,265.5284552845528,2871.887673805066,262.6422764227642C2879.7398496792703,259.7560975609756,2887.5812838628126,277.0731707317073,2895.422718046355,284.2886178861788C2903.2641522298973,291.5040650406504,2911.1055864134396,288.6178861788618,2918.947020596982,284.2886178861789C2926.7884547805243,279.959349593496,2934.6298889640666,274.1869918699187,2942.482064838271,282.8455284552846C2950.334240712476,291.5040650406504,2958.197158277343,314.5934959349594,2966.049334151548,320.3658536585366C2973.901510025753,326.1382113821138,2981.7429442092953,314.5934959349594,2989.584378392837,308.8211382113821C2997.42581257638,303.0487804878049,3005.2672467599223,303.0487804878049,3013.108680943464,288.6178861788618C3020.950115127007,274.1869918699187,3028.7915493105493,245.3252032520325,3036.6437251847537,242.4390243902439C3044.495901058958,239.5528455284553,3052.3588186238258,262.6422764227642,3060.2109944980302,272.7439024390244C3068.0631703722347,282.8455284552846,3075.904604555777,279.9593495934959,3083.74603873932,282.8455284552845C3091.5874729228617,285.73170731707313,3099.428907106404,294.390243902439,3107.270341289947,297.2764227642276C3115.1117754734887,300.1626016260162,3122.953209657031,297.2764227642276,3130.8053855312364,298.7195121951219C3138.657561405441,300.1626016260162,3146.5204789703084,305.93495934959344,3154.372654844513,305.9349593495935C3162.224830718718,305.93495934959344,3170.06626490226,300.1626016260162,3177.907699085803,282.8455284552845C3185.749133269345,265.5284552845528,3193.590567452887,236.66666666666669,3201.432001636429,228.00813008130083C3209.273435819972,219.34959349593498,3217.114870003514,230.8943089430894,3224.967045877719,236.66666666666666C3232.8192217519236,242.43902439024384,3240.6821393167907,242.43902439024384,3248.534315190995,246.7682926829268C3256.3864910652,251.09756097560972,3264.2279252487424,259.7560975609756,3272.0693594322847,253.9837398373984C3279.910793615827,248.21138211382114,3287.7522277993694,228.00813008130083,3295.5936619829117,222.2357723577236C3303.435096166454,216.46341463414635,3311.2765303499964,225.12195121951217,3319.128706224201,229.45121951219505C3326.980882098406,233.780487804878,3334.843799663273,233.780487804878,3342.6959755374774,225.12195121951214C3350.5481514116823,216.46341463414632,3358.3895855952246,199.14634146341461,3366.2310197787665,200.58943089430895C3374.0724539623093,202.03252032520322,3381.9138881458516,222.23577235772353,3389.7553223293944,225.12195121951217C3397.5967565129363,228.00813008130078,3405.4381906964786,213.5772357723577,3413.290366570683,197.7032520325203C3421.142542444888,181.8292682926829,3429.005460009755,164.5121951219512,3436.85763588396,158.73983739837396C3444.7098117581645,152.96747967479675,3452.551245941707,158.73983739837396,3460.392680125249,154.41056910569102C3468.2341143087915,150.0813008130081,3476.075548492334,135.65040650406502,3483.916982675876,109.67479674796746C3491.7584168594185,83.69918699186991,3499.5998510429613,46.17886178861789,3507.452026917166,37.52032520325203C3515.3042027913707,28.861788617886177,3523.1671203562382,49.065040650406495,3531.0192962304427,47.621951219512184C3538.871472104647,46.17886178861787,3546.7129062881895,23.089430894308936,3554.5543404717323,23.089430894308936C3562.395774655274,23.089430894308936,3570.2372088388165,46.17886178861787,3578.0786430223593,69.26829268292681C3585.920077205901,92.35772357723576,3593.7615113894435,115.44715447154469,3601.6136872636484,121.21951219512195C3609.4658631378534,126.99186991869918,3617.32878070272,115.44715447154472,3625.180956576925,92.35772357723579C3633.03313245113,69.26829268292684,3640.874566634672,34.63414634146342,3648.7160008182145,25.975609756097565C3656.557435001757,17.31707317073171,3664.398869185299,34.63414634146342,3672.2403033688415,44.73577235772358C3680.0817375523843,54.837398373983746,3687.9231717359266,57.72357723577237,3695.775347610131,59.16666666666668C3703.627523484336,60.60975609756099,3711.490441049203,60.60975609756099,3719.342616923408,76.48373983739837C3727.1947927976125,92.35772357723577,3735.036226981155,124.10569105691056,3742.877661164697,125.54878048780488C3750.7190953482395,126.99186991869917,3758.560529531782,98.13008130081299,3766.401963715324,77.92682926829266C3774.2433978988665,57.72357723577234,3782.084832082409,46.17886178861787,3789.9370079566133,46.17886178861787C3797.7891838308183,46.17886178861787,3805.6521013956853,57.72357723577234,3813.50427726989,67.82520325203251C3821.3564531440948,77.92682926829266,3829.197887327637,86.58536585365853,3837.03932151118,88.02845528455285C3844.8807556947218,89.47154471544715,3852.722189878264,83.69918699186991,3860.563624061806,80.81300813008129C3868.4050582453488,77.92682926829268,3876.246492428891,77.92682926829268,3884.098668303096,72.15447154471545C3891.9508441773005,66.3821138211382,3899.8137617421676,54.83739837398373,3907.665937616372,54.83739837398373C3915.518113490577,54.83739837398373,3923.3595476741193,66.3821138211382,3931.2009818576616,63.49593495934958C3939.042416041204,60.60975609756096,3946.8838502247463,43.29268292682926,3954.7252844082886,41.84959349593494C3962.566718591831,40.406504065040636,3970.4081527753733,54.83739837398372,3978.260328649578,82.2560975609756C3986.1125045237827,109.67479674796746,3993.97542208865,150.08130081300814,4001.8275979628547,174.6138211382114C4009.6797738370597,199.14634146341464,4017.521208020602,207.8048780487805,4025.362642204145,209.2479674796748C4033.2040763876867,210.6910569105691,4041.045510571229,204.91869918699186,4048.886944754772,217.90650406504062C4056.7283789383137,230.8943089430894,4064.569813121856,262.6422764227642,4072.421988996061,284.2886178861788C4080.274164870266,305.9349593495935,4088.1370824351325,317.479674796748,4092.0685412175662,323.2520325203252L4096,329.0243902439025L4096,380.9756097560975L4092.0685412175662,386.74796747967474C4088.1370824351325,392.520325203252,4080.274164870266,404.06504065040644,4072.421988996061,425.7113821138211C4064.569813121856,447.3577235772358,4056.7283789383137,479.1056910569106,4048.886944754772,492.0934959349593C4041.045510571229,505.0813008130081,4033.2040763876867,499.30894308943084,4025.3626422041443,500.75203252032514C4017.521208020602,502.19512195121945,4009.6797738370597,510.8536585365853,4001.8275979628547,535.3861788617886C3993.97542208865,559.9186991869918,3986.1125045237827,600.3252032520325,3978.260328649578,627.7439024390244C3970.4081527753733,655.1626016260162,3962.566718591831,669.5934959349593,3954.7252844082886,668.150406504065C3946.8838502247463,666.7073170731708,3939.042416041204,649.390243902439,3931.2009818576616,646.5040650406504C3923.3595476741193,643.6178861788618,3915.518113490577,655.1626016260163,3907.6659376163725,655.1626016260163C3899.8137617421676,655.1626016260163,3891.9508441773005,643.6178861788618,3884.098668303096,637.8455284552846C3876.246492428891,632.0731707317073,3868.4050582453488,632.0731707317073,3860.563624061806,629.1869918699188C3852.722189878264,626.30081300813,3844.8807556947218,620.5284552845528,3837.03932151118,621.9715447154471C3829.197887327637,623.4146341463414,3821.3564531440948,632.0731707317073,3813.50427726989,642.1747967479675C3805.6521013956853,652.2764227642276,3797.7891838308183,663.821138211382,3789.937007956614,663.821138211382C3782.084832082409,663.821138211382,3774.2433978988665,652.2764227642276,3766.401963715324,632.0731707317074C3758.560529531782,611.8699186991869,3750.7190953482395,583.0081300813008,3742.877661164697,584.451219512195C3735.036226981155,585.8943089430893,3727.1947927976125,617.6422764227641,3719.342616923408,633.5162601626016C3711.490441049203,649.3902439024389,3703.627523484336,649.3902439024389,3695.7753476101316,650.8333333333333C3687.9231717359266,652.2764227642276,3680.0817375523843,655.1626016260161,3672.240303368842,665.2642276422764C3664.398869185299,675.3658536585365,3656.557435001757,692.6829268292682,3648.7160008182145,684.0243902439024C3640.874566634672,675.3658536585366,3633.03313245113,640.7317073170732,3625.180956576925,617.6422764227642C3617.32878070272,594.5528455284552,3609.4658631378534,583.0081300813008,3601.6136872636484,588.780487804878C3593.7615113894435,594.5528455284552,3585.920077205901,617.6422764227642,3578.0786430223593,640.7317073170732C3570.2372088388165,663.821138211382,3562.395774655274,686.910569105691,3554.5543404717323,686.910569105691C3546.7129062881895,686.910569105691,3538.871472104647,663.821138211382,3531.0192962304427,662.3780487804878C3523.1671203562382,660.9349593495934,3515.3042027913707,681.1382113821138,3507.452026917166,672.479674796748C3499.5998510429613,663.821138211382,3491.7584168594185,626.30081300813,3483.916982675876,600.3252032520325C3476.075548492334,574.3495934959349,3468.2341143087915,559.9186991869918,3460.392680125249,555.5894308943089C3452.551245941707,551.260162601626,3444.7098117581645,557.0325203252032,3436.85763588396,551.2601626016259C3429.005460009755,545.4878048780487,3421.142542444888,528.170731707317,3413.2903665706835,512.2967479674796C3405.4381906964786,496.4227642276423,3397.5967565129363,481.9918699186992,3389.7553223293944,484.8780487804878C3381.9138881458516,487.7642276422764,3374.0724539623093,507.9674796747967,3366.2310197787665,509.410569105691C3358.3895855952246,510.8536585365853,3350.5481514116823,493.5365853658536,3342.695975537478,484.8780487804878C3334.843799663273,476.219512195122,3326.980882098406,476.219512195122,3319.128706224201,480.5487804878049C3311.2765303499964,484.8780487804878,3303.435096166454,493.5365853658536,3295.5936619829117,487.7642276422764C3287.7522277993694,481.99186991869914,3279.910793615827,461.7886178861788,3272.0693594322847,456.0162601626016C3264.2279252487424,450.2439024390244,3256.3864910652,458.9024390243903,3248.5343151909956,463.23170731707324C3240.6821393167907,467.56097560975616,3232.8192217519236,467.56097560975616,3224.967045877719,473.33333333333337C3217.114870003514,479.1056910569106,3209.273435819972,490.650406504065,3201.432001636429,481.99186991869914C3193.590567452887,473.33333333333326,3185.749133269345,444.4715447154471,3177.907699085803,427.1544715447154C3170.06626490226,409.8373983739837,3162.224830718718,404.06504065040644,3154.372654844513,404.06504065040644C3146.5204789703084,404.06504065040644,3138.657561405441,409.8373983739837,3130.805385531236,411.280487804878C3122.953209657031,412.7235772357723,3115.1117754734887,409.83739837398366,3107.270341289947,412.72357723577227C3099.428907106404,415.60975609756093,3091.5874729228617,424.2682926829268,3083.74603873932,427.1544715447154C3075.904604555777,430.040650406504,3068.0631703722347,427.1544715447154,3060.2109944980302,437.2560975609756C3052.3588186238258,447.35772357723573,3044.495901058958,470.44715447154465,3036.6437251847537,467.56097560975604C3028.7915493105493,464.67479674796743,3020.950115127007,435.81300813008124,3013.108680943464,421.38211382113815C3005.2672467599223,406.95121951219505,2997.42581257638,406.95121951219505,2989.584378392837,401.17886178861784C2981.7429442092953,395.4065040650406,2973.901510025753,383.86178861788613,2966.049334151548,389.6341463414634C2958.197158277343,395.4065040650406,2950.334240712476,418.4959349593496,2942.4820648382715,427.1544715447154C2934.6298889640666,435.81300813008124,2926.7884547805243,430.040650406504,2918.947020596982,425.71138211382106C2911.1055864134396,421.3821138211382,2903.2641522298973,418.4959349593496,2895.422718046355,425.7113821138211C2887.5812838628126,432.9268292682927,2879.7398496792703,450.2439024390244,2871.8876738050653,447.3577235772358C2864.035497930861,444.4715447154472,2856.172580365994,421.3821138211382,2848.320404491789,417.05284552845524C2840.4682286175844,412.7235772357723,2832.626794434042,427.1544715447154,2824.7853602504997,425.7113821138211C2816.9439260669574,424.2682926829268,2809.102491883415,406.9512195121951,2801.2610576998727,399.7357723577236C2793.4196235163304,392.520325203252,2785.578189332788,395.4065040650406,2777.726013458583,392.520325203252C2769.8738375843786,389.6341463414634,2762.010920019511,380.9756097560975,2754.1587441453066,375.2032520325203C2746.3065682711017,369.43089430894304,2738.4651340875594,366.54471544715443,2730.6236999040175,369.4308943089431C2722.7822657204747,372.3170731707317,2714.9408315369324,380.9756097560976,2707.0993973533896,383.8617886178862C2699.2579631698477,386.7479674796748,2691.4165289863054,383.86178861788613,2683.564353112101,383.86178861788613C2675.712177237896,383.86178861788613,2667.849259673029,386.7479674796748,2659.997083798824,385.3048780487805C2652.1449079246195,383.8617886178862,2644.303473741077,378.0894308943089,2636.462039557535,373.760162601626C2628.6206053739925,369.43089430894304,2620.77917119045,366.54471544715443,2612.937737006908,366.5447154471545C2605.0963028233655,366.54471544715443,2597.254868639823,369.43089430894304,2589.402692765618,372.3170731707317C2581.5505168914133,375.20325203252025,2573.687599326546,378.08943089430886,2565.8354234523413,383.86178861788613C2557.983247578137,389.63414634146335,2550.1418133945945,398.29268292682923,2542.3003792110517,405.50813008130075C2534.45894502751,412.72357723577227,2526.6175108439675,418.49593495934954,2518.7760766604247,415.60975609756093C2510.934642476883,412.7235772357723,2503.0932082933405,401.17886178861784,2495.2410324191355,396.8495934959349C2487.3888565449306,392.520325203252,2479.525938980064,395.4065040650406,2471.673763105859,396.8495934959349C2463.821587231654,398.29268292682923,2455.980153048112,398.29268292682923,2448.13871886457,396.8495934959349C2440.297284681027,395.4065040650406,2432.455850497485,392.520325203252,2424.614416313943,404.0650406504065C2416.7729821304,415.609756097561,2408.931547946858,441.5853658536586,2401.079372072653,437.25609756097566C2393.2271961984484,432.92682926829275,2385.3642786335813,398.2926829268293,2377.5121027593764,380.9756097560976C2369.659926885172,363.6585365853658,2361.8184927016296,363.6585365853658,2353.9770585180872,365.1016260162602C2346.135624334545,366.54471544715443,2338.2941901510026,369.43089430894304,2330.4527559674602,367.9878048780488C2322.611321783918,366.54471544715443,2314.7698876003756,360.7723577235772,2306.9177117261706,359.3292682926829C2299.065535851966,357.8861788617886,2291.202618287099,360.7723577235772,2283.350442412894,365.1016260162602C2275.4982665386897,369.43089430894304,2267.6568323551473,375.20325203252025,2255.8946810798334,379.5325203252032C2244.1325298045203,383.86178861788613,2228.449661437435,386.7479674796748,2212.756051379688,383.8617886178862C2197.062441321941,380.9756097560976,2181.3580895735317,372.3170731707317,2169.585196607556,366.5447154471545C2157.81230364158,360.7723577235772,2149.9708694580377,357.8861788617886,2142.1294352744953,357.8861788617886C2134.288001090953,357.8861788617886,2126.4465669074107,360.7723577235772,2118.594391033206,365.1016260162602C2110.7422151590013,369.43089430894304,2102.879297594134,375.20325203252025,2095.0271217199293,375.2032520325203C2087.1749458457243,375.20325203252025,2079.333511662182,369.43089430894304,2071.4920774786397,366.5447154471545C2063.6506432950973,363.6585365853658,2055.809209111555,363.6585365853658,2040.1155990538082,363.6585365853659C2024.421988996061,363.6585365853658,2000.8762030641092,363.6585365853658,1985.182593006362,362.2154471544716C1969.4889829486149,360.7723577235772,1961.6475487650725,357.8861788617886,1953.8061145815304,357.8861788617886C1945.9646803979879,357.8861788617886,1938.1232462144455,360.7723577235772,1930.2710703402408,360.7723577235773C1922.4188944660361,360.7723577235772,1914.555976901169,357.8861788617886,1902.7830839351932,359.3292682926829C1891.0101909692173,360.7723577235772,1875.3273226021327,366.54471544715443,1863.565171326819,369.4308943089431C1851.8030200515057,372.31707317073165,1843.9615858679633,372.31707317073165,1836.1094099937584,372.3170731707317C1828.2572341195537,372.31707317073165,1820.3943165546866,372.31707317073165,1812.542140680482,373.760162601626C1804.6899648062772,375.20325203252025,1796.8485306227349,378.08943089430886,1789.0070964391923,376.6463414634146C1781.1656622556502,375.20325203252025,1773.3242280721079,369.43089430894304,1765.4827938885653,366.5447154471545C1757.641359705023,363.6585365853658,1749.7999255214804,363.6585365853658,1738.0270325555045,365.1016260162602C1726.2541395895287,366.54471544715443,1710.5497878411193,369.43089430894304,1698.7768948751434,370.8739837398374C1687.0040019091675,372.31707317073165,1679.1625677256252,372.31707317073165,1663.4689576678782,372.3170731707317C1647.7753476101311,372.31707317073165,1624.2295616781794,372.31707317073165,1608.5359516204323,370.8739837398374C1592.8423415626853,369.43089430894304,1585.0009073791427,366.54471544715443,1577.1594731956004,366.5447154471545C1569.3180390120579,366.54471544715443,1561.4766048285155,369.43089430894304,1553.624428954311,367.9878048780488C1545.772253080106,366.54471544715443,1537.909335515239,360.7723577235772,1530.0571596410346,359.3292682926829C1522.2049837668296,357.8861788617886,1514.3635495832873,360.7723577235772,1498.6699395255405,362.2154471544716C1482.9763294677932,363.6585365853658,1459.4305435358415,363.6585365853658,1435.8954992945519,362.2154471544716C1412.3604550532627,360.7723577235772,1388.8361525026355,357.8861788617886,1361.3911328602376,356.4430894308943C1333.9461132178392,355,1302.5803764836699,355,1282.9660493341514,356.4430894308943C1263.3517221846332,357.8861788617886,1255.4888046197661,360.7723577235772,1247.6366287455614,362.2154471544716C1239.7844528713567,363.6585365853658,1231.9430186878144,363.6585365853658,1220.1808674125007,363.6585365853659C1208.4187161371872,363.6585365853658,1192.7358477701025,363.6585365853658,1180.9629548041266,363.6585365853659C1169.1900618381508,363.6585365853658,1161.3271442732837,363.6585365853658,1137.7813583413317,363.6585365853659C1114.23557240938,363.6585365853658,1075.0069181103436,363.6585365853658,1051.4718738690542,365.1016260162602C1027.9368296277648,366.54471544715443,1020.0953954442224,369.43089430894304,1012.2539612606801,369.4308943089431C1004.4125270771376,369.43089430894304,996.5710928935953,366.54471544715443,976.9567657440771,365.1016260162602C957.3424385945589,363.6585365853658,925.9552184790648,363.6585365853658,906.3301496388841,363.6585365853659C886.7050807987034,363.6585365853658,878.8421632338362,363.6585365853658,863.1485531760892,362.2154471544716C847.454943118342,360.7723577235772,823.930640567715,357.8861788617886,808.237030509968,356.4430894308943C792.543420452221,355,784.6805028873538,355,765.0554340471731,355C745.4303652069925,355,714.0431450914984,355,690.5081008502091,356.4430894308943C666.9730566089196,357.8861788617886,651.2901882418349,360.7723577235772,635.5965781840878,360.7723577235773C619.9029681263407,360.7723577235772,604.1986163779313,357.8861788617886,592.4257234119553,356.4430894308943C580.6528304459795,355,572.8113962624371,355,564.9699620788947,356.4430894308943C557.1285278953524,357.8861788617886,549.28709371181,360.7723577235772,541.4456595282677,363.6585365853659C533.6042253447254,366.54471544715443,525.762791161183,369.43089430894304,517.9106152869783,369.4308943089431C510.05843941277357,369.43089430894304,502.19552184790643,366.54471544715443,494.34334597370173,365.1016260162602C486.49117009949697,363.6585365853658,478.64973591595464,363.6585365853658,459.03540876643643,362.2154471544716C439.4210816169182,360.7723577235772,408.033861501424,357.8861788617886,333.48652830445974,356.4430894308943C258.93919510749555,355,141.2317488290613,355,78.457308598073,355C15.682868367084689,355,7.8414341835423444,355,3.9207170917711722,355L0,355Z" style="fill: rgb(191, 105, 105);"></path><text x="4090" y="704" style="font-size: 10px; fill: rgb(34, 34, 34); font-family: Arial, Helvetica; text-anchor: end;">Athée</text></g><g class="flow" title="Religieuse" transform="translate(0,715)"><path class="area" d="M0,346.3414634146341L3.9207170917711722,346.3414634146342C7.8414341835423444,346.3414634146341,15.682868367084689,346.3414634146341,78.457308598073,346.3414634146342C141.2317488290613,346.3414634146341,258.93919510749555,346.3414634146341,333.48652830445974,347.7845528455285C408.033861501424,349.2276422764227,439.4210816169182,352.1138211382114,459.0354087664364,353.5569105691057C478.64973591595464,355,486.49117009949697,355,494.34334597370173,353.55691056910564C502.19552184790643,352.1138211382114,510.05843941277357,349.2276422764227,517.9106152869783,349.2276422764228C525.762791161183,349.2276422764227,533.6042253447254,352.1138211382114,541.4456595282677,353.5569105691057C549.28709371181,355,557.1285278953524,355,564.9699620788948,355C572.8113962624371,355,580.6528304459795,355,592.4257234119553,355C604.1986163779313,355,619.9029681263407,355,635.5965781840878,353.55691056910564C651.2901882418349,352.1138211382114,666.9730566089196,349.2276422764227,690.508100850209,349.2276422764228C714.0431450914984,349.2276422764227,745.4303652069925,352.1138211382114,765.0554340471732,353.5569105691057C784.6805028873538,355,792.543420452221,355,808.237030509968,355C823.930640567715,355,847.454943118342,355,863.1485531760891,353.55691056910564C878.8421632338362,352.1138211382114,886.7050807987034,349.2276422764227,906.3301496388841,349.2276422764228C925.9552184790648,349.2276422764227,957.3424385945589,352.1138211382114,976.9567657440771,353.5569105691057C996.5710928935953,355,1004.4125270771376,355,1012.2539612606801,355C1020.0953954442224,355,1027.9368296277648,355,1051.4718738690542,355C1075.0069181103436,355,1114.23557240938,355,1137.781358341332,355C1161.3271442732837,355,1169.1900618381508,355,1180.9629548041266,355C1192.7358477701025,355,1208.4187161371872,355,1220.1808674125007,355C1231.9430186878144,355,1239.7844528713567,355,1247.6366287455612,353.55691056910564C1255.4888046197661,352.1138211382114,1263.3517221846332,349.2276422764227,1282.9660493341516,347.7845528455284C1302.5803764836699,346.3414634146341,1333.9461132178392,346.3414634146341,1361.3911328602373,346.3414634146342C1388.8361525026355,346.3414634146341,1412.3604550532627,346.3414634146341,1435.895499294552,347.7845528455285C1459.4305435358415,349.2276422764227,1482.9763294677932,352.1138211382114,1498.6699395255405,352.1138211382114C1514.3635495832873,352.1138211382114,1522.2049837668296,349.2276422764227,1530.0571596410346,349.2276422764228C1537.909335515239,349.2276422764227,1545.772253080106,352.1138211382114,1553.624428954311,353.5569105691057C1561.4766048285155,355,1569.3180390120579,355,1577.1594731956004,355C1585.0009073791427,355,1592.8423415626853,355,1608.5359516204323,353.55691056910564C1624.2295616781794,352.1138211382114,1647.7753476101311,349.2276422764227,1663.4689576678782,349.2276422764228C1679.1625677256252,349.2276422764227,1687.0040019091675,352.1138211382114,1698.7768948751434,352.1138211382114C1710.5497878411193,352.1138211382114,1726.2541395895287,349.2276422764227,1738.0270325555045,349.2276422764228C1749.7999255214804,349.2276422764227,1757.641359705023,352.1138211382114,1765.4827938885653,353.5569105691057C1773.3242280721079,355,1781.1656622556502,355,1789.0070964391923,353.55691056910564C1796.8485306227349,352.1138211382114,1804.6899648062772,349.2276422764227,1812.5421406804817,349.2276422764228C1820.3943165546866,349.2276422764227,1828.2572341195537,352.1138211382114,1836.1094099937586,352.1138211382114C1843.9615858679633,352.1138211382114,1851.8030200515057,349.2276422764227,1863.565171326819,347.7845528455284C1875.3273226021327,346.3414634146341,1891.0101909692173,346.3414634146341,1902.7830839351932,347.7845528455285C1914.555976901169,349.2276422764227,1922.4188944660361,352.1138211382114,1930.2710703402408,352.1138211382114C1938.1232462144455,352.1138211382114,1945.9646803979879,349.2276422764227,1953.8061145815304,349.2276422764228C1961.6475487650725,349.2276422764227,1969.4889829486149,352.1138211382114,1985.1825930063621,352.1138211382114C2000.8762030641092,352.1138211382114,2024.421988996061,349.2276422764227,2040.1155990538077,349.2276422764228C2055.809209111555,349.2276422764227,2063.6506432950973,352.1138211382114,2071.4920774786397,352.1138211382114C2079.333511662182,352.1138211382114,2087.1749458457243,349.2276422764227,2095.0271217199293,347.7845528455284C2102.879297594134,346.3414634146341,2110.7422151590013,346.3414634146341,2118.594391033206,347.7845528455285C2126.4465669074107,349.2276422764227,2134.288001090953,352.1138211382114,2142.1294352744953,353.5569105691057C2149.9708694580377,355,2157.81230364158,355,2169.585196607556,353.55691056910564C2181.3580895735317,352.1138211382114,2197.062441321941,349.2276422764227,2212.7560513796884,347.7845528455284C2228.449661437435,346.3414634146341,2244.1325298045203,346.3414634146341,2255.894681079834,344.8983739837398C2267.6568323551473,343.4552845528455,2275.4982665386897,340.5691056910569,2283.350442412894,342.01219512195127C2291.202618287099,343.4552845528455,2299.065535851966,349.2276422764228,2306.9177117261706,352.1138211382114C2314.7698876003756,355,2322.611321783918,355,2330.4527559674602,353.55691056910564C2338.2941901510026,352.1138211382114,2346.135624334545,349.2276422764227,2353.9770585180872,347.7845528455284C2361.8184927016296,346.3414634146341,2369.659926885172,346.3414634146341,2377.5121027593764,342.0121951219512C2385.3642786335813,337.68292682926824,2393.2271961984484,329.0243902439024,2401.079372072653,326.1382113821138C2408.931547946858,323.2520325203252,2416.7729821304,326.1382113821138,2424.6144163139425,326.1382113821138C2432.455850497485,326.1382113821138,2440.297284681027,323.2520325203252,2448.13871886457,321.80894308943084C2455.980153048112,320.3658536585366,2463.821587231654,320.3658536585366,2471.673763105859,326.1382113821138C2479.525938980064,331.910569105691,2487.3888565449306,343.4552845528455,2495.2410324191355,346.3414634146342C2503.0932082933405,349.2276422764228,2510.934642476883,343.4552845528455,2518.7760766604247,339.1260162601626C2526.6175108439675,334.7967479674797,2534.45894502751,331.9105691056911,2542.3003792110517,333.3536585365854C2550.1418133945945,334.7967479674797,2557.983247578137,340.5691056910569,2565.8354234523413,344.8983739837399C2573.687599326546,349.2276422764227,2581.5505168914133,352.1138211382114,2589.402692765618,350.67073170731703C2597.254868639823,349.2276422764228,2605.0963028233655,343.4552845528455,2612.937737006908,343.45528455284557C2620.77917119045,343.4552845528455,2628.6206053739925,349.2276422764228,2636.462039557535,349.2276422764228C2644.303473741077,349.2276422764228,2652.1449079246195,343.4552845528455,2659.997083798824,340.56910569105696C2667.849259673029,337.6829268292683,2675.712177237896,337.6829268292683,2683.5643531121004,339.1260162601626C2691.4165289863054,340.5691056910569,2699.2579631698477,343.4552845528455,2707.0993973533896,343.45528455284546C2714.9408315369324,343.4552845528455,2722.7822657204747,340.5691056910569,2730.6236999040175,336.239837398374C2738.4651340875594,331.910569105691,2746.3065682711017,326.1382113821138,2754.158744145306,329.0243902439025C2762.010920019511,331.910569105691,2769.8738375843786,343.4552845528455,2777.726013458583,342.0121951219512C2785.578189332788,340.5691056910569,2793.4196235163304,326.1382113821138,2801.2610576998727,326.1382113821138C2809.102491883415,326.1382113821138,2816.9439260669574,340.5691056910569,2824.7853602504997,342.0121951219512C2832.626794434042,343.4552845528455,2840.4682286175844,331.910569105691,2848.3204044917893,327.58130081300817C2856.172580365994,323.2520325203252,2864.035497930861,326.1382113821138,2871.887673805066,324.6951219512195C2879.7398496792703,323.2520325203252,2887.5812838628126,317.479674796748,2895.422718046355,308.8211382113821C2903.2641522298973,300.1626016260162,2911.1055864134396,288.61788617886174,2918.947020596982,292.94715447154465C2926.7884547805243,297.2764227642276,2934.6298889640666,317.479674796748,2942.482064838271,330.4674796747968C2950.334240712476,343.4552845528455,2958.197158277343,349.2276422764228,2966.049334151548,346.3414634146341C2973.901510025753,343.4552845528455,2981.7429442092953,331.910569105691,2989.584378392837,323.2520325203252C2997.42581257638,314.5934959349593,3005.2672467599223,308.8211382113821,3013.108680943464,305.9349593495935C3020.950115127007,303.0487804878049,3028.7915493105493,303.0487804878049,3036.6437251847537,304.4918699186992C3044.495901058958,305.9349593495935,3052.3588186238258,308.8211382113821,3060.2109944980302,314.5934959349594C3068.0631703722347,320.3658536585366,3075.904604555777,329.0243902439024,3083.74603873932,331.910569105691C3091.5874729228617,334.7967479674797,3099.428907106404,331.9105691056911,3107.270341289947,334.7967479674797C3115.1117754734887,337.6829268292683,3122.953209657031,346.3414634146342,3130.8053855312364,346.3414634146342C3138.657561405441,346.3414634146342,3146.5204789703084,337.6829268292683,3154.372654844513,330.4674796747968C3162.224830718718,323.2520325203252,3170.06626490226,317.479674796748,3177.907699085803,316.0365853658536C3185.749133269345,314.5934959349593,3193.590567452887,317.47967479674793,3201.432001636429,320.3658536585366C3209.273435819972,323.2520325203252,3217.114870003514,326.1382113821138,3224.967045877719,327.58130081300817C3232.8192217519236,329.0243902439025,3240.6821393167907,329.0243902439025,3248.534315190995,326.13821138211387C3256.3864910652,323.2520325203252,3264.2279252487424,317.479674796748,3272.0693594322847,316.0365853658536C3279.910793615827,314.5934959349593,3287.7522277993694,317.47967479674793,3295.5936619829117,311.7073170731707C3303.435096166454,305.93495934959344,3311.2765303499964,291.5040650406504,3319.128706224201,287.17479674796743C3326.980882098406,282.8455284552845,3334.843799663273,288.6178861788618,3342.6959755374774,291.5040650406504C3350.5481514116823,294.390243902439,3358.3895855952246,294.390243902439,3366.2310197787665,300.1626016260162C3374.0724539623093,305.9349593495935,3381.9138881458516,317.479674796748,3389.7553223293944,321.8089430894309C3397.5967565129363,326.1382113821138,3405.4381906964786,323.2520325203252,3413.290366570683,320.36585365853654C3421.142542444888,317.47967479674793,3429.005460009755,314.5934959349593,3436.85763588396,311.7073170731707C3444.7098117581645,308.8211382113821,3452.551245941707,305.9349593495935,3460.392680125249,307.3780487804878C3468.2341143087915,308.8211382113821,3476.075548492334,314.5934959349593,3483.916982675876,310.2642276422764C3491.7584168594185,305.93495934959344,3499.5998510429613,291.5040650406504,3507.452026917166,288.61788617886174C3515.3042027913707,285.73170731707313,3523.1671203562382,294.390243902439,3531.0192962304427,303.04878048780483C3538.871472104647,311.70731707317077,3546.7129062881895,320.3658536585366,3554.5543404717323,324.69512195121956C3562.395774655274,329.0243902439025,3570.2372088388165,329.0243902439025,3578.0786430223593,327.58130081300817C3585.920077205901,326.1382113821138,3593.7615113894435,323.2520325203252,3601.6136872636484,323.2520325203252C3609.4658631378534,323.2520325203252,3617.32878070272,326.1382113821138,3625.180956576925,330.4674796747968C3633.03313245113,334.7967479674797,3640.874566634672,340.5691056910569,3648.7160008182145,340.56910569105696C3656.557435001757,340.5691056910569,3664.398869185299,334.7967479674797,3672.2403033688415,331.91056910569114C3680.0817375523843,329.0243902439025,3687.9231717359266,329.0243902439025,3695.775347610131,318.92276422764235C3703.627523484336,308.82113821138216,3711.490441049203,288.6178861788618,3719.342616923408,290.0609756097561C3727.1947927976125,291.5040650406504,3735.036226981155,314.5934959349594,3742.877661164697,323.2520325203252C3750.7190953482395,331.910569105691,3758.560529531782,326.1382113821138,3766.401963715324,326.1382113821138C3774.2433978988665,326.1382113821138,3782.084832082409,331.910569105691,3789.9370079566133,330.4674796747967C3797.7891838308183,329.0243902439024,3805.6521013956853,320.3658536585366,3813.50427726989,320.3658536585366C3821.3564531440948,320.3658536585366,3829.197887327637,329.0243902439024,3837.03932151118,331.910569105691C3844.8807556947218,334.7967479674797,3852.722189878264,331.9105691056911,3860.563624061806,330.4674796747968C3868.4050582453488,329.0243902439025,3876.246492428891,329.0243902439025,3884.098668303096,330.4674796747968C3891.9508441773005,331.9105691056911,3899.8137617421676,334.7967479674797,3907.665937616372,333.3536585365854C3915.518113490577,331.910569105691,3923.3595476741193,326.1382113821138,3931.2009818576616,326.1382113821138C3939.042416041204,326.1382113821138,3946.8838502247463,331.910569105691,3954.7252844082886,334.79674796747963C3962.566718591831,337.6829268292683,3970.4081527753733,337.6829268292683,3978.260328649578,340.5691056910569C3986.1125045237827,343.4552845528455,3993.97542208865,349.2276422764228,4001.8275979628547,349.2276422764228C4009.6797738370597,349.2276422764228,4017.521208020602,343.4552845528455,4025.362642204145,342.0121951219512C4033.2040763876867,340.5691056910569,4041.045510571229,343.4552845528455,4048.886944754772,344.8983739837398C4056.7283789383137,346.3414634146341,4064.569813121856,346.3414634146341,4072.421988996061,347.7845528455285C4080.274164870266,349.2276422764227,4088.1370824351325,352.1138211382114,4092.0685412175662,353.5569105691057L4096,355L4096,355L4092.0685412175662,356.4430894308943C4088.1370824351325,357.8861788617886,4080.274164870266,360.7723577235772,4072.421988996061,362.2154471544716C4064.569813121856,363.6585365853658,4056.7283789383137,363.6585365853658,4048.886944754772,365.1016260162602C4041.045510571229,366.54471544715443,4033.2040763876867,369.43089430894304,4025.3626422041443,367.9878048780488C4017.521208020602,366.54471544715443,4009.6797738370597,360.7723577235772,4001.8275979628547,360.7723577235772C3993.97542208865,360.7723577235772,3986.1125045237827,366.54471544715443,3978.260328649578,369.4308943089431C3970.4081527753733,372.31707317073165,3962.566718591831,372.31707317073165,3954.7252844082886,375.2032520325203C3946.8838502247463,378.0894308943089,3939.042416041204,383.8617886178862,3931.2009818576616,383.8617886178862C3923.3595476741193,383.8617886178862,3915.518113490577,378.0894308943089,3907.6659376163725,376.6463414634146C3899.8137617421676,375.20325203252025,3891.9508441773005,378.08943089430886,3884.098668303096,379.5325203252032C3876.246492428891,380.97560975609747,3868.4050582453488,380.97560975609747,3860.563624061806,379.5325203252032C3852.722189878264,378.08943089430886,3844.8807556947218,375.20325203252025,3837.03932151118,378.0894308943089C3829.197887327637,380.9756097560975,3821.3564531440948,389.6341463414634,3813.50427726989,389.6341463414634C3805.6521013956853,389.6341463414634,3797.7891838308183,380.9756097560975,3789.937007956614,379.5325203252032C3782.084832082409,378.0894308943089,3774.2433978988665,383.8617886178862,3766.401963715324,383.8617886178862C3758.560529531782,383.8617886178862,3750.7190953482395,378.0894308943089,3742.877661164697,386.7479674796748C3735.036226981155,395.4065040650406,3727.1947927976125,418.4959349593496,3719.342616923408,419.9390243902439C3711.490441049203,421.3821138211382,3703.627523484336,401.17886178861784,3695.7753476101316,391.07723577235765C3687.9231717359266,380.97560975609747,3680.0817375523843,380.97560975609747,3672.240303368842,378.0894308943089C3664.398869185299,375.20325203252025,3656.557435001757,369.43089430894304,3648.7160008182145,369.4308943089431C3640.874566634672,369.43089430894304,3633.03313245113,375.20325203252025,3625.180956576925,379.5325203252032C3617.32878070272,383.86178861788613,3609.4658631378534,386.7479674796748,3601.6136872636484,386.7479674796748C3593.7615113894435,386.7479674796748,3585.920077205901,383.86178861788613,3578.0786430223593,382.41869918699183C3570.2372088388165,380.97560975609747,3562.395774655274,380.97560975609747,3554.5543404717323,385.30487804878044C3546.7129062881895,389.63414634146335,3538.871472104647,398.29268292682923,3531.0192962304427,406.95121951219505C3523.1671203562382,415.60975609756093,3515.3042027913707,424.2682926829268,3507.452026917166,421.3821138211382C3499.5998510429613,418.4959349593496,3491.7584168594185,404.0650406504065,3483.916982675876,399.73577235772353C3476.075548492334,395.4065040650406,3468.2341143087915,401.17886178861784,3460.392680125249,402.62195121951214C3452.551245941707,404.06504065040644,3444.7098117581645,401.17886178861784,3436.85763588396,398.29268292682923C3429.005460009755,395.4065040650406,3421.142542444888,392.520325203252,3413.2903665706835,389.6341463414634C3405.4381906964786,386.7479674796748,3397.5967565129363,383.86178861788613,3389.7553223293944,388.19105691056905C3381.9138881458516,392.520325203252,3374.0724539623093,404.06504065040644,3366.2310197787665,409.8373983739837C3358.3895855952246,415.609756097561,3350.5481514116823,415.609756097561,3342.695975537478,418.4959349593496C3334.843799663273,421.3821138211382,3326.980882098406,427.1544715447154,3319.128706224201,422.8252032520325C3311.2765303499964,418.4959349593496,3303.435096166454,404.0650406504065,3295.5936619829117,398.29268292682923C3287.7522277993694,392.520325203252,3279.910793615827,395.4065040650406,3272.0693594322847,393.9634146341463C3264.2279252487424,392.520325203252,3256.3864910652,386.74796747967474,3248.5343151909956,383.86178861788613C3240.6821393167907,380.97560975609747,3232.8192217519236,380.97560975609747,3224.967045877719,382.41869918699183C3217.114870003514,383.86178861788613,3209.273435819972,386.7479674796748,3201.432001636429,389.6341463414634C3193.590567452887,392.520325203252,3185.749133269345,395.4065040650406,3177.907699085803,393.9634146341463C3170.06626490226,392.520325203252,3162.224830718718,386.74796747967474,3154.372654844513,379.5325203252032C3146.5204789703084,372.31707317073165,3138.657561405441,363.6585365853658,3130.805385531236,363.6585365853658C3122.953209657031,363.6585365853658,3115.1117754734887,372.31707317073165,3107.270341289947,375.2032520325203C3099.428907106404,378.08943089430886,3091.5874729228617,375.20325203252025,3083.74603873932,378.0894308943089C3075.904604555777,380.9756097560975,3068.0631703722347,389.6341463414634,3060.2109944980302,395.4065040650406C3052.3588186238258,401.17886178861784,3044.495901058958,404.06504065040644,3036.6437251847537,405.50813008130075C3028.7915493105493,406.95121951219505,3020.950115127007,406.95121951219505,3013.108680943464,404.06504065040644C3005.2672467599223,401.17886178861784,2997.42581257638,395.4065040650406,2989.584378392837,386.7479674796748C2981.7429442092953,378.0894308943089,2973.901510025753,366.54471544715443,2966.049334151548,363.6585365853659C2958.197158277343,360.7723577235772,2950.334240712476,366.54471544715443,2942.4820648382715,379.5325203252032C2934.6298889640666,392.520325203252,2926.7884547805243,412.7235772357724,2918.947020596982,417.0528455284553C2911.1055864134396,421.3821138211382,2903.2641522298973,409.8373983739837,2895.422718046355,401.17886178861784C2887.5812838628126,392.520325203252,2879.7398496792703,386.74796747967474,2871.8876738050653,385.30487804878044C2864.035497930861,383.86178861788613,2856.172580365994,386.7479674796748,2848.320404491789,382.4186991869919C2840.4682286175844,378.0894308943089,2832.626794434042,366.54471544715443,2824.7853602504997,367.9878048780488C2816.9439260669574,369.43089430894304,2809.102491883415,383.86178861788613,2801.2610576998727,383.8617886178862C2793.4196235163304,383.86178861788613,2785.578189332788,369.43089430894304,2777.726013458583,367.98780487804873C2769.8738375843786,366.54471544715443,2762.010920019511,378.0894308943089,2754.1587441453066,380.9756097560976C2746.3065682711017,383.8617886178862,2738.4651340875594,378.0894308943089,2730.6236999040175,373.760162601626C2722.7822657204747,369.43089430894304,2714.9408315369324,366.54471544715443,2707.0993973533896,366.5447154471545C2699.2579631698477,366.54471544715443,2691.4165289863054,369.43089430894304,2683.564353112101,370.8739837398374C2675.712177237896,372.31707317073165,2667.849259673029,372.31707317073165,2659.997083798824,369.4308943089431C2652.1449079246195,366.54471544715443,2644.303473741077,360.7723577235772,2636.462039557535,360.7723577235772C2628.6206053739925,360.7723577235772,2620.77917119045,366.54471544715443,2612.937737006908,366.5447154471545C2605.0963028233655,366.54471544715443,2597.254868639823,360.7723577235772,2589.402692765618,359.3292682926829C2581.5505168914133,357.8861788617886,2573.687599326546,360.7723577235772,2565.8354234523413,365.1016260162602C2557.983247578137,369.43089430894304,2550.1418133945945,375.20325203252025,2542.3003792110517,376.6463414634146C2534.45894502751,378.08943089430886,2526.6175108439675,375.20325203252025,2518.7760766604247,370.8739837398374C2510.934642476883,366.54471544715443,2503.0932082933405,360.7723577235772,2495.2410324191355,363.6585365853658C2487.3888565449306,366.54471544715443,2479.525938980064,378.0894308943089,2471.673763105859,383.8617886178862C2463.821587231654,389.6341463414634,2455.980153048112,389.6341463414634,2448.13871886457,388.1910569105691C2440.297284681027,386.7479674796748,2432.455850497485,383.86178861788613,2424.614416313943,383.86178861788613C2416.7729821304,383.86178861788613,2408.931547946858,386.7479674796748,2401.079372072653,383.8617886178862C2393.2271961984484,380.9756097560976,2385.3642786335813,372.3170731707317,2377.5121027593764,367.9878048780488C2369.659926885172,363.6585365853658,2361.8184927016296,363.6585365853658,2353.9770585180872,362.2154471544716C2346.135624334545,360.7723577235772,2338.2941901510026,357.8861788617886,2330.4527559674602,356.4430894308943C2322.611321783918,355,2314.7698876003756,355,2306.9177117261706,357.8861788617886C2299.065535851966,360.7723577235772,2291.202618287099,366.54471544715443,2283.350442412894,367.9878048780488C2275.4982665386897,369.43089430894304,2267.6568323551473,366.54471544715443,2255.8946810798334,365.1016260162602C2244.1325298045203,363.6585365853658,2228.449661437435,363.6585365853658,2212.756051379688,362.2154471544716C2197.062441321941,360.7723577235772,2181.3580895735317,357.8861788617886,2169.585196607556,356.4430894308943C2157.81230364158,355,2149.9708694580377,355,2142.1294352744953,356.4430894308943C2134.288001090953,357.8861788617886,2126.4465669074107,360.7723577235772,2118.594391033206,362.2154471544716C2110.7422151590013,363.6585365853658,2102.879297594134,363.6585365853658,2095.0271217199293,362.2154471544716C2087.1749458457243,360.7723577235772,2079.333511662182,357.8861788617886,2071.4920774786397,357.8861788617886C2063.6506432950973,357.8861788617886,2055.809209111555,360.7723577235772,2040.1155990538082,360.7723577235773C2024.421988996061,360.7723577235772,2000.8762030641092,357.8861788617886,1985.182593006362,357.8861788617886C1969.4889829486149,357.8861788617886,1961.6475487650725,360.7723577235772,1953.8061145815304,360.7723577235773C1945.9646803979879,360.7723577235772,1938.1232462144455,357.8861788617886,1930.2710703402408,357.8861788617886C1922.4188944660361,357.8861788617886,1914.555976901169,360.7723577235772,1902.7830839351932,362.2154471544716C1891.0101909692173,363.6585365853658,1875.3273226021327,363.6585365853658,1863.565171326819,362.2154471544716C1851.8030200515057,360.7723577235772,1843.9615858679633,357.8861788617886,1836.1094099937584,357.8861788617886C1828.2572341195537,357.8861788617886,1820.3943165546866,360.7723577235772,1812.542140680482,360.7723577235773C1804.6899648062772,360.7723577235772,1796.8485306227349,357.8861788617886,1789.0070964391923,356.4430894308943C1781.1656622556502,355,1773.3242280721079,355,1765.4827938885653,356.4430894308943C1757.641359705023,357.8861788617886,1749.7999255214804,360.7723577235772,1738.0270325555045,360.7723577235773C1726.2541395895287,360.7723577235772,1710.5497878411193,357.8861788617886,1698.7768948751434,357.8861788617886C1687.0040019091675,357.8861788617886,1679.1625677256252,360.7723577235772,1663.4689576678782,360.7723577235773C1647.7753476101311,360.7723577235772,1624.2295616781794,357.8861788617886,1608.5359516204323,356.4430894308943C1592.8423415626853,355,1585.0009073791427,355,1577.1594731956004,355C1569.3180390120579,355,1561.4766048285155,355,1553.624428954311,356.4430894308943C1545.772253080106,357.8861788617886,1537.909335515239,360.7723577235772,1530.0571596410346,360.7723577235773C1522.2049837668296,360.7723577235772,1514.3635495832873,357.8861788617886,1498.6699395255405,357.8861788617886C1482.9763294677932,357.8861788617886,1459.4305435358415,360.7723577235772,1435.8954992945519,362.2154471544716C1412.3604550532627,363.6585365853658,1388.8361525026355,363.6585365853658,1361.3911328602376,363.6585365853659C1333.9461132178392,363.6585365853658,1302.5803764836699,363.6585365853658,1282.9660493341514,362.2154471544716C1263.3517221846332,360.7723577235772,1255.4888046197661,357.8861788617886,1247.6366287455614,356.4430894308943C1239.7844528713567,355,1231.9430186878144,355,1220.1808674125007,355C1208.4187161371872,355,1192.7358477701025,355,1180.9629548041266,355C1169.1900618381508,355,1161.3271442732837,355,1137.7813583413317,355C1114.23557240938,355,1075.0069181103436,355,1051.4718738690542,355C1027.9368296277648,355,1020.0953954442224,355,1012.2539612606801,355C1004.4125270771376,355,996.5710928935953,355,976.9567657440771,356.4430894308943C957.3424385945589,357.8861788617886,925.9552184790648,360.7723577235772,906.3301496388841,360.7723577235773C886.7050807987034,360.7723577235772,878.8421632338362,357.8861788617886,863.1485531760892,356.4430894308943C847.454943118342,355,823.930640567715,355,808.237030509968,355C792.543420452221,355,784.6805028873538,355,765.0554340471731,356.4430894308943C745.4303652069925,357.8861788617886,714.0431450914984,360.7723577235772,690.5081008502091,360.7723577235773C666.9730566089196,360.7723577235772,651.2901882418349,357.8861788617886,635.5965781840878,356.4430894308943C619.9029681263407,355,604.1986163779313,355,592.4257234119553,355C580.6528304459795,355,572.8113962624371,355,564.9699620788947,355C557.1285278953524,355,549.28709371181,355,541.4456595282677,356.4430894308943C533.6042253447254,357.8861788617886,525.762791161183,360.7723577235772,517.9106152869783,360.7723577235773C510.05843941277357,360.7723577235772,502.19552184790643,357.8861788617886,494.34334597370173,356.4430894308943C486.49117009949697,355,478.64973591595464,355,459.03540876643643,356.4430894308943C439.4210816169182,357.8861788617886,408.033861501424,360.7723577235772,333.48652830445974,362.2154471544716C258.93919510749555,363.6585365853658,141.2317488290613,363.6585365853658,78.457308598073,363.6585365853659C15.682868367084689,363.6585365853658,7.8414341835423444,363.6585365853658,3.9207170917711722,363.6585365853659L0,363.6585365853659Z" style="fill: rgb(105, 191, 105);"></path><text x="4090" y="704" style="font-size: 10px; fill: rgb(34, 34, 34); font-family: Arial, Helvetica; text-anchor: end;">Religieuse</text></g><g class="flow" title="On sait pas" transform="translate(0,1430)"><path class="area" d="M0,355L3.9207170917711722,355C7.8414341835423444,355,15.682868367084689,355,78.457308598073,355C141.2317488290613,355,258.93919510749555,355,333.48652830445974,355C408.033861501424,355,439.4210816169182,355,459.0354087664364,355C478.64973591595464,355,486.49117009949697,355,494.34334597370173,355C502.19552184790643,355,510.05843941277357,355,517.9106152869783,355C525.762791161183,355,533.6042253447254,355,541.4456595282677,353.55691056910564C549.28709371181,352.1138211382114,557.1285278953524,349.2276422764227,564.9699620788948,347.7845528455284C572.8113962624371,346.3414634146341,580.6528304459795,346.3414634146341,592.4257234119553,347.7845528455285C604.1986163779313,349.2276422764227,619.9029681263407,352.1138211382114,635.5965781840878,353.5569105691057C651.2901882418349,355,666.9730566089196,355,690.508100850209,353.55691056910564C714.0431450914984,352.1138211382114,745.4303652069925,349.2276422764227,765.0554340471732,347.7845528455284C784.6805028873538,346.3414634146341,792.543420452221,346.3414634146341,808.237030509968,347.7845528455285C823.930640567715,349.2276422764227,847.454943118342,352.1138211382114,863.1485531760891,353.5569105691057C878.8421632338362,355,886.7050807987034,355,906.3301496388841,355C925.9552184790648,355,957.3424385945589,355,976.9567657440771,355C996.5710928935953,355,1004.4125270771376,355,1012.2539612606801,355C1020.0953954442224,355,1027.9368296277648,355,1051.4718738690542,355C1075.0069181103436,355,1114.23557240938,355,1137.781358341332,355C1161.3271442732837,355,1169.1900618381508,355,1180.9629548041266,355C1192.7358477701025,355,1208.4187161371872,355,1220.1808674125007,355C1231.9430186878144,355,1239.7844528713567,355,1247.6366287455612,355C1255.4888046197661,355,1263.3517221846332,355,1282.9660493341516,355C1302.5803764836699,355,1333.9461132178392,355,1361.3911328602373,355C1388.8361525026355,355,1412.3604550532627,355,1435.895499294552,355C1459.4305435358415,355,1482.9763294677932,355,1498.6699395255405,355C1514.3635495832873,355,1522.2049837668296,355,1530.0571596410346,355C1537.909335515239,355,1545.772253080106,355,1553.624428954311,355C1561.4766048285155,355,1569.3180390120579,355,1577.1594731956004,355C1585.0009073791427,355,1592.8423415626853,355,1608.5359516204323,355C1624.2295616781794,355,1647.7753476101311,355,1663.4689576678782,355C1679.1625677256252,355,1687.0040019091675,355,1698.7768948751434,353.55691056910564C1710.5497878411193,352.1138211382114,1726.2541395895287,349.2276422764227,1738.0270325555045,349.2276422764228C1749.7999255214804,349.2276422764227,1757.641359705023,352.1138211382114,1765.4827938885653,350.67073170731703C1773.3242280721079,349.2276422764228,1781.1656622556502,343.4552845528455,1789.0070964391923,343.45528455284557C1796.8485306227349,343.4552845528455,1804.6899648062772,349.2276422764228,1812.5421406804817,350.67073170731703C1820.3943165546866,352.1138211382114,1828.2572341195537,349.2276422764227,1836.1094099937586,347.7845528455284C1843.9615858679633,346.3414634146341,1851.8030200515057,346.3414634146341,1863.565171326819,347.7845528455285C1875.3273226021327,349.2276422764227,1891.0101909692173,352.1138211382114,1902.7830839351932,353.5569105691057C1914.555976901169,355,1922.4188944660361,355,1930.2710703402408,353.55691056910564C1938.1232462144455,352.1138211382114,1945.9646803979879,349.2276422764227,1953.8061145815304,349.2276422764228C1961.6475487650725,349.2276422764227,1969.4889829486149,352.1138211382114,1985.1825930063621,353.5569105691057C2000.8762030641092,355,2024.421988996061,355,2040.1155990538077,355C2055.809209111555,355,2063.6506432950973,355,2071.4920774786397,355C2079.333511662182,355,2087.1749458457243,355,2095.0271217199293,355C2102.879297594134,355,2110.7422151590013,355,2118.594391033206,353.55691056910564C2126.4465669074107,352.1138211382114,2134.288001090953,349.2276422764227,2142.1294352744953,349.2276422764228C2149.9708694580377,349.2276422764227,2157.81230364158,352.1138211382114,2169.585196607556,353.5569105691057C2181.3580895735317,355,2197.062441321941,355,2212.7560513796884,355C2228.449661437435,355,2244.1325298045203,355,2255.894681079834,355C2267.6568323551473,355,2275.4982665386897,355,2283.350442412894,353.55691056910564C2291.202618287099,352.1138211382114,2299.065535851966,349.2276422764227,2306.9177117261706,349.2276422764228C2314.7698876003756,349.2276422764227,2322.611321783918,352.1138211382114,2330.4527559674602,353.5569105691057C2338.2941901510026,355,2346.135624334545,355,2353.9770585180872,355C2361.8184927016296,355,2369.659926885172,355,2377.5121027593764,353.55691056910564C2385.3642786335813,352.1138211382114,2393.2271961984484,349.2276422764227,2401.079372072653,349.2276422764228C2408.931547946858,349.2276422764227,2416.7729821304,352.1138211382114,2424.6144163139425,353.5569105691057C2432.455850497485,355,2440.297284681027,355,2448.13871886457,355C2455.980153048112,355,2463.821587231654,355,2471.673763105859,355C2479.525938980064,355,2487.3888565449306,355,2495.2410324191355,353.55691056910564C2503.0932082933405,352.1138211382114,2510.934642476883,349.2276422764227,2518.7760766604247,349.2276422764228C2526.6175108439675,349.2276422764227,2534.45894502751,352.1138211382114,2542.3003792110517,353.5569105691057C2550.1418133945945,355,2557.983247578137,355,2565.8354234523413,355C2573.687599326546,355,2581.5505168914133,355,2589.402692765618,355C2597.254868639823,355,2605.0963028233655,355,2612.937737006908,355C2620.77917119045,355,2628.6206053739925,355,2636.462039557535,353.55691056910564C2644.303473741077,352.1138211382114,2652.1449079246195,349.2276422764227,2659.997083798824,347.7845528455284C2667.849259673029,346.3414634146341,2675.712177237896,346.3414634146341,2683.5643531121004,347.7845528455285C2691.4165289863054,349.2276422764227,2699.2579631698477,352.1138211382114,2707.0993973533896,353.5569105691057C2714.9408315369324,355,2722.7822657204747,355,2730.6236999040175,353.55691056910564C2738.4651340875594,352.1138211382114,2746.3065682711017,349.2276422764227,2754.158744145306,349.2276422764228C2762.010920019511,349.2276422764227,2769.8738375843786,352.1138211382114,2777.726013458583,353.5569105691057C2785.578189332788,355,2793.4196235163304,355,2801.2610576998727,355C2809.102491883415,355,2816.9439260669574,355,2824.7853602504997,355C2832.626794434042,355,2840.4682286175844,355,2848.3204044917893,353.55691056910564C2856.172580365994,352.1138211382114,2864.035497930861,349.2276422764227,2871.887673805066,347.7845528455284C2879.7398496792703,346.3414634146341,2887.5812838628126,346.3414634146341,2895.422718046355,347.7845528455285C2903.2641522298973,349.2276422764227,2911.1055864134396,352.1138211382114,2918.947020596982,353.5569105691057C2926.7884547805243,355,2934.6298889640666,355,2942.482064838271,355C2950.334240712476,355,2958.197158277343,355,2966.049334151548,355C2973.901510025753,355,2981.7429442092953,355,2989.584378392837,355C2997.42581257638,355,3005.2672467599223,355,3013.108680943464,355C3020.950115127007,355,3028.7915493105493,355,3036.6437251847537,355C3044.495901058958,355,3052.3588186238258,355,3060.2109944980302,355C3068.0631703722347,355,3075.904604555777,355,3083.74603873932,355C3091.5874729228617,355,3099.428907106404,355,3107.270341289947,355C3115.1117754734887,355,3122.953209657031,355,3130.8053855312364,352.1138211382114C3138.657561405441,349.2276422764228,3146.5204789703084,343.4552845528455,3154.372654844513,342.0121951219512C3162.224830718718,340.5691056910569,3170.06626490226,343.4552845528455,3177.907699085803,346.3414634146341C3185.749133269345,349.2276422764227,3193.590567452887,352.1138211382114,3201.432001636429,352.1138211382114C3209.273435819972,352.1138211382114,3217.114870003514,349.2276422764227,3224.967045877719,347.7845528455284C3232.8192217519236,346.3414634146341,3240.6821393167907,346.3414634146341,3248.534315190995,344.8983739837398C3256.3864910652,343.4552845528455,3264.2279252487424,340.5691056910569,3272.0693594322847,342.01219512195127C3279.910793615827,343.4552845528455,3287.7522277993694,349.2276422764228,3295.5936619829117,349.2276422764228C3303.435096166454,349.2276422764228,3311.2765303499964,343.4552845528455,3319.128706224201,343.45528455284557C3326.980882098406,343.4552845528455,3334.843799663273,349.2276422764228,3342.6959755374774,352.1138211382114C3350.5481514116823,355,3358.3895855952246,355,3366.2310197787665,355C3374.0724539623093,355,3381.9138881458516,355,3389.7553223293944,355C3397.5967565129363,355,3405.4381906964786,355,3413.290366570683,352.1138211382114C3421.142542444888,349.2276422764228,3429.005460009755,343.4552845528455,3436.85763588396,343.45528455284557C3444.7098117581645,343.4552845528455,3452.551245941707,349.2276422764228,3460.392680125249,350.67073170731703C3468.2341143087915,352.1138211382114,3476.075548492334,349.2276422764227,3483.916982675876,347.7845528455284C3491.7584168594185,346.3414634146341,3499.5998510429613,346.3414634146341,3507.452026917166,344.8983739837398C3515.3042027913707,343.4552845528455,3523.1671203562382,340.5691056910569,3531.0192962304427,337.68292682926835C3538.871472104647,334.7967479674797,3546.7129062881895,331.9105691056911,3554.5543404717323,334.7967479674797C3562.395774655274,337.6829268292683,3570.2372088388165,346.3414634146342,3578.0786430223593,349.2276422764228C3585.920077205901,352.1138211382114,3593.7615113894435,349.2276422764227,3601.6136872636484,344.8983739837398C3609.4658631378534,340.5691056910569,3617.32878070272,334.7967479674797,3625.180956576925,333.3536585365854C3633.03313245113,331.9105691056911,3640.874566634672,334.7967479674797,3648.7160008182145,336.239837398374C3656.557435001757,337.6829268292683,3664.398869185299,337.6829268292683,3672.2403033688415,340.5691056910569C3680.0817375523843,343.4552845528455,3687.9231717359266,349.2276422764228,3695.775347610131,352.1138211382114C3703.627523484336,355,3711.490441049203,355,3719.342616923408,355C3727.1947927976125,355,3735.036226981155,355,3742.877661164697,355C3750.7190953482395,355,3758.560529531782,355,3766.401963715324,355C3774.2433978988665,355,3782.084832082409,355,3789.9370079566133,353.55691056910564C3797.7891838308183,352.1138211382114,3805.6521013956853,349.2276422764227,3813.50427726989,349.2276422764228C3821.3564531440948,349.2276422764227,3829.197887327637,352.1138211382114,3837.03932151118,352.1138211382114C3844.8807556947218,352.1138211382114,3852.722189878264,349.2276422764227,3860.563624061806,349.2276422764228C3868.4050582453488,349.2276422764227,3876.246492428891,352.1138211382114,3884.098668303096,352.1138211382114C3891.9508441773005,352.1138211382114,3899.8137617421676,349.2276422764227,3907.665937616372,349.2276422764228C3915.518113490577,349.2276422764227,3923.3595476741193,352.1138211382114,3931.2009818576616,353.5569105691057C3939.042416041204,355,3946.8838502247463,355,3954.7252844082886,353.55691056910564C3962.566718591831,352.1138211382114,3970.4081527753733,349.2276422764227,3978.260328649578,344.8983739837398C3986.1125045237827,340.5691056910569,3993.97542208865,334.7967479674797,4001.8275979628547,334.79674796747975C4009.6797738370597,334.7967479674797,4017.521208020602,340.5691056910569,4025.362642204145,344.8983739837399C4033.2040763876867,349.2276422764227,4041.045510571229,352.1138211382114,4048.886944754772,353.5569105691057C4056.7283789383137,355,4064.569813121856,355,4072.421988996061,355C4080.274164870266,355,4088.1370824351325,355,4092.0685412175662,355L4096,355L4096,355L4092.0685412175662,355C4088.1370824351325,355,4080.274164870266,355,4072.421988996061,355C4064.569813121856,355,4056.7283789383137,355,4048.886944754772,356.4430894308943C4041.045510571229,357.8861788617886,4033.2040763876867,360.7723577235772,4025.3626422041443,365.1016260162602C4017.521208020602,369.43089430894304,4009.6797738370597,375.20325203252025,4001.8275979628547,375.2032520325203C3993.97542208865,375.20325203252025,3986.1125045237827,369.43089430894304,3978.260328649578,365.1016260162602C3970.4081527753733,360.7723577235772,3962.566718591831,357.8861788617886,3954.7252844082886,356.4430894308943C3946.8838502247463,355,3939.042416041204,355,3931.2009818576616,356.4430894308943C3923.3595476741193,357.8861788617886,3915.518113490577,360.7723577235772,3907.6659376163725,360.7723577235773C3899.8137617421676,360.7723577235772,3891.9508441773005,357.8861788617886,3884.098668303096,357.8861788617886C3876.246492428891,357.8861788617886,3868.4050582453488,360.7723577235772,3860.563624061806,360.7723577235773C3852.722189878264,360.7723577235772,3844.8807556947218,357.8861788617886,3837.03932151118,357.8861788617886C3829.197887327637,357.8861788617886,3821.3564531440948,360.7723577235772,3813.50427726989,360.7723577235773C3805.6521013956853,360.7723577235772,3797.7891838308183,357.8861788617886,3789.937007956614,356.4430894308943C3782.084832082409,355,3774.2433978988665,355,3766.401963715324,355C3758.560529531782,355,3750.7190953482395,355,3742.877661164697,355C3735.036226981155,355,3727.1947927976125,355,3719.342616923408,355C3711.490441049203,355,3703.627523484336,355,3695.7753476101316,357.8861788617886C3687.9231717359266,360.7723577235772,3680.0817375523843,366.54471544715443,3672.240303368842,369.4308943089431C3664.398869185299,372.31707317073165,3656.557435001757,372.31707317073165,3648.7160008182145,373.760162601626C3640.874566634672,375.20325203252025,3633.03313245113,378.08943089430886,3625.180956576925,376.6463414634146C3617.32878070272,375.20325203252025,3609.4658631378534,369.43089430894304,3601.6136872636484,365.1016260162602C3593.7615113894435,360.7723577235772,3585.920077205901,357.8861788617886,3578.0786430223593,360.7723577235772C3570.2372088388165,363.6585365853658,3562.395774655274,372.31707317073165,3554.5543404717323,375.2032520325203C3546.7129062881895,378.08943089430886,3538.871472104647,375.20325203252025,3531.0192962304427,372.3170731707317C3523.1671203562382,369.43089430894304,3515.3042027913707,366.54471544715443,3507.452026917166,365.1016260162602C3499.5998510429613,363.6585365853658,3491.7584168594185,363.6585365853658,3483.916982675876,362.2154471544716C3476.075548492334,360.7723577235772,3468.2341143087915,357.8861788617886,3460.392680125249,359.3292682926829C3452.551245941707,360.7723577235772,3444.7098117581645,366.54471544715443,3436.85763588396,366.5447154471545C3429.005460009755,366.54471544715443,3421.142542444888,360.7723577235772,3413.2903665706835,357.8861788617886C3405.4381906964786,355,3397.5967565129363,355,3389.7553223293944,355C3381.9138881458516,355,3374.0724539623093,355,3366.2310197787665,355C3358.3895855952246,355,3350.5481514116823,355,3342.695975537478,357.8861788617886C3334.843799663273,360.7723577235772,3326.980882098406,366.54471544715443,3319.128706224201,366.5447154471545C3311.2765303499964,366.54471544715443,3303.435096166454,360.7723577235772,3295.5936619829117,360.7723577235772C3287.7522277993694,360.7723577235772,3279.910793615827,366.54471544715443,3272.0693594322847,367.9878048780488C3264.2279252487424,369.43089430894304,3256.3864910652,366.54471544715443,3248.5343151909956,365.1016260162602C3240.6821393167907,363.6585365853658,3232.8192217519236,363.6585365853658,3224.967045877719,362.2154471544716C3217.114870003514,360.7723577235772,3209.273435819972,357.8861788617886,3201.432001636429,357.8861788617886C3193.590567452887,357.8861788617886,3185.749133269345,360.7723577235772,3177.907699085803,363.6585365853659C3170.06626490226,366.54471544715443,3162.224830718718,369.43089430894304,3154.372654844513,367.9878048780488C3146.5204789703084,366.54471544715443,3138.657561405441,360.7723577235772,3130.805385531236,357.8861788617886C3122.953209657031,355,3115.1117754734887,355,3107.270341289947,355C3099.428907106404,355,3091.5874729228617,355,3083.74603873932,355C3075.904604555777,355,3068.0631703722347,355,3060.2109944980302,355C3052.3588186238258,355,3044.495901058958,355,3036.6437251847537,355C3028.7915493105493,355,3020.950115127007,355,3013.108680943464,355C3005.2672467599223,355,2997.42581257638,355,2989.584378392837,355C2981.7429442092953,355,2973.901510025753,355,2966.049334151548,355C2958.197158277343,355,2950.334240712476,355,2942.4820648382715,355C2934.6298889640666,355,2926.7884547805243,355,2918.947020596982,356.4430894308943C2911.1055864134396,357.8861788617886,2903.2641522298973,360.7723577235772,2895.422718046355,362.2154471544716C2887.5812838628126,363.6585365853658,2879.7398496792703,363.6585365853658,2871.8876738050653,362.2154471544716C2864.035497930861,360.7723577235772,2856.172580365994,357.8861788617886,2848.320404491789,356.4430894308943C2840.4682286175844,355,2832.626794434042,355,2824.7853602504997,355C2816.9439260669574,355,2809.102491883415,355,2801.2610576998727,355C2793.4196235163304,355,2785.578189332788,355,2777.726013458583,356.4430894308943C2769.8738375843786,357.8861788617886,2762.010920019511,360.7723577235772,2754.1587441453066,360.7723577235773C2746.3065682711017,360.7723577235772,2738.4651340875594,357.8861788617886,2730.6236999040175,356.4430894308943C2722.7822657204747,355,2714.9408315369324,355,2707.0993973533896,356.4430894308943C2699.2579631698477,357.8861788617886,2691.4165289863054,360.7723577235772,2683.564353112101,362.2154471544716C2675.712177237896,363.6585365853658,2667.849259673029,363.6585365853658,2659.997083798824,362.2154471544716C2652.1449079246195,360.7723577235772,2644.303473741077,357.8861788617886,2636.462039557535,356.4430894308943C2628.6206053739925,355,2620.77917119045,355,2612.937737006908,355C2605.0963028233655,355,2597.254868639823,355,2589.402692765618,355C2581.5505168914133,355,2573.687599326546,355,2565.8354234523413,355C2557.983247578137,355,2550.1418133945945,355,2542.3003792110517,356.4430894308943C2534.45894502751,357.8861788617886,2526.6175108439675,360.7723577235772,2518.7760766604247,360.7723577235773C2510.934642476883,360.7723577235772,2503.0932082933405,357.8861788617886,2495.2410324191355,356.4430894308943C2487.3888565449306,355,2479.525938980064,355,2471.673763105859,355C2463.821587231654,355,2455.980153048112,355,2448.13871886457,355C2440.297284681027,355,2432.455850497485,355,2424.614416313943,356.4430894308943C2416.7729821304,357.8861788617886,2408.931547946858,360.7723577235772,2401.079372072653,360.7723577235773C2393.2271961984484,360.7723577235772,2385.3642786335813,357.8861788617886,2377.5121027593764,356.4430894308943C2369.659926885172,355,2361.8184927016296,355,2353.9770585180872,355C2346.135624334545,355,2338.2941901510026,355,2330.4527559674602,356.4430894308943C2322.611321783918,357.8861788617886,2314.7698876003756,360.7723577235772,2306.9177117261706,360.7723577235773C2299.065535851966,360.7723577235772,2291.202618287099,357.8861788617886,2283.350442412894,356.4430894308943C2275.4982665386897,355,2267.6568323551473,355,2255.8946810798334,355C2244.1325298045203,355,2228.449661437435,355,2212.756051379688,355C2197.062441321941,355,2181.3580895735317,355,2169.585196607556,356.4430894308943C2157.81230364158,357.8861788617886,2149.9708694580377,360.7723577235772,2142.1294352744953,360.7723577235773C2134.288001090953,360.7723577235772,2126.4465669074107,357.8861788617886,2118.594391033206,356.4430894308943C2110.7422151590013,355,2102.879297594134,355,2095.0271217199293,355C2087.1749458457243,355,2079.333511662182,355,2071.4920774786397,355C2063.6506432950973,355,2055.809209111555,355,2040.1155990538082,355C2024.421988996061,355,2000.8762030641092,355,1985.182593006362,356.4430894308943C1969.4889829486149,357.8861788617886,1961.6475487650725,360.7723577235772,1953.8061145815304,360.7723577235773C1945.9646803979879,360.7723577235772,1938.1232462144455,357.8861788617886,1930.2710703402408,356.4430894308943C1922.4188944660361,355,1914.555976901169,355,1902.7830839351932,356.4430894308943C1891.0101909692173,357.8861788617886,1875.3273226021327,360.7723577235772,1863.565171326819,362.2154471544716C1851.8030200515057,363.6585365853658,1843.9615858679633,363.6585365853658,1836.1094099937584,362.2154471544716C1828.2572341195537,360.7723577235772,1820.3943165546866,357.8861788617886,1812.542140680482,359.3292682926829C1804.6899648062772,360.7723577235772,1796.8485306227349,366.54471544715443,1789.0070964391923,366.5447154471545C1781.1656622556502,366.54471544715443,1773.3242280721079,360.7723577235772,1765.4827938885653,359.3292682926829C1757.641359705023,357.8861788617886,1749.7999255214804,360.7723577235772,1738.0270325555045,360.7723577235773C1726.2541395895287,360.7723577235772,1710.5497878411193,357.8861788617886,1698.7768948751434,356.4430894308943C1687.0040019091675,355,1679.1625677256252,355,1663.4689576678782,355C1647.7753476101311,355,1624.2295616781794,355,1608.5359516204323,355C1592.8423415626853,355,1585.0009073791427,355,1577.1594731956004,355C1569.3180390120579,355,1561.4766048285155,355,1553.624428954311,355C1545.772253080106,355,1537.909335515239,355,1530.0571596410346,355C1522.2049837668296,355,1514.3635495832873,355,1498.6699395255405,355C1482.9763294677932,355,1459.4305435358415,355,1435.8954992945519,355C1412.3604550532627,355,1388.8361525026355,355,1361.3911328602376,355C1333.9461132178392,355,1302.5803764836699,355,1282.9660493341514,355C1263.3517221846332,355,1255.4888046197661,355,1247.6366287455614,355C1239.7844528713567,355,1231.9430186878144,355,1220.1808674125007,355C1208.4187161371872,355,1192.7358477701025,355,1180.9629548041266,355C1169.1900618381508,355,1161.3271442732837,355,1137.7813583413317,355C1114.23557240938,355,1075.0069181103436,355,1051.4718738690542,355C1027.9368296277648,355,1020.0953954442224,355,1012.2539612606801,355C1004.4125270771376,355,996.5710928935953,355,976.9567657440771,355C957.3424385945589,355,925.9552184790648,355,906.3301496388841,355C886.7050807987034,355,878.8421632338362,355,863.1485531760892,356.4430894308943C847.454943118342,357.8861788617886,823.930640567715,360.7723577235772,808.237030509968,362.2154471544716C792.543420452221,363.6585365853658,784.6805028873538,363.6585365853658,765.0554340471731,362.2154471544716C745.4303652069925,360.7723577235772,714.0431450914984,357.8861788617886,690.5081008502091,356.4430894308943C666.9730566089196,355,651.2901882418349,355,635.5965781840878,356.4430894308943C619.9029681263407,357.8861788617886,604.1986163779313,360.7723577235772,592.4257234119553,362.2154471544716C580.6528304459795,363.6585365853658,572.8113962624371,363.6585365853658,564.9699620788947,362.2154471544716C557.1285278953524,360.7723577235772,549.28709371181,357.8861788617886,541.4456595282677,356.4430894308943C533.6042253447254,355,525.762791161183,355,517.9106152869783,355C510.05843941277357,355,502.19552184790643,355,494.34334597370173,355C486.49117009949697,355,478.64973591595464,355,459.03540876643643,355C439.4210816169182,355,408.033861501424,355,333.48652830445974,355C258.93919510749555,355,141.2317488290613,355,78.457308598073,355C15.682868367084689,355,7.8414341835423444,355,3.9207170917711722,355L0,355Z" style="fill: rgb(105, 105, 191);"></path><text x="4090" y="704" style="font-size: 10px; fill: rgb(34, 34, 34); font-family: Arial, Helvetica; text-anchor: end;">On sait pas</text></g></svg>