<svg width="4096" height="2180" xmlns="http://www.w3.org/2000/svg" version="1.1"><g transform="translate(0,10)"><g><path class="link" d="M5,1554.25C2048,1554.25 2048,1746.75 4091,1746.75" style="stroke-width: 826.5; fill: none; stroke: rgb(148, 191, 105); stroke-opacity: 0.4;"><title>87</title></path><path class="link" d="M5,342C2048,342 2048,981.5 4091,981.5" style="stroke-width: 684; fill: none; stroke: rgb(191, 105, 105); stroke-opacity: 0.4;"><title>72</title></path><path class="link" d="M5,912.5C2048,912.5 2048,353.5 4091,353.5" style="stroke-width: 437; fill: none; stroke: rgb(191, 169, 105); stroke-opacity: 0.4;"><title>46</title></path><path class="link" d="M5,2136.25C2048,2136.25 2048,605.75 4091,605.75" style="stroke-width: 47.5; fill: none; stroke: rgb(191, 105, 169); stroke-opacity: 0.4;"><title>5</title></path><path class="link" d="M5,2054.5C2048,2054.5 2048,106 4091,106" style="stroke-width: 38; fill: none; stroke: rgb(105, 126, 191); stroke-opacity: 0.4;"><title>4</title></path><path class="link" d="M5,1991.75C2048,1991.75 2048,62.75 4091,62.75" style="stroke-width: 28.5; fill: none; stroke: rgb(105, 191, 126); stroke-opacity: 0.4;"><title>3</title></path><path class="link" d="M5,2093C2048,2093 2048,29 4091,29" style="stroke-width: 19; fill: none; stroke: rgb(148, 105, 191); stroke-opacity: 0.4;"><title>2</title></path><path class="link" d="M5,2020.75C2048,2020.75 2048,4.75 4091,4.75" style="stroke-width: 9.5; fill: none; stroke: rgb(105, 191, 191); stroke-opacity: 0.4;"><title>1</title></path></g><g><g class="node" transform="translate(0,0)"><rect height="684" width="5"><title>1
72</title></rect><text x="11" y="342" dy=".35em" text-anchor="start" style="font-size: 11px; font-family: Arial, Helvetica; pointer-events: none;">1</text></g><g class="node" transform="translate(0,694)"><rect height="437" width="5"><title>2
46</title></rect><text x="11" y="218.5" dy=".35em" text-anchor="start" style="font-size: 11px; font-family: Arial, Helvetica; pointer-events: none;">2</text></g><g class="node" transform="translate(0,1141)"><rect height="826.5" width="5"><title>3
87</title></rect><text x="11" y="413.25" dy=".35em" text-anchor="start" style="font-size: 11px; font-family: Arial, Helvetica; pointer-events: none;">3</text></g><g class="node" transform="translate(0,1977.5)"><rect height="28.5" width="5"><title>4
3</title></rect><text x="11" y="14.25" dy=".35em" text-anchor="start" style="font-size: 11px; font-family: Arial, Helvetica; pointer-events: none;">4</text></g><g class="node" transform="translate(0,2016)"><rect height="9.5" width="5"><title>5
1</title></rect><text x="11" y="4.75" dy=".35em" text-anchor="start" style="font-size: 11px; font-family: Arial, Helvetica; pointer-events: none;">5</text></g><g class="node" transform="translate(0,2035.5)"><rect height="38" width="5"><title>6
4</title></rect><text x="11" y="19" dy=".35em" text-anchor="start" style="font-size: 11px; font-family: Arial, Helvetica; pointer-events: none;">6</text></g><g class="node" transform="translate(0,2083.5)"><rect height="19" width="5"><title>7
2</title></rect><text x="11" y="9.5" dy=".35em" text-anchor="start" style="font-size: 11px; font-family: Arial, Helvetica; pointer-events: none;">7</text></g><g class="node" transform="translate(0,2112.5)"><rect height="47.5" width="5"><title>n.a.
5</title></rect><text x="11" y="23.75" dy=".35em" text-anchor="start" style="font-size: 11px; font-family: Arial, Helvetica; pointer-events: none;">n.a.</text></g><g class="node" transform="translate(4091,0)"><rect height="9.5" width="5" style="fill: rgb(102, 102, 102);"><title>1
1</title></rect><text x="-6" y="4.75" dy=".35em" text-anchor="end" style="font-size: 11px; font-family: Arial, Helvetica; pointer-events: none;">1</text></g><g class="node" transform="translate(4091,19.5)"><rect height="19" width="5" style="fill: rgb(102, 102, 102);"><title>2
2</title></rect><text x="-6" y="9.5" dy=".35em" text-anchor="end" style="font-size: 11px; font-family: Arial, Helvetica; pointer-events: none;">2</text></g><g class="node" transform="translate(4091,48.5)"><rect height="28.5" width="5" style="fill: rgb(102, 102, 102);"><title>3
3</title></rect><text x="-6" y="14.25" dy=".35em" text-anchor="end" style="font-size: 11px; font-family: Arial, Helvetica; pointer-events: none;">3</text></g><g class="node" transform="translate(4091,87)"><rect height="38" width="5" style="fill: rgb(102, 102, 102);"><title>4
4</title></rect><text x="-6" y="19" dy=".35em" text-anchor="end" style="font-size: 11px; font-family: Arial, Helvetica; pointer-events: none;">4</text></g><g class="node" transform="translate(4091,135)"><rect height="437" width="5" style="fill: rgb(102, 102, 102);"><title>46
46</title></rect><text x="-6" y="218.5" dy=".35em" text-anchor="end" style="font-size: 11px; font-family: Arial, Helvetica; pointer-events: none;">46</text></g><g class="node" transform="translate(4091,582)"><rect height="47.5" width="5" style="fill: rgb(102, 102, 102);"><title>5
5</title></rect><text x="-6" y="23.75" dy=".35em" text-anchor="end" style="font-size: 11px; font-family: Arial, Helvetica; pointer-events: none;">5</text></g><g class="node" transform="translate(4091,639.5)"><rect height="684" width="5" style="fill: rgb(102, 102, 102);"><title>72
72</title></rect><text x="-6" y="342" dy=".35em" text-anchor="end" style="font-size: 11px; font-family: Arial, Helvetica; pointer-events: none;">72</text></g><g class="node" transform="translate(4091,1333.5)"><rect height="826.5" width="5" style="fill: rgb(102, 102, 102);"><title>87
87</title></rect><text x="-6" y="413.25" dy=".35em" text-anchor="end" style="font-size: 11px; font-family: Arial, Helvetica; pointer-events: none;">87</text></g></g></g></svg>