<svg width="4096" height="2180" xmlns="http://www.w3.org/2000/svg" version="1.1"><g transform="translate(0,10)"><g><path class="link" d="M5,849.0625C2048,849.0625 2048,923.25 4091,923.25" style="stroke-width: 1698.12; fill: none; stroke: rgb(191, 105, 105); stroke-opacity: 0.4;"><title>130</title></path><path class="link" d="M5,1894.46875C2048,1894.46875 2048,1981.71875 4091,1981.71875" style="stroke-width: 326.562; fill: none; stroke: rgb(148, 191, 105); stroke-opacity: 0.4;"><title>25</title></path><path class="link" d="M5,2100.8125C2048,2100.8125 2048,1795.375 4091,1795.375" style="stroke-width: 26.125; fill: none; stroke: rgb(105, 126, 191); stroke-opacity: 0.4;"><title>2</title></path><path class="link" d="M5,1714.65625C2048,1714.65625 2048,31.53125 4091,31.53125" style="stroke-width: 13.0625; fill: none; stroke: rgb(191, 169, 105); stroke-opacity: 0.4;"><title>1</title></path><path class="link" d="M5,2130.40625C2048,2130.40625 2048,44.59375 4091,44.59375" style="stroke-width: 13.0625; fill: none; stroke: rgb(148, 105, 191); stroke-opacity: 0.4;"><title>1</title></path><path class="link" d="M5,2153.46875C2048,2153.46875 2048,57.65625 4091,57.65625" style="stroke-width: 13.0625; fill: none; stroke: rgb(191, 105, 169); stroke-opacity: 0.4;"><title>1</title></path><path class="link" d="M5,2067.75C2048,2067.75 2048,15 4091,15" style="stroke-width: 1; fill: none; stroke: rgb(105, 191, 126); stroke-opacity: 0.4;"><title>0</title></path><path class="link" d="M5,2077.75C2048,2077.75 2048,15 4091,15" style="stroke-width: 1; fill: none; stroke: rgb(105, 191, 191); stroke-opacity: 0.4;"><title>0</title></path></g><g><g class="node" transform="translate(0,0)"><rect height="1698.125" width="5"><title>1
130</title></rect><text x="11" y="849.0625" dy=".35em" text-anchor="start" style="font-size: 11px; font-family: Arial, Helvetica; pointer-events: none;">1</text></g><g class="node" transform="translate(0,1708.125)"><rect height="13.0625" width="5"><title>2
1</title></rect><text x="11" y="6.53125" dy=".35em" text-anchor="start" style="font-size: 11px; font-family: Arial, Helvetica; pointer-events: none;">2</text></g><g class="node" transform="translate(0,1731.1875)"><rect height="326.5625" width="5"><title>3
25</title></rect><text x="11" y="163.28125" dy=".35em" text-anchor="start" style="font-size: 11px; font-family: Arial, Helvetica; pointer-events: none;">3</text></g><g class="node" transform="translate(0,2067.75)"><rect height="0" width="5"><title>4
0</title></rect><text x="11" y="0" dy=".35em" text-anchor="start" style="font-size: 11px; font-family: Arial, Helvetica; pointer-events: none;">4</text></g><g class="node" transform="translate(0,2077.75)"><rect height="0" width="5"><title>5
0</title></rect><text x="11" y="0" dy=".35em" text-anchor="start" style="font-size: 11px; font-family: Arial, Helvetica; pointer-events: none;">5</text></g><g class="node" transform="translate(0,2087.75)"><rect height="26.125" width="5"><title>6
2</title></rect><text x="11" y="13.0625" dy=".35em" text-anchor="start" style="font-size: 11px; font-family: Arial, Helvetica; pointer-events: none;">6</text></g><g class="node" transform="translate(0,2123.875)"><rect height="13.0625" width="5"><title>7
1</title></rect><text x="11" y="6.53125" dy=".35em" text-anchor="start" style="font-size: 11px; font-family: Arial, Helvetica; pointer-events: none;">7</text></g><g class="node" transform="translate(0,2146.9375)"><rect height="13.0625" width="5"><title>n.a.
1</title></rect><text x="11" y="6.53125" dy=".35em" text-anchor="start" style="font-size: 11px; font-family: Arial, Helvetica; pointer-events: none;">n.a.</text></g><g class="node" transform="translate(4091,15)"><rect height="0" width="5" style="fill: rgb(102, 102, 102);"><title>
0</title></rect><text x="-6" y="0" dy=".35em" text-anchor="end" style="font-size: 11px; font-family: Arial, Helvetica; pointer-events: none;"></text></g><g class="node" transform="translate(4091,25)"><rect height="39.1875" width="5" style="fill: rgb(102, 102, 102);"><title>1
3</title></rect><text x="-6" y="19.59375" dy=".35em" text-anchor="end" style="font-size: 11px; font-family: Arial, Helvetica; pointer-events: none;">1</text></g><g class="node" transform="translate(4091,74.1875)"><rect height="1698.125" width="5" style="fill: rgb(102, 102, 102);"><title>130
130</title></rect><text x="-6" y="849.0625" dy=".35em" text-anchor="end" style="font-size: 11px; font-family: Arial, Helvetica; pointer-events: none;">130</text></g><g class="node" transform="translate(4091,1782.3125)"><rect height="26.125" width="5" style="fill: rgb(102, 102, 102);"><title>2
2</title></rect><text x="-6" y="13.0625" dy=".35em" text-anchor="end" style="font-size: 11px; font-family: Arial, Helvetica; pointer-events: none;">2</text></g><g class="node" transform="translate(4091,1818.4375)"><rect height="326.5625" width="5" style="fill: rgb(102, 102, 102);"><title>25
25</title></rect><text x="-6" y="163.28125" dy=".35em" text-anchor="end" style="font-size: 11px; font-family: Arial, Helvetica; pointer-events: none;">25</text></g></g></g></svg>