<?xml version="1.0" encoding="utf-8"?>
<!-- Generator: Adobe Illustrator 22.0.1, SVG Export Plug-In . SVG Version: 6.00 Build 0)  -->
<svg version="1.1" id="Calque_1" xmlns="http://www.w3.org/2000/svg" xmlns:xlink="http://www.w3.org/1999/xlink" x="0px" y="0px"
	 viewBox="0 0 4096 2180" style="enable-background:new 0 0 4096 2180;" xml:space="preserve">
<style type="text/css">
	.st0{fill:none;stroke:#5D71A8;stroke-width:892.748;stroke-opacity:0.4;}
	.st1{fill:none;stroke:#4E6562;stroke-width:636.689;stroke-opacity:0.4;}
	.st2{fill:none;stroke:#6B5359;stroke-width:401.391;stroke-opacity:0.4;}
	.st3{fill:none;stroke:#FF4AD2;stroke-width:48.4437;stroke-opacity:0.4;}
	.st4{fill:none;stroke:#EA6A61;stroke-width:41.5232;stroke-opacity:0.4;}
	.st5{fill:none;stroke:#766DAF;stroke-width:41.5232;stroke-opacity:0.4;}
	.st6{fill:none;stroke:#BC3631;stroke-width:27.6821;stroke-opacity:0.4;}
	.st7{fill:none;stroke:#F19854;stroke-opacity:0.4;}
	.st8{fill:#666666;}
	.st9{font-family:'ArialMT';}
	.st10{font-size:11px;}
	.st11{fill:#4E6562;stroke:#F19854;stroke-miterlimit:10;}
	.st12{fill:none;}
	.st13{writing-mode:tb;}
	.st14{fill:#ECE7E2;}
	.st15{font-family:'OpenSans-Bold';}
	.st16{font-size:87px;glyph-orientation-vertical:0;}
	.st17{font-size:87px;glyph-orientation-vertical:1;}
</style>
<path class="st0" d="M5,877.8c2043,0,2043-406.4,4086-406.4">
<title>129</title>
</path>
<path class="st1" d="M5,1652.5c2043,0,2043,194.2,4086,194.2">
<title>92</title>
</path>
<path class="st2" d="M5,210.7c2043,0,2043,955.4,4086,955.4">
<title>58</title>
</path>
<path class="st3" d="M5,2145.8c2043,0,2043-651.7,4086-651.7">
<title>7</title>
</path>
<path class="st4" d="M5,2039.3c2043,0,2043-641.7,4086-641.7">
<title>6</title>
</path>
<path class="st5" d="M5,2090.8c2043,0,2043-651.7,4086-651.7">
<title>6</title>
</path>
<path class="st6" d="M5,1994.7c2043,0,2043-1053.1,4086-1053.1">
<title>4</title>
</path>
<path class="st7" d="M5,421.4C2048,421.4,2048,15,4091,15">
<title>0</title>
</path>
<polygon class="st8" points="4091,15 4096,15 4096,15 ">
<title>0</title>
</polygon>
<rect x="4091" y="25" class="st8" width="5" height="892.7">
<title>129
129</title>
</rect>
<text transform="matrix(1 0 0 1 4066.647 475.2242)" class="st9 st10">129</text>
<rect x="4091" y="927.7" class="st8" width="5" height="27.7">
<title>4
4</title>
</rect>
<text transform="matrix(1 0 0 1 4078.8823 945.4394)" class="st9 st10">4</text>
<rect x="4091" y="965.4" class="st8" width="5" height="401.4">
<title>58
58</title>
</rect>
<text transform="matrix(1 0 0 1 4072.7646 1169.9758)" class="st9 st10">58</text>
<rect x="4091" y="1376.8" class="st8" width="5" height="83">
<title>6
12</title>
</rect>
<text transform="matrix(1 0 0 1 4078.8823 1422.1943)" class="st9 st10">6</text>
<rect x="4091" y="1469.9" class="st8" width="5" height="48.4">
<title>7
7</title>
</rect>
<text transform="matrix(1 0 0 1 4078.8823 1497.9395)" class="st9 st10">7</text>
<rect x="4091" y="1528.3" class="st8" width="5" height="636.7">
<title>92
92</title>
</rect>
<text transform="matrix(1 0 0 1 4072.7646 1850.5056)" class="st9 st10">92</text>
<rect y="10" width="5" height="401.4">
<title>1
58</title>
</rect>
<text transform="matrix(1 0 0 1 11 214.5454)" class="st9 st10">1</text>
<polygon points="0,421.4 5,421.4 5,421.4 ">
<title>2
0</title>
</polygon>
<text transform="matrix(1 0 0 1 11 425.2407)" class="st9 st10">2</text>
<rect y="431.4" width="5" height="892.7">
<title>3
129</title>
</rect>
<text transform="matrix(1 0 0 1 11 881.6149)" class="st9 st10">3</text>
<rect y="1334.1" width="5" height="636.7">
<title>4
92</title>
</rect>
<text transform="matrix(1 0 0 1 11 1656.3334)" class="st9 st10">4</text>
<rect y="1980.8" width="5" height="27.7">
<title>5
4</title>
</rect>
<text transform="matrix(1 0 0 1 11 1998.5188)" class="st9 st10">5</text>
<rect y="2018.5" width="5" height="41.5">
<title>6
6</title>
</rect>
<text transform="matrix(1 0 0 1 11 2043.1215)" class="st9 st10">6</text>
<rect y="2070" width="5" height="41.5">
<title>7
6</title>
</rect>
<text transform="matrix(1 0 0 1 11 2094.6448)" class="st9 st10">7</text>
<rect y="2121.6" width="5" height="48.4">
<title>n.a.
7</title>
</rect>
<text transform="matrix(1 0 0 1 11 2149.6284)" class="st9 st10">n.a.</text>
<rect x="3926.4" class="st11" width="169.6" height="2180"/>
<rect x="3978.1" y="59.2" class="st12" width="66.2" height="2120.8"/>
<text transform="matrix(1 0 0 1 4009.2166 59.2219)" class="st13"><tspan x="0" y="0" class="st14 st15 st16">MIDDLE-</tspan><tspan x="0" y="609" class="st14 st15 st17"> </tspan><tspan x="0" y="631.6" class="st14 st15 st16">EAST</tspan><tspan x="0" y="979.6" class="st14 st15 st17">  </tspan><tspan x="0" y="1024.8" class="st14 st15 st16">NORTH-AFRICA</tspan></text>
</svg>
