<?xml version="1.0" encoding="utf-8"?>
<!-- Generator: Adobe Illustrator 22.0.1, SVG Export Plug-In . SVG Version: 6.00 Build 0)  -->
<svg version="1.1" id="Calque_1" xmlns="http://www.w3.org/2000/svg" xmlns:xlink="http://www.w3.org/1999/xlink" x="0px" y="0px"
	 viewBox="0 0 4096 2180" style="enable-background:new 0 0 4096 2180;" xml:space="preserve">
<style type="text/css">
	.st0{fill:none;stroke:#EA6A61;stroke-width:944.474;stroke-opacity:0.4;}
	.st1{fill:none;stroke:#5D71A8;stroke-width:626.532;stroke-opacity:0.4;}
	.st2{fill:none;stroke:#6B5359;stroke-width:383.4;stroke-opacity:0.4;}
	.st3{fill:none;stroke:#766DAF;stroke-width:56.1074;stroke-opacity:0.4;}
	.st4{fill:none;stroke:#4E6562;stroke-width:32.7293;stroke-opacity:0.4;}
	.st5{fill:none;stroke:#BC3631;stroke-width:18.7025;stroke-opacity:0.4;}
	.st6{fill:none;stroke:#FF4AD2;stroke-width:18.7025;stroke-opacity:0.4;}
	.st7{fill:none;stroke:#F19854;stroke-width:9.3512;stroke-opacity:0.4;}
	.st8{fill:#666666;}
	.st9{font-family:'ArialMT';}
	.st10{font-size:11px;}
	.st11{fill:#EA6A61;}
	.st12{fill:none;}
	.st13{fill:#6B5359;}
	.st14{font-family:'OpenSans-Bold';}
	.st15{font-size:87px;glyph-orientation-vertical:0;writing-mode:tb;}
</style>
<path class="st0" d="M5,1603c2043,0,2043-393.7,4086-393.7">
<title>202</title>
</path>
<path class="st1" d="M5,736c2043,0,2043-341.6,4086-341.6">
<title>134</title>
</path>
<path class="st2" d="M5,201.7c2043,0,2043,1771.6,4086,1771.6">
<title>82</title>
</path>
<path class="st3" d="M5,2113.2c2043,0,2043-2070.2,4086-2070.2">
<title>12</title>
</path>
<path class="st4" d="M5,1075.6c2043,0,2043,679.6,4086,679.6">
<title>7</title>
</path>
<path class="st5" d="M5,1111.4c2043,0,2043,589.5,4086,589.5">
<title>4</title>
</path>
<path class="st6" d="M5,2160.6c2043,0,2043-441.1,4086-441.1">
<title>4</title>
</path>
<path class="st7" d="M5,408.1c2043,0,2043,314.2,4086,314.2">
<title>2</title>
</path>
<rect x="4091" y="15" class="st8" width="5" height="56.1">
<title>12
12</title>
</rect>
<text transform="matrix(1 0 0 1 4072.7646 46.9037)" class="st9 st10">12</text>
<rect x="4091" y="81.1" class="st8" width="5" height="626.5">
<title>134
134</title>
</rect>
<text transform="matrix(1 0 0 1 4066.647 398.2236)" class="st9 st10">134</text>
<rect x="4091" y="717.6" class="st8" width="5" height="9.4">
<title>2
2</title>
</rect>
<text transform="matrix(1 0 0 1 4078.8823 726.1655)" class="st9 st10">2</text>
<rect x="4091" y="737" class="st8" width="5" height="944.5">
<title>202
202</title>
</rect>
<text transform="matrix(1 0 0 1 4066.647 1213.0781)" class="st9 st10">202</text>
<rect x="4091" y="1691.5" class="st8" width="5" height="37.4">
<title>4
8</title>
</rect>
<text transform="matrix(1 0 0 1 4078.8823 1714.0178)" class="st9 st10">4</text>
<rect x="4091" y="1738.9" class="st8" width="5" height="32.7">
<title>7
7</title>
</rect>
<text transform="matrix(1 0 0 1 4078.8823 1759.085)" class="st9 st10">7</text>
<rect x="4091" y="1781.6" class="st8" width="5" height="383.4">
<title>82
82</title>
</rect>
<text transform="matrix(1 0 0 1 4072.7646 1977.1499)" class="st9 st10">82</text>
<rect y="10" width="5" height="383.4">
<title>1
82</title>
</rect>
<text transform="matrix(1 0 0 1 11 205.5503)" class="st9 st10">1</text>
<rect y="403.4" width="5" height="9.4">
<title>2
2</title>
</rect>
<text transform="matrix(1 0 0 1 11 411.926)" class="st9 st10">2</text>
<rect y="422.8" width="5" height="626.5">
<title>3
134</title>
</rect>
<text transform="matrix(1 0 0 1 11 739.8679)" class="st9 st10">3</text>
<rect y="1059.3" width="5" height="32.7">
<title>4
7</title>
</rect>
<text transform="matrix(1 0 0 1 11 1079.4988)" class="st9 st10">4</text>
<rect y="1102" width="5" height="18.7">
<title>5
4</title>
</rect>
<text transform="matrix(1 0 0 1 11 1115.2146)" class="st9 st10">5</text>
<rect y="1130.7" width="5" height="944.5">
<title>6
202</title>
</rect>
<text transform="matrix(1 0 0 1 11 1606.8031)" class="st9 st10">6</text>
<rect y="2085.2" width="5" height="56.1">
<title>7
12</title>
</rect>
<text transform="matrix(1 0 0 1 11 2117.0938)" class="st9 st10">7</text>
<rect y="2151.3" width="5" height="18.7">
<title>n.a.
4</title>
</rect>
<text transform="matrix(1 0 0 1 11 2164.4988)" class="st9 st10">n.a.</text>
<rect x="3926.4" y="-2.5" class="st11" width="169.6" height="2180"/>
<rect x="3978.1" y="889.8" class="st12" width="66.2" height="371.7"/>
<text transform="matrix(1 0 0 1 4009.2166 889.7979)" class="st13 st14 st15">ASIA</text>
</svg>
