<svg width="4096" height="2180" xmlns="http://www.w3.org/2000/svg" version="1.1"><g transform="translate(0,10)"><g><path class="link" d="M5,1618.6440677966102C2048,1618.6440677966102 2048,1325.2542372881358 4091,1325.2542372881358" style="stroke-width: 991.864; fill: none; stroke: rgb(148, 105, 191); stroke-opacity: 0.4;"><title>28</title></path><path class="link" d="M5,675.3389830508474C2048,675.3389830508474 2048,401.9491525423729 4091,401.9491525423729" style="stroke-width: 673.051; fill: none; stroke: rgb(148, 191, 105); stroke-opacity: 0.4;"><title>19</title></path><path class="link" d="M5,159.40677966101694C2048,159.40677966101694 2048,1990.5932203389832 4091,1990.5932203389832" style="stroke-width: 318.814; fill: none; stroke: rgb(191, 105, 105); stroke-opacity: 0.4;"><title>9</title></path><path class="link" d="M5,1077.2881355932204C2048,1077.2881355932204 2048,783.8983050847459 4091,783.8983050847459" style="stroke-width: 70.8475; fill: none; stroke: rgb(105, 126, 191); stroke-opacity: 0.4;"><title>2</title></path><path class="link" d="M5,2142.2881355932204C2048,2142.2881355932204 2048,37.71186440677966 4091,37.71186440677966" style="stroke-width: 35.4237; fill: none; stroke: rgb(191, 105, 169); stroke-opacity: 0.4;"><title>1</title></path><path class="link" d="M5,328.8135593220339C2048,328.8135593220339 2048,10 4091,10" style="stroke-width: 1; fill: none; stroke: rgb(191, 169, 105); stroke-opacity: 0.4;"><title>0</title></path><path class="link" d="M5,1021.8644067796611C2048,1021.8644067796611 2048,10 4091,10" style="stroke-width: 1; fill: none; stroke: rgb(105, 191, 126); stroke-opacity: 0.4;"><title>0</title></path><path class="link" d="M5,1031.864406779661C2048,1031.864406779661 2048,10 4091,10" style="stroke-width: 1; fill: none; stroke: rgb(105, 191, 191); stroke-opacity: 0.4;"><title>0</title></path></g><g><g class="node" transform="translate(4091,10)"><rect height="0" width="5" style="fill: rgb(102, 102, 102);"><title>
0</title></rect><text x="-6" y="0" dy=".35em" text-anchor="end" style="font-size: 11px; font-family: Arial, Helvetica; pointer-events: none;"></text></g><g class="node" transform="translate(4091,20)"><rect height="35.42372881355932" width="5" style="fill: rgb(102, 102, 102);"><title>1
1</title></rect><text x="-6" y="17.71186440677966" dy=".35em" text-anchor="end" style="font-size: 11px; font-family: Arial, Helvetica; pointer-events: none;">1</text></g><g class="node" transform="translate(4091,65.42372881355932)"><rect height="673.0508474576271" width="5" style="fill: rgb(102, 102, 102);"><title>19
19</title></rect><text x="-6" y="336.52542372881356" dy=".35em" text-anchor="end" style="font-size: 11px; font-family: Arial, Helvetica; pointer-events: none;">19</text></g><g class="node" transform="translate(4091,748.4745762711865)"><rect height="70.84745762711864" width="5" style="fill: rgb(102, 102, 102);"><title>2
2</title></rect><text x="-6" y="35.42372881355932" dy=".35em" text-anchor="end" style="font-size: 11px; font-family: Arial, Helvetica; pointer-events: none;">2</text></g><g class="node" transform="translate(4091,829.3220338983051)"><rect height="991.8644067796611" width="5" style="fill: rgb(102, 102, 102);"><title>28
28</title></rect><text x="-6" y="495.93220338983053" dy=".35em" text-anchor="end" style="font-size: 11px; font-family: Arial, Helvetica; pointer-events: none;">28</text></g><g class="node" transform="translate(4091,1831.1864406779662)"><rect height="318.8135593220339" width="5" style="fill: rgb(102, 102, 102);"><title>9
9</title></rect><text x="-6" y="159.40677966101694" dy=".35em" text-anchor="end" style="font-size: 11px; font-family: Arial, Helvetica; pointer-events: none;">9</text></g><g class="node" transform="translate(0,0)"><rect height="318.8135593220339" width="5"><title>1
9</title></rect><text x="11" y="159.40677966101694" dy=".35em" text-anchor="start" style="font-size: 11px; font-family: Arial, Helvetica; pointer-events: none;">1</text></g><g class="node" transform="translate(0,328.8135593220339)"><rect height="0" width="5"><title>2
0</title></rect><text x="11" y="0" dy=".35em" text-anchor="start" style="font-size: 11px; font-family: Arial, Helvetica; pointer-events: none;">2</text></g><g class="node" transform="translate(0,338.8135593220339)"><rect height="673.0508474576271" width="5"><title>3
19</title></rect><text x="11" y="336.52542372881356" dy=".35em" text-anchor="start" style="font-size: 11px; font-family: Arial, Helvetica; pointer-events: none;">3</text></g><g class="node" transform="translate(0,1021.8644067796611)"><rect height="0" width="5"><title>4
0</title></rect><text x="11" y="0" dy=".35em" text-anchor="start" style="font-size: 11px; font-family: Arial, Helvetica; pointer-events: none;">4</text></g><g class="node" transform="translate(0,1031.864406779661)"><rect height="0" width="5"><title>5
0</title></rect><text x="11" y="0" dy=".35em" text-anchor="start" style="font-size: 11px; font-family: Arial, Helvetica; pointer-events: none;">5</text></g><g class="node" transform="translate(0,1041.864406779661)"><rect height="70.84745762711864" width="5"><title>6
2</title></rect><text x="11" y="35.42372881355932" dy=".35em" text-anchor="start" style="font-size: 11px; font-family: Arial, Helvetica; pointer-events: none;">6</text></g><g class="node" transform="translate(0,1122.7118644067798)"><rect height="991.8644067796611" width="5"><title>7
28</title></rect><text x="11" y="495.93220338983053" dy=".35em" text-anchor="start" style="font-size: 11px; font-family: Arial, Helvetica; pointer-events: none;">7</text></g><g class="node" transform="translate(0,2124.576271186441)"><rect height="35.42372881355932" width="5"><title>n.a.
1</title></rect><text x="11" y="17.71186440677966" dy=".35em" text-anchor="start" style="font-size: 11px; font-family: Arial, Helvetica; pointer-events: none;">n.a.</text></g></g></g></svg>