<?xml version="1.0" encoding="utf-8"?>
<!-- Generator: Adobe Illustrator 22.0.1, SVG Export Plug-In . SVG Version: 6.00 Build 0)  -->
<svg version="1.1" id="Calque_1" xmlns="http://www.w3.org/2000/svg" xmlns:xlink="http://www.w3.org/1999/xlink" x="0px" y="0px"
	 viewBox="0 0 4096 2180" style="enable-background:new 0 0 4096 2180;" xml:space="preserve">
<style type="text/css">
	.st0{fill:none;stroke:#6B5359;stroke-width:1698.12;stroke-opacity:0.4;}
	.st1{fill:none;stroke:#5D71A8;stroke-width:326.562;stroke-opacity:0.4;}
	.st2{fill:none;stroke:#EA6A61;stroke-width:26.125;stroke-opacity:0.4;}
	.st3{fill:none;stroke:#F19854;stroke-width:13.0625;stroke-opacity:0.4;}
	.st4{fill:none;stroke:#766DAF;stroke-width:13.0625;stroke-opacity:0.4;}
	.st5{fill:none;stroke:#FF4AD2;stroke-width:13.0625;stroke-opacity:0.4;}
	.st6{fill:none;stroke:#4E6562;stroke-opacity:0.4;}
	.st7{fill:none;stroke:#BC3631;stroke-opacity:0.4;}
	.st8{font-family:'OpenSans-Bold';}
	.st9{font-size:23px;}
	.st10{fill:#666666;}
	.st11{fill:#6B5359;}
	.st12{fill:none;}
	.st13{writing-mode:tb;}
	.st14{fill:#E6E0D8;}
	.st15{font-size:87px;glyph-orientation-vertical:0;}
	.st16{font-size:87px;glyph-orientation-vertical:1;}
</style>
<path class="st0" d="M5,859.1c2043,0,2043,74.2,4086,74.2">
<title>130</title>
</path>
<path class="st1" d="M5,1904.5c2043,0,2043,87.2,4086,87.2">
<title>25</title>
</path>
<path class="st2" d="M5,2110.8c2043,0,2043-305.4,4086-305.4">
<title>2</title>
</path>
<path class="st3" d="M5,1724.7c2043,0,2043-1683.1,4086-1683.1">
<title>1</title>
</path>
<path class="st4" d="M5,2140.4c2043,0,2043-2085.8,4086-2085.8">
<title>1</title>
</path>
<path class="st5" d="M5,2163.5c2043,0,2043-2095.8,4086-2095.8">
<title>1</title>
</path>
<path class="st6" d="M5,2077.8C2048,2077.8,2048,25,4091,25">
<title>0</title>
</path>
<path class="st7" d="M5,2087.8C2048,2087.8,2048,25,4091,25">
<title>0</title>
</path>
<rect y="10" width="5" height="1698.1">
<title>1
130</title>
</rect>
<text transform="matrix(1 0 0 1 11 862.9125)" class="st8 st9">1</text>
<rect y="1718.1" width="5" height="13.1">
<title>2
1</title>
</rect>
<text transform="matrix(1 0 0 1 8 1732.5062)" class="st8 st9">2</text>
<rect y="1741.2" width="5" height="326.6">
<title>3
25</title>
</rect>
<text transform="matrix(1 0 0 1 11 1908.3187)" class="st8 st9">3</text>
<polygon points="0,2077.8 5,2077.8 5,2077.8 ">
<title>4
0</title>
</polygon>
<text transform="matrix(1 0 0 1 11 2072.6001)" class="st8 st9">4</text>
<polygon points="0,2087.8 5,2087.8 5,2087.8 ">
<title>5
0</title>
</polygon>
<text transform="matrix(1 0 0 1 11 2093.6001)" class="st8 st9">5</text>
<rect y="2097.8" width="5" height="26.1">
<title>6
2</title>
</rect>
<text transform="matrix(1 0 0 1 11 2118.6626)" class="st8 st9">6</text>
<rect y="2133.9" width="5" height="13.1">
<title>7
1</title>
</rect>
<text transform="matrix(1 0 0 1 11 2147.2563)" class="st8 st9">7</text>
<rect y="2156.9" width="5" height="13.1">
<title>n.a.
1</title>
</rect>
<text transform="matrix(1 0 0 1 10 2170.3188)" class="st8 st9">n.a.</text>
<polygon class="st10" points="4091,25 4096,25 4096,25 ">
<title>0</title>
</polygon>
<rect x="4091" y="35" class="st10" width="5" height="39.2">
<title>1
3</title>
</rect>
<text transform="matrix(1 0 0 1 4078.8823 58.4437)" class="st8 st9">1</text>
<rect x="4091" y="84.2" class="st10" width="5" height="1698.1">
<title>130
130</title>
</rect>
<text transform="matrix(1 0 0 1 4066.647 937.1)" class="st8 st9">130</text>
<rect x="4091" y="1792.3" class="st10" width="5" height="26.1">
<title>2
2</title>
</rect>
<text transform="matrix(1 0 0 1 4078.8823 1809.225)" class="st8 st9">2</text>
<rect x="4091" y="1828.4" class="st10" width="5" height="326.6">
<title>25
25</title>
</rect>
<text transform="matrix(1 0 0 1 4072.7646 1995.5687)" class="st8 st9">25</text>
<rect x="3926.4" class="st11" width="169.6" height="2180"/>
<rect x="3978.1" y="574.4" class="st12" width="66.2" height="1208"/>
<text transform="matrix(1 0 0 1 4009.2166 574.3502)" class="st13"><tspan x="0" y="0" class="st14 st8 st15">NORTH-</tspan><tspan x="0" y="522" class="st14 st8 st16">  </tspan><tspan x="0" y="567.2" class="st14 st8 st15">AMERICA</tspan></text>
</svg>
