<svg width="4096" height="2160" xmlns="http://www.w3.org/2000/svg" version="1.1"><g class="x axis" transform="translate(0,2145)" style="stroke-width: 1px; font-size: 10px; font-family: Arial, Helvetica;"><g class="tick" transform="translate(400.1709439365569,0)" style="opacity: 1;"><line y2="-2145" x2="0" style="shape-rendering: crispEdges; fill: none; stroke: rgb(204, 204, 204);"></line><text dy=".71em" y="3" x="0" style="text-anchor: middle;">1860</text></g><g class="tick" transform="translate(870.9792456689692,0)" style="opacity: 1;"><line y2="-2145" x2="0" style="shape-rendering: crispEdges; fill: none; stroke: rgb(204, 204, 204);"></line><text dy=".71em" y="3" x="0" style="text-anchor: middle;">1880</text></g><g class="tick" transform="translate(1341.7875474013815,0)" style="opacity: 1;"><line y2="-2145" x2="0" style="shape-rendering: crispEdges; fill: none; stroke: rgb(204, 204, 204);"></line><text dy=".71em" y="3" x="0" style="text-anchor: middle;">1900</text></g><g class="tick" transform="translate(1812.5313989898195,0)" style="opacity: 1;"><line y2="-2145" x2="0" style="shape-rendering: crispEdges; fill: none; stroke: rgb(204, 204, 204);"></line><text dy=".71em" y="3" x="0" style="text-anchor: middle;">1920</text></g><g class="tick" transform="translate(2283.339700722232,0)" style="opacity: 1;"><line y2="-2145" x2="0" style="shape-rendering: crispEdges; fill: none; stroke: rgb(204, 204, 204);"></line><text dy=".71em" y="3" x="0" style="text-anchor: middle;">1940</text></g><g class="tick" transform="translate(2754.148002454644,0)" style="opacity: 1;"><line y2="-2145" x2="0" style="shape-rendering: crispEdges; fill: none; stroke: rgb(204, 204, 204);"></line><text dy=".71em" y="3" x="0" style="text-anchor: middle;">1960</text></g><g class="tick" transform="translate(3224.9563041870565,0)" style="opacity: 1;"><line y2="-2145" x2="0" style="shape-rendering: crispEdges; fill: none; stroke: rgb(204, 204, 204);"></line><text dy=".71em" y="3" x="0" style="text-anchor: middle;">1980</text></g><g class="tick" transform="translate(3695.764605919469,0)" style="opacity: 1;"><line y2="-2145" x2="0" style="shape-rendering: crispEdges; fill: none; stroke: rgb(204, 204, 204);"></line><text dy=".71em" y="3" x="0" style="text-anchor: middle;">2000</text></g><path class="domain" d="M0,-2145V0H4096V-2145" style="shape-rendering: crispEdges; fill: none; stroke: rgb(204, 204, 204);"></path></g><g class="flow" title="Total général" transform="translate(0,0)"><path class="area" d="M0,2097.2L3.9207170917711722,2097.2C7.8414341835423444,2097.2,15.682868367084689,2097.2,78.457308598073,2097.2C141.2317488290613,2097.2,258.93919510749555,2097.2,333.48652830445974,2097.2C408.033861501424,2097.2,439.4210816169182,2097.2,459.0354087664364,2097.2C478.64973591595464,2097.2,486.49117009949697,2097.2,494.34334597370173,2082.9333333333334C502.19552184790643,2068.6666666666665,510.05843941277357,2040.1333333333332,517.9106152869783,2040.1333333333332C525.762791161183,2040.1333333333332,533.6042253447254,2068.6666666666665,541.4456595282677,2082.9333333333334C549.28709371181,2097.2,557.1285278953524,2097.2,564.9699620788948,2097.2C572.8113962624371,2097.2,580.6528304459795,2097.2,592.4257234119553,2097.2C604.1986163779313,2097.2,619.9029681263407,2097.2,635.5965781840878,2097.2C651.2901882418349,2097.2,666.9730566089196,2097.2,690.508100850209,2097.2C714.0431450914984,2097.2,745.4303652069925,2097.2,765.0554340471732,2097.2C784.6805028873538,2097.2,792.543420452221,2097.2,808.237030509968,2097.2C823.930640567715,2097.2,847.454943118342,2097.2,863.1485531760891,2090.0666666666666C878.8421632338362,2082.9333333333334,886.7050807987034,2068.6666666666665,906.3301496388841,2068.6666666666665C925.9552184790648,2068.6666666666665,957.3424385945589,2082.9333333333334,976.9567657440771,2082.9333333333334C996.5710928935953,2082.9333333333334,1004.4125270771376,2068.6666666666665,1012.2539612606801,2068.6666666666665C1020.0953954442224,2068.6666666666665,1027.9368296277648,2082.9333333333334,1051.4718738690542,2090.0666666666666C1075.0069181103436,2097.2,1114.23557240938,2097.2,1137.781358341332,2097.2C1161.3271442732837,2097.2,1169.1900618381508,2097.2,1180.9629548041266,2097.2C1192.7358477701025,2097.2,1208.4187161371872,2097.2,1220.1808674125007,2097.2C1231.9430186878144,2097.2,1239.7844528713567,2097.2,1247.6366287455612,2097.2C1255.4888046197661,2097.2,1263.3517221846332,2097.2,1282.9660493341516,2097.2C1302.5803764836699,2097.2,1333.9461132178392,2097.2,1361.3911328602373,2090.0666666666666C1388.8361525026355,2082.9333333333334,1412.3604550532627,2068.6666666666665,1435.895499294552,2068.6666666666665C1459.4305435358415,2068.6666666666665,1482.9763294677932,2082.9333333333334,1498.6699395255405,2090.0666666666666C1514.3635495832873,2097.2,1522.2049837668296,2097.2,1530.0571596410346,2090.0666666666666C1537.909335515239,2082.9333333333334,1545.772253080106,2068.6666666666665,1553.624428954311,2068.6666666666665C1561.4766048285155,2068.6666666666665,1569.3180390120579,2082.9333333333334,1577.1594731956004,2082.9333333333334C1585.0009073791427,2082.9333333333334,1592.8423415626853,2068.6666666666665,1608.5359516204323,2054.3999999999996C1624.2295616781794,2040.1333333333332,1647.7753476101311,2025.8666666666666,1663.4689576678782,2025.8666666666668C1679.1625677256252,2025.8666666666666,1687.0040019091675,2040.1333333333332,1698.7768948751434,2040.1333333333332C1710.5497878411193,2040.1333333333332,1726.2541395895287,2025.8666666666666,1738.0270325555045,2033C1749.7999255214804,2040.1333333333332,1757.641359705023,2068.6666666666665,1765.4827938885653,2054.3999999999996C1773.3242280721079,2040.1333333333332,1781.1656622556502,1983.0666666666666,1789.0070964391923,1968.8C1796.8485306227349,1954.5333333333333,1804.6899648062772,1983.0666666666666,1812.5421406804817,1997.3333333333333C1820.3943165546866,2011.6,1828.2572341195537,2011.6,1836.1094099937586,2004.4666666666667C1843.9615858679633,1997.3333333333333,1851.8030200515057,1983.0666666666666,1863.565171326819,1997.3333333333333C1875.3273226021327,2011.6,1891.0101909692173,2054.3999999999996,1902.7830839351932,2075.7999999999997C1914.555976901169,2097.2,1922.4188944660361,2097.2,1930.2710703402408,2090.0666666666666C1938.1232462144455,2082.9333333333334,1945.9646803979879,2068.6666666666665,1953.8061145815304,2068.6666666666665C1961.6475487650725,2068.6666666666665,1969.4889829486149,2082.9333333333334,1985.1825930063621,2082.9333333333334C2000.8762030641092,2082.9333333333334,2024.421988996061,2068.6666666666665,2040.1155990538077,2068.6666666666665C2055.809209111555,2068.6666666666665,2063.6506432950973,2082.9333333333334,2071.4920774786397,2068.6666666666665C2079.333511662182,2054.3999999999996,2087.1749458457243,2011.6,2095.0271217199293,2004.4666666666667C2102.879297594134,1997.3333333333333,2110.7422151590013,2025.8666666666666,2118.594391033206,2047.2666666666664C2126.4465669074107,2068.6666666666665,2134.288001090953,2082.9333333333334,2142.1294352744953,2090.0666666666666C2149.9708694580377,2097.2,2157.81230364158,2097.2,2169.585196607556,2068.6666666666665C2181.3580895735317,2040.1333333333332,2197.062441321941,1983.0666666666666,2212.7560513796884,1961.6666666666665C2228.449661437435,1940.2666666666667,2244.1325298045203,1954.5333333333333,2255.894681079834,1968.8C2267.6568323551473,1983.0666666666666,2275.4982665386897,1997.3333333333333,2283.350442412894,2018.7333333333331C2291.202618287099,2040.1333333333332,2299.065535851966,2068.6666666666665,2306.9177117261706,2075.7999999999997C2314.7698876003756,2082.9333333333334,2322.611321783918,2068.6666666666665,2330.4527559674602,2061.5333333333333C2338.2941901510026,2054.3999999999996,2346.135624334545,2054.3999999999996,2353.9770585180872,2054.4C2361.8184927016296,2054.3999999999996,2369.659926885172,2054.3999999999996,2377.5121027593764,1940.2666666666667C2385.3642786335813,1826.1333333333332,2393.2271961984484,1597.8666666666668,2401.079372072653,1562.2C2408.931547946858,1526.5333333333333,2416.7729821304,1683.4666666666665,2424.6144163139425,1747.6666666666665C2432.455850497485,1811.8666666666666,2440.297284681027,1783.3333333333335,2448.13871886457,1769.0666666666668C2455.980153048112,1754.8000000000002,2463.821587231654,1754.8000000000002,2471.673763105859,1790.4666666666667C2479.525938980064,1826.1333333333334,2487.3888565449306,1897.4666666666667,2495.2410324191355,1883.2C2503.0932082933405,1868.9333333333334,2510.934642476883,1769.0666666666666,2518.7760766604247,1733.4C2526.6175108439675,1697.7333333333333,2534.45894502751,1726.2666666666669,2542.3003792110517,1776.2000000000003C2550.1418133945945,1826.1333333333334,2557.983247578137,1897.4666666666667,2565.8354234523413,1947.4C2573.687599326546,1997.3333333333333,2581.5505168914133,2025.8666666666666,2589.402692765618,2032.9999999999998C2597.254868639823,2040.1333333333332,2605.0963028233655,2025.8666666666666,2612.937737006908,2025.8666666666668C2620.77917119045,2025.8666666666666,2628.6206053739925,2040.1333333333332,2636.462039557535,2011.6C2644.303473741077,1983.0666666666666,2652.1449079246195,1911.7333333333331,2659.997083798824,1883.1999999999998C2667.849259673029,1854.6666666666665,2675.712177237896,1868.9333333333334,2683.5643531121004,1883.2C2691.4165289863054,1897.4666666666667,2699.2579631698477,1911.7333333333333,2707.0993973533896,1933.1333333333334C2714.9408315369324,1954.5333333333333,2722.7822657204747,1983.0666666666666,2730.6236999040175,1968.8C2738.4651340875594,1954.5333333333333,2746.3065682711017,1897.4666666666665,2754.158744145306,1883.1999999999998C2762.010920019511,1868.9333333333332,2769.8738375843786,1897.4666666666667,2777.726013458583,1883.2C2785.578189332788,1868.9333333333334,2793.4196235163304,1811.8666666666668,2801.2610576998727,1776.2C2809.102491883415,1740.5333333333333,2816.9439260669574,1726.2666666666667,2824.7853602504997,1726.2666666666667C2832.626794434042,1726.2666666666667,2840.4682286175844,1740.5333333333333,2848.3204044917893,1690.6C2856.172580365994,1640.6666666666667,2864.035497930861,1526.5333333333333,2871.887673805066,1498C2879.7398496792703,1469.4666666666665,2887.5812838628126,1526.533333333333,2895.422718046355,1526.5333333333333C2903.2641522298973,1526.533333333333,2911.1055864134396,1469.4666666666665,2918.947020596982,1476.6C2926.7884547805243,1483.7333333333331,2934.6298889640666,1555.0666666666666,2942.482064838271,1662.0666666666666C2950.334240712476,1769.0666666666666,2958.197158277343,1911.7333333333331,2966.049334151548,1925.9999999999998C2973.901510025753,1940.2666666666664,2981.7429442092953,1826.1333333333332,2989.584378392837,1754.7999999999997C2997.42581257638,1683.4666666666667,3005.2672467599223,1654.9333333333334,3013.108680943464,1569.3333333333333C3020.950115127007,1483.7333333333333,3028.7915493105493,1341.0666666666666,3036.6437251847537,1333.9333333333334C3044.495901058958,1326.8,3052.3588186238258,1455.1999999999998,3060.2109944980302,1533.6666666666665C3068.0631703722347,1612.1333333333332,3075.904604555777,1640.6666666666665,3083.74603873932,1669.1999999999998C3091.5874729228617,1697.7333333333333,3099.428907106404,1726.2666666666669,3107.270341289947,1754.8000000000002C3115.1117754734887,1783.3333333333335,3122.953209657031,1811.8666666666666,3130.8053855312364,1804.7333333333331C3138.657561405441,1797.6,3146.5204789703084,1754.7999999999997,3154.372654844513,1712C3162.224830718718,1669.1999999999998,3170.06626490226,1626.3999999999996,3177.907699085803,1547.933333333333C3185.749133269345,1469.4666666666665,3193.590567452887,1355.3333333333333,3201.432001636429,1326.8000000000002C3209.273435819972,1298.2666666666667,3217.114870003514,1355.3333333333333,3224.967045877719,1383.8666666666668C3232.8192217519236,1412.3999999999999,3240.6821393167907,1412.3999999999999,3248.534315190995,1412.4C3256.3864910652,1412.3999999999999,3264.2279252487424,1412.3999999999999,3272.0693594322847,1383.8666666666668C3279.910793615827,1355.3333333333333,3287.7522277993694,1298.2666666666667,3295.5936619829117,1241.2C3303.435096166454,1184.1333333333332,3311.2765303499964,1127.0666666666666,3319.128706224201,1127.0666666666666C3326.980882098406,1127.0666666666666,3334.843799663273,1184.1333333333332,3342.6959755374774,1169.8666666666666C3350.5481514116823,1155.6,3358.3895855952246,1070,3366.2310197787665,1105.6666666666665C3374.0724539623093,1141.3333333333333,3381.9138881458516,1298.2666666666664,3389.7553223293944,1333.9333333333332C3397.5967565129363,1369.6,3405.4381906964786,1284,3413.290366570683,1177C3421.142542444888,1070,3429.005460009755,941.6,3436.85763588396,898.8C3444.7098117581645,856,3452.551245941707,898.8,3460.392680125249,891.6666666666665C3468.2341143087915,884.5333333333332,3476.075548492334,827.4666666666665,3483.916982675876,670.5333333333332C3491.7584168594185,513.5999999999999,3499.5998510429613,256.79999999999995,3507.452026917166,192.6C3515.3042027913707,128.40000000000003,3523.1671203562382,256.80000000000007,3531.0192962304427,278.2000000000001C3538.871472104647,299.60000000000014,3546.7129062881895,214.0000000000001,3554.5543404717323,249.66666666666677C3562.395774655274,285.3333333333334,3570.2372088388165,442.26666666666677,3578.0786430223593,563.5333333333334C3585.920077205901,684.8,3593.7615113894435,770.4,3601.6136872636484,777.5333333333333C3609.4658631378534,784.6666666666666,3617.32878070272,713.3333333333334,3625.180956576925,613.4666666666667C3633.03313245113,513.6,3640.874566634672,385.20000000000005,3648.7160008182145,349.5333333333333C3656.557435001757,313.8666666666666,3664.398869185299,370.9333333333333,3672.2403033688415,420.86666666666656C3680.0817375523843,470.7999999999999,3687.9231717359266,513.5999999999999,3695.775347610131,485.0666666666666C3703.627523484336,456.5333333333333,3711.490441049203,356.66666666666663,3719.342616923408,442.2666666666666C3727.1947927976125,527.8666666666666,3735.036226981155,798.9333333333333,3742.877661164697,848.8666666666666C3750.7190953482395,898.8,3758.560529531782,727.5999999999999,3766.401963715324,627.7333333333333C3774.2433978988665,527.8666666666666,3782.084832082409,499.33333333333326,3789.9370079566133,485.06666666666655C3797.7891838308183,470.79999999999995,3805.6521013956853,470.79999999999995,3813.50427726989,520.7333333333332C3821.3564531440948,570.6666666666665,3829.197887327637,670.5333333333332,3837.03932151118,691.9333333333333C3844.8807556947218,713.3333333333333,3852.722189878264,656.2666666666667,3860.563624061806,634.8666666666667C3868.4050582453488,613.4666666666667,3876.246492428891,627.7333333333333,3884.098668303096,606.3333333333335C3891.9508441773005,584.9333333333334,3899.8137617421676,527.8666666666667,3907.665937616372,520.7333333333333C3915.518113490577,513.5999999999999,3923.3595476741193,556.4,3931.2009818576616,549.2666666666667C3939.042416041204,542.1333333333333,3946.8838502247463,485.0666666666666,3954.7252844082886,485.0666666666666C3962.566718591831,485.0666666666666,3970.4081527753733,542.1333333333333,3978.260328649578,670.5333333333333C3986.1125045237827,798.9333333333334,3993.97542208865,998.6666666666667,4001.8275979628547,1119.9333333333334C4009.6797738370597,1241.2,4017.521208020602,1284,4025.362642204145,1305.4C4033.2040763876867,1326.8,4041.045510571229,1326.8,4048.886944754772,1405.2666666666664C4056.7283789383137,1483.7333333333331,4064.569813121856,1640.6666666666665,4072.421988996061,1754.8C4080.274164870266,1868.9333333333332,4088.1370824351325,1940.2666666666664,4092.0685412175662,1975.9333333333332L4096,2011.6L4096,2140L4092.0685412175662,2139.9999999999995C4088.1370824351325,2140,4080.274164870266,2140,4072.421988996061,2139.9999999999995C4064.569813121856,2140,4056.7283789383137,2140,4048.886944754772,2139.9999999999995C4041.045510571229,2140,4033.2040763876867,2140,4025.3626422041443,2139.9999999999995C4017.521208020602,2140,4009.6797738370597,2140,4001.8275979628547,2139.9999999999995C3993.97542208865,2140,3986.1125045237827,2140,3978.260328649578,2139.9999999999995C3970.4081527753733,2140,3962.566718591831,2140,3954.7252844082886,2139.9999999999995C3946.8838502247463,2140,3939.042416041204,2140,3931.2009818576616,2139.9999999999995C3923.3595476741193,2140,3915.518113490577,2140,3907.6659376163725,2139.9999999999995C3899.8137617421676,2140,3891.9508441773005,2140,3884.098668303096,2139.9999999999995C3876.246492428891,2140,3868.4050582453488,2140,3860.563624061806,2139.9999999999995C3852.722189878264,2140,3844.8807556947218,2140,3837.03932151118,2139.9999999999995C3829.197887327637,2140,3821.3564531440948,2140,3813.50427726989,2139.9999999999995C3805.6521013956853,2140,3797.7891838308183,2140,3789.937007956614,2139.9999999999995C3782.084832082409,2140,3774.2433978988665,2140,3766.401963715324,2139.9999999999995C3758.560529531782,2140,3750.7190953482395,2140,3742.877661164697,2139.9999999999995C3735.036226981155,2140,3727.1947927976125,2140,3719.342616923408,2139.9999999999995C3711.490441049203,2140,3703.627523484336,2140,3695.7753476101316,2139.9999999999995C3687.9231717359266,2140,3680.0817375523843,2140,3672.240303368842,2139.9999999999995C3664.398869185299,2140,3656.557435001757,2140,3648.7160008182145,2139.9999999999995C3640.874566634672,2140,3633.03313245113,2140,3625.180956576925,2139.9999999999995C3617.32878070272,2140,3609.4658631378534,2140,3601.6136872636484,2139.9999999999995C3593.7615113894435,2140,3585.920077205901,2140,3578.0786430223593,2139.9999999999995C3570.2372088388165,2140,3562.395774655274,2140,3554.5543404717323,2139.9999999999995C3546.7129062881895,2140,3538.871472104647,2140,3531.0192962304427,2139.9999999999995C3523.1671203562382,2140,3515.3042027913707,2140,3507.452026917166,2139.9999999999995C3499.5998510429613,2140,3491.7584168594185,2140,3483.916982675876,2139.9999999999995C3476.075548492334,2140,3468.2341143087915,2140,3460.392680125249,2139.9999999999995C3452.551245941707,2140,3444.7098117581645,2140,3436.85763588396,2139.9999999999995C3429.005460009755,2140,3421.142542444888,2140,3413.2903665706835,2139.9999999999995C3405.4381906964786,2140,3397.5967565129363,2140,3389.7553223293944,2139.9999999999995C3381.9138881458516,2140,3374.0724539623093,2140,3366.2310197787665,2139.9999999999995C3358.3895855952246,2140,3350.5481514116823,2140,3342.695975537478,2139.9999999999995C3334.843799663273,2140,3326.980882098406,2140,3319.128706224201,2139.9999999999995C3311.2765303499964,2140,3303.435096166454,2140,3295.5936619829117,2139.9999999999995C3287.7522277993694,2140,3279.910793615827,2140,3272.0693594322847,2139.9999999999995C3264.2279252487424,2140,3256.3864910652,2140,3248.5343151909956,2139.9999999999995C3240.6821393167907,2140,3232.8192217519236,2140,3224.967045877719,2139.9999999999995C3217.114870003514,2140,3209.273435819972,2140,3201.432001636429,2139.9999999999995C3193.590567452887,2140,3185.749133269345,2140,3177.907699085803,2139.9999999999995C3170.06626490226,2140,3162.224830718718,2140,3154.372654844513,2139.9999999999995C3146.5204789703084,2140,3138.657561405441,2140,3130.805385531236,2139.9999999999995C3122.953209657031,2140,3115.1117754734887,2140,3107.270341289947,2139.9999999999995C3099.428907106404,2140,3091.5874729228617,2140,3083.74603873932,2139.9999999999995C3075.904604555777,2140,3068.0631703722347,2140,3060.2109944980302,2139.9999999999995C3052.3588186238258,2140,3044.495901058958,2140,3036.6437251847537,2139.9999999999995C3028.7915493105493,2140,3020.950115127007,2140,3013.108680943464,2139.9999999999995C3005.2672467599223,2140,2997.42581257638,2140,2989.584378392837,2139.9999999999995C2981.7429442092953,2140,2973.901510025753,2140,2966.049334151548,2139.9999999999995C2958.197158277343,2140,2950.334240712476,2140,2942.4820648382715,2139.9999999999995C2934.6298889640666,2140,2926.7884547805243,2140,2918.947020596982,2139.9999999999995C2911.1055864134396,2140,2903.2641522298973,2140,2895.422718046355,2139.9999999999995C2887.5812838628126,2140,2879.7398496792703,2140,2871.8876738050653,2139.9999999999995C2864.035497930861,2140,2856.172580365994,2140,2848.320404491789,2139.9999999999995C2840.4682286175844,2140,2832.626794434042,2140,2824.7853602504997,2139.9999999999995C2816.9439260669574,2140,2809.102491883415,2140,2801.2610576998727,2139.9999999999995C2793.4196235163304,2140,2785.578189332788,2140,2777.726013458583,2139.9999999999995C2769.8738375843786,2140,2762.010920019511,2140,2754.1587441453066,2139.9999999999995C2746.3065682711017,2140,2738.4651340875594,2140,2730.6236999040175,2139.9999999999995C2722.7822657204747,2140,2714.9408315369324,2140,2707.0993973533896,2139.9999999999995C2699.2579631698477,2140,2691.4165289863054,2140,2683.564353112101,2139.9999999999995C2675.712177237896,2140,2667.849259673029,2140,2659.997083798824,2139.9999999999995C2652.1449079246195,2140,2644.303473741077,2140,2636.462039557535,2139.9999999999995C2628.6206053739925,2140,2620.77917119045,2140,2612.937737006908,2139.9999999999995C2605.0963028233655,2140,2597.254868639823,2140,2589.402692765618,2139.9999999999995C2581.5505168914133,2140,2573.687599326546,2140,2565.8354234523413,2139.9999999999995C2557.983247578137,2140,2550.1418133945945,2140,2542.3003792110517,2139.9999999999995C2534.45894502751,2140,2526.6175108439675,2140,2518.7760766604247,2139.9999999999995C2510.934642476883,2140,2503.0932082933405,2140,2495.2410324191355,2139.9999999999995C2487.3888565449306,2140,2479.525938980064,2140,2471.673763105859,2139.9999999999995C2463.821587231654,2140,2455.980153048112,2140,2448.13871886457,2139.9999999999995C2440.297284681027,2140,2432.455850497485,2140,2424.614416313943,2139.9999999999995C2416.7729821304,2140,2408.931547946858,2140,2401.079372072653,2139.9999999999995C2393.2271961984484,2140,2385.3642786335813,2140,2377.5121027593764,2139.9999999999995C2369.659926885172,2140,2361.8184927016296,2140,2353.9770585180872,2139.9999999999995C2346.135624334545,2140,2338.2941901510026,2140,2330.4527559674602,2139.9999999999995C2322.611321783918,2140,2314.7698876003756,2140,2306.9177117261706,2139.9999999999995C2299.065535851966,2140,2291.202618287099,2140,2283.350442412894,2139.9999999999995C2275.4982665386897,2140,2267.6568323551473,2140,2255.8946810798334,2139.9999999999995C2244.1325298045203,2140,2228.449661437435,2140,2212.756051379688,2139.9999999999995C2197.062441321941,2140,2181.3580895735317,2140,2169.585196607556,2139.9999999999995C2157.81230364158,2140,2149.9708694580377,2140,2142.1294352744953,2139.9999999999995C2134.288001090953,2140,2126.4465669074107,2140,2118.594391033206,2139.9999999999995C2110.7422151590013,2140,2102.879297594134,2140,2095.0271217199293,2139.9999999999995C2087.1749458457243,2140,2079.333511662182,2140,2071.4920774786397,2139.9999999999995C2063.6506432950973,2140,2055.809209111555,2140,2040.1155990538082,2139.9999999999995C2024.421988996061,2140,2000.8762030641092,2140,1985.182593006362,2139.9999999999995C1969.4889829486149,2140,1961.6475487650725,2140,1953.8061145815304,2139.9999999999995C1945.9646803979879,2140,1938.1232462144455,2140,1930.2710703402408,2139.9999999999995C1922.4188944660361,2140,1914.555976901169,2140,1902.7830839351932,2139.9999999999995C1891.0101909692173,2140,1875.3273226021327,2140,1863.565171326819,2139.9999999999995C1851.8030200515057,2140,1843.9615858679633,2140,1836.1094099937584,2139.9999999999995C1828.2572341195537,2140,1820.3943165546866,2140,1812.542140680482,2139.9999999999995C1804.6899648062772,2140,1796.8485306227349,2140,1789.0070964391923,2139.9999999999995C1781.1656622556502,2140,1773.3242280721079,2140,1765.4827938885653,2139.9999999999995C1757.641359705023,2140,1749.7999255214804,2140,1738.0270325555045,2139.9999999999995C1726.2541395895287,2140,1710.5497878411193,2140,1698.7768948751434,2139.9999999999995C1687.0040019091675,2140,1679.1625677256252,2140,1663.4689576678782,2139.9999999999995C1647.7753476101311,2140,1624.2295616781794,2140,1608.5359516204323,2139.9999999999995C1592.8423415626853,2140,1585.0009073791427,2140,1577.1594731956004,2139.9999999999995C1569.3180390120579,2140,1561.4766048285155,2140,1553.624428954311,2139.9999999999995C1545.772253080106,2140,1537.909335515239,2140,1530.0571596410346,2139.9999999999995C1522.2049837668296,2140,1514.3635495832873,2140,1498.6699395255405,2139.9999999999995C1482.9763294677932,2140,1459.4305435358415,2140,1435.8954992945519,2139.9999999999995C1412.3604550532627,2140,1388.8361525026355,2140,1361.3911328602376,2139.9999999999995C1333.9461132178392,2140,1302.5803764836699,2140,1282.9660493341514,2139.9999999999995C1263.3517221846332,2140,1255.4888046197661,2140,1247.6366287455614,2139.9999999999995C1239.7844528713567,2140,1231.9430186878144,2140,1220.1808674125007,2139.9999999999995C1208.4187161371872,2140,1192.7358477701025,2140,1180.9629548041266,2139.9999999999995C1169.1900618381508,2140,1161.3271442732837,2140,1137.7813583413317,2139.9999999999995C1114.23557240938,2140,1075.0069181103436,2140,1051.4718738690542,2139.9999999999995C1027.9368296277648,2140,1020.0953954442224,2140,1012.2539612606801,2139.9999999999995C1004.4125270771376,2140,996.5710928935953,2140,976.9567657440771,2139.9999999999995C957.3424385945589,2140,925.9552184790648,2140,906.3301496388841,2139.9999999999995C886.7050807987034,2140,878.8421632338362,2140,863.1485531760892,2139.9999999999995C847.454943118342,2140,823.930640567715,2140,808.237030509968,2139.9999999999995C792.543420452221,2140,784.6805028873538,2140,765.0554340471731,2139.9999999999995C745.4303652069925,2140,714.0431450914984,2140,690.5081008502091,2139.9999999999995C666.9730566089196,2140,651.2901882418349,2140,635.5965781840878,2139.9999999999995C619.9029681263407,2140,604.1986163779313,2140,592.4257234119553,2139.9999999999995C580.6528304459795,2140,572.8113962624371,2140,564.9699620788947,2139.9999999999995C557.1285278953524,2140,549.28709371181,2140,541.4456595282677,2139.9999999999995C533.6042253447254,2140,525.762791161183,2140,517.9106152869783,2139.9999999999995C510.05843941277357,2140,502.19552184790643,2140,494.34334597370173,2139.9999999999995C486.49117009949697,2140,478.64973591595464,2140,459.03540876643643,2139.9999999999995C439.4210816169182,2140,408.033861501424,2140,333.48652830445974,2139.9999999999995C258.93919510749555,2140,141.2317488290613,2140,78.457308598073,2139.9999999999995C15.682868367084689,2140,7.8414341835423444,2140,3.9207170917711722,2139.9999999999995L0,2140Z" style="fill: rgb(191, 105, 105);"></path><text x="4090" y="2134" style="font-size: 10px; fill: rgb(34, 34, 34); font-family: Arial, Helvetica; text-anchor: end;">Total général</text></g></svg>