<?xml version="1.0" encoding="utf-8"?>
<!-- Generator: Adobe Illustrator 22.0.1, SVG Export Plug-In . SVG Version: 6.00 Build 0)  -->
<svg version="1.1" id="Calque_1" xmlns="http://www.w3.org/2000/svg" xmlns:xlink="http://www.w3.org/1999/xlink" x="0px" y="0px"
	 viewBox="0 0 4096 4096" style="enable-background:new 0 0 4096 4096;" xml:space="preserve">
<style type="text/css">
	.st0{fill-opacity:0;stroke:#DDDDDD;stroke-width:11;}
	.st1{fill:#BF6969;stroke:#DDDDDD;stroke-opacity:0;}
	.st2{fill:#2E1C84;stroke:#DDDDDD;stroke-opacity:0;}
	.st3{font-family:'ArialMT';}
	.st4{font-size:11px;}
	.st5{fill:#69BFBF;stroke:#DDDDDD;stroke-opacity:0;}
	.st6{fill:#E7E000;stroke:#FFFFFF;stroke-opacity:0;}
	.st7{fill:#1D1D1B;}
</style>
<circle class="st0" cx="2140.5" cy="1537.3" r="1496.8"/>
<polygon class="st1" points="2721,971.1 2721,971.1 2721,971.1 2721,971.1 "/>
<circle class="st2" cx="2854.4" cy="1463.6" r="640.5"/>
<g>
	<circle class="st0" cx="3680.9" cy="3441.9" r="67.8"/>
	<text transform="matrix(1 0 0 1 3715.4839 3389.6245)" class="st3 st4">Buddhists</text>
</g>
<g>
	<circle class="st0" cx="792" cy="3441.9" r="531.3"/>
	<text transform="matrix(1 0 0 1 828.361 3105.728)" class="st3 st4">Christians</text>
</g>
<g>
	<circle class="st0" cx="2884.6" cy="3441.9" r="110"/>
	<text transform="matrix(1 0 0 1 2901.5959 3349.3408)" class="st3 st4">Jew</text>
</g>
<g>
	<circle class="st0" cx="2018.2" cy="3441.9" r="273.2"/>
	<text transform="matrix(1 0 0 1 2050.7214 3312.5093)" class="st3 st4">Muslims</text>
</g>
<circle class="st5" cx="1490.2" cy="1537.3" r="846.4"/>
<circle class="st6" cx="1214.3" cy="811.2" r="57.9"/>
<text transform="matrix(1 0 0 1 1160.8574 811.1829)" class="st3 st4">Buddhists, Not Target</text>
<circle class="st1" cx="2927.3" cy="1822.7" r="175.7"/>
<text transform="matrix(1 0 0 1 2884.6233 1822.6595)" class="st3 st4">Christians, Target</text>
<circle class="st6" cx="1945.7" cy="1476.9" r="345.7"/>
<text transform="matrix(1 0 0 1 1892.8804 1476.9392)" class="st3 st4">Christians, Not Target</text>
<circle class="st1" cx="2725" cy="1130.8" r="36.6"/>
<text transform="matrix(1 0 0 1 2697.2656 1130.7908)" class="st3 st4">Jew, Target</text>
<circle class="st6" cx="1332.7" cy="942.5" r="63.5"/>
<text transform="matrix(1 0 0 1 1297.3582 954.5896)" class="st7 st3 st4">Jew, Not Target</text>
<circle class="st1" cx="3155.5" cy="1370.2" r="93.4"/>
<text transform="matrix(1 0 0 1 3117.071 1370.1979)" class="st3 st4">Muslims, Target</text>
<circle class="st6" cx="1127.4" cy="1307" r="169.9"/>
<text transform="matrix(1 0 0 1 1078.9409 1307.0176)" class="st3 st4">Muslims, Not Target</text>
<text transform="matrix(1 0 0 1 2271.0679 2193.8723)" class="st3 st4">TOTAUX BASE</text>
<text transform="matrix(1 0 0 1 2940.5825 1537.2711)" class="st3 st4">TOTAUX BASE, Target</text>
<text transform="matrix(1 0 0 1 1423.8201 1537.2711)" class="st3 st4">TOTAUX BASE, Not Target</text>
</svg>
