<svg width="4096" height="2160" xmlns="http://www.w3.org/2000/svg" version="1.1"><g class="x axis" transform="translate(0,2145)" style="stroke-width: 1px; font-size: 10px; font-family: Arial, Helvetica;"><g class="tick" transform="translate(400.1709439365569,0)" style="opacity: 1;"><line y2="-2145" x2="0" style="shape-rendering: crispEdges; fill: none; stroke: rgb(204, 204, 204);"></line><text dy=".71em" y="3" x="0" style="text-anchor: middle;">1860</text></g><g class="tick" transform="translate(870.9792456689692,0)" style="opacity: 1;"><line y2="-2145" x2="0" style="shape-rendering: crispEdges; fill: none; stroke: rgb(204, 204, 204);"></line><text dy=".71em" y="3" x="0" style="text-anchor: middle;">1880</text></g><g class="tick" transform="translate(1341.7875474013815,0)" style="opacity: 1;"><line y2="-2145" x2="0" style="shape-rendering: crispEdges; fill: none; stroke: rgb(204, 204, 204);"></line><text dy=".71em" y="3" x="0" style="text-anchor: middle;">1900</text></g><g class="tick" transform="translate(1812.5313989898195,0)" style="opacity: 1;"><line y2="-2145" x2="0" style="shape-rendering: crispEdges; fill: none; stroke: rgb(204, 204, 204);"></line><text dy=".71em" y="3" x="0" style="text-anchor: middle;">1920</text></g><g class="tick" transform="translate(2283.339700722232,0)" style="opacity: 1;"><line y2="-2145" x2="0" style="shape-rendering: crispEdges; fill: none; stroke: rgb(204, 204, 204);"></line><text dy=".71em" y="3" x="0" style="text-anchor: middle;">1940</text></g><g class="tick" transform="translate(2754.148002454644,0)" style="opacity: 1;"><line y2="-2145" x2="0" style="shape-rendering: crispEdges; fill: none; stroke: rgb(204, 204, 204);"></line><text dy=".71em" y="3" x="0" style="text-anchor: middle;">1960</text></g><g class="tick" transform="translate(3224.9563041870565,0)" style="opacity: 1;"><line y2="-2145" x2="0" style="shape-rendering: crispEdges; fill: none; stroke: rgb(204, 204, 204);"></line><text dy=".71em" y="3" x="0" style="text-anchor: middle;">1980</text></g><g class="tick" transform="translate(3695.764605919469,0)" style="opacity: 1;"><line y2="-2145" x2="0" style="shape-rendering: crispEdges; fill: none; stroke: rgb(204, 204, 204);"></line><text dy=".71em" y="3" x="0" style="text-anchor: middle;">2000</text></g><path class="domain" d="M0,-2145V0H4096V-2145" style="shape-rendering: crispEdges; fill: none; stroke: rgb(204, 204, 204);"></path></g><g class="flow" title="Total général" transform="translate(0,0)"><path class="area" d="M0,1048.6L3.9207170917711722,1048.6C7.8414341835423444,1048.6,15.682868367084689,1048.6,78.457308598073,1048.6C141.2317488290613,1048.6,258.93919510749555,1048.6,333.48652830445974,1048.6C408.033861501424,1048.6,439.4210816169182,1048.6,459.0354087664364,1048.6C478.64973591595464,1048.6,486.49117009949697,1048.6,494.34334597370173,1041.4666666666667C502.19552184790643,1034.3333333333333,510.05843941277357,1020.0666666666666,517.9106152869783,1020.0666666666666C525.762791161183,1020.0666666666666,533.6042253447254,1034.3333333333333,541.4456595282677,1041.4666666666667C549.28709371181,1048.6,557.1285278953524,1048.6,564.9699620788948,1048.6C572.8113962624371,1048.6,580.6528304459795,1048.6,592.4257234119553,1048.6C604.1986163779313,1048.6,619.9029681263407,1048.6,635.5965781840878,1048.6C651.2901882418349,1048.6,666.9730566089196,1048.6,690.508100850209,1048.6C714.0431450914984,1048.6,745.4303652069925,1048.6,765.0554340471732,1048.6C784.6805028873538,1048.6,792.543420452221,1048.6,808.237030509968,1048.6C823.930640567715,1048.6,847.454943118342,1048.6,863.1485531760891,1045.0333333333333C878.8421632338362,1041.4666666666667,886.7050807987034,1034.3333333333333,906.3301496388841,1034.3333333333333C925.9552184790648,1034.3333333333333,957.3424385945589,1041.4666666666667,976.9567657440771,1041.4666666666667C996.5710928935953,1041.4666666666667,1004.4125270771376,1034.3333333333333,1012.2539612606801,1034.3333333333333C1020.0953954442224,1034.3333333333333,1027.9368296277648,1041.4666666666667,1051.4718738690542,1045.0333333333333C1075.0069181103436,1048.6,1114.23557240938,1048.6,1137.781358341332,1048.6C1161.3271442732837,1048.6,1169.1900618381508,1048.6,1180.9629548041266,1048.6C1192.7358477701025,1048.6,1208.4187161371872,1048.6,1220.1808674125007,1048.6C1231.9430186878144,1048.6,1239.7844528713567,1048.6,1247.6366287455612,1048.6C1255.4888046197661,1048.6,1263.3517221846332,1048.6,1282.9660493341516,1048.6C1302.5803764836699,1048.6,1333.9461132178392,1048.6,1361.3911328602373,1045.0333333333333C1388.8361525026355,1041.4666666666667,1412.3604550532627,1034.3333333333333,1435.895499294552,1034.3333333333333C1459.4305435358415,1034.3333333333333,1482.9763294677932,1041.4666666666667,1498.6699395255405,1045.0333333333333C1514.3635495832873,1048.6,1522.2049837668296,1048.6,1530.0571596410346,1045.0333333333333C1537.909335515239,1041.4666666666667,1545.772253080106,1034.3333333333333,1553.624428954311,1034.3333333333333C1561.4766048285155,1034.3333333333333,1569.3180390120579,1041.4666666666667,1577.1594731956004,1041.4666666666667C1585.0009073791427,1041.4666666666667,1592.8423415626853,1034.3333333333333,1608.5359516204323,1027.1999999999998C1624.2295616781794,1020.0666666666666,1647.7753476101311,1012.9333333333333,1663.4689576678782,1012.9333333333334C1679.1625677256252,1012.9333333333333,1687.0040019091675,1020.0666666666666,1698.7768948751434,1020.0666666666666C1710.5497878411193,1020.0666666666666,1726.2541395895287,1012.9333333333333,1738.0270325555045,1016.5C1749.7999255214804,1020.0666666666666,1757.641359705023,1034.3333333333333,1765.4827938885653,1027.1999999999998C1773.3242280721079,1020.0666666666666,1781.1656622556502,991.5333333333333,1789.0070964391923,984.4C1796.8485306227349,977.2666666666667,1804.6899648062772,991.5333333333333,1812.5421406804817,998.6666666666666C1820.3943165546866,1005.8,1828.2572341195537,1005.8,1836.1094099937586,1002.2333333333333C1843.9615858679633,998.6666666666666,1851.8030200515057,991.5333333333333,1863.565171326819,998.6666666666666C1875.3273226021327,1005.8,1891.0101909692173,1027.1999999999998,1902.7830839351932,1037.8999999999999C1914.555976901169,1048.6,1922.4188944660361,1048.6,1930.2710703402408,1045.0333333333333C1938.1232462144455,1041.4666666666667,1945.9646803979879,1034.3333333333333,1953.8061145815304,1034.3333333333333C1961.6475487650725,1034.3333333333333,1969.4889829486149,1041.4666666666667,1985.1825930063621,1041.4666666666667C2000.8762030641092,1041.4666666666667,2024.421988996061,1034.3333333333333,2040.1155990538077,1034.3333333333333C2055.809209111555,1034.3333333333333,2063.6506432950973,1041.4666666666667,2071.4920774786397,1034.3333333333333C2079.333511662182,1027.1999999999998,2087.1749458457243,1005.8,2095.0271217199293,1002.2333333333333C2102.879297594134,998.6666666666666,2110.7422151590013,1012.9333333333333,2118.594391033206,1023.6333333333332C2126.4465669074107,1034.3333333333333,2134.288001090953,1041.4666666666667,2142.1294352744953,1045.0333333333333C2149.9708694580377,1048.6,2157.81230364158,1048.6,2169.585196607556,1034.3333333333333C2181.3580895735317,1020.0666666666666,2197.062441321941,991.5333333333333,2212.7560513796884,980.8333333333333C2228.449661437435,970.1333333333333,2244.1325298045203,977.2666666666667,2255.894681079834,984.4C2267.6568323551473,991.5333333333333,2275.4982665386897,998.6666666666666,2283.350442412894,1009.3666666666666C2291.202618287099,1020.0666666666666,2299.065535851966,1034.3333333333333,2306.9177117261706,1037.8999999999999C2314.7698876003756,1041.4666666666667,2322.611321783918,1034.3333333333333,2330.4527559674602,1030.7666666666667C2338.2941901510026,1027.1999999999998,2346.135624334545,1027.1999999999998,2353.9770585180872,1027.2C2361.8184927016296,1027.1999999999998,2369.659926885172,1027.1999999999998,2377.5121027593764,970.1333333333333C2385.3642786335813,913.0666666666666,2393.2271961984484,798.9333333333334,2401.079372072653,781.1C2408.931547946858,763.2666666666667,2416.7729821304,841.7333333333332,2424.6144163139425,873.8333333333333C2432.455850497485,905.9333333333333,2440.297284681027,891.6666666666667,2448.13871886457,884.5333333333334C2455.980153048112,877.4000000000001,2463.821587231654,877.4000000000001,2471.673763105859,895.2333333333333C2479.525938980064,913.0666666666667,2487.3888565449306,948.7333333333333,2495.2410324191355,941.6C2503.0932082933405,934.4666666666667,2510.934642476883,884.5333333333333,2518.7760766604247,866.7C2526.6175108439675,848.8666666666667,2534.45894502751,863.1333333333334,2542.3003792110517,888.1000000000001C2550.1418133945945,913.0666666666667,2557.983247578137,948.7333333333333,2565.8354234523413,973.7C2573.687599326546,998.6666666666666,2581.5505168914133,1012.9333333333333,2589.402692765618,1016.4999999999999C2597.254868639823,1020.0666666666666,2605.0963028233655,1012.9333333333333,2612.937737006908,1012.9333333333334C2620.77917119045,1012.9333333333333,2628.6206053739925,1020.0666666666666,2636.462039557535,1005.8C2644.303473741077,991.5333333333333,2652.1449079246195,955.8666666666666,2659.997083798824,941.5999999999999C2667.849259673029,927.3333333333333,2675.712177237896,934.4666666666667,2683.5643531121004,941.6C2691.4165289863054,948.7333333333333,2699.2579631698477,955.8666666666667,2707.0993973533896,966.5666666666667C2714.9408315369324,977.2666666666667,2722.7822657204747,991.5333333333333,2730.6236999040175,984.4C2738.4651340875594,977.2666666666667,2746.3065682711017,948.7333333333332,2754.158744145306,941.5999999999999C2762.010920019511,934.4666666666666,2769.8738375843786,948.7333333333333,2777.726013458583,941.6C2785.578189332788,934.4666666666667,2793.4196235163304,905.9333333333334,2801.2610576998727,888.1C2809.102491883415,870.2666666666667,2816.9439260669574,863.1333333333333,2824.7853602504997,863.1333333333333C2832.626794434042,863.1333333333333,2840.4682286175844,870.2666666666667,2848.3204044917893,845.3C2856.172580365994,820.3333333333334,2864.035497930861,763.2666666666667,2871.887673805066,749C2879.7398496792703,734.7333333333332,2887.5812838628126,763.2666666666665,2895.422718046355,763.2666666666667C2903.2641522298973,763.2666666666665,2911.1055864134396,734.7333333333332,2918.947020596982,738.3C2926.7884547805243,741.8666666666666,2934.6298889640666,777.5333333333333,2942.482064838271,831.0333333333333C2950.334240712476,884.5333333333333,2958.197158277343,955.8666666666666,2966.049334151548,962.9999999999999C2973.901510025753,970.1333333333332,2981.7429442092953,913.0666666666666,2989.584378392837,877.3999999999999C2997.42581257638,841.7333333333333,3005.2672467599223,827.4666666666667,3013.108680943464,784.6666666666666C3020.950115127007,741.8666666666667,3028.7915493105493,670.5333333333333,3036.6437251847537,666.9666666666667C3044.495901058958,663.4,3052.3588186238258,727.5999999999999,3060.2109944980302,766.8333333333333C3068.0631703722347,806.0666666666666,3075.904604555777,820.3333333333333,3083.74603873932,834.5999999999999C3091.5874729228617,848.8666666666667,3099.428907106404,863.1333333333334,3107.270341289947,877.4000000000001C3115.1117754734887,891.6666666666667,3122.953209657031,905.9333333333333,3130.8053855312364,902.3666666666666C3138.657561405441,898.8,3146.5204789703084,877.3999999999999,3154.372654844513,856C3162.224830718718,834.5999999999999,3170.06626490226,813.1999999999998,3177.907699085803,773.9666666666665C3185.749133269345,734.7333333333332,3193.590567452887,677.6666666666666,3201.432001636429,663.4000000000001C3209.273435819972,649.1333333333333,3217.114870003514,677.6666666666666,3224.967045877719,691.9333333333334C3232.8192217519236,706.1999999999999,3240.6821393167907,706.1999999999999,3248.534315190995,706.2C3256.3864910652,706.1999999999999,3264.2279252487424,706.1999999999999,3272.0693594322847,691.9333333333334C3279.910793615827,677.6666666666666,3287.7522277993694,649.1333333333333,3295.5936619829117,620.6C3303.435096166454,592.0666666666666,3311.2765303499964,563.5333333333333,3319.128706224201,563.5333333333333C3326.980882098406,563.5333333333333,3334.843799663273,592.0666666666666,3342.6959755374774,584.9333333333333C3350.5481514116823,577.8,3358.3895855952246,535,3366.2310197787665,552.8333333333333C3374.0724539623093,570.6666666666666,3381.9138881458516,649.1333333333332,3389.7553223293944,666.9666666666666C3397.5967565129363,684.8,3405.4381906964786,642,3413.290366570683,588.5C3421.142542444888,535,3429.005460009755,470.8,3436.85763588396,449.4C3444.7098117581645,428,3452.551245941707,449.4,3460.392680125249,445.83333333333326C3468.2341143087915,442.2666666666666,3476.075548492334,413.73333333333323,3483.916982675876,335.2666666666666C3491.7584168594185,256.79999999999995,3499.5998510429613,128.39999999999998,3507.452026917166,96.3C3515.3042027913707,64.20000000000002,3523.1671203562382,128.40000000000003,3531.0192962304427,139.10000000000005C3538.871472104647,149.80000000000007,3546.7129062881895,107.00000000000006,3554.5543404717323,124.83333333333339C3562.395774655274,142.6666666666667,3570.2372088388165,221.13333333333338,3578.0786430223593,281.7666666666667C3585.920077205901,342.4,3593.7615113894435,385.2,3601.6136872636484,388.76666666666665C3609.4658631378534,392.3333333333333,3617.32878070272,356.6666666666667,3625.180956576925,306.73333333333335C3633.03313245113,256.8,3640.874566634672,192.60000000000002,3648.7160008182145,174.76666666666665C3656.557435001757,156.9333333333333,3664.398869185299,185.46666666666664,3672.2403033688415,210.43333333333328C3680.0817375523843,235.39999999999995,3687.9231717359266,256.79999999999995,3695.775347610131,242.5333333333333C3703.627523484336,228.26666666666665,3711.490441049203,178.33333333333331,3719.342616923408,221.1333333333333C3727.1947927976125,263.9333333333333,3735.036226981155,399.46666666666664,3742.877661164697,424.4333333333333C3750.7190953482395,449.4,3758.560529531782,363.79999999999995,3766.401963715324,313.8666666666667C3774.2433978988665,263.9333333333333,3782.084832082409,249.66666666666663,3789.9370079566133,242.53333333333327C3797.7891838308183,235.39999999999998,3805.6521013956853,235.39999999999998,3813.50427726989,260.3666666666666C3821.3564531440948,285.33333333333326,3829.197887327637,335.2666666666666,3837.03932151118,345.96666666666664C3844.8807556947218,356.66666666666663,3852.722189878264,328.1333333333333,3860.563624061806,317.43333333333334C3868.4050582453488,306.73333333333335,3876.246492428891,313.8666666666667,3884.098668303096,303.16666666666674C3891.9508441773005,292.4666666666667,3899.8137617421676,263.93333333333334,3907.665937616372,260.3666666666667C3915.518113490577,256.79999999999995,3923.3595476741193,278.2,3931.2009818576616,274.6333333333333C3939.042416041204,271.06666666666666,3946.8838502247463,242.5333333333333,3954.7252844082886,242.5333333333333C3962.566718591831,242.5333333333333,3970.4081527753733,271.06666666666666,3978.260328649578,335.26666666666665C3986.1125045237827,399.4666666666667,3993.97542208865,499.33333333333337,4001.8275979628547,559.9666666666667C4009.6797738370597,620.6,4017.521208020602,642,4025.362642204145,652.7C4033.2040763876867,663.4,4041.045510571229,663.4,4048.886944754772,702.6333333333332C4056.7283789383137,741.8666666666666,4064.569813121856,820.3333333333333,4072.421988996061,877.4C4080.274164870266,934.4666666666666,4088.1370824351325,970.1333333333332,4092.0685412175662,987.9666666666666L4096,1005.8L4096,1134.2L4092.0685412175662,1152.0333333333333C4088.1370824351325,1169.8666666666668,4080.274164870266,1205.5333333333333,4072.421988996061,1262.6C4064.569813121856,1319.6666666666665,4056.7283789383137,1398.1333333333332,4048.886944754772,1437.3666666666663C4041.045510571229,1476.6,4033.2040763876867,1476.6,4025.3626422041443,1487.2999999999997C4017.521208020602,1497.9999999999998,4009.6797738370597,1519.3999999999996,4001.8275979628547,1580.033333333333C3993.97542208865,1640.6666666666665,3986.1125045237827,1740.5333333333333,3978.260328649578,1804.7333333333333C3970.4081527753733,1868.9333333333334,3962.566718591831,1897.4666666666667,3954.7252844082886,1897.4666666666667C3946.8838502247463,1897.4666666666667,3939.042416041204,1868.9333333333334,3931.2009818576616,1865.3666666666668C3923.3595476741193,1861.8,3915.518113490577,1883.1999999999998,3907.6659376163725,1879.6333333333332C3899.8137617421676,1876.0666666666664,3891.9508441773005,1847.533333333333,3884.098668303096,1836.8333333333333C3876.246492428891,1826.1333333333332,3868.4050582453488,1833.2666666666667,3860.563624061806,1822.5666666666666C3852.722189878264,1811.8666666666668,3844.8807556947218,1783.3333333333333,3837.03932151118,1794.0333333333333C3829.197887327637,1804.7333333333331,3821.3564531440948,1854.6666666666665,3813.50427726989,1879.6333333333332C3805.6521013956853,1904.5999999999997,3797.7891838308183,1904.5999999999997,3789.937007956614,1897.4666666666665C3782.084832082409,1890.333333333333,3774.2433978988665,1876.0666666666664,3766.401963715324,1826.1333333333332C3758.560529531782,1776.1999999999998,3750.7190953482395,1690.6,3742.877661164697,1715.5666666666666C3735.036226981155,1740.5333333333333,3727.1947927976125,1876.0666666666666,3719.342616923408,1918.8666666666666C3711.490441049203,1961.6666666666665,3703.627523484336,1911.7333333333331,3695.7753476101316,1897.4666666666665C3687.9231717359266,1883.1999999999998,3680.0817375523843,1904.6,3672.240303368842,1929.5666666666666C3664.398869185299,1954.5333333333333,3656.557435001757,1983.0666666666666,3648.7160008182145,1965.2333333333331C3640.874566634672,1947.3999999999999,3633.03313245113,1883.1999999999998,3625.180956576925,1833.2666666666664C3617.32878070272,1783.333333333333,3609.4658631378534,1747.6666666666665,3601.6136872636484,1751.2333333333333C3593.7615113894435,1754.8,3585.920077205901,1797.6,3578.0786430223593,1858.2333333333331C3570.2372088388165,1918.8666666666666,3562.395774655274,1997.333333333333,3554.5543404717323,2015.1666666666663C3546.7129062881895,2032.9999999999995,3538.871472104647,1990.1999999999996,3531.0192962304427,2000.8999999999996C3523.1671203562382,2011.5999999999997,3515.3042027913707,2075.7999999999997,3507.452026917166,2043.6999999999998C3499.5998510429613,2011.6,3491.7584168594185,1883.1999999999998,3483.916982675876,1804.7333333333333C3476.075548492334,1726.2666666666664,3468.2341143087915,1697.7333333333331,3460.392680125249,1694.1666666666665C3452.551245941707,1690.6,3444.7098117581645,1712,3436.85763588396,1690.6C3429.005460009755,1669.1999999999998,3421.142542444888,1604.9999999999998,3413.2903665706835,1551.5C3405.4381906964786,1497.9999999999998,3397.5967565129363,1455.1999999999998,3389.7553223293944,1473.0333333333333C3381.9138881458516,1490.8666666666668,3374.0724539623093,1569.3333333333333,3366.2310197787665,1587.1666666666667C3358.3895855952246,1605,3350.5481514116823,1562.2,3342.695975537478,1555.0666666666666C3334.843799663273,1547.9333333333334,3326.980882098406,1576.4666666666667,3319.128706224201,1576.4666666666667C3311.2765303499964,1576.4666666666667,3303.435096166454,1547.9333333333334,3295.5936619829117,1519.4C3287.7522277993694,1490.8666666666668,3279.910793615827,1462.3333333333335,3272.0693594322847,1448.0666666666668C3264.2279252487424,1433.8000000000002,3256.3864910652,1433.8000000000002,3248.5343151909956,1433.8000000000002C3240.6821393167907,1433.8000000000002,3232.8192217519236,1433.8000000000002,3224.967045877719,1448.0666666666668C3217.114870003514,1462.3333333333335,3209.273435819972,1490.8666666666668,3201.432001636429,1476.6000000000001C3193.590567452887,1462.3333333333335,3185.749133269345,1405.2666666666667,3177.907699085803,1366.0333333333333C3170.06626490226,1326.8,3162.224830718718,1305.4,3154.372654844513,1284C3146.5204789703084,1262.6,3138.657561405441,1241.2,3130.805385531236,1237.6333333333334C3122.953209657031,1234.0666666666666,3115.1117754734887,1248.3333333333333,3107.270341289947,1262.6C3099.428907106404,1276.8666666666666,3091.5874729228617,1291.1333333333332,3083.74603873932,1305.4C3075.904604555777,1319.6666666666665,3068.0631703722347,1333.9333333333334,3060.2109944980302,1373.1666666666665C3052.3588186238258,1412.3999999999999,3044.495901058958,1476.6,3036.6437251847537,1473.0333333333333C3028.7915493105493,1469.4666666666665,3020.950115127007,1398.1333333333332,3013.108680943464,1355.3333333333333C3005.2672467599223,1312.5333333333333,2997.42581257638,1298.2666666666667,2989.584378392837,1262.6C2981.7429442092953,1226.9333333333334,2973.901510025753,1169.8666666666666,2966.049334151548,1177C2958.197158277343,1184.1333333333332,2950.334240712476,1255.4666666666667,2942.4820648382715,1308.9666666666667C2934.6298889640666,1362.4666666666667,2926.7884547805243,1398.1333333333334,2918.947020596982,1401.7C2911.1055864134396,1405.2666666666669,2903.2641522298973,1376.7333333333333,2895.422718046355,1376.7333333333333C2887.5812838628126,1376.7333333333333,2879.7398496792703,1405.2666666666669,2871.8876738050653,1391.0000000000002C2864.035497930861,1376.7333333333333,2856.172580365994,1319.6666666666665,2848.320404491789,1294.6999999999998C2840.4682286175844,1269.7333333333331,2832.626794434042,1276.8666666666666,2824.7853602504997,1276.8666666666668C2816.9439260669574,1276.8666666666666,2809.102491883415,1269.7333333333331,2801.2610576998727,1251.8999999999999C2793.4196235163304,1234.0666666666666,2785.578189332788,1205.5333333333333,2777.726013458583,1198.3999999999999C2769.8738375843786,1191.2666666666667,2762.010920019511,1205.5333333333333,2754.1587441453066,1198.4C2746.3065682711017,1191.2666666666667,2738.4651340875594,1162.7333333333333,2730.6236999040175,1155.6000000000001C2722.7822657204747,1148.4666666666667,2714.9408315369324,1162.7333333333333,2707.0993973533896,1173.4333333333334C2699.2579631698477,1184.1333333333332,2691.4165289863054,1191.2666666666667,2683.564353112101,1198.4C2675.712177237896,1205.5333333333333,2667.849259673029,1212.6666666666667,2659.997083798824,1198.4C2652.1449079246195,1184.1333333333332,2644.303473741077,1148.4666666666667,2636.462039557535,1134.1999999999998C2628.6206053739925,1119.9333333333332,2620.77917119045,1127.0666666666666,2612.937737006908,1127.0666666666666C2605.0963028233655,1127.0666666666666,2597.254868639823,1119.9333333333332,2589.402692765618,1123.4999999999998C2581.5505168914133,1127.0666666666666,2573.687599326546,1141.333333333333,2565.8354234523413,1166.3C2557.983247578137,1191.2666666666664,2550.1418133945945,1226.9333333333332,2542.3003792110517,1251.8999999999999C2534.45894502751,1276.8666666666666,2526.6175108439675,1291.1333333333332,2518.7760766604247,1273.3C2510.934642476883,1255.4666666666667,2503.0932082933405,1205.5333333333333,2495.2410324191355,1198.3999999999999C2487.3888565449306,1191.2666666666664,2479.525938980064,1226.9333333333332,2471.673763105859,1244.7666666666667C2463.821587231654,1262.6,2455.980153048112,1262.6,2448.13871886457,1255.4666666666665C2440.297284681027,1248.3333333333333,2432.455850497485,1234.0666666666666,2424.614416313943,1266.1666666666665C2416.7729821304,1298.2666666666667,2408.931547946858,1376.7333333333331,2401.079372072653,1358.8999999999999C2393.2271961984484,1341.0666666666666,2385.3642786335813,1226.9333333333332,2377.5121027593764,1169.8666666666666C2369.659926885172,1112.7999999999997,2361.8184927016296,1112.7999999999997,2353.9770585180872,1112.8C2346.135624334545,1112.7999999999997,2338.2941901510026,1112.7999999999997,2330.4527559674602,1109.2333333333333C2322.611321783918,1105.6666666666665,2314.7698876003756,1098.5333333333333,2306.9177117261706,1102.1C2299.065535851966,1105.6666666666667,2291.202618287099,1119.9333333333334,2283.350442412894,1130.6333333333332C2275.4982665386897,1141.3333333333333,2267.6568323551473,1148.4666666666665,2255.8946810798334,1155.6C2244.1325298045203,1162.7333333333331,2228.449661437435,1169.8666666666666,2212.756051379688,1159.1666666666667C2197.062441321941,1148.4666666666667,2181.3580895735317,1119.9333333333334,2169.585196607556,1105.6666666666667C2157.81230364158,1091.4,2149.9708694580377,1091.4,2142.1294352744953,1094.9666666666667C2134.288001090953,1098.5333333333333,2126.4465669074107,1105.6666666666665,2118.594391033206,1116.3666666666666C2110.7422151590013,1127.0666666666666,2102.879297594134,1141.333333333333,2095.0271217199293,1137.7666666666667C2087.1749458457243,1134.1999999999998,2079.333511662182,1112.8,2071.4920774786397,1105.6666666666667C2063.6506432950973,1098.5333333333333,2055.809209111555,1105.6666666666665,2040.1155990538082,1105.6666666666665C2024.421988996061,1105.6666666666665,2000.8762030641092,1098.5333333333333,1985.182593006362,1098.5333333333333C1969.4889829486149,1098.5333333333333,1961.6475487650725,1105.6666666666665,1953.8061145815304,1105.6666666666665C1945.9646803979879,1105.6666666666665,1938.1232462144455,1098.5333333333333,1930.2710703402408,1094.9666666666667C1922.4188944660361,1091.4,1914.555976901169,1091.4,1902.7830839351932,1102.1C1891.0101909692173,1112.8,1875.3273226021327,1134.1999999999998,1863.565171326819,1141.3333333333333C1851.8030200515057,1148.4666666666665,1843.9615858679633,1141.3333333333333,1836.1094099937584,1137.7666666666667C1828.2572341195537,1134.2,1820.3943165546866,1134.2,1812.542140680482,1141.3333333333333C1804.6899648062772,1148.4666666666667,1796.8485306227349,1162.7333333333333,1789.0070964391923,1155.6C1781.1656622556502,1148.4666666666667,1773.3242280721079,1119.9333333333334,1765.4827938885653,1112.8C1757.641359705023,1105.6666666666667,1749.7999255214804,1119.9333333333334,1738.0270325555045,1123.5C1726.2541395895287,1127.0666666666666,1710.5497878411193,1119.9333333333332,1698.7768948751434,1119.9333333333332C1687.0040019091675,1119.9333333333332,1679.1625677256252,1127.0666666666666,1663.4689576678782,1127.0666666666666C1647.7753476101311,1127.0666666666666,1624.2295616781794,1119.9333333333332,1608.5359516204323,1112.8C1592.8423415626853,1105.6666666666665,1585.0009073791427,1098.5333333333333,1577.1594731956004,1098.5333333333333C1569.3180390120579,1098.5333333333333,1561.4766048285155,1105.6666666666665,1553.624428954311,1105.6666666666665C1545.772253080106,1105.6666666666665,1537.909335515239,1098.5333333333333,1530.0571596410346,1094.9666666666667C1522.2049837668296,1091.4,1514.3635495832873,1091.4,1498.6699395255405,1094.9666666666667C1482.9763294677932,1098.5333333333333,1459.4305435358415,1105.6666666666665,1435.8954992945519,1105.6666666666665C1412.3604550532627,1105.6666666666665,1388.8361525026355,1098.5333333333333,1361.3911328602376,1094.9666666666667C1333.9461132178392,1091.4,1302.5803764836699,1091.4,1282.9660493341514,1091.4C1263.3517221846332,1091.4,1255.4888046197661,1091.4,1247.6366287455614,1091.4C1239.7844528713567,1091.4,1231.9430186878144,1091.4,1220.1808674125007,1091.4C1208.4187161371872,1091.4,1192.7358477701025,1091.4,1180.9629548041266,1091.4C1169.1900618381508,1091.4,1161.3271442732837,1091.4,1137.7813583413317,1091.4C1114.23557240938,1091.4,1075.0069181103436,1091.4,1051.4718738690542,1094.9666666666667C1027.9368296277648,1098.5333333333333,1020.0953954442224,1105.6666666666665,1012.2539612606801,1105.6666666666665C1004.4125270771376,1105.6666666666665,996.5710928935953,1098.5333333333333,976.9567657440771,1098.5333333333333C957.3424385945589,1098.5333333333333,925.9552184790648,1105.6666666666665,906.3301496388841,1105.6666666666665C886.7050807987034,1105.6666666666665,878.8421632338362,1098.5333333333333,863.1485531760892,1094.9666666666667C847.454943118342,1091.4,823.930640567715,1091.4,808.237030509968,1091.4C792.543420452221,1091.4,784.6805028873538,1091.4,765.0554340471731,1091.4C745.4303652069925,1091.4,714.0431450914984,1091.4,690.5081008502091,1091.4C666.9730566089196,1091.4,651.2901882418349,1091.4,635.5965781840878,1091.4C619.9029681263407,1091.4,604.1986163779313,1091.4,592.4257234119553,1091.4C580.6528304459795,1091.4,572.8113962624371,1091.4,564.9699620788947,1091.4C557.1285278953524,1091.4,549.28709371181,1091.4,541.4456595282677,1098.5333333333333C533.6042253447254,1105.6666666666667,525.762791161183,1119.9333333333334,517.9106152869783,1119.9333333333334C510.05843941277357,1119.9333333333334,502.19552184790643,1105.6666666666667,494.34334597370173,1098.5333333333333C486.49117009949697,1091.4,478.64973591595464,1091.4,459.03540876643643,1091.4C439.4210816169182,1091.4,408.033861501424,1091.4,333.48652830445974,1091.4C258.93919510749555,1091.4,141.2317488290613,1091.4,78.457308598073,1091.4C15.682868367084689,1091.4,7.8414341835423444,1091.4,3.9207170917711722,1091.4L0,1091.4Z" style="fill: rgb(191, 105, 105);"></path><text x="4090" y="2134" style="font-size: 10px; fill: rgb(34, 34, 34); font-family: Arial, Helvetica; text-anchor: end;">Total général</text></g></svg>