<?xml version="1.0" encoding="utf-8"?>
<!-- Generator: Adobe Illustrator 22.0.1, SVG Export Plug-In . SVG Version: 6.00 Build 0)  -->
<svg version="1.1" id="Calque_1" xmlns="http://www.w3.org/2000/svg" xmlns:xlink="http://www.w3.org/1999/xlink" x="0px" y="0px"
	 viewBox="0 0 800 600" style="enable-background:new 0 0 800 600;" xml:space="preserve">
<style type="text/css">
	.st0{fill:none;stroke:#CCCCCC;}
	.st1{fill:#BF6969;}
	.st2{enable-background:new    ;}
	.st3{font-family:'ArialMT';}
	.st4{font-size:10px;}
</style>
<g transform="translate(0,550)">
	<line class="st0" x1="185.9" y1="-635.8" x2="185.9" y2="-641.8"/>
	<text transform="matrix(1.970146e-07 1 -1 1.970146e-07 182.728 -650.4031)" class="st3 st4">0</text>
</g>
<g transform="translate(0,489.29359823399557)">
	<line class="st0" x1="246.6" y1="-575.1" x2="246.6" y2="-581.1"/>
	<text transform="matrix(1.970146e-07 1 -1 1.970146e-07 243.4331 -595.2577)" class="st3 st4">50</text>
</g>
<g transform="translate(0,428.58719646799113)">
	<line class="st0" x1="307.3" y1="-514.4" x2="307.3" y2="-520.4"/>
	<text transform="matrix(1.970146e-07 1 -1 1.970146e-07 304.1382 -540.1131)" class="st3 st4">100</text>
</g>
<g transform="translate(0,367.88079470198676)">
	<line class="st0" x1="368" y1="-453.7" x2="368" y2="-459.7"/>
	<text transform="matrix(1.970146e-07 1 -1 1.970146e-07 364.8452 -479.4051)" class="st3 st4">150</text>
</g>
<g transform="translate(0,307.1743929359823)">
	<line class="st0" x1="428.8" y1="-393" x2="428.8" y2="-399"/>
	<text transform="matrix(1.970146e-07 1 -1 1.970146e-07 425.5522 -418.6989)" class="st3 st4">200</text>
</g>
<g transform="translate(0,246.4679911699779)">
	<line class="st0" x1="489.5" y1="-332.3" x2="489.5" y2="-338.3"/>
	<text transform="matrix(1.970146e-07 1 -1 1.970146e-07 486.2573 -357.9926)" class="st3 st4">250</text>
</g>
<g transform="translate(0,185.7615894039735)">
	<line class="st0" x1="550.2" y1="-271.6" x2="550.2" y2="-277.6"/>
	<text transform="matrix(1.970146e-07 1 -1 1.970146e-07 546.9644 -297.2864)" class="st3 st4">300</text>
</g>
<g transform="translate(0,125.05518763796913)">
	<line class="st0" x1="610.9" y1="-210.9" x2="610.9" y2="-216.9"/>
	<text transform="matrix(1.970146e-07 1 -1 1.970146e-07 607.6714 -236.5802)" class="st3 st4">350</text>
</g>
<g transform="translate(0,64.34878587196471)">
	<line class="st0" x1="671.6" y1="-150.2" x2="671.6" y2="-156.2"/>
	<text transform="matrix(1.970146e-07 1 -1 1.970146e-07 668.3804 -175.874)" class="st3 st4">400</text>
</g>
<g transform="translate(0,3.6423841059602835)">
	<line class="st0" x1="732.3" y1="-89.5" x2="732.3" y2="-95.5"/>
	<text transform="matrix(1.970146e-07 1 -1 1.970146e-07 729.0854 -115.1677)" class="st3 st4">450</text>
</g>
<path class="st0" d="M732.3-91.8v6l-546.4,0v-6"/>
<rect x="185.9" y="-81.8" class="st1" width="550" height="85"/>
<rect x="185.9" y="12.2" class="st1" width="513.6" height="85"/>
<rect x="185.9" y="106.2" class="st1" width="377.6" height="85"/>
<rect x="185.9" y="200.2" class="st1" width="299.9" height="85"/>
<rect x="185.9" y="294.2" class="st1" width="172.4" height="85"/>
<rect x="185.9" y="388.2" class="st1" width="81.3" height="85"/>
<rect x="185.9" y="482.2" class="st1" width="38.9" height="85"/>
<rect x="185.9" y="576.2" class="st1" width="30.4" height="85"/>
<line class="st0" x1="185.9" y1="-39.3" x2="179.9" y2="-39.3"/>
<text transform="matrix(1 0 0 1 169.7108 -36.674)" class="st3 st4">0</text>
<g transform="translate(140.5,0)">
	<line class="st0" x1="45.4" y1="54.7" x2="39.4" y2="54.7"/>
	<text transform="matrix(1 0 0 1 29.2125 57.3265)" class="st3 st4">1</text>
</g>
<line class="st0" x1="185.9" y1="148.7" x2="179.9" y2="148.7"/>
<text transform="matrix(1 0 0 1 169.7104 151.3265)" class="st3 st4">2</text>
<line class="st0" x1="185.9" y1="242.7" x2="179.9" y2="242.7"/>
<text transform="matrix(1 0 0 1 169.7108 245.326)" class="st3 st4">3</text>
<line class="st0" x1="185.9" y1="336.7" x2="179.9" y2="336.7"/>
<text transform="matrix(1 0 0 1 169.7107 339.326)" class="st3 st4">4</text>
<line class="st0" x1="185.9" y1="430.7" x2="179.9" y2="430.7"/>
<text transform="matrix(1 0 0 1 169.713 433.326)" class="st3 st4">5</text>
<line class="st0" x1="185.9" y1="524.7" x2="179.9" y2="524.7"/>
<text transform="matrix(1 0 0 1 169.7128 527.326)" class="st3 st4">6</text>
<line class="st0" x1="185.9" y1="618.7" x2="179.9" y2="618.7"/>
<text transform="matrix(1 0 0 1 157.7108 621.326)" class="st3 st4">=&lt;7</text>
<path class="st0" d="M179.9-85.8h6l0,750h-6"/>
</svg>
