<?xml version="1.0" encoding="utf-8"?>
<!-- Generator: Adobe Illustrator 22.0.1, SVG Export Plug-In . SVG Version: 6.00 Build 0)  -->
<svg version="1.1" id="Calque_1" xmlns="http://www.w3.org/2000/svg" xmlns:xlink="http://www.w3.org/1999/xlink" x="0px" y="0px"
	 viewBox="0 0 4096 2160" style="enable-background:new 0 0 4096 2160;" xml:space="preserve">
<style type="text/css">
	.st0{font-family:'ArialMT';}
	.st1{font-size:5.3578px;}
	.st2{fill:none;stroke:#CCCCCC;}
	.st3{fill:#BF6969;}
	.st4{fill:#BF9469;}
	.st5{fill:#BFBF69;}
	.st6{fill:#94BF69;}
	.st7{fill:#69BF69;}
	.st8{fill:#69BF94;}
	.st9{fill:#69BFBF;}
	.st10{fill:#6994BF;}
	.st11{fill:#6969BF;}
	.st12{fill:#9469BF;}
	.st13{fill:#BF69BF;}
	.st14{fill:#BF6994;}
</style>
<g transform="translate(50,0)">
	<text transform="matrix(1 0 0 1 900.7285 486.8789)" class="st0 st1">null</text>
	<g transform="translate(0,0)">
		<g transform="translate(0,2110)">
			<line class="st2" x1="927.5" y1="-488.9" x2="924.3" y2="-488.9"/>
			<text transform="matrix(1 0 0 1 919.7158 -487.166)" class="st0 st1">0</text>
		</g>
		<g transform="translate(0,2093.0112721417067)">
			<line class="st2" x1="927.5" y1="-481" x2="924.3" y2="-481"/>
			<text transform="matrix(1 0 0 1 919.7158 -479.2808)" class="st0 st1">5</text>
		</g>
		<g transform="translate(0,2076.022544283414)">
			<line class="st2" x1="927.5" y1="-473.1" x2="924.3" y2="-473.1"/>
			<text transform="matrix(1 0 0 1 916.7358 -471.3936)" class="st0 st1">10</text>
		</g>
		<g transform="translate(0,2059.0338164251207)">
			<line class="st2" x1="927.5" y1="-465.2" x2="924.3" y2="-465.2"/>
			<text transform="matrix(1 0 0 1 916.7358 -463.5066)" class="st0 st1">15</text>
		</g>
		<g transform="translate(0,2042.0450885668276)">
			<line class="st2" x1="927.5" y1="-457.3" x2="924.3" y2="-457.3"/>
			<text transform="matrix(1 0 0 1 916.7358 -455.6202)" class="st0 st1">20</text>
		</g>
		<g transform="translate(0,2025.0563607085346)">
			<line class="st2" x1="927.5" y1="-449.4" x2="924.3" y2="-449.4"/>
			<text transform="matrix(1 0 0 1 916.7358 -447.7341)" class="st0 st1">25</text>
		</g>
		<g transform="translate(0,2008.0676328502416)">
			<line class="st2" x1="927.5" y1="-441.6" x2="924.3" y2="-441.6"/>
			<text transform="matrix(1 0 0 1 916.7358 -439.8469)" class="st0 st1">30</text>
		</g>
		<g transform="translate(0,1991.0789049919483)">
			<line class="st2" x1="927.5" y1="-433.7" x2="924.3" y2="-433.7"/>
			<text transform="matrix(1 0 0 1 916.7358 -431.9607)" class="st0 st1">35</text>
		</g>
		<g transform="translate(0,1974.0901771336555)">
			<line class="st2" x1="927.5" y1="-425.8" x2="924.3" y2="-425.8"/>
			<text transform="matrix(1 0 0 1 916.7358 -424.0746)" class="st0 st1">40</text>
		</g>
		<g transform="translate(0,1957.1014492753623)">
			<line class="st2" x1="927.5" y1="-417.9" x2="924.3" y2="-417.9"/>
			<text transform="matrix(1 0 0 1 916.7358 -416.1874)" class="st0 st1">45</text>
		</g>
		<g transform="translate(0,1940.1127214170692)">
			<line class="st2" x1="927.5" y1="-410" x2="924.3" y2="-410"/>
			<text transform="matrix(1 0 0 1 916.7358 -408.3011)" class="st0 st1">50</text>
		</g>
		<g transform="translate(0,1923.1239935587762)">
			<line class="st2" x1="927.5" y1="-402.1" x2="924.3" y2="-402.1"/>
			<text transform="matrix(1 0 0 1 916.7358 -400.415)" class="st0 st1">55</text>
		</g>
		<g transform="translate(0,1906.1352657004832)">
			<line class="st2" x1="927.5" y1="-394.2" x2="924.3" y2="-394.2"/>
			<text transform="matrix(1 0 0 1 916.7358 -392.5278)" class="st0 st1">60</text>
		</g>
		<g transform="translate(0,1889.14653784219)">
			<line class="st2" x1="927.5" y1="-386.4" x2="924.3" y2="-386.4"/>
			<text transform="matrix(1 0 0 1 916.7358 -384.6416)" class="st0 st1">65</text>
		</g>
		<g transform="translate(0,1872.1578099838969)">
			<line class="st2" x1="927.5" y1="-378.5" x2="924.3" y2="-378.5"/>
			<text transform="matrix(1 0 0 1 916.7358 -376.7555)" class="st0 st1">70</text>
		</g>
		<g transform="translate(0,1855.1690821256038)">
			<line class="st2" x1="927.5" y1="-370.6" x2="924.3" y2="-370.6"/>
			<text transform="matrix(1 0 0 1 916.7358 -368.8683)" class="st0 st1">75</text>
		</g>
		<g transform="translate(0,1838.1803542673108)">
			<line class="st2" x1="927.5" y1="-362.7" x2="924.3" y2="-362.7"/>
			<text transform="matrix(1 0 0 1 916.7358 -360.9821)" class="st0 st1">80</text>
		</g>
		<g transform="translate(0,1821.1916264090178)">
			<line class="st2" x1="927.5" y1="-354.8" x2="924.3" y2="-354.8"/>
			<text transform="matrix(1 0 0 1 916.7358 -353.095)" class="st0 st1">85</text>
		</g>
		<g transform="translate(0,1804.2028985507247)">
			<line class="st2" x1="927.5" y1="-346.9" x2="924.3" y2="-346.9"/>
			<text transform="matrix(1 0 0 1 916.7358 -345.2087)" class="st0 st1">90</text>
		</g>
		<g transform="translate(0,1787.2141706924315)">
			<line class="st2" x1="927.5" y1="-339" x2="924.3" y2="-339"/>
			<text transform="matrix(1 0 0 1 916.7358 -337.3215)" class="st0 st1">95</text>
		</g>
		<g transform="translate(0,1770.2254428341384)">
			<line class="st2" x1="927.5" y1="-331.1" x2="924.3" y2="-331.1"/>
			<text transform="matrix(1 0 0 1 913.7559 -329.4354)" class="st0 st1">100</text>
		</g>
		<g transform="translate(0,1753.2367149758454)">
			<line class="st2" x1="927.5" y1="-323.3" x2="924.3" y2="-323.3"/>
			<text transform="matrix(1 0 0 1 913.7559 -321.5492)" class="st0 st1">105</text>
		</g>
		<g transform="translate(0,1736.2479871175524)">
			<line class="st2" x1="927.5" y1="-315.4" x2="924.3" y2="-315.4"/>
			<text transform="matrix(1 0 0 1 914.1538 -313.6621)" class="st0 st1">110</text>
		</g>
		<g transform="translate(0,1719.2592592592594)">
			<line class="st2" x1="927.5" y1="-307.5" x2="924.3" y2="-307.5"/>
			<text transform="matrix(1 0 0 1 914.1538 -305.7759)" class="st0 st1">115</text>
		</g>
		<g transform="translate(0,1702.2705314009663)">
			<line class="st2" x1="927.5" y1="-299.6" x2="924.3" y2="-299.6"/>
			<text transform="matrix(1 0 0 1 913.7559 -297.8896)" class="st0 st1">120</text>
		</g>
		<g transform="translate(0,1685.281803542673)">
			<line class="st2" x1="927.5" y1="-291.7" x2="924.3" y2="-291.7"/>
			<text transform="matrix(1 0 0 1 913.7559 -290.0026)" class="st0 st1">125</text>
		</g>
		<g transform="translate(0,1668.29307568438)">
			<line class="st2" x1="927.5" y1="-283.8" x2="924.3" y2="-283.8"/>
			<text transform="matrix(1 0 0 1 913.7559 -282.1163)" class="st0 st1">130</text>
		</g>
		<g transform="translate(0,1651.304347826087)">
			<line class="st2" x1="927.5" y1="-275.9" x2="924.3" y2="-275.9"/>
			<text transform="matrix(1 0 0 1 913.7559 -274.2301)" class="st0 st1">135</text>
		</g>
		<g transform="translate(0,1634.315619967794)">
			<line class="st2" x1="927.5" y1="-268.1" x2="924.3" y2="-268.1"/>
			<text transform="matrix(1 0 0 1 913.7559 -266.343)" class="st0 st1">140</text>
		</g>
		<g transform="translate(0,1617.3268921095007)">
			<line class="st2" x1="927.5" y1="-260.2" x2="924.3" y2="-260.2"/>
			<text transform="matrix(1 0 0 1 913.7559 -258.4568)" class="st0 st1">145</text>
		</g>
		<g transform="translate(0,1600.338164251208)">
			<line class="st2" x1="927.5" y1="-252.3" x2="924.3" y2="-252.3"/>
			<text transform="matrix(1 0 0 1 913.7559 -250.5696)" class="st0 st1">150</text>
		</g>
		<g transform="translate(0,1583.3494363929146)">
			<line class="st2" x1="927.5" y1="-244.4" x2="924.3" y2="-244.4"/>
			<text transform="matrix(1 0 0 1 913.7559 -242.6835)" class="st0 st1">155</text>
		</g>
		<g transform="translate(0,1566.3607085346216)">
			<line class="st2" x1="927.5" y1="-236.5" x2="924.3" y2="-236.5"/>
			<text transform="matrix(1 0 0 1 913.7559 -234.7963)" class="st0 st1">160</text>
		</g>
		<g transform="translate(0,1549.3719806763283)">
			<line class="st2" x1="927.5" y1="-228.6" x2="924.3" y2="-228.6"/>
			<text transform="matrix(1 0 0 1 913.7559 -226.91)" class="st0 st1">165</text>
		</g>
		<g transform="translate(0,1532.3832528180355)">
			<line class="st2" x1="927.5" y1="-220.7" x2="924.3" y2="-220.7"/>
			<text transform="matrix(1 0 0 1 913.7559 -219.0239)" class="st0 st1">170</text>
		</g>
		<g transform="translate(0,1515.3945249597425)">
			<line class="st2" x1="927.5" y1="-212.9" x2="924.3" y2="-212.9"/>
			<text transform="matrix(1 0 0 1 913.7559 -211.1367)" class="st0 st1">175</text>
		</g>
		<g transform="translate(0,1498.4057971014495)">
			<line class="st2" x1="927.5" y1="-205" x2="924.3" y2="-205"/>
			<text transform="matrix(1 0 0 1 913.7559 -203.2505)" class="st0 st1">180</text>
		</g>
		<g transform="translate(0,1481.4170692431562)">
			<line class="st2" x1="927.5" y1="-197.1" x2="924.3" y2="-197.1"/>
			<text transform="matrix(1 0 0 1 913.7559 -195.3644)" class="st0 st1">185</text>
		</g>
		<g transform="translate(0,1464.428341384863)">
			<line class="st2" x1="927.5" y1="-189.2" x2="924.3" y2="-189.2"/>
			<text transform="matrix(1 0 0 1 913.7559 -187.4772)" class="st0 st1">190</text>
		</g>
		<g transform="translate(0,1447.43961352657)">
			<line class="st2" x1="927.5" y1="-181.3" x2="924.3" y2="-181.3"/>
			<text transform="matrix(1 0 0 1 913.7559 -179.5909)" class="st0 st1">195</text>
		</g>
		<g transform="translate(0,1430.450885668277)">
			<line class="st2" x1="927.5" y1="-173.4" x2="924.3" y2="-173.4"/>
			<text transform="matrix(1 0 0 1 913.7559 -171.7048)" class="st0 st1">200</text>
		</g>
		<g transform="translate(0,1413.4621578099839)">
			<line class="st2" x1="927.5" y1="-165.5" x2="924.3" y2="-165.5"/>
			<text transform="matrix(1 0 0 1 913.7559 -163.8176)" class="st0 st1">205</text>
		</g>
		<g transform="translate(0,1396.4734299516908)">
			<line class="st2" x1="927.5" y1="-157.6" x2="924.3" y2="-157.6"/>
			<text transform="matrix(1 0 0 1 913.7559 -155.9314)" class="st0 st1">210</text>
		</g>
		<g transform="translate(0,1379.4847020933978)">
			<line class="st2" x1="927.5" y1="-149.8" x2="924.3" y2="-149.8"/>
			<text transform="matrix(1 0 0 1 913.7559 -148.0453)" class="st0 st1">215</text>
		</g>
		<g transform="translate(0,1362.4959742351045)">
			<line class="st2" x1="927.5" y1="-141.9" x2="924.3" y2="-141.9"/>
			<text transform="matrix(1 0 0 1 913.7559 -140.1581)" class="st0 st1">220</text>
		</g>
		<g transform="translate(0,1345.5072463768115)">
			<line class="st2" x1="927.5" y1="-134" x2="924.3" y2="-134"/>
			<text transform="matrix(1 0 0 1 913.7559 -132.2719)" class="st0 st1">225</text>
		</g>
		<g transform="translate(0,1328.5185185185185)">
			<line class="st2" x1="927.5" y1="-126.1" x2="924.3" y2="-126.1"/>
			<text transform="matrix(1 0 0 1 913.7559 -124.3848)" class="st0 st1">230</text>
		</g>
		<g transform="translate(0,1311.5297906602254)">
			<line class="st2" x1="927.5" y1="-118.2" x2="924.3" y2="-118.2"/>
			<text transform="matrix(1 0 0 1 913.7559 -116.4985)" class="st0 st1">235</text>
		</g>
		<g transform="translate(0,1294.5410628019324)">
			<line class="st2" x1="927.5" y1="-110.3" x2="924.3" y2="-110.3"/>
			<text transform="matrix(1 0 0 1 913.7559 -108.6113)" class="st0 st1">240</text>
		</g>
		<g transform="translate(0,1277.5523349436394)">
			<line class="st2" x1="927.5" y1="-102.4" x2="924.3" y2="-102.4"/>
			<text transform="matrix(1 0 0 1 913.7559 -100.7252)" class="st0 st1">245</text>
		</g>
		<g transform="translate(0,1260.5636070853461)">
			<line class="st2" x1="927.5" y1="-94.6" x2="924.3" y2="-94.6"/>
			<text transform="matrix(1 0 0 1 913.7559 -92.839)" class="st0 st1">250</text>
		</g>
		<g transform="translate(0,1243.574879227053)">
			<line class="st2" x1="927.5" y1="-86.7" x2="924.3" y2="-86.7"/>
			<text transform="matrix(1 0 0 1 913.7559 -84.9518)" class="st0 st1">255</text>
		</g>
		<g transform="translate(0,1226.5861513687598)">
			<line class="st2" x1="927.5" y1="-78.8" x2="924.3" y2="-78.8"/>
			<text transform="matrix(1 0 0 1 913.7559 -77.0657)" class="st0 st1">260</text>
		</g>
		<g transform="translate(0,1209.597423510467)">
			<line class="st2" x1="927.5" y1="-70.9" x2="924.3" y2="-70.9"/>
			<text transform="matrix(1 0 0 1 913.7559 -69.1794)" class="st0 st1">265</text>
		</g>
		<g transform="translate(0,1192.608695652174)">
			<line class="st2" x1="927.5" y1="-63" x2="924.3" y2="-63"/>
			<text transform="matrix(1 0 0 1 913.7559 -61.2922)" class="st0 st1">270</text>
		</g>
		<g transform="translate(0,1175.619967793881)">
			<line class="st2" x1="927.5" y1="-55.1" x2="924.3" y2="-55.1"/>
			<text transform="matrix(1 0 0 1 913.7559 -53.4061)" class="st0 st1">275</text>
		</g>
		<g transform="translate(0,1158.6312399355877)">
			<line class="st2" x1="927.5" y1="-47.2" x2="924.3" y2="-47.2"/>
			<text transform="matrix(1 0 0 1 913.7559 -45.5199)" class="st0 st1">280</text>
		</g>
		<g transform="translate(0,1141.6425120772947)">
			<line class="st2" x1="927.5" y1="-39.3" x2="924.3" y2="-39.3"/>
			<text transform="matrix(1 0 0 1 913.7559 -37.6327)" class="st0 st1">285</text>
		</g>
		<g transform="translate(0,1124.6537842190014)">
			<line class="st2" x1="927.5" y1="-31.5" x2="924.3" y2="-31.5"/>
			<text transform="matrix(1 0 0 1 913.7559 -29.7466)" class="st0 st1">290</text>
		</g>
		<g transform="translate(0,1107.6650563607086)">
			<line class="st2" x1="927.5" y1="-23.6" x2="924.3" y2="-23.6"/>
			<text transform="matrix(1 0 0 1 913.7559 -21.8604)" class="st0 st1">295</text>
		</g>
		<g transform="translate(0,1090.6763285024156)">
			<line class="st2" x1="927.5" y1="-15.7" x2="924.3" y2="-15.7"/>
			<text transform="matrix(1 0 0 1 913.7559 -13.9731)" class="st0 st1">300</text>
		</g>
		<g transform="translate(0,1073.6876006441225)">
			<line class="st2" x1="927.5" y1="-7.8" x2="924.3" y2="-7.8"/>
			<text transform="matrix(1 0 0 1 913.7559 -6.0865)" class="st0 st1">305</text>
		</g>
		<g transform="translate(0,1056.6988727858293)">
			<line class="st2" x1="927.5" y1="0.1" x2="924.3" y2="0.1"/>
			<text transform="matrix(1 0 0 1 913.7559 1.8002)" class="st0 st1">310</text>
		</g>
		<g transform="translate(0,1039.7101449275362)">
			<line class="st2" x1="927.5" y1="8" x2="924.3" y2="8"/>
			<text transform="matrix(1 0 0 1 913.7559 9.6863)" class="st0 st1">315</text>
		</g>
		<g transform="translate(0,1022.7214170692432)">
			<line class="st2" x1="927.5" y1="15.9" x2="924.3" y2="15.9"/>
			<text transform="matrix(1 0 0 1 913.7559 17.573)" class="st0 st1">320</text>
		</g>
		<g transform="translate(0,1005.7326892109501)">
			<line class="st2" x1="927.5" y1="23.7" x2="924.3" y2="23.7"/>
			<text transform="matrix(1 0 0 1 913.7559 25.4597)" class="st0 st1">325</text>
		</g>
		<g transform="translate(0,988.7439613526569)">
			<line class="st2" x1="927.5" y1="31.6" x2="924.3" y2="31.6"/>
			<text transform="matrix(1 0 0 1 913.7559 33.3459)" class="st0 st1">330</text>
		</g>
		<g transform="translate(0,971.755233494364)">
			<line class="st2" x1="927.5" y1="39.5" x2="924.3" y2="39.5"/>
			<text transform="matrix(1 0 0 1 913.7559 41.233)" class="st0 st1">335</text>
		</g>
		<g transform="translate(0,954.7665056360709)">
			<line class="st2" x1="927.5" y1="47.4" x2="924.3" y2="47.4"/>
			<text transform="matrix(1 0 0 1 913.7559 49.1193)" class="st0 st1">340</text>
		</g>
		<g transform="translate(0,937.7777777777777)">
			<line class="st2" x1="927.5" y1="55.3" x2="924.3" y2="55.3"/>
			<text transform="matrix(1 0 0 1 913.7559 57.0059)" class="st0 st1">345</text>
		</g>
		<g transform="translate(0,920.7890499194848)">
			<line class="st2" x1="927.5" y1="63.2" x2="924.3" y2="63.2"/>
			<text transform="matrix(1 0 0 1 913.7559 64.8926)" class="st0 st1">350</text>
		</g>
		<g transform="translate(0,903.8003220611917)">
			<line class="st2" x1="927.5" y1="71.1" x2="924.3" y2="71.1"/>
			<text transform="matrix(1 0 0 1 913.7559 72.7788)" class="st0 st1">355</text>
		</g>
		<g transform="translate(0,886.8115942028985)">
			<line class="st2" x1="927.5" y1="79" x2="924.3" y2="79"/>
			<text transform="matrix(1 0 0 1 913.7559 80.6655)" class="st0 st1">360</text>
		</g>
		<g transform="translate(0,869.8228663446056)">
			<line class="st2" x1="927.5" y1="86.8" x2="924.3" y2="86.8"/>
			<text transform="matrix(1 0 0 1 913.7559 88.5521)" class="st0 st1">365</text>
		</g>
		<g transform="translate(0,852.8341384863124)">
			<line class="st2" x1="927.5" y1="94.7" x2="924.3" y2="94.7"/>
			<text transform="matrix(1 0 0 1 913.7559 96.4383)" class="st0 st1">370</text>
		</g>
		<g transform="translate(0,835.8454106280193)">
			<line class="st2" x1="927.5" y1="102.6" x2="924.3" y2="102.6"/>
			<text transform="matrix(1 0 0 1 913.7559 104.3255)" class="st0 st1">375</text>
		</g>
		<g transform="translate(0,818.8566827697261)">
			<line class="st2" x1="927.5" y1="110.5" x2="924.3" y2="110.5"/>
			<text transform="matrix(1 0 0 1 913.7559 112.2117)" class="st0 st1">380</text>
		</g>
		<g transform="translate(0,801.8679549114332)">
			<line class="st2" x1="927.5" y1="118.4" x2="924.3" y2="118.4"/>
			<text transform="matrix(1 0 0 1 913.7559 120.0983)" class="st0 st1">385</text>
		</g>
		<g transform="translate(0,784.8792270531401)">
			<line class="st2" x1="927.5" y1="126.3" x2="924.3" y2="126.3"/>
			<text transform="matrix(1 0 0 1 913.7559 127.985)" class="st0 st1">390</text>
		</g>
		<g transform="translate(0,767.8904991948469)">
			<line class="st2" x1="927.5" y1="134.2" x2="924.3" y2="134.2"/>
			<text transform="matrix(1 0 0 1 913.7559 135.8712)" class="st0 st1">395</text>
		</g>
		<g transform="translate(0,750.901771336554)">
			<line class="st2" x1="927.5" y1="142" x2="924.3" y2="142"/>
			<text transform="matrix(1 0 0 1 913.7559 143.7579)" class="st0 st1">400</text>
		</g>
		<g transform="translate(0,733.9130434782609)">
			<line class="st2" x1="927.5" y1="149.9" x2="924.3" y2="149.9"/>
			<text transform="matrix(1 0 0 1 913.7559 151.6446)" class="st0 st1">405</text>
		</g>
		<g transform="translate(0,716.9243156199677)">
			<line class="st2" x1="927.5" y1="157.8" x2="924.3" y2="157.8"/>
			<text transform="matrix(1 0 0 1 913.7559 159.5308)" class="st0 st1">410</text>
		</g>
		<g transform="translate(0,699.9355877616748)">
			<line class="st2" x1="927.5" y1="165.7" x2="924.3" y2="165.7"/>
			<text transform="matrix(1 0 0 1 913.7559 167.4179)" class="st0 st1">415</text>
		</g>
		<g transform="translate(0,682.9468599033817)">
			<line class="st2" x1="927.5" y1="173.6" x2="924.3" y2="173.6"/>
			<text transform="matrix(1 0 0 1 913.7559 175.3041)" class="st0 st1">420</text>
		</g>
		<g transform="translate(0,665.9581320450885)">
			<line class="st2" x1="927.5" y1="181.5" x2="924.3" y2="181.5"/>
			<text transform="matrix(1 0 0 1 913.7559 183.1908)" class="st0 st1">425</text>
		</g>
		<g transform="translate(0,648.9694041867956)">
			<line class="st2" x1="927.5" y1="189.4" x2="924.3" y2="189.4"/>
			<text transform="matrix(1 0 0 1 913.7559 191.0775)" class="st0 st1">430</text>
		</g>
		<g transform="translate(0,631.9806763285025)">
			<line class="st2" x1="927.5" y1="197.2" x2="924.3" y2="197.2"/>
			<text transform="matrix(1 0 0 1 913.7559 198.9637)" class="st0 st1">435</text>
		</g>
		<g transform="translate(0,614.9919484702093)">
			<line class="st2" x1="927.5" y1="205.1" x2="924.3" y2="205.1"/>
			<text transform="matrix(1 0 0 1 913.7559 206.8503)" class="st0 st1">440</text>
		</g>
		<g transform="translate(0,598.0032206119164)">
			<line class="st2" x1="927.5" y1="213" x2="924.3" y2="213"/>
			<text transform="matrix(1 0 0 1 913.7559 214.737)" class="st0 st1">445</text>
		</g>
		<g transform="translate(0,581.0144927536232)">
			<line class="st2" x1="927.5" y1="220.9" x2="924.3" y2="220.9"/>
			<text transform="matrix(1 0 0 1 913.7559 222.6232)" class="st0 st1">450</text>
		</g>
		<g transform="translate(0,564.02576489533)">
			<line class="st2" x1="927.5" y1="228.8" x2="924.3" y2="228.8"/>
			<text transform="matrix(1 0 0 1 913.7559 230.5104)" class="st0 st1">455</text>
		</g>
		<g transform="translate(0,547.0370370370372)">
			<line class="st2" x1="927.5" y1="236.7" x2="924.3" y2="236.7"/>
			<text transform="matrix(1 0 0 1 913.7559 238.3965)" class="st0 st1">460</text>
		</g>
		<g transform="translate(0,530.0483091787439)">
			<line class="st2" x1="927.5" y1="244.6" x2="924.3" y2="244.6"/>
			<text transform="matrix(1 0 0 1 913.7559 246.2833)" class="st0 st1">465</text>
		</g>
		<g transform="translate(0,513.0595813204508)">
			<line class="st2" x1="927.5" y1="252.5" x2="924.3" y2="252.5"/>
			<text transform="matrix(1 0 0 1 913.7559 254.1699)" class="st0 st1">470</text>
		</g>
		<g transform="translate(0,496.0708534621579)">
			<line class="st2" x1="927.5" y1="260.3" x2="924.3" y2="260.3"/>
			<text transform="matrix(1 0 0 1 913.7559 262.0561)" class="st0 st1">475</text>
		</g>
		<g transform="translate(0,479.08212560386477)">
			<line class="st2" x1="927.5" y1="268.2" x2="924.3" y2="268.2"/>
			<text transform="matrix(1 0 0 1 913.7559 269.9428)" class="st0 st1">480</text>
		</g>
		<g transform="translate(0,462.0933977455716)">
			<line class="st2" x1="927.5" y1="276.1" x2="924.3" y2="276.1"/>
			<text transform="matrix(1 0 0 1 913.7559 277.8295)" class="st0 st1">485</text>
		</g>
		<g transform="translate(0,445.1046698872787)">
			<line class="st2" x1="927.5" y1="284" x2="924.3" y2="284"/>
			<text transform="matrix(1 0 0 1 913.7559 285.7161)" class="st0 st1">490</text>
		</g>
		<g transform="translate(0,428.11594202898556)">
			<line class="st2" x1="927.5" y1="291.9" x2="924.3" y2="291.9"/>
			<text transform="matrix(1 0 0 1 913.7559 293.6028)" class="st0 st1">495</text>
		</g>
		<g transform="translate(0,411.12721417069235)">
			<line class="st2" x1="927.5" y1="299.8" x2="924.3" y2="299.8"/>
			<text transform="matrix(1 0 0 1 913.7559 301.489)" class="st0 st1">500</text>
		</g>
		<g transform="translate(0,394.1384863123995)">
			<line class="st2" x1="927.5" y1="307.7" x2="924.3" y2="307.7"/>
			<text transform="matrix(1 0 0 1 913.7559 309.3757)" class="st0 st1">505</text>
		</g>
		<g transform="translate(0,377.1497584541063)">
			<line class="st2" x1="927.5" y1="315.5" x2="924.3" y2="315.5"/>
			<text transform="matrix(1 0 0 1 913.7559 317.2624)" class="st0 st1">510</text>
		</g>
		<g transform="translate(0,360.16103059581314)">
			<line class="st2" x1="927.5" y1="323.4" x2="924.3" y2="323.4"/>
			<text transform="matrix(1 0 0 1 913.7559 325.1485)" class="st0 st1">515</text>
		</g>
		<g transform="translate(0,343.17230273752)">
			<line class="st2" x1="927.5" y1="331.3" x2="924.3" y2="331.3"/>
			<text transform="matrix(1 0 0 1 913.7559 333.0357)" class="st0 st1">520</text>
		</g>
		<g transform="translate(0,326.1835748792271)">
			<line class="st2" x1="927.5" y1="339.2" x2="924.3" y2="339.2"/>
			<text transform="matrix(1 0 0 1 913.7559 340.9219)" class="st0 st1">525</text>
		</g>
		<g transform="translate(0,309.19484702093393)">
			<line class="st2" x1="927.5" y1="347.1" x2="924.3" y2="347.1"/>
			<text transform="matrix(1 0 0 1 913.7559 348.8086)" class="st0 st1">530</text>
		</g>
		<g transform="translate(0,292.2061191626408)">
			<line class="st2" x1="927.5" y1="355" x2="924.3" y2="355"/>
			<text transform="matrix(1 0 0 1 913.7559 356.6953)" class="st0 st1">535</text>
		</g>
		<g transform="translate(0,275.21739130434787)">
			<line class="st2" x1="927.5" y1="362.9" x2="924.3" y2="362.9"/>
			<text transform="matrix(1 0 0 1 913.7559 364.5815)" class="st0 st1">540</text>
		</g>
		<g transform="translate(0,258.2286634460547)">
			<line class="st2" x1="927.5" y1="370.8" x2="924.3" y2="370.8"/>
			<text transform="matrix(1 0 0 1 913.7559 372.4681)" class="st0 st1">545</text>
		</g>
		<g transform="translate(0,241.23993558776158)">
			<line class="st2" x1="927.5" y1="378.6" x2="924.3" y2="378.6"/>
			<text transform="matrix(1 0 0 1 913.7559 380.3548)" class="st0 st1">550</text>
		</g>
		<g transform="translate(0,224.25120772946866)">
			<line class="st2" x1="927.5" y1="386.5" x2="924.3" y2="386.5"/>
			<text transform="matrix(1 0 0 1 913.7559 388.241)" class="st0 st1">555</text>
		</g>
		<g transform="translate(0,207.26247987117551)">
			<line class="st2" x1="927.5" y1="394.4" x2="924.3" y2="394.4"/>
			<text transform="matrix(1 0 0 1 913.7559 396.1281)" class="st0 st1">560</text>
		</g>
		<g transform="translate(0,190.27375201288237)">
			<line class="st2" x1="927.5" y1="402.3" x2="924.3" y2="402.3"/>
			<text transform="matrix(1 0 0 1 913.7559 404.0143)" class="st0 st1">565</text>
		</g>
		<g transform="translate(0,173.28502415458945)">
			<line class="st2" x1="927.5" y1="410.2" x2="924.3" y2="410.2"/>
			<text transform="matrix(1 0 0 1 913.7559 411.901)" class="st0 st1">570</text>
		</g>
		<g transform="translate(0,156.29629629629628)">
			<line class="st2" x1="927.5" y1="418.1" x2="924.3" y2="418.1"/>
			<text transform="matrix(1 0 0 1 913.7559 419.7877)" class="st0 st1">575</text>
		</g>
		<g transform="translate(0,139.30756843800313)">
			<line class="st2" x1="927.5" y1="426" x2="924.3" y2="426"/>
			<text transform="matrix(1 0 0 1 913.7559 427.6739)" class="st0 st1">580</text>
		</g>
		<g transform="translate(0,122.31884057971023)">
			<line class="st2" x1="927.5" y1="433.8" x2="924.3" y2="433.8"/>
			<text transform="matrix(1 0 0 1 913.7559 435.5605)" class="st0 st1">585</text>
		</g>
		<g transform="translate(0,105.33011272141707)">
			<line class="st2" x1="927.5" y1="441.7" x2="924.3" y2="441.7"/>
			<text transform="matrix(1 0 0 1 913.7559 443.4472)" class="st0 st1">590</text>
		</g>
		<g transform="translate(0,88.34138486312392)">
			<line class="st2" x1="927.5" y1="449.6" x2="924.3" y2="449.6"/>
			<text transform="matrix(1 0 0 1 913.7559 451.3334)" class="st0 st1">595</text>
		</g>
		<g transform="translate(0,71.352657004831)">
			<line class="st2" x1="927.5" y1="457.5" x2="924.3" y2="457.5"/>
			<text transform="matrix(1 0 0 1 913.7559 459.2206)" class="st0 st1">600</text>
		</g>
		<g transform="translate(0,54.36392914653785)">
			<line class="st2" x1="927.5" y1="465.4" x2="924.3" y2="465.4"/>
			<text transform="matrix(1 0 0 1 913.7559 467.1068)" class="st0 st1">605</text>
		</g>
		<g transform="translate(0,37.375201288244696)">
			<line class="st2" x1="927.5" y1="473.3" x2="924.3" y2="473.3"/>
			<text transform="matrix(1 0 0 1 913.7559 474.9934)" class="st0 st1">610</text>
		</g>
		<g transform="translate(0,20.38647342995178)">
			<line class="st2" x1="927.5" y1="481.2" x2="924.3" y2="481.2"/>
			<text transform="matrix(1 0 0 1 913.7559 482.8801)" class="st0 st1">615</text>
		</g>
		<g transform="translate(0,3.3977455716586302)">
			<line class="st2" x1="927.5" y1="489.1" x2="924.3" y2="489.1"/>
			<text transform="matrix(1 0 0 1 913.7559 490.7663)" class="st0 st1">620</text>
		</g>
		<path class="st2" d="M924.3,490.6h3.2v1130.5h-3.2"/>
	</g>
	<rect x="927.5" y="490.6" class="st3" width="163.9" height="1130.5"/>
	<rect x="1109.7" y="1588.4" class="st4" width="163.9" height="32.8"/>
	<rect x="1291.8" y="1519.2" class="st5" width="163.9" height="101.9"/>
	<rect x="1474" y="1036.8" class="st6" width="163.9" height="584.4"/>
	<rect x="1656.2" y="1539.2" class="st7" width="163.9" height="81.9"/>
	<rect x="1838.3" y="938.5" class="st8" width="163.9" height="682.7"/>
	<rect x="2020.5" y="791" class="st9" width="163.9" height="830.1"/>
	<rect x="2202.7" y="541.6" class="st10" width="163.9" height="1079.5"/>
	<rect x="2384.8" y="1570.1" class="st11" width="163.9" height="51"/>
	<rect x="2567" y="1211.5" class="st12" width="163.9" height="409.6"/>
	<rect x="2749.2" y="1588.4" class="st13" width="163.9" height="32.8"/>
	<rect x="2931.3" y="1014.9" class="st14" width="163.9" height="606.2"/>
</g>
<g transform="translate(50,2110)">
	<g transform="translate(153,0)">
		<line class="st2" x1="856.5" y1="-488.9" x2="856.5" y2="-485.7"/>
		<text transform="matrix(1 0 0 1 836.2402 -480.2559)" class="st0 st1">Sector protection</text>
	</g>
	<g transform="translate(493,0)">
		<line class="st2" x1="698.7" y1="-488.9" x2="698.7" y2="-485.7"/>
		<text transform="matrix(1 0 0 1 681.0908 -480.2559)" class="st0 st1">secteur CCCM</text>
	</g>
	<g transform="translate(833,0)">
		<line class="st2" x1="540.8" y1="-488.9" x2="540.8" y2="-485.7"/>
		<text transform="matrix(1 0 0 1 525.4863 -480.2559)" class="st0 st1">secteur DRR</text>
	</g>
	<g transform="translate(1173,0)">
		<line class="st2" x1="383" y1="-488.9" x2="383" y2="-485.7"/>
		<text transform="matrix(1 0 0 1 364.2251 -480.2559)" class="st0 st1">secteur security</text>
	</g>
	<g transform="translate(1513,0)">
		<line class="st2" x1="225.1" y1="-488.9" x2="225.1" y2="-485.7"/>
		<text transform="matrix(1 0 0 1 200.2861 -480.2559)" class="st0 st1">sector early recovery</text>
	</g>
	<g transform="translate(1853,0)">
		<line class="st2" x1="67.3" y1="-488.9" x2="67.3" y2="-485.7"/>
		<text transform="matrix(1 0 0 1 47.6548 -480.2559)" class="st0 st1">sector education</text>
	</g>
	<g transform="translate(2193,0)">
		<line class="st2" x1="-90.5" y1="-488.9" x2="-90.5" y2="-485.7"/>
		<text transform="matrix(1 0 0 1 -103.7773 -480.2559)" class="st0 st1">sector food</text>
	</g>
	<g transform="translate(2533,0)">
		<line class="st2" x1="-248.4" y1="-488.9" x2="-248.4" y2="-485.7"/>
		<text transform="matrix(1 0 0 1 -263.6973 -480.2559)" class="st0 st1">sector health</text>
	</g>
	<g transform="translate(2873,0)">
		<line class="st2" x1="-406.2" y1="-488.9" x2="-406.2" y2="-485.7"/>
		<text transform="matrix(1 0 0 1 -423.7627 -480.2559)" class="st0 st1">sector logistics</text>
	</g>
	<g transform="translate(3213,0)">
		<line class="st2" x1="-564" y1="-488.9" x2="-564" y2="-485.7"/>
		<text transform="matrix(1 0 0 1 -580.1113 -480.2559)" class="st0 st1">sector shelter</text>
	</g>
	<g transform="translate(3553,0)">
		<line class="st2" x1="-721.9" y1="-488.9" x2="-721.9" y2="-485.7"/>
		<text transform="matrix(1 0 0 1 -753.5811 -480.2559)" class="st0 st1">sector telecommunications</text>
	</g>
	<g transform="translate(3893,0)">
		<line class="st2" x1="-879.7" y1="-488.9" x2="-879.7" y2="-485.7"/>
		<text transform="matrix(1 0 0 1 -893.9961 -480.2559)" class="st0 st1">sector wash</text>
	</g>
	<path class="st2" d="M927.5-485.7v-3.2h2167.8v3.2"/>
</g>
</svg>
