<?xml version="1.0" encoding="utf-8"?>
<!-- Generator: Adobe Illustrator 22.0.1, SVG Export Plug-In . SVG Version: 6.00 Build 0)  -->
<svg version="1.1" id="Calque_1" xmlns="http://www.w3.org/2000/svg" xmlns:xlink="http://www.w3.org/1999/xlink" x="0px" y="0px"
	 viewBox="0 0 4096 2137" style="enable-background:new 0 0 4096 2137;" xml:space="preserve">
<style type="text/css">
	.st0{fill:#BF6969;stroke:#FFFFFF;}
	.st1{font-family:'ArialMT';}
	.st2{font-size:5.5671px;}
	.st3{fill:#BF9469;stroke:#FFFFFF;}
	.st4{fill:#BFBF69;stroke:#FFFFFF;}
	.st5{fill:#94BF69;stroke:#FFFFFF;}
	.st6{fill:#69BF69;stroke:#FFFFFF;}
	.st7{fill:#69BF94;stroke:#FFFFFF;}
	.st8{fill:#69BFBF;stroke:#FFFFFF;}
	.st9{fill:#6994BF;stroke:#FFFFFF;}
	.st10{fill:#6969BF;stroke:#FFFFFF;}
	.st11{fill:#9469BF;stroke:#FFFFFF;}
	.st12{fill:#BF69BF;stroke:#FFFFFF;}
	.st13{fill:#BF6994;stroke:#FFFFFF;}
</style>
<g transform="translate(.5,.5)">
	<g transform="translate(3270,5)">
		<rect x="-603.5" y="525.3" class="st0" width="415.5" height="1076.5"/>
		<title>Sector protection: 621</title>
		<text transform="matrix(1 0 0 1 -423.0195 1065.4482)" class="st1 st2">621, Sector protection</text>
	</g>
	<g transform="translate(5,103)">
		<rect x="1009" y="476.9" class="st3" width="261.1" height="49.6"/>
		<title>secteur CCCM: 18</title>
		<text transform="matrix(1 0 0 1 1116.7109 503.6045)" class="st1 st2">18, secteur CCCM</text>
	</g>
	<g transform="translate(5,599)">
		<rect x="1009" y="231.9" class="st4" width="261.1" height="154.4"/>
		<title>secteur DRR: 56</title>
		<text transform="matrix(1 0 0 1 1119.0293 311.0137)" class="st1 st2">56, secteur DRR</text>
	</g>
	<g transform="translate(521,5)">
		<rect x="754.2" y="525.3" class="st5" width="688.8" height="336.1"/>
		<title>secteur security: 321</title>
		<text transform="matrix(1 0 0 1 1072.9004 695.2334)" class="st1 st2">321, secteur security</text>
	</g>
	<g transform="translate(5,354)">
		<rect x="1009" y="352.9" class="st6" width="261.1" height="124"/>
		<title>sector early recovery: 45</title>
		<text transform="matrix(1 0 0 1 1109.1279 416.835)" class="st1 st2">45, sector early recovery</text>
	</g>
	<g transform="translate(521,1357)">
		<rect x="754.2" y="-142.5" class="st7" width="688.8" height="392.2"/>
		<title>sector education: 375</title>
		<text transform="matrix(1 0 0 1 1071.9668 55.5742)" class="st1 st2">375, sector education</text>
	</g>
	<g transform="translate(1882,5)">
		<rect x="82" y="525.3" class="st8" width="702.5" height="467.6"/>
		<title>sector food: 456</title>
		<text transform="matrix(1 0 0 1 413.2607 761.0269)" class="st1 st2">456, sector food</text>
	</g>
	<g transform="translate(1882,929)">
		<rect x="82" y="68.9" class="st9" width="702.5" height="608.8"/>
		<title>sector health: 593</title>
		<text transform="matrix(1 0 0 1 411.0938 375.2686)" class="st1 st2">593, sector health</text>
	</g>
	<g transform="translate(5,201)">
		<rect x="1009" y="428.5" class="st10" width="261.1" height="77.4"/>
		<title>sector logistics: 28</title>
		<text transform="matrix(1 0 0 1 1116.708 469.1201)" class="st1 st2">28, sector logistics</text>
	</g>
	<g transform="translate(5,904)">
		<rect x="1009" y="81.2" class="st11" width="261.1" height="621.5"/>
		<title>sector shelter: 225</title>
		<text transform="matrix(1 0 0 1 1116.7056 393.9424)" class="st1 st2">225, sector shelter</text>
	</g>
	<g transform="translate(5,5)">
		<rect x="1009" y="525.3" class="st12" width="261.1" height="49.6"/>
		<title>sector telecommunications: 18</title>
		<text transform="matrix(1 0 0 1 1102.0088 552.0059)" class="st1 st2">18, sector telecommunications</text>
	</g>
	<g transform="translate(521,669)">
		<rect x="754.2" y="197.3" class="st13" width="688.8" height="348.2"/>
		<title>sector wash: 333</title>
		<text transform="matrix(1 0 0 1 1077.5405 373.3594)" class="st1 st2">333, sector wash</text>
	</g>
</g>
</svg>
