<?xml version="1.0" encoding="utf-8"?>
<!-- Generator: Adobe Illustrator 22.0.1, SVG Export Plug-In . SVG Version: 6.00 Build 0)  -->
<svg version="1.1" id="Calque_1" xmlns="http://www.w3.org/2000/svg" xmlns:xlink="http://www.w3.org/1999/xlink" x="0px" y="0px"
	 viewBox="0 0 4096 2160" style="enable-background:new 0 0 4096 2160;" xml:space="preserve">
<style type="text/css">
	.st0{fill:#BF6969;}
	.st1{fill:#BF9469;}
	.st2{fill:#BFBF69;}
	.st3{fill:#94BF69;}
	.st4{fill:#69BF69;}
	.st5{fill:#69BF94;}
	.st6{fill:#69BFBF;}
	.st7{fill:#6994BF;}
	.st8{fill:#6969BF;}
	.st9{fill:#9469BF;}
	.st10{fill:#BF69BF;}
	.st11{fill:#BF6994;}
	.st12{font-family:'ArialMT';}
	.st13{font-size:6.9536px;}
</style>
<circle class="st0" cx="1603.9" cy="1254" r="224.3"/>
<circle class="st1" cx="2079.8" cy="1174.2" r="38.2"/>
<circle class="st2" cx="2036.5" cy="901.3" r="67.4"/>
<ellipse transform="matrix(0.7071 -0.7071 0.7071 0.7071 -393.4673 1803.9895)" class="st3" cx="1980.9" cy="1377" rx="161.3" ry="161.3"/>
<circle class="st4" cx="2130.3" cy="997.7" r="60.4"/>
<circle class="st5" cx="2400.4" cy="994.3" r="174.3"/>
<circle class="st6" cx="2191.7" cy="685.3" r="192.2"/>
<circle class="st7" cx="1778.4" cy="749" r="219.2"/>
<circle class="st8" cx="2183.8" cy="1151.2" r="47.6"/>
<circle class="st9" cx="1925.4" cy="1079.4" r="135"/>
<circle class="st10" cx="2103.9" cy="1099.3" r="38.2"/>
<circle class="st11" cx="2310.4" cy="1328.9" r="164.3"/>
<text transform="matrix(1 0 0 1 1577.6182 1256.5039)" class="st12 st13">Sector protection</text>
<text transform="matrix(1 0 0 1 2056.9893 1176.7402)" class="st12 st13">secteur CCCM</text>
<text transform="matrix(1 0 0 1 2016.647 903.8149)" class="st12 st13">secteur DRR</text>
<text transform="matrix(1 0 0 1 1956.5293 1379.4775)" class="st12 st13">secteur security</text>
<text transform="matrix(1 0 0 1 2098.041 1000.2471)" class="st12 st13">sector early recovery</text>
<text transform="matrix(1 0 0 1 2374.8516 996.8428)" class="st12 st13">sector education</text>
<text transform="matrix(1 0 0 1 2174.4707 687.8037)" class="st12 st13">sector food</text>
<text transform="matrix(1 0 0 1 1758.4561 751.5068)" class="st12 st13">sector health</text>
<text transform="matrix(1 0 0 1 2160.958 1153.7451)" class="st12 st13">sector logistics</text>
<text transform="matrix(1 0 0 1 1904.52 1081.9326)" class="st12 st13">sector shelter</text>
<text transform="matrix(1 0 0 1 2062.7441 1101.7793)" class="st12 st13">sector telecommunications</text>
<text transform="matrix(1 0 0 1 2291.8818 1331.4639)" class="st12 st13">sector wash</text>
</svg>
