<svg width="4096" height="4096" xmlns="http://www.w3.org/2000/svg" version="1.1"><g transform="translate(2048,2048)"><g display="none"><path d="M0,1448.1546878700494A1448.1546878700494,1448.1546878700494 0 1,1 0,-1448.1546878700494A1448.1546878700494,1448.1546878700494 0 1,1 0,1448.1546878700494Z" style="stroke: rgb(255, 255, 255); fill: rgb(191, 105, 105); fill-rule: evenodd;"></path><text transform="rotate(90)" x="0" dx="6" dy=".35em" style="font-size: 11px; font-family: Arial, Helvetica;"></text><title>undefined: none</title></g><g><path d="M1.2540383223268897e-13,-2048A2048,2048 0 0,1 1951.8417642425802,-620.1755617229783L1380.1605472990432,-438.5303452204942A1448.1546878700494,1448.1546878700494 0 0,0 8.867390015851453e-14,-1448.1546878700494Z" style="stroke: rgb(255, 255, 255); fill: rgb(191, 105, 105); fill-rule: evenodd;"></path><text transform="rotate(-53.81353188734218)" x="1448.1546878700494" dx="6" dy=".35em" style="font-size: 11px; font-family: Arial, Helvetica;">621, Sector protection</text><title>Sector protection: 621</title></g><g><path d="M1951.8417642425802,-620.1755617229783A2048,2048 0 0,1 1973.23505276664,-548.3132558428949L1395.2878866862861,-387.7160214209854A1448.1546878700494,1448.1546878700494 0 0,0 1380.1605472990432,-438.5303452204942Z" style="stroke: rgb(255, 255, 255); fill: rgb(191, 152, 105); fill-rule: evenodd;"></path><text transform="rotate(-16.578180640984147)" x="1448.1546878700494" dx="6" dy=".35em" style="font-size: 11px; font-family: Arial, Helvetica;">18, secteur CCCM</text><title>secteur CCCM: 18</title></g><g><path d="M1973.23505276664,-548.3132558428949A2048,2048 0 0,1 2022.769427300132,-320.4806452500621L1430.3139788207527,-226.6140374953592A1448.1546878700494,1448.1546878700494 0 0,0 1395.2878866862861,-387.7160214209854Z" style="stroke: rgb(255, 255, 255); fill: rgb(183, 191, 105); fill-rule: evenodd;"></path><text transform="rotate(-12.2661055357721)" x="1448.1546878700494" dx="6" dy=".35em" style="font-size: 11px; font-family: Arial, Helvetica;">56, secteur DRR</text><title>secteur DRR: 56</title></g><g><path d="M2022.769427300132,-320.4806452500621A2048,2048 0 0,1 1801.3969803169987,974.3063785610759L1273.7800203911195,688.9386472338443A1448.1546878700494,1448.1546878700494 0 0,0 1430.3139788207527,-226.6140374953592Z" style="stroke: rgb(255, 255, 255); fill: rgb(136, 191, 105); fill-rule: evenodd;"></path><text transform="rotate(9.702168986727095)" x="1448.1546878700494" dx="6" dy=".35em" style="font-size: 11px; font-family: Arial, Helvetica;">321, secteur security</text><title>secteur security: 321</title></g><g><path d="M1801.3969803169987,974.3063785610759A2048,2048 0 0,1 1704.7999983076015,1134.883679400846L1205.4756393701198,802.483945562278A1448.1546878700494,1448.1546878700494 0 0,0 1273.7800203911195,688.9386472338443Z" style="stroke: rgb(255, 255, 255); fill: rgb(105, 191, 121); fill-rule: evenodd;"></path><text transform="rotate(31.029459371965032)" x="1448.1546878700494" dx="6" dy=".35em" style="font-size: 11px; font-family: Arial, Helvetica;">45, sector early recovery</text><title>sector early recovery: 45</title></g><g><path d="M1704.7999983076015,1134.883679400846A2048,2048 0 0,1 448.32240530096004,1998.3270555404993L317.01181294617265,1413.0306120012337A1448.1546878700494,1448.1546878700494 0 0,0 1205.4756393701198,802.483945562278Z" style="stroke: rgb(255, 255, 255); fill: rgb(105, 191, 167); fill-rule: evenodd;"></path><text transform="rotate(55.50339915830362)" x="1448.1546878700494" dx="6" dy=".35em" style="font-size: 11px; font-family: Arial, Helvetica;">375, sector education</text><title>sector education: 375</title></g><g><path d="M448.32240530096004,1998.3270555404993A2048,2048 0 0,1 -1330.030006903579,1557.34523492258L-940.4732370631115,1101.2093762623133A1448.1546878700494,1448.1546878700494 0 0,0 317.01181294617265,1413.0306120012337Z" style="stroke: rgb(255, 255, 255); fill: rgb(105, 167, 191); fill-rule: evenodd;"></path><text transform="rotate(103.92683716413076)" x="1448.1546878700494" dx="6" dy=".35em" style="font-size: 11px; font-family: Arial, Helvetica;">456, sector food</text><title>sector food: 456</title></g><g><path d="M-1330.030006903579,1557.34523492258A2048,2048 0 0,1 -1929.234272230252,-687.2838735575061L-1364.1746363915051,-485.9830875926703A1448.1546878700494,1448.1546878700494 0 0,0 -940.4732370631115,1101.2093762623133Z" style="stroke: rgb(255, 255, 255); fill: rgb(105, 121, 191); fill-rule: evenodd;"></path><text transform="rotate(165.05341534477176)" x="1448.1546878700494" dx="6" dy=".35em" style="font-size: 11px; font-family: Arial, Helvetica;">593, sector health</text><title>sector health: 593</title></g><g><path d="M-1929.234272230252,-687.2838735575061A2048,2048 0 0,1 -1886.984168704057,-795.9866500515311L-1334.299301682299,-562.8475579854011A1448.1546878700494,1448.1546878700494 0 0,0 -1364.1746363915051,-485.9830875926703Z" style="stroke: rgb(255, 255, 255); fill: rgb(136, 105, 191); fill-rule: evenodd;"></path><text transform="rotate(201.23988345742956)" x="1448.1546878700494" dx="6" dy=".35em" style="font-size: 11px; font-family: Arial, Helvetica;">28, sector logistics</text><title>sector logistics: 28</title></g><g><path d="M-1886.984168704057,-795.9866500515311A2048,2048 0 0,1 -1341.083230449778,-1547.8371261235425L-948.2890463865996,-1094.4861280542543A1448.1546878700494,1448.1546878700494 0 0,0 -1334.299301682299,-562.8475579854011Z" style="stroke: rgb(255, 255, 255); fill: rgb(183, 105, 191); fill-rule: evenodd;"></path><text transform="rotate(215.98251861443828)" x="1448.1546878700494" dx="6" dy=".35em" style="font-size: 11px; font-family: Arial, Helvetica;">225, sector shelter</text><title>sector shelter: 225</title></g><g><path d="M-1341.083230449778,-1547.8371261235425A2048,2048 0 0,1 -1283.5262761512981,-1595.889814000071L-907.5901336977003,-1128.4645095059884A1448.1546878700494,1448.1546878700494 0 0,0 -948.2890463865996,-1094.4861280542543Z" style="stroke: rgb(255, 255, 255); fill: rgb(191, 152, 105); fill-rule: evenodd;"></path><text transform="rotate(230.1424409193913)" x="1448.1546878700494" dx="6" dy=".35em" style="font-size: 11px; font-family: Arial, Helvetica;">18, sector telecommunications</text><title>sector telecommunications: 18</title></g><g><path d="M-1283.5262761512981,-1595.889814000071A2048,2048 0 0,1 -2.1952009002439233e-12,-2048L-1.5522414426292921e-12,-1448.1546878700494A1448.1546878700494,1448.1546878700494 0 0,0 -907.5901336977003,-1128.4645095059884Z" style="stroke: rgb(255, 255, 255); fill: rgb(191, 105, 152); fill-rule: evenodd;"></path><text transform="rotate(250.59566202654577)" x="1448.1546878700494" dx="6" dy=".35em" style="font-size: 11px; font-family: Arial, Helvetica;">333, sector wash</text><title>sector wash: 333</title></g></g></svg>