<?xml version="1.0" encoding="utf-8"?>
<!-- Generator: Adobe Illustrator 22.0.1, SVG Export Plug-In . SVG Version: 6.00 Build 0)  -->
<svg version="1.1" id="Calque_1" xmlns="http://www.w3.org/2000/svg" xmlns:xlink="http://www.w3.org/1999/xlink" x="0px" y="0px"
	 viewBox="0 0 4096 4096" style="enable-background:new 0 0 4096 4096;" xml:space="preserve">
<style type="text/css">
	.st0{display:none;}
	.st1{display:inline;fill:#BF6969;stroke:#FFFFFF;}
	.st2{fill:#BF6969;stroke:#FFFFFF;}
	.st3{font-family:'ArialMT';}
	.st4{font-size:5.0271px;}
	.st5{fill:#BF9869;stroke:#FFFFFF;}
	.st6{fill:#B7BF69;stroke:#FFFFFF;}
	.st7{fill:#88BF69;stroke:#FFFFFF;}
	.st8{fill:#69BF79;stroke:#FFFFFF;}
	.st9{fill:#69BFA7;stroke:#FFFFFF;}
	.st10{fill:#69A7BF;stroke:#FFFFFF;}
	.st11{fill:#6979BF;stroke:#FFFFFF;}
	.st12{fill:#8869BF;stroke:#FFFFFF;}
	.st13{fill:#B769BF;stroke:#FFFFFF;}
	.st14{fill:#BF6998;stroke:#FFFFFF;}
</style>
<g transform="translate(2048,2048)">
	<g class="st0">
		<path class="st1" d="M0,661.8c-365.5,0-661.8-296.3-661.8-661.8S-365.5-661.8,0-661.8S661.8-365.5,661.8,0S365.5,661.8,0,661.8z"
			/>
		<title>undefined: none</title>
	</g>
	<g>
		<path class="st2" d="M0-935.9c516.9,0,936,419,936,936c0,4.6,0,9.3-0.1,13.9L661.7,9.9c5.4-365.5-286.4-666.2-651.9-671.6
			c-3.3,0-6.6-0.1-9.8-0.1V-935.9z"/>
		<text transform="matrix(0.7123 -0.7018 0.7018 0.7123 474.6307 -465.1487)" class="st3 st4">0</text>
		<title>0: 453</title>
	</g>
	<g>
		<path class="st5" d="M935.8,13.9c-7.2,484.2-382.6,883-865.5,919.4L49.8,660c341.5-25.7,606.9-307.7,612-650.1L935.8,13.9z"/>
		<text transform="matrix(0.7281 0.6854 -0.6854 0.7281 482.6788 456.8029)" class="st3 st4">1</text>
		<title>1: 423</title>
	</g>
	<g>
		<path class="st6" d="M70.4,933.3C-276.9,959.5-610,790.7-794.3,495.1l232.6-145c130.3,209,365.8,328.4,611.4,309.8L70.4,933.3z"/>
		<text transform="matrix(-0.452 0.892 -0.892 -0.452 -301.9799 591.9968)" class="st3 st4">2</text>
		<title>2: 311</title>
	</g>
	<g>
		<path class="st7" d="M-794.3,495.1C-939.2,262.6-975-21.8-892.1-283l261.3,82.9c-58.6,184.7-33.3,385.8,69.2,550.2L-794.3,495.1z"
			/>
		<text transform="matrix(-0.9922 0.1248 -0.1248 -0.9922 -659.5868 81.2042)" class="st3 st4">3</text>
		<title>3: 247</title>
	</g>
	<g>
		<path class="st8" d="M-892.1-283c47.1-148.6,130.6-283,242.9-391.2l190.2,197.5c-79.4,76.5-138.4,171.5-171.8,276.6L-892.1-283z"
			/>
		<text transform="matrix(-0.8495 -0.5275 0.5275 -0.8495 -563.6444 -352.0633)" class="st3 st4">4</text>
		<title>4: 142</title>
	</g>
	<g>
		<path class="st9" d="M-649.3-674.1c52.8-50.8,111.3-95.3,174.4-132.4l139.1,236.2c-44.6,26.3-86,57.7-123.3,93.6L-649.3-674.1z"/>
		<text transform="matrix(-0.6046 -0.7965 0.7965 -0.6046 -400.4245 -530.3787)" class="st3 st4">5</text>
		<title>5: 67</title>
	</g>
	<g>
		<path class="st10" d="M-474.8-806.6c30.1-17.7,61.2-33.8,93.1-48l111.8,250.3c-22.6,10.1-44.6,21.4-65.9,34L-474.8-806.6z"/>
		<text transform="matrix(-0.4583 -0.8888 0.8888 -0.4583 -302.9895 -591.47)" class="st3 st4">6</text>
		<title>6: 32</title>
	</g>
	<g>
		<path class="st11" d="M-381.7-854.6c18.9-8.5,38.2-16.3,57.6-23.5l94.9,257.2c-13.8,5.1-27.4,10.6-40.8,16.6L-381.7-854.6z"/>
		<text transform="matrix(-0.3772 -0.9261 0.9261 -0.3772 -249.0576 -616.1231)" class="st3 st4">7</text>
		<title>7: 19</title>
	</g>
	<g>
		<path class="st12" d="M-324-878.1c3.1-1.1,6.2-2.3,9.2-3.4l92.2,258.2c-2.2,0.8-4.4,1.6-6.5,2.4L-324-878.1z"/>
		<text transform="matrix(-0.3413 -0.94 0.94 -0.3413 -225.1557 -625.2554)" class="st3 st4">8</text>
		<title>8: 3</title>
	</g>
	<g>
		<path class="st13" d="M-314.8-881.4c3.1-1.1,6.2-2.2,9.3-3.3l89.5,259.1c-2.2,0.8-4.4,1.5-6.6,2.3L-314.8-881.4z"/>
		<text transform="matrix(-0.3314 -0.9435 0.9435 -0.3314 -218.5772 -627.5837)" class="st3 st4">10</text>
		<title>10: 3</title>
	</g>
	<g>
		<path class="st14" d="M-305.5-884.7C-207.2-918.6-104-935.9,0-935.9v274.1c-73.5,0-146.5,12.3-216,36.3L-305.5-884.7z"/>
		<text transform="matrix(-0.1655 -0.9862 0.9862 -0.1655 -108.2535 -655.6829)" class="st3 st4">n.a.</text>
		<title>n.a.: 95</title>
	</g>
</g>
</svg>
