<svg width="4096" height="4096" xmlns="http://www.w3.org/2000/svg" version="1.1"><g transform="translate(2048,2048)"><g display="none"><path d="M0,1448.1546878700494A1448.1546878700494,1448.1546878700494 0 1,1 0,-1448.1546878700494A1448.1546878700494,1448.1546878700494 0 1,1 0,1448.1546878700494Z" style="stroke: rgb(255, 255, 255); fill: rgb(191, 105, 105); fill-rule: evenodd;"></path><text transform="rotate(90)" x="0" dx="6" dy=".35em" style="font-size: 11px; font-family: Arial, Helvetica;"></text><title>undefined: none</title></g><g><path d="M1.2540383223268897e-13,-2048A2048,2048 0 0,1 2047.773378746195,30.466199277115845L1447.9944424447228,21.54285610582931A1448.1546878700494,1448.1546878700494 0 0,0 8.867390015851453e-14,-1448.1546878700494Z" style="stroke: rgb(255, 255, 255); fill: rgb(191, 105, 105); fill-rule: evenodd;"></path><text transform="rotate(-44.57381615598886)" x="1448.1546878700494" dx="6" dy=".35em" style="font-size: 11px; font-family: Arial, Helvetica;">0</text><title>0: 453</title></g><g><path d="M2047.773378746195,30.466199277115845A2048,2048 0 0,1 153.983359622978,2042.2030077735221L108.88267777929458,1444.0555953562211A1448.1546878700494,1448.1546878700494 0 0,0 1447.9944424447228,21.54285610582931Z" style="stroke: rgb(255, 255, 255); fill: rgb(191, 152, 105); fill-rule: evenodd;"></path><text transform="rotate(43.27019498607242)" x="1448.1546878700494" dx="6" dy=".35em" style="font-size: 11px; font-family: Arial, Helvetica;">1</text><title>1: 423</title></g><g><path d="M153.983359622978,2042.2030077735221A2048,2048 0 0,1 -1737.962274843477,1083.4164163519429L-1228.9249099882209,766.0910948512868A1448.1546878700494,1448.1546878700494 0 0,0 108.88267777929458,1444.0555953562211Z" style="stroke: rgb(255, 255, 255); fill: rgb(183, 191, 105); fill-rule: evenodd;"></path><text transform="rotate(116.87465181058496)" x="1448.1546878700494" dx="6" dy=".35em" style="font-size: 11px; font-family: Arial, Helvetica;">2</text><title>2: 311</title></g><g><path d="M-1737.962274843477,1083.4164163519429A2048,2048 0 0,1 -1952.1465296252793,-619.2155738286779L-1380.3760489678207,-437.8515312705774A1448.1546878700494,1448.1546878700494 0 0,0 -1228.9249099882209,766.0910948512868Z" style="stroke: rgb(255, 255, 255); fill: rgb(136, 191, 105); fill-rule: evenodd;"></path><text transform="rotate(172.8300835654596)" x="1448.1546878700494" dx="6" dy=".35em" style="font-size: 11px; font-family: Arial, Helvetica;">3</text><title>3: 247</title></g><g><path d="M-1952.1465296252793,-619.2155738286779A2048,2048 0 0,1 -1420.653606817301,-1475.1431555740596L-1004.5537990976408,-1043.0837285273399A1448.1546878700494,1448.1546878700494 0 0,0 -1380.3760489678207,-437.8515312705774Z" style="stroke: rgb(255, 255, 255); fill: rgb(105, 191, 121); fill-rule: evenodd;"></path><text transform="rotate(211.83844011142062)" x="1448.1546878700494" dx="6" dy=".35em" style="font-size: 11px; font-family: Arial, Helvetica;">4</text><title>4: 142</title></g><g><path d="M-1420.653606817301,-1475.1431555740596A2048,2048 0 0,1 -1038.9666888931147,-1764.894393262803L-734.6603911432555,-1247.9687935542456A1448.1546878700494,1448.1546878700494 0 0,0 -1004.5537990976408,-1043.0837285273399Z" style="stroke: rgb(255, 255, 255); fill: rgb(105, 191, 167); fill-rule: evenodd;"></path><text transform="rotate(232.79665738161557)" x="1448.1546878700494" dx="6" dy=".35em" style="font-size: 11px; font-family: Arial, Helvetica;">5</text><title>5: 67</title></g><g><path d="M-1038.9666888931147,-1764.894393262803A2048,2048 0 0,1 -835.1790802134212,-1869.9678884873567L-590.5607911240537,-1322.2669745504998A1448.1546878700494,1448.1546878700494 0 0,0 -734.6603911432555,-1247.9687935542456Z" style="stroke: rgb(255, 255, 255); fill: rgb(105, 167, 191); fill-rule: evenodd;"></path><text transform="rotate(242.72423398328687)" x="1448.1546878700494" dx="6" dy=".35em" style="font-size: 11px; font-family: Arial, Helvetica;">6</text><title>6: 32</title></g><g><path d="M-835.1790802134212,-1869.9678884873567A2048,2048 0 0,1 -709.0579064367722,-1921.3383057961191L-501.3796538953782,-1358.5913449819084A1448.1546878700494,1448.1546878700494 0 0,0 -590.5607911240537,-1322.2669745504998Z" style="stroke: rgb(255, 255, 255); fill: rgb(105, 121, 191); fill-rule: evenodd;"></path><text transform="rotate(247.83844011142057)" x="1448.1546878700494" dx="6" dy=".35em" style="font-size: 11px; font-family: Arial, Helvetica;">7</text><title>7: 19</title></g><g><path d="M-709.0579064367722,-1921.3383057961191A2048,2048 0 0,1 -688.8429294333743,-1928.6781531841043L-487.0855065747454,-1363.7814008428272A1448.1546878700494,1448.1546878700494 0 0,0 -501.3796538953782,-1358.5913449819084Z" style="stroke: rgb(255, 255, 255); fill: rgb(136, 105, 191); fill-rule: evenodd;"></path><text transform="rotate(250.0445682451253)" x="1448.1546878700494" dx="6" dy=".35em" style="font-size: 11px; font-family: Arial, Helvetica;">8</text><title>8: 3</title></g><g><path d="M-688.8429294333743,-1928.6781531841043A2048,2048 0 0,1 -668.55199162571,-1935.8053193679618L-472.7376468543115,-1368.8210683820762A1448.1546878700494,1448.1546878700494 0 0,0 -487.0855065747454,-1363.7814008428272Z" style="stroke: rgb(255, 255, 255); fill: rgb(183, 105, 191); fill-rule: evenodd;"></path><text transform="rotate(250.6462395543175)" x="1448.1546878700494" dx="6" dy=".35em" style="font-size: 11px; font-family: Arial, Helvetica;">10</text><title>10: 3</title></g><g><path d="M-668.55199162571,-1935.8053193679618A2048,2048 0 0,1 -4.01419030378978e-12,-2048L-2.838461184783041e-12,-1448.1546878700494A1448.1546878700494,1448.1546878700494 0 0,0 -472.7376468543115,-1368.8210683820762Z" style="stroke: rgb(255, 255, 255); fill: rgb(191, 105, 152); fill-rule: evenodd;"></path><text transform="rotate(260.47353760445674)" x="1448.1546878700494" dx="6" dy=".35em" style="font-size: 11px; font-family: Arial, Helvetica;">n.a.</text><title>n.a.: 95</title></g></g></svg>