<?xml version="1.0" encoding="utf-8"?>
<!-- Generator: Adobe Illustrator 22.0.1, SVG Export Plug-In . SVG Version: 6.00 Build 0)  -->
<svg version="1.1" id="Calque_1" xmlns="http://www.w3.org/2000/svg" xmlns:xlink="http://www.w3.org/1999/xlink" x="0px" y="0px"
	 viewBox="0 0 4096 2160" style="enable-background:new 0 0 4096 2160;" xml:space="preserve">
<style type="text/css">
	.st0{font-family:'ArialMT';}
	.st1{font-size:7.4586px;}
	.st2{fill:none;stroke:#CCCCCC;}
	.st3{fill:#BF6969;}
	.st4{fill:#BF9869;}
	.st5{fill:#B7BF69;}
	.st6{fill:#88BF69;}
	.st7{fill:#69BF79;}
	.st8{fill:#69BFA7;}
	.st9{fill:#69A7BF;}
	.st10{fill:#6979BF;}
	.st11{fill:#8869BF;}
	.st12{fill:#B769BF;}
	.st13{fill:#BF6998;}
</style>
<g transform="translate(50,0)">
	<text transform="matrix(1.1096 0 0 1 -50 535.9351)" class="st0 st1">null</text>
	<g transform="translate(0,0)">
		<g transform="translate(0,2110)">
			<line class="st2" x1="-8.6" y1="4.9" x2="-13.6" y2="4.9"/>
			<text transform="matrix(1.1096 0 0 1 -20.6699 7.3037)" class="st0 st1">0</text>
		</g>
		<g transform="translate(0,2086.7108167770416)">
			<line class="st2" x1="-8.6" y1="10.8" x2="-13.6" y2="10.8"/>
			<text transform="matrix(1.1096 0 0 1 -20.6699 13.2227)" class="st0 st1">5</text>
		</g>
		<g transform="translate(0,2063.4216335540837)">
			<line class="st2" x1="-8.6" y1="16.8" x2="-13.6" y2="16.8"/>
			<text transform="matrix(1.1096 0 0 1 -25.2729 19.1409)" class="st0 st1">10</text>
		</g>
		<g transform="translate(0,2040.132450331126)">
			<line class="st2" x1="-8.6" y1="22.7" x2="-13.6" y2="22.7"/>
			<text transform="matrix(1.1096 0 0 1 -25.2729 25.0599)" class="st0 st1">15</text>
		</g>
		<g transform="translate(0,2016.8432671081678)">
			<line class="st2" x1="-8.6" y1="28.6" x2="-13.6" y2="28.6"/>
			<text transform="matrix(1.1096 0 0 1 -25.2729 30.979)" class="st0 st1">20</text>
		</g>
		<g transform="translate(0,1993.5540838852098)">
			<line class="st2" x1="-8.6" y1="34.5" x2="-13.6" y2="34.5"/>
			<text transform="matrix(1.1096 0 0 1 -25.2729 36.8971)" class="st0 st1">25</text>
		</g>
		<g transform="translate(0,1970.2649006622516)">
			<line class="st2" x1="-8.6" y1="40.4" x2="-13.6" y2="40.4"/>
			<text transform="matrix(1.1096 0 0 1 -25.2729 42.8162)" class="st0 st1">30</text>
		</g>
		<g transform="translate(0,1946.9757174392937)">
			<line class="st2" x1="-8.6" y1="46.3" x2="-13.6" y2="46.3"/>
			<text transform="matrix(1.1096 0 0 1 -25.2729 48.7352)" class="st0 st1">35</text>
		</g>
		<g transform="translate(0,1923.6865342163355)">
			<line class="st2" x1="-8.6" y1="52.3" x2="-13.6" y2="52.3"/>
			<text transform="matrix(1.1096 0 0 1 -25.2729 54.6533)" class="st0 st1">40</text>
		</g>
		<g transform="translate(0,1900.3973509933776)">
			<line class="st2" x1="-8.6" y1="58.2" x2="-13.6" y2="58.2"/>
			<text transform="matrix(1.1096 0 0 1 -25.2729 60.5724)" class="st0 st1">45</text>
		</g>
		<g transform="translate(0,1877.1081677704194)">
			<line class="st2" x1="-8.6" y1="64.1" x2="-13.6" y2="64.1"/>
			<text transform="matrix(1.1096 0 0 1 -25.2729 66.4915)" class="st0 st1">50</text>
		</g>
		<g transform="translate(0,1853.8189845474615)">
			<line class="st2" x1="-8.6" y1="70" x2="-13.6" y2="70"/>
			<text transform="matrix(1.1096 0 0 1 -25.2729 72.4095)" class="st0 st1">55</text>
		</g>
		<g transform="translate(0,1830.5298013245033)">
			<line class="st2" x1="-8.6" y1="75.9" x2="-13.6" y2="75.9"/>
			<text transform="matrix(1.1096 0 0 1 -25.2729 78.3286)" class="st0 st1">60</text>
		</g>
		<g transform="translate(0,1807.2406181015451)">
			<line class="st2" x1="-8.6" y1="81.9" x2="-13.6" y2="81.9"/>
			<text transform="matrix(1.1096 0 0 1 -25.2729 84.2477)" class="st0 st1">65</text>
		</g>
		<g transform="translate(0,1783.9514348785872)">
			<line class="st2" x1="-8.6" y1="87.8" x2="-13.6" y2="87.8"/>
			<text transform="matrix(1.1096 0 0 1 -25.2729 90.1658)" class="st0 st1">70</text>
		</g>
		<g transform="translate(0,1760.6622516556292)">
			<line class="st2" x1="-8.6" y1="93.7" x2="-13.6" y2="93.7"/>
			<text transform="matrix(1.1096 0 0 1 -25.2729 96.0848)" class="st0 st1">75</text>
		</g>
		<g transform="translate(0,1737.373068432671)">
			<line class="st2" x1="-8.6" y1="99.6" x2="-13.6" y2="99.6"/>
			<text transform="matrix(1.1096 0 0 1 -25.2729 102.0039)" class="st0 st1">80</text>
		</g>
		<g transform="translate(0,1714.0838852097131)">
			<line class="st2" x1="-8.6" y1="105.5" x2="-13.6" y2="105.5"/>
			<text transform="matrix(1.1096 0 0 1 -25.2729 107.922)" class="st0 st1">85</text>
		</g>
		<g transform="translate(0,1690.794701986755)">
			<line class="st2" x1="-8.6" y1="111.5" x2="-13.6" y2="111.5"/>
			<text transform="matrix(1.1096 0 0 1 -25.2729 113.8411)" class="st0 st1">90</text>
		</g>
		<g transform="translate(0,1667.505518763797)">
			<line class="st2" x1="-8.6" y1="117.4" x2="-13.6" y2="117.4"/>
			<text transform="matrix(1.1096 0 0 1 -25.2729 119.7601)" class="st0 st1">95</text>
		</g>
		<g transform="translate(0,1644.2163355408388)">
			<line class="st2" x1="-8.6" y1="123.3" x2="-13.6" y2="123.3"/>
			<text transform="matrix(1.1096 0 0 1 -29.8755 125.6782)" class="st0 st1">100</text>
		</g>
		<g transform="translate(0,1620.9271523178809)">
			<line class="st2" x1="-8.6" y1="129.2" x2="-13.6" y2="129.2"/>
			<text transform="matrix(1.1096 0 0 1 -29.8755 131.5973)" class="st0 st1">105</text>
		</g>
		<g transform="translate(0,1597.6379690949227)">
			<line class="st2" x1="-8.6" y1="135.1" x2="-13.6" y2="135.1"/>
			<text transform="matrix(1.1096 0 0 1 -29.2612 137.5164)" class="st0 st1">110</text>
		</g>
		<g transform="translate(0,1574.3487858719648)">
			<line class="st2" x1="-8.6" y1="141" x2="-13.6" y2="141"/>
			<text transform="matrix(1.1096 0 0 1 -29.2612 143.4344)" class="st0 st1">115</text>
		</g>
		<g transform="translate(0,1551.0596026490066)">
			<line class="st2" x1="-8.6" y1="147" x2="-13.6" y2="147"/>
			<text transform="matrix(1.1096 0 0 1 -29.8755 149.3535)" class="st0 st1">120</text>
		</g>
		<g transform="translate(0,1527.7704194260484)">
			<line class="st2" x1="-8.6" y1="152.9" x2="-13.6" y2="152.9"/>
			<text transform="matrix(1.1096 0 0 1 -29.8755 155.2726)" class="st0 st1">125</text>
		</g>
		<g transform="translate(0,1504.4812362030905)">
			<line class="st2" x1="-8.6" y1="158.8" x2="-13.6" y2="158.8"/>
			<text transform="matrix(1.1096 0 0 1 -29.8755 161.1907)" class="st0 st1">130</text>
		</g>
		<g transform="translate(0,1481.1920529801325)">
			<line class="st2" x1="-8.6" y1="164.7" x2="-13.6" y2="164.7"/>
			<text transform="matrix(1.1096 0 0 1 -29.8755 167.1097)" class="st0 st1">135</text>
		</g>
		<g transform="translate(0,1457.9028697571744)">
			<line class="st2" x1="-8.6" y1="170.6" x2="-13.6" y2="170.6"/>
			<text transform="matrix(1.1096 0 0 1 -29.8755 173.0288)" class="st0 st1">140</text>
		</g>
		<g transform="translate(0,1434.6136865342162)">
			<line class="st2" x1="-8.6" y1="176.6" x2="-13.6" y2="176.6"/>
			<text transform="matrix(1.1096 0 0 1 -29.8755 178.9479)" class="st0 st1">145</text>
		</g>
		<g transform="translate(0,1411.3245033112582)">
			<line class="st2" x1="-8.6" y1="182.5" x2="-13.6" y2="182.5"/>
			<text transform="matrix(1.1096 0 0 1 -29.8755 184.866)" class="st0 st1">150</text>
		</g>
		<g transform="translate(0,1388.0353200883003)">
			<line class="st2" x1="-8.6" y1="188.4" x2="-13.6" y2="188.4"/>
			<text transform="matrix(1.1096 0 0 1 -29.8755 190.785)" class="st0 st1">155</text>
		</g>
		<g transform="translate(0,1364.7461368653421)">
			<line class="st2" x1="-8.6" y1="194.3" x2="-13.6" y2="194.3"/>
			<text transform="matrix(1.1096 0 0 1 -29.8755 196.7041)" class="st0 st1">160</text>
		</g>
		<g transform="translate(0,1341.4569536423842)">
			<line class="st2" x1="-8.6" y1="200.2" x2="-13.6" y2="200.2"/>
			<text transform="matrix(1.1096 0 0 1 -29.8755 202.6222)" class="st0 st1">165</text>
		</g>
		<g transform="translate(0,1318.1677704194262)">
			<line class="st2" x1="-8.6" y1="206.2" x2="-13.6" y2="206.2"/>
			<text transform="matrix(1.1096 0 0 1 -29.8755 208.5413)" class="st0 st1">170</text>
		</g>
		<g transform="translate(0,1294.878587196468)">
			<line class="st2" x1="-8.6" y1="212.1" x2="-13.6" y2="212.1"/>
			<text transform="matrix(1.1096 0 0 1 -29.8755 214.4603)" class="st0 st1">175</text>
		</g>
		<g transform="translate(0,1271.58940397351)">
			<line class="st2" x1="-8.6" y1="218" x2="-13.6" y2="218"/>
			<text transform="matrix(1.1096 0 0 1 -29.8755 220.3794)" class="st0 st1">180</text>
		</g>
		<g transform="translate(0,1248.300220750552)">
			<line class="st2" x1="-8.6" y1="223.9" x2="-13.6" y2="223.9"/>
			<text transform="matrix(1.1096 0 0 1 -29.8755 226.2975)" class="st0 st1">185</text>
		</g>
		<g transform="translate(0,1225.011037527594)">
			<line class="st2" x1="-8.6" y1="229.8" x2="-13.6" y2="229.8"/>
			<text transform="matrix(1.1096 0 0 1 -29.8755 232.2166)" class="st0 st1">190</text>
		</g>
		<g transform="translate(0,1201.7218543046358)">
			<line class="st2" x1="-8.6" y1="235.7" x2="-13.6" y2="235.7"/>
			<text transform="matrix(1.1096 0 0 1 -29.8755 238.1356)" class="st0 st1">195</text>
		</g>
		<g transform="translate(0,1178.4326710816777)">
			<line class="st2" x1="-8.6" y1="241.7" x2="-13.6" y2="241.7"/>
			<text transform="matrix(1.1096 0 0 1 -29.8755 244.0537)" class="st0 st1">200</text>
		</g>
		<g transform="translate(0,1155.1434878587197)">
			<line class="st2" x1="-8.6" y1="247.6" x2="-13.6" y2="247.6"/>
			<text transform="matrix(1.1096 0 0 1 -29.8755 249.9728)" class="st0 st1">205</text>
		</g>
		<g transform="translate(0,1131.8543046357618)">
			<line class="st2" x1="-8.6" y1="253.5" x2="-13.6" y2="253.5"/>
			<text transform="matrix(1.1096 0 0 1 -29.8755 255.8918)" class="st0 st1">210</text>
		</g>
		<g transform="translate(0,1108.5651214128036)">
			<line class="st2" x1="-8.6" y1="259.4" x2="-13.6" y2="259.4"/>
			<text transform="matrix(1.1096 0 0 1 -29.8755 261.8099)" class="st0 st1">215</text>
		</g>
		<g transform="translate(0,1085.2759381898454)">
			<line class="st2" x1="-8.6" y1="265.3" x2="-13.6" y2="265.3"/>
			<text transform="matrix(1.1096 0 0 1 -29.8755 267.729)" class="st0 st1">220</text>
		</g>
		<g transform="translate(0,1061.9867549668875)">
			<line class="st2" x1="-8.6" y1="271.3" x2="-13.6" y2="271.3"/>
			<text transform="matrix(1.1096 0 0 1 -29.8755 273.6481)" class="st0 st1">225</text>
		</g>
		<g transform="translate(0,1038.6975717439293)">
			<line class="st2" x1="-8.6" y1="277.2" x2="-13.6" y2="277.2"/>
			<text transform="matrix(1.1096 0 0 1 -29.8755 279.566)" class="st0 st1">230</text>
		</g>
		<g transform="translate(0,1015.4083885209714)">
			<line class="st2" x1="-8.6" y1="283.1" x2="-13.6" y2="283.1"/>
			<text transform="matrix(1.1096 0 0 1 -29.8755 285.4852)" class="st0 st1">235</text>
		</g>
		<g transform="translate(0,992.1192052980132)">
			<line class="st2" x1="-8.6" y1="289" x2="-13.6" y2="289"/>
			<text transform="matrix(1.1096 0 0 1 -29.8755 291.4042)" class="st0 st1">240</text>
		</g>
		<g transform="translate(0,968.8300220750552)">
			<line class="st2" x1="-8.6" y1="294.9" x2="-13.6" y2="294.9"/>
			<text transform="matrix(1.1096 0 0 1 -29.8755 297.3223)" class="st0 st1">245</text>
		</g>
		<g transform="translate(0,945.5408388520971)">
			<line class="st2" x1="-8.6" y1="300.9" x2="-13.6" y2="300.9"/>
			<text transform="matrix(1.1096 0 0 1 -29.8755 303.2414)" class="st0 st1">250</text>
		</g>
		<g transform="translate(0,922.2516556291391)">
			<line class="st2" x1="-8.6" y1="306.8" x2="-13.6" y2="306.8"/>
			<text transform="matrix(1.1096 0 0 1 -29.8755 309.1605)" class="st0 st1">255</text>
		</g>
		<g transform="translate(0,898.962472406181)">
			<line class="st2" x1="-8.6" y1="312.7" x2="-13.6" y2="312.7"/>
			<text transform="matrix(1.1096 0 0 1 -29.8755 315.0786)" class="st0 st1">260</text>
		</g>
		<g transform="translate(0,875.673289183223)">
			<line class="st2" x1="-8.6" y1="318.6" x2="-13.6" y2="318.6"/>
			<text transform="matrix(1.1096 0 0 1 -29.8755 320.9976)" class="st0 st1">265</text>
		</g>
		<g transform="translate(0,852.3841059602648)">
			<line class="st2" x1="-8.6" y1="324.5" x2="-13.6" y2="324.5"/>
			<text transform="matrix(1.1096 0 0 1 -29.8755 326.9167)" class="st0 st1">270</text>
		</g>
		<g transform="translate(0,829.0949227373069)">
			<line class="st2" x1="-8.6" y1="330.4" x2="-13.6" y2="330.4"/>
			<text transform="matrix(1.1096 0 0 1 -29.8755 332.8348)" class="st0 st1">275</text>
		</g>
		<g transform="translate(0,805.8057395143487)">
			<line class="st2" x1="-8.6" y1="336.4" x2="-13.6" y2="336.4"/>
			<text transform="matrix(1.1096 0 0 1 -29.8755 338.7538)" class="st0 st1">280</text>
		</g>
		<g transform="translate(0,782.5165562913908)">
			<line class="st2" x1="-8.6" y1="342.3" x2="-13.6" y2="342.3"/>
			<text transform="matrix(1.1096 0 0 1 -29.8755 344.6729)" class="st0 st1">285</text>
		</g>
		<g transform="translate(0,759.2273730684326)">
			<line class="st2" x1="-8.6" y1="348.2" x2="-13.6" y2="348.2"/>
			<text transform="matrix(1.1096 0 0 1 -29.8755 350.591)" class="st0 st1">290</text>
		</g>
		<g transform="translate(0,735.9381898454747)">
			<line class="st2" x1="-8.6" y1="354.1" x2="-13.6" y2="354.1"/>
			<text transform="matrix(1.1096 0 0 1 -29.8755 356.5101)" class="st0 st1">295</text>
		</g>
		<g transform="translate(0,712.6490066225165)">
			<line class="st2" x1="-8.6" y1="360" x2="-13.6" y2="360"/>
			<text transform="matrix(1.1096 0 0 1 -29.8755 362.4291)" class="st0 st1">300</text>
		</g>
		<g transform="translate(0,689.3598233995585)">
			<line class="st2" x1="-8.6" y1="366" x2="-13.6" y2="366"/>
			<text transform="matrix(1.1096 0 0 1 -29.8755 368.3477)" class="st0 st1">305</text>
		</g>
		<g transform="translate(0,666.0706401766004)">
			<line class="st2" x1="-8.6" y1="371.9" x2="-13.6" y2="371.9"/>
			<text transform="matrix(1.1096 0 0 1 -29.8755 374.2663)" class="st0 st1">310</text>
		</g>
		<g transform="translate(0,642.7814569536424)">
			<line class="st2" x1="-8.6" y1="377.8" x2="-13.6" y2="377.8"/>
			<text transform="matrix(1.1096 0 0 1 -29.8755 380.1854)" class="st0 st1">315</text>
		</g>
		<g transform="translate(0,619.4922737306842)">
			<line class="st2" x1="-8.6" y1="383.7" x2="-13.6" y2="383.7"/>
			<text transform="matrix(1.1096 0 0 1 -29.8755 386.1039)" class="st0 st1">320</text>
		</g>
		<g transform="translate(0,596.2030905077263)">
			<line class="st2" x1="-8.6" y1="389.6" x2="-13.6" y2="389.6"/>
			<text transform="matrix(1.1096 0 0 1 -29.8755 392.0225)" class="st0 st1">325</text>
		</g>
		<g transform="translate(0,572.9139072847684)">
			<line class="st2" x1="-8.6" y1="395.6" x2="-13.6" y2="395.6"/>
			<text transform="matrix(1.1096 0 0 1 -29.8755 397.9416)" class="st0 st1">330</text>
		</g>
		<g transform="translate(0,549.6247240618102)">
			<line class="st2" x1="-8.6" y1="401.5" x2="-13.6" y2="401.5"/>
			<text transform="matrix(1.1096 0 0 1 -29.8755 403.8602)" class="st0 st1">335</text>
		</g>
		<g transform="translate(0,526.3355408388522)">
			<line class="st2" x1="-8.6" y1="407.4" x2="-13.6" y2="407.4"/>
			<text transform="matrix(1.1096 0 0 1 -29.8755 409.7792)" class="st0 st1">340</text>
		</g>
		<g transform="translate(0,503.046357615894)">
			<line class="st2" x1="-8.6" y1="413.3" x2="-13.6" y2="413.3"/>
			<text transform="matrix(1.1096 0 0 1 -29.8755 415.6978)" class="st0 st1">345</text>
		</g>
		<g transform="translate(0,479.75717439293607)">
			<line class="st2" x1="-8.6" y1="419.2" x2="-13.6" y2="419.2"/>
			<text transform="matrix(1.1096 0 0 1 -29.8755 421.6164)" class="st0 st1">350</text>
		</g>
		<g transform="translate(0,456.4679911699779)">
			<line class="st2" x1="-8.6" y1="425.1" x2="-13.6" y2="425.1"/>
			<text transform="matrix(1.1096 0 0 1 -29.8755 427.5354)" class="st0 st1">355</text>
		</g>
		<g transform="translate(0,433.17880794701995)">
			<line class="st2" x1="-8.6" y1="431.1" x2="-13.6" y2="431.1"/>
			<text transform="matrix(1.1096 0 0 1 -29.8755 433.454)" class="st0 st1">360</text>
		</g>
		<g transform="translate(0,409.8896247240618)">
			<line class="st2" x1="-8.6" y1="437" x2="-13.6" y2="437"/>
			<text transform="matrix(1.1096 0 0 1 -29.8755 439.3726)" class="st0 st1">365</text>
		</g>
		<g transform="translate(0,386.60044150110383)">
			<line class="st2" x1="-8.6" y1="442.9" x2="-13.6" y2="442.9"/>
			<text transform="matrix(1.1096 0 0 1 -29.8755 445.2917)" class="st0 st1">370</text>
		</g>
		<g transform="translate(0,363.31125827814566)">
			<line class="st2" x1="-8.6" y1="448.8" x2="-13.6" y2="448.8"/>
			<text transform="matrix(1.1096 0 0 1 -29.8755 451.2102)" class="st0 st1">375</text>
		</g>
		<g transform="translate(0,340.0220750551877)">
			<line class="st2" x1="-8.6" y1="454.7" x2="-13.6" y2="454.7"/>
			<text transform="matrix(1.1096 0 0 1 -29.8755 457.1293)" class="st0 st1">380</text>
		</g>
		<g transform="translate(0,316.73289183222954)">
			<line class="st2" x1="-8.6" y1="460.7" x2="-13.6" y2="460.7"/>
			<text transform="matrix(1.1096 0 0 1 -29.8755 463.0479)" class="st0 st1">385</text>
		</g>
		<g transform="translate(0,293.4437086092716)">
			<line class="st2" x1="-8.6" y1="466.6" x2="-13.6" y2="466.6"/>
			<text transform="matrix(1.1096 0 0 1 -29.8755 468.9665)" class="st0 st1">390</text>
		</g>
		<g transform="translate(0,270.1545253863134)">
			<line class="st2" x1="-8.6" y1="472.5" x2="-13.6" y2="472.5"/>
			<text transform="matrix(1.1096 0 0 1 -29.8755 474.8855)" class="st0 st1">395</text>
		</g>
		<g transform="translate(0,246.8653421633555)">
			<line class="st2" x1="-8.6" y1="478.4" x2="-13.6" y2="478.4"/>
			<text transform="matrix(1.1096 0 0 1 -29.8755 480.8041)" class="st0 st1">400</text>
		</g>
		<g transform="translate(0,223.57615894039733)">
			<line class="st2" x1="-8.6" y1="484.3" x2="-13.6" y2="484.3"/>
			<text transform="matrix(1.1096 0 0 1 -29.8755 486.7227)" class="st0 st1">405</text>
		</g>
		<g transform="translate(0,200.2869757174394)">
			<line class="st2" x1="-8.6" y1="490.3" x2="-13.6" y2="490.3"/>
			<text transform="matrix(1.1096 0 0 1 -29.8755 492.6418)" class="st0 st1">410</text>
		</g>
		<g transform="translate(0,176.9977924944812)">
			<line class="st2" x1="-8.6" y1="496.2" x2="-13.6" y2="496.2"/>
			<text transform="matrix(1.1096 0 0 1 -29.8755 498.5603)" class="st0 st1">415</text>
		</g>
		<g transform="translate(0,153.70860927152327)">
			<line class="st2" x1="-8.6" y1="502.1" x2="-13.6" y2="502.1"/>
			<text transform="matrix(1.1096 0 0 1 -29.8755 504.4789)" class="st0 st1">420</text>
		</g>
		<g transform="translate(0,130.41942604856507)">
			<line class="st2" x1="-8.6" y1="508" x2="-13.6" y2="508"/>
			<text transform="matrix(1.1096 0 0 1 -29.8755 510.3979)" class="st0 st1">425</text>
		</g>
		<g transform="translate(0,107.13024282560714)">
			<line class="st2" x1="-8.6" y1="513.9" x2="-13.6" y2="513.9"/>
			<text transform="matrix(1.1096 0 0 1 -29.8755 516.3165)" class="st0 st1">430</text>
		</g>
		<g transform="translate(0,83.84105960264897)">
			<line class="st2" x1="-8.6" y1="519.8" x2="-13.6" y2="519.8"/>
			<text transform="matrix(1.1096 0 0 1 -29.8755 522.2351)" class="st0 st1">435</text>
		</g>
		<g transform="translate(0,60.55187637969102)">
			<line class="st2" x1="-8.6" y1="525.8" x2="-13.6" y2="525.8"/>
			<text transform="matrix(1.1096 0 0 1 -29.8755 528.1542)" class="st0 st1">440</text>
		</g>
		<g transform="translate(0,37.26269315673285)">
			<line class="st2" x1="-8.6" y1="531.7" x2="-13.6" y2="531.7"/>
			<text transform="matrix(1.1096 0 0 1 -29.8755 534.0728)" class="st0 st1">445</text>
		</g>
		<g transform="translate(0,13.973509933774906)">
			<line class="st2" x1="-8.6" y1="537.6" x2="-13.6" y2="537.6"/>
			<text transform="matrix(1.1096 0 0 1 -29.8755 539.9918)" class="st0 st1">450</text>
		</g>
		<path class="st2" d="M-13.6,541.2h5v1573.8h-5"/>
	</g>
	<rect x="-7.8" y="541.2" class="st3" width="276.4" height="1573.8"/>
	<rect x="299.3" y="645.4" class="st4" width="276.4" height="1469.5"/>
	<rect x="606.3" y="1034.5" class="st5" width="276.4" height="1080.4"/>
	<rect x="913.4" y="1256.8" class="st6" width="276.4" height="858.1"/>
	<rect x="1220.4" y="1621.6" class="st7" width="276.4" height="493.3"/>
	<rect x="1527.5" y="1882.2" class="st8" width="276.4" height="232.8"/>
	<rect x="1834.5" y="2003.7" class="st9" width="276.4" height="111.2"/>
	<rect x="2141.6" y="2048.9" class="st10" width="276.4" height="66"/>
	<rect x="2448.6" y="2104.5" class="st11" width="276.4" height="10.4"/>
	<rect x="2755.7" y="2104.5" class="st12" width="276.4" height="10.4"/>
	<rect x="3062.7" y="1784.9" class="st13" width="276.4" height="330"/>
</g>
<g transform="translate(50,2110)">
	<g transform="translate(168,0)">
		<line class="st2" x1="-37.6" y1="4.9" x2="-37.6" y2="9.4"/>
		<text transform="matrix(1.1096 0 0 1 -39.8765 16.9248)" class="st0 st1">0</text>
	</g>
	<g transform="translate(539,0)">
		<line class="st2" x1="-101.5" y1="4.9" x2="-101.5" y2="9.4"/>
		<text transform="matrix(1.1096 0 0 1 -103.8232 16.9248)" class="st0 st1">1</text>
	</g>
	<g transform="translate(910,0)">
		<line class="st2" x1="-165.5" y1="4.9" x2="-165.5" y2="9.4"/>
		<text transform="matrix(1.1096 0 0 1 -167.77 16.9248)" class="st0 st1">2</text>
	</g>
	<g transform="translate(1281,0)">
		<line class="st2" x1="-229.4" y1="4.9" x2="-229.4" y2="9.4"/>
		<text transform="matrix(1.1096 0 0 1 -231.7168 16.9248)" class="st0 st1">3</text>
	</g>
	<g transform="translate(1652,0)">
		<line class="st2" x1="-293.4" y1="4.9" x2="-293.4" y2="9.4"/>
		<text transform="matrix(1.1096 0 0 1 -295.6641 16.9248)" class="st0 st1">4</text>
	</g>
	<g transform="translate(2023,0)">
		<line class="st2" x1="-357.3" y1="4.9" x2="-357.3" y2="9.4"/>
		<text transform="matrix(1.1096 0 0 1 -359.6104 16.9248)" class="st0 st1">5</text>
	</g>
	<g transform="translate(2394,0)">
		<line class="st2" x1="-421.3" y1="4.9" x2="-421.3" y2="9.4"/>
		<text transform="matrix(1.1096 0 0 1 -423.5576 16.9248)" class="st0 st1">6</text>
	</g>
	<g transform="translate(2765,0)">
		<line class="st2" x1="-485.2" y1="4.9" x2="-485.2" y2="9.4"/>
		<text transform="matrix(1.1096 0 0 1 -487.5039 16.9248)" class="st0 st1">7</text>
	</g>
	<g transform="translate(3136,0)">
		<line class="st2" x1="-549.1" y1="4.9" x2="-549.1" y2="9.4"/>
		<text transform="matrix(1.1096 0 0 1 -551.4512 16.9248)" class="st0 st1">8</text>
	</g>
	<g transform="translate(3507,0)">
		<line class="st2" x1="-613.1" y1="4.9" x2="-613.1" y2="9.4"/>
		<text transform="matrix(1.1096 0 0 1 -617.6992 16.9248)" class="st0 st1">10</text>
	</g>
	<g transform="translate(3878,0)">
		<line class="st2" x1="-677" y1="4.9" x2="-677" y2="9.4"/>
		<text transform="matrix(1.1096 0 0 1 -683.9453 16.9248)" class="st0 st1">n.a.</text>
	</g>
	<path class="st2" d="M-8.6,9.4V4.9H3340v4.5"/>
</g>
</svg>
