<svg width="4096" height="4096" xmlns="http://www.w3.org/2000/svg" version="1.1"><g transform="translate(2048,2048)"><g display="none"><path d="M0,1182.4133513003535A1182.4133513003535,1182.4133513003535 0 1,1 0,-1182.4133513003535A1182.4133513003535,1182.4133513003535 0 1,1 0,1182.4133513003535Z" style="stroke: rgb(255, 255, 255); fill: rgb(191, 105, 105); fill-rule: evenodd;"></path><text transform="rotate(90)" x="0" dx="6" dy=".35em" style="font-size: 11px; font-family: Arial, Helvetica;"></text><title>undefined: none</title></g><g><path d="M1.023918002532247e-13,-1672.184997739983A1672.184997739983,1672.184997739983 0 0,1 1649.8414975584851,-272.4439384545772L1166.6141108065735,-192.64695637440195A1182.4133513003535,1182.4133513003535 0 0,0 7.240193629695364e-14,-1182.4133513003535Z" style="stroke: rgb(255, 255, 255); fill: rgb(191, 105, 105); fill-rule: evenodd;"></path><text transform="rotate(-49.68841285296982)" x="1182.4133513003535" dx="6" dy=".35em" style="font-size: 11px; font-family: Arial, Helvetica;">1</text><title>1: none</title></g><g><path d="M1.2540383223268897e-13,-2048A2048,2048 0 0,1 1766.265939676125,-1036.633315275954L1442.1501007546533,-846.4075575985898A1672.184997739983,1672.184997739983 0 0,0 1.023918002532247e-13,-1672.184997739983Z" style="stroke: rgb(255, 255, 255); fill: rgb(191, 105, 105); fill-rule: evenodd;"></path><text transform="rotate(-60.204479065238566)" x="1672.184997739983" dx="6" dy=".35em" style="font-size: 11px; font-family: Arial, Helvetica;">international</text><title>international: 170</title></g><g><path d="M1766.265939676125,-1036.633315275954A2048,2048 0 0,1 2020.6349127437736,-333.6743163639692L1649.8414975584851,-272.4439384545772A1672.184997739983,1672.184997739983 0 0,0 1442.1501007546533,-846.4075575985898Z" style="stroke: rgb(255, 255, 255); fill: rgb(191, 105, 105); fill-rule: evenodd;"></path><text transform="rotate(-19.89289191820838)" x="1672.184997739983" dx="6" dy=".35em" style="font-size: 11px; font-family: Arial, Helvetica;">national</text><title>national: 60</title></g><g><path d="M1649.8414975584851,-272.4439384545772A1672.184997739983,1672.184997739983 0 0,1 1667.8662098227965,-120.1040082512083L1179.3595070776043,-84.92635868211444A1182.4133513003535,1182.4133513003535 0 0,0 1166.6141108065735,-192.64695637440195Z" style="stroke: rgb(255, 255, 255); fill: rgb(191, 179, 105); fill-rule: evenodd;"></path><text transform="rotate(-6.7478091528724455)" x="1182.4133513003535" dx="6" dy=".35em" style="font-size: 11px; font-family: Arial, Helvetica;">2</text><title>2: none</title></g><g><path d="M2020.6349127437736,-333.6743163639692A2048,2048 0 0,1 2037.2559421965004,-209.5047159016931L1663.4125112781358,-171.059884221967A1672.184997739983,1672.184997739983 0 0,0 1649.8414975584851,-272.4439384545772Z" style="stroke: rgb(255, 255, 255); fill: rgb(191, 179, 105); fill-rule: evenodd;"></path><text transform="rotate(-7.624148003894843)" x="1672.184997739983" dx="6" dy=".35em" style="font-size: 11px; font-family: Arial, Helvetica;">international</text><title>international: 10</title></g><g><path d="M2037.2559421965004,-209.5047159016931A2048,2048 0 0,1 2042.710586647798,-147.09676813924045L1667.8662098227965,-120.1040082512083A1672.184997739983,1672.184997739983 0 0,0 1663.4125112781358,-171.059884221967Z" style="stroke: rgb(255, 255, 255); fill: rgb(191, 179, 105); fill-rule: evenodd;"></path><text transform="rotate(-4.995131450827664)" x="1672.184997739983" dx="6" dy=".35em" style="font-size: 11px; font-family: Arial, Helvetica;">national</text><title>national: 5</title></g><g><path d="M1667.8662098227965,-120.1040082512083A1672.184997739983,1672.184997739983 0 0,1 -1439.5541969201215,850.8151272728587L-1017.9185345277724,601.6171460307338A1182.4133513003535,1182.4133513003535 0 0,0 1179.3595070776043,-84.92635868211444Z" style="stroke: rgb(255, 255, 255); fill: rgb(130, 191, 105); fill-rule: evenodd;"></path><text transform="rotate(72.64849074975658)" x="1182.4133513003535" dx="6" dy=".35em" style="font-size: 11px; font-family: Arial, Helvetica;">3</text><title>3: none</title></g><g><path d="M2042.710586647798,-147.09676813924045A2048,2048 0 0,1 -705.6875605370626,1922.5787544085806L-576.1914803817393,1569.7789795388924A1672.184997739983,1672.184997739983 0 0,0 1667.8662098227965,-120.1040082512083Z" style="stroke: rgb(255, 255, 255); fill: rgb(130, 191, 105); fill-rule: evenodd;"></path><text transform="rotate(53.01850048685492)" x="1672.184997739983" dx="6" dy=".35em" style="font-size: 11px; font-family: Arial, Helvetica;">international</text><title>international: 326</title></g><g><path d="M-705.6875605370626,1922.5787544085806A2048,2048 0 0,1 -1763.0866197681564,1042.0314636298158L-1439.5541969201215,850.8151272728587A1672.184997739983,1672.184997739983 0 0,0 -576.1914803817393,1569.7789795388924Z" style="stroke: rgb(255, 255, 255); fill: rgb(130, 191, 105); fill-rule: evenodd;"></path><text transform="rotate(129.78578383641675)" x="1672.184997739983" dx="6" dy=".35em" style="font-size: 11px; font-family: Arial, Helvetica;">national</text><title>national: 112</title></g><g><path d="M-1439.5541969201215,850.8151272728587A1672.184997739983,1672.184997739983 0 0,1 -1658.0733002695597,216.78468027025642L-1172.434874324964,153.28991747645586A1182.4133513003535,1182.4133513003535 0 0,0 -1017.9185345277724,601.6171460307338Z" style="stroke: rgb(255, 255, 255); fill: rgb(105, 191, 154); fill-rule: evenodd;"></path><text transform="rotate(160.983446932814)" x="1182.4133513003535" dx="6" dy=".35em" style="font-size: 11px; font-family: Arial, Helvetica;">4</text><title>4: none</title></g><g><path d="M-1763.0866197681564,1042.0314636298158A2048,2048 0 0,1 -1877.0896742999505,819.0472236913487L-1532.6373011606483,668.7492577623326A1672.184997739983,1672.184997739983 0 0,0 -1439.5541969201215,850.8151272728587Z" style="stroke: rgb(255, 255, 255); fill: rgb(105, 191, 154); fill-rule: evenodd;"></path><text transform="rotate(152.92112950340797)" x="1672.184997739983" dx="6" dy=".35em" style="font-size: 11px; font-family: Arial, Helvetica;">international</text><title>international: 20</title></g><g><path d="M-1877.0896742999505,819.0472236913487A2048,2048 0 0,1 -2030.7167708964694,265.50592535726196L-1658.0733002695597,216.78468027025642A1672.184997739983,1672.184997739983 0 0,0 -1532.6373011606483,668.7492577623326Z" style="stroke: rgb(255, 255, 255); fill: rgb(105, 191, 154); fill-rule: evenodd;"></path><text transform="rotate(164.48880233690363)" x="1672.184997739983" dx="6" dy=".35em" style="font-size: 11px; font-family: Arial, Helvetica;">national</text><title>national: 46</title></g><g><path d="M-1658.0733002695597,216.78468027025642A1672.184997739983,1672.184997739983 0 0,1 -1370.3440103438668,-958.3109933530736L-968.9795422725166,-677.6282018855748A1182.4133513003535,1182.4133513003535 0 0,0 -1172.434874324964,153.28991747645586Z" style="stroke: rgb(255, 255, 255); fill: rgb(105, 154, 191); fill-rule: evenodd;"></path><text transform="rotate(193.7585199610516)" x="1182.4133513003535" dx="6" dy=".35em" style="font-size: 11px; font-family: Arial, Helvetica;">5</text><title>5: none</title></g><g><path d="M-2030.7167708964694,265.50592535726196A2048,2048 0 0,1 -1968.2989915847706,-565.7765280801023L-1607.1093968724563,-461.9546007465631A1672.184997739983,1672.184997739983 0 0,0 -1658.0733002695597,216.78468027025642Z" style="stroke: rgb(255, 255, 255); fill: rgb(105, 154, 191); fill-rule: evenodd;"></path><text transform="rotate(184.29406037000973)" x="1672.184997739983" dx="6" dy=".35em" style="font-size: 11px; font-family: Arial, Helvetica;">international</text><title>international: 67</title></g><g><path d="M-1968.2989915847706,-565.7765280801023A2048,2048 0 0,1 -1678.3217987108335,-1173.686474307356L-1370.3440103438668,-958.3109933530736A1672.184997739983,1672.184997739983 0 0,0 -1607.1093968724563,-461.9546007465631Z" style="stroke: rgb(255, 255, 255); fill: rgb(105, 154, 191); fill-rule: evenodd;"></path><text transform="rotate(205.50146056475174)" x="1672.184997739983" dx="6" dy=".35em" style="font-size: 11px; font-family: Arial, Helvetica;">national</text><title>national: 54</title></g><g><path d="M-1370.3440103438668,-958.3109933530736A1672.184997739983,1672.184997739983 0 0,1 -264.8708000853977,-1651.0742339243222L-187.29193887869107,-1167.4857870502722A1182.4133513003535,1182.4133513003535 0 0,0 -968.9795422725166,-677.6282018855748Z" style="stroke: rgb(255, 255, 255); fill: rgb(130, 105, 191); fill-rule: evenodd;"></path><text transform="rotate(237.92599805258033)" x="1182.4133513003535" dx="6" dy=".35em" style="font-size: 11px; font-family: Arial, Helvetica;">6</text><title>6: none</title></g><g><path d="M-1678.3217987108335,-1173.686474307356A2048,2048 0 0,1 -1165.9731670381625,-1683.6895716690167L-952.013104340132,-1374.7267786114196A1672.184997739983,1672.184997739983 0 0,0 -1370.3440103438668,-958.3109933530736Z" style="stroke: rgb(255, 255, 255); fill: rgb(130, 105, 191); fill-rule: evenodd;"></path><text transform="rotate(225.13145082765334)" x="1672.184997739983" dx="6" dy=".35em" style="font-size: 11px; font-family: Arial, Helvetica;">international</text><title>international: 58</title></g><g><path d="M-1165.9731670381625,-1683.6895716690167A2048,2048 0 0,1 -324.39915398597594,-2022.144700285611L-264.87080008539624,-1651.0742339243227A1672.184997739983,1672.184997739983 0 0,0 -952.013104340132,-1374.7267786114196Z" style="stroke: rgb(255, 255, 255); fill: rgb(130, 105, 191); fill-rule: evenodd;"></path><text transform="rotate(248.0915287244401)" x="1672.184997739983" dx="6" dy=".35em" style="font-size: 11px; font-family: Arial, Helvetica;">national</text><title>national: 73</title></g><g><path d="M-264.8708000853977,-1651.0742339243222A1672.184997739983,1672.184997739983 0 0,1 -1.7923740294986295e-12,-1672.184997739983L-1.2673998306811378e-12,-1182.4133513003535A1182.4133513003535,1182.4133513003535 0 0,0 -187.29193887869107,-1167.4857870502722Z" style="stroke: rgb(255, 255, 255); fill: rgb(191, 105, 179); fill-rule: evenodd;"></path><text transform="rotate(265.44303797468353)" x="1182.4133513003535" dx="6" dy=".35em" style="font-size: 11px; font-family: Arial, Helvetica;">7</text><title>7: none</title></g><g><path d="M-324.3991539859777,-2022.1447002856105A2048,2048 0 0,1 -37.586877461796966,-2047.6550555800827L-30.68955693530663,-1671.9033518005103A1672.184997739983,1672.184997739983 0 0,0 -264.8708000853977,-1651.0742339243222Z" style="stroke: rgb(255, 255, 255); fill: rgb(191, 105, 179); fill-rule: evenodd;"></path><text transform="rotate(264.91723466407007)" x="1672.184997739983" dx="6" dy=".35em" style="font-size: 11px; font-family: Arial, Helvetica;">international</text><title>international: 23</title></g><g><path d="M-37.586877461796966,-2047.6550555800827A2048,2048 0 0,1 -2.1952009002439233e-12,-2048L-1.7923740294986295e-12,-1672.184997739983A1672.184997739983,1672.184997739983 0 0,0 -30.68955693530663,-1671.9033518005103Z" style="stroke: rgb(255, 255, 255); fill: rgb(191, 105, 179); fill-rule: evenodd;"></path><text transform="rotate(269.4741966893865)" x="1672.184997739983" dx="6" dy=".35em" style="font-size: 11px; font-family: Arial, Helvetica;">national</text><title>national: 3</title></g></g></svg>