<svg width="848" height="848" xmlns="http://www.w3.org/2000/svg" version="1.1"><g transform="translate(424,424)"><g display="none"><path d="M0,244.79651413640133A244.79651413640133,244.79651413640133 0 1,1 0,-244.79651413640133A244.79651413640133,244.79651413640133 0 1,1 0,244.79651413640133Z" style="stroke: rgb(255, 255, 255); fill: rgb(191, 105, 105); fill-rule: evenodd;"></path><text transform="rotate(90)" x="0" dx="6" dy=".35em" style="font-size: 11px; font-family: Arial, Helvetica;"></text><title>undefined: none</title></g><g><path d="M2.1198302396175426e-14,-346.1945503133558A346.1945503133558,346.1945503133558 0 0,1 66.31173082138169,-339.7843743054399L46.88947453601598,-240.26383521260465A244.79651413640133,244.79651413640133 0 0,0 1.4989463373978684e-14,-244.79651413640133Z" style="stroke: rgb(255, 255, 255); fill: rgb(191, 105, 105); fill-rule: evenodd;"></path><text transform="rotate(-84.47852760736197)" x="244.79651413640133" dx="6" dy=".35em" style="font-size: 11px; font-family: Arial, Helvetica;">OTher IGO</text><title>OTher IGO: none</title></g><g><path d="M2.596251214192389e-14,-424A424,424 0 0,1 81.21495223658678,-416.14916980958753L66.31173082138169,-339.7843743054399A346.1945503133558,346.1945503133558 0 0,0 2.1198302396175426e-14,-346.1945503133558Z" style="stroke: rgb(255, 255, 255); fill: rgb(191, 105, 105); fill-rule: evenodd;"></path><text transform="rotate(-84.47852760736197)" x="346.1945503133558" dx="6" dy=".35em" style="font-size: 11px; font-family: Arial, Helvetica;">Other IGO</text><title>Other IGO: 5</title></g><g><path d="M66.31173082138169,-339.7843743054399A346.1945503133558,346.1945503133558 0 0,1 326.68848210015875,-114.56571184154939L231.0036410285623,-81.01019173462352A244.79651413640133,244.79651413640133 0 0,0 46.88947453601598,-240.26383521260465Z" style="stroke: rgb(255, 255, 255); fill: rgb(148, 191, 105); fill-rule: evenodd;"></path><text transform="rotate(-49.141104294478524)" x="244.79651413640133" dx="6" dy=".35em" style="font-size: 11px; font-family: Arial, Helvetica;">Regional IGO</text><title>Regional IGO: none</title></g><g><path d="M81.21495223658678,-416.14916980958753A424,424 0 0,1 400.1100429948724,-140.31376801526426L326.68848210015875,-114.56571184154939A346.1945503133558,346.1945503133558 0 0,0 66.31173082138169,-339.7843743054399Z" style="stroke: rgb(255, 255, 255); fill: rgb(148, 191, 105); fill-rule: evenodd;"></path><text transform="rotate(-49.141104294478524)" x="346.1945503133558" dx="6" dy=".35em" style="font-size: 11px; font-family: Arial, Helvetica;">Regional IGO</text><title>Regional IGO: 27</title></g><g><path d="M326.68848210015875,-114.56571184154939A346.1945503133558,346.1945503133558 0 1,1 -345.40716708154014,-23.335715017365143L-244.23975011379187,-16.500842332615647A244.79651413640133,244.79651413640133 0 1,0 231.0036410285623,-81.01019173462352Z" style="stroke: rgb(255, 255, 255); fill: rgb(105, 191, 191); fill-rule: evenodd;"></path><text transform="rotate(82.26993865030677)" x="244.79651413640133" dx="6" dy=".35em" style="font-size: 11px; font-family: Arial, Helvetica;">States</text><title>States: none</title></g><g><path d="M400.1100429948724,-140.31376801526426A424,424 0 0,1 -181.86029424117424,383.01805881513405L-148.488308454429,312.73293545613166A346.1945503133558,346.1945503133558 0 0,0 326.68848210015875,-114.56571184154939Z" style="stroke: rgb(255, 255, 255); fill: rgb(105, 191, 191); fill-rule: evenodd;"></path><text transform="rotate(48.036809815950946)" x="346.1945503133558" dx="6" dy=".35em" style="font-size: 11px; font-family: Arial, Helvetica;">Governmental services</text><title>Governmental services: 61</title></g><g><path d="M-181.86029424117424,383.01805881513405A424,424 0 0,1 -407.54992187375086,116.95751870102053L-332.7631177672794,95.49541413317384A346.1945503133558,346.1945503133558 0 0,0 -148.488308454429,312.73293545613166Z" style="stroke: rgb(255, 255, 255); fill: rgb(105, 191, 191); fill-rule: evenodd;"></path><text transform="rotate(139.69325153374234)" x="346.1945503133558" dx="6" dy=".35em" style="font-size: 11px; font-family: Arial, Helvetica;">Donor </text><title>Donor : 22</title></g><g><path d="M-407.54992187375086,116.95751870102053A424,424 0 0,1 -423.035656425014,-28.580297287773647L-345.40716708154014,-23.335715017365143A346.1945503133558,346.1945503133558 0 0,0 -332.7631177672794,95.49541413317384Z" style="stroke: rgb(255, 255, 255); fill: rgb(105, 191, 191); fill-rule: evenodd;"></path><text transform="rotate(173.92638036809817)" x="346.1945503133558" dx="6" dy=".35em" style="font-size: 11px; font-family: Arial, Helvetica;">Club</text><title>Club: 9</title></g><g><path d="M-345.40716708154014,-23.335715017365143A346.1945503133558,346.1945503133558 0 0,1 -6.359490718852627e-14,-346.1945503133558L-4.496839012193605e-14,-244.79651413640133A244.79651413640133,244.79651413640133 0 0,0 -244.23975011379187,-16.500842332615647Z" style="stroke: rgb(255, 255, 255); fill: rgb(148, 105, 191); fill-rule: evenodd;"></path><text transform="rotate(226.93251533742335)" x="244.79651413640133" dx="6" dy=".35em" style="font-size: 11px; font-family: Arial, Helvetica;">UN</text><title>UN: none</title></g><g><path d="M-423.035656425014,-28.580297287773647A424,424 0 0,1 -295.448248229039,-304.1156566479144L-241.23248452009642,-248.30939385961238A346.1945503133558,346.1945503133558 0 0,0 -345.40716708154014,-23.335715017365143Z" style="stroke: rgb(255, 255, 255); fill: rgb(148, 105, 191); fill-rule: evenodd;"></path><text transform="rotate(204.84662576687117)" x="346.1945503133558" dx="6" dy=".35em" style="font-size: 11px; font-family: Arial, Helvetica;">Other</text><title>Other: 19</title></g><g><path d="M-295.448248229039,-304.1156566479144A424,424 0 0,1 -174.4448473205389,-386.4518019667056L-142.43362139767922,-315.5365749991738A346.1945503133558,346.1945503133558 0 0,0 -241.23248452009642,-248.30939385961238Z" style="stroke: rgb(255, 255, 255); fill: rgb(148, 105, 191); fill-rule: evenodd;"></path><text transform="rotate(235.7668711656442)" x="346.1945503133558" dx="6" dy=".35em" style="font-size: 11px; font-family: Arial, Helvetica;">Clusters</text><title>Clusters: 9</title></g><g><path d="M-174.4448473205389,-386.4518019667056A424,424 0 0,1 2.9870011352708144e-13,-424L2.4388762141758555e-13,-346.1945503133558A346.1945503133558,346.1945503133558 0 0,0 -142.43362139767922,-315.5365749991738Z" style="stroke: rgb(255, 255, 255); fill: rgb(148, 105, 191); fill-rule: evenodd;"></path><text transform="rotate(257.85276073619633)" x="346.1945503133558" dx="6" dy=".35em" style="font-size: 11px; font-family: Arial, Helvetica;">Agencies Missions </text><title>Agencies Missions : 11</title></g></g></svg>