<svg width="848" height="500" xmlns="http://www.w3.org/2000/svg" version="1.1"><g class="x axis" transform="translate(0,485)" style="stroke-width: 1px; font-size: 10px; font-family: Arial, Helvetica;"><g class="tick" transform="translate(82.8478907368653,0)" style="opacity: 1;"><line y2="-485" x2="0" style="shape-rendering: crispEdges; fill: none; stroke: rgb(204, 204, 204);"></line><text dy=".71em" y="3" x="0" style="text-anchor: middle;">1860</text></g><g class="tick" transform="translate(180.31992195490378,0)" style="opacity: 1;"><line y2="-485" x2="0" style="shape-rendering: crispEdges; fill: none; stroke: rgb(204, 204, 204);"></line><text dy=".71em" y="3" x="0" style="text-anchor: middle;">1880</text></g><g class="tick" transform="translate(277.79195317294227,0)" style="opacity: 1;"><line y2="-485" x2="0" style="shape-rendering: crispEdges; fill: none; stroke: rgb(204, 204, 204);"></line><text dy=".71em" y="3" x="0" style="text-anchor: middle;">1900</text></g><g class="tick" transform="translate(375.25064119711107,0)" style="opacity: 1;"><line y2="-485" x2="0" style="shape-rendering: crispEdges; fill: none; stroke: rgb(204, 204, 204);"></line><text dy=".71em" y="3" x="0" style="text-anchor: middle;">1920</text></g><g class="tick" transform="translate(472.7226724151496,0)" style="opacity: 1;"><line y2="-485" x2="0" style="shape-rendering: crispEdges; fill: none; stroke: rgb(204, 204, 204);"></line><text dy=".71em" y="3" x="0" style="text-anchor: middle;">1940</text></g><g class="tick" transform="translate(570.194703633188,0)" style="opacity: 1;"><line y2="-485" x2="0" style="shape-rendering: crispEdges; fill: none; stroke: rgb(204, 204, 204);"></line><text dy=".71em" y="3" x="0" style="text-anchor: middle;">1960</text></g><g class="tick" transform="translate(667.6667348512266,0)" style="opacity: 1;"><line y2="-485" x2="0" style="shape-rendering: crispEdges; fill: none; stroke: rgb(204, 204, 204);"></line><text dy=".71em" y="3" x="0" style="text-anchor: middle;">1980</text></g><g class="tick" transform="translate(765.1387660692651,0)" style="opacity: 1;"><line y2="-485" x2="0" style="shape-rendering: crispEdges; fill: none; stroke: rgb(204, 204, 204);"></line><text dy=".71em" y="3" x="0" style="text-anchor: middle;">2000</text></g><path class="domain" d="M0,-485V0H848V-485" style="shape-rendering: crispEdges; fill: none; stroke: rgb(204, 204, 204);"></path></g><g class="flow" title="OUI" transform="translate(0,0)"><path class="area" d="M0,432L0.8117109604057504,432C1.6234219208115008,432,3.2468438416230017,432,16.2431146706948,432C29.2393854997666,432,53.6085052370987,432,69.04213281303268,440C84.47576038896668,448,90.97389580350257,464,95.03467447117629,472C99.09545313884998,480,100.71887505966149,480,102.34452084611794,472C103.97016663257439,464,105.59803628467579,448,107.22368207113223,448C108.84932785758868,448,110.47274977840017,464,112.09617169921168,472C113.71959362002318,480,115.34301554083468,480,116.9664374616462,480C118.58985938245769,480,120.21328130326918,480,122.65063805013138,480C125.08799479699357,480,128.33928636990646,480,131.58835407717442,472C134.83742178444237,464,138.08426562606536,448,142.9567552541448,448C147.82924488222426,448,154.32738029676017,464,158.3903828300788,472C162.45338536339747,480,164.08125501549887,480,167.33032272276682,480C170.57939043003478,480,175.44965619246926,480,178.69872389973722,472C181.94779160700517,464,183.5756612591066,448,187.63866379242523,448C191.70166632574387,448,198.19980174027975,464,202.26058040795346,472C206.32135907562716,480,207.94478099643868,480,209.56820291725018,480C211.19162483806167,480,212.81504675887317,480,217.68753638695262,480C222.56002601503207,480,230.68158335037947,480,235.55629684410385,480C240.43101033782824,480,242.05887998992964,480,244.49623673679184,480C246.93359348365402,480,250.18043732527707,480,252.61557020649428,480C255.05070308771155,480,256.67412500852305,480,258.2997707949795,472C259.9254165814359,464,261.55328623353734,448,265.61406490121107,440C269.67484356888474,432,276.1685312521307,432,281.850507974971,432C287.53248469781124,432,292.4027504602458,432,297.27524008832523,440C302.1477297164047,448,307.0224432101291,464,310.2715109173971,464C313.520578624665,464,315.1440005454765,448,316.76964633193296,448C318.39529211838936,448,320.0231617704908,464,321.6488075569472,472C323.27445334340365,480,324.89787526421514,480,326.52129718502664,480C328.14471910583813,480,329.76814102664963,480,333.0172087339176,472C336.26627644118554,464,341.14098993490995,448,344.3900576421779,448C347.63912534944586,448,349.26254727025736,464,351.6999040171196,464C354.13726076398177,464,357.3885523368947,448,359.82590908375687,448C362.26326583061905,448,363.8866877514306,464,365.5101096722421,472C367.1335315930536,480,368.7569535138651,480,370.3803754346766,472C372.0037973554881,464,373.62721927629957,448,375.252865062756,448C376.8785108492125,448,378.50638050131386,464,380.1320262877703,464C381.7576720742268,464,383.38109399503827,448,385.81622687625554,440C388.25135975747276,432,391.49820359909575,432,393.9355603459579,440C396.3729170928201,448,398.0007867449215,464,399.626432531378,464C401.25207831783445,464,402.87550023864594,448,404.4989221594575,448C406.122344080269,448,407.7457660010805,464,410.99483370834844,464C414.2439014156164,464,419.11861490934075,448,422.3676826166087,448C425.6167503238766,448,427.2401722446881,464,428.8635941654996,464C430.4870160863111,464,432.11043800712264,448,433.7360837935791,440C435.36172958003556,432,436.9895992321369,432,438.6152450185933,440C440.2408908050498,448,441.8643127258613,464,443.4877346466728,472C445.1111565674843,480,446.7345784882958,480,449.17193523515806,472C451.60929198202024,464,454.8605835549331,448,458.10965126220106,440C461.358718969469,432,464.60556281109206,432,467.0406956923093,424C469.47582857352654,416,471.0992504943381,400,472.7248962807945,408C474.35054206725096,416,475.9784117193524,448,477.6040575058088,464C479.22970329226524,480,480.85312521307674,480,482.47654713388823,472C484.0999690546997,464,485.7233909755112,448,487.3468128963227,440C488.9702348171342,432,490.5936567379457,432,492.21930252440217,408C493.8449483108586,384,495.47281796296,336,497.0984637494164,320C498.7241095358729,304,500.34753145668446,320,501.97095337749596,320C503.59437529830745,320,505.21779721911895,304,506.84121913993044,296C508.46464106074194,288,510.08806298155343,288,511.71370876800984,320C513.3393545544664,352,514.9672242065676,416,516.5928699930241,432C518.2185157794805,448,519.8419377002921,416,521.4653596211036,392C523.0887815419151,368,524.7122034627266,352,526.3356253835382,360C527.9590473043496,368,529.582469225161,400,531.2081150116176,424C532.8337607980741,448,534.4616304501754,464,536.087276236632,456C537.7129220230884,448,539.3363439438999,416,540.9597658647114,416C542.5831877855228,416,544.2066097063343,448,545.8300316271459,448C547.4534535479573,448,549.0768754687688,416,550.7025212552253,400C552.3281670416817,384,553.9560366937831,384,555.5816824802396,392C557.207328266696,400,558.8307501875075,416,560.4541721083191,416C562.0775940291305,416,563.701015949942,400,565.3244378707535,376C566.947859791565,352,568.5712817123765,320,570.1969274988329,336C571.8225732852894,352,573.4504429373908,416,575.0760887238473,408C576.7017345103037,400,578.3251564311153,320,579.9485783519268,320C581.5720002727383,320,583.1954221935497,400,584.8188441143612,408C586.4422660351727,416,588.0656879559842,352,589.6913337424406,328C591.3169795288971,304,592.9448491809985,320,594.5704949674549,312C596.1961407539113,304,597.8195626747229,272,599.4429845955344,224C601.066406516346,176,602.6898284371574,111.99999999999999,604.3132503579689,136C605.9366722787804,160,607.560094199592,272,609.1857399860484,344C610.8113857725048,416,612.4392554246062,448,614.0649012110626,432C615.690546997519,416,617.3139689183306,352,618.9373908391422,304C620.5608127599537,256,622.1842346807651,224,623.8076566015766,208C625.4310785223881,192,627.0545004431997,192,628.6801462296561,200C630.3057920161125,208,631.933661668214,224,633.5593074546704,256C635.1849532411268,288,636.8083751619382,336,638.4317970827498,352C640.0552190035612,368,641.6786409243728,352,643.3020628451843,368C644.9254847659959,384,646.5489066868073,432,648.1745524732638,432C649.8001982597202,432,651.4280679118217,384,653.0537136982781,344C654.6793594847345,304,656.3027814055459,272,657.9262033263575,264C659.5496252471689,256,661.1730471679805,272,662.796469088792,288C664.4198910096036,304,666.043312930415,320,667.6689587168715,328C669.294604503328,336,670.9224741554293,336,672.5481199418858,320C674.1737657283422,304,675.7971876491537,272,677.4206095699651,264C679.0440314907767,256,680.6674534115882,272,682.2908753323997,240C683.9142972532111,208,685.5377191740226,127.99999999999999,687.163364960479,103.99999999999999C688.7890107469356,80,690.4168803990369,112.00000000000001,692.0425261854934,128.00000000000003C693.66817197195,144.00000000000003,695.2915938927614,144.00000000000003,696.915015813573,176C698.5384377343844,208,700.1618596551959,272,701.7852815760074,296C703.4087034968189,320,705.0321254176304,304,706.6577712040869,288C708.2834169905433,272,709.9112866426447,256,711.5369324291012,240C713.1625782155576,224,714.786000136369,208,716.4094220571806,216C718.0328439779921,224,719.6562658988036,256,721.2796878196151,232C722.9031097404265,208,724.5265316612381,127.99999999999999,726.1521774476945,111.99999999999999C727.777823234151,95.99999999999999,729.4056928862524,144,731.0313386727089,192C732.6569844591653,240,734.2804063799767,288,735.9038283007883,312C737.5272502215998,336,739.1506721424113,336,740.7740940632228,328C742.3975159840343,320,744.0209379048458,304,745.6465836913023,304C747.2722294777586,304,748.9000991298601,320,750.5257449163165,344C752.1513907027729,368,753.7748126235845,400,755.398234544396,400C757.0216564652076,400,758.645078386019,368,760.2685003068306,352C761.891922227642,336,763.5153441484536,336,765.14098993491,280C766.7666357213664,224,768.3945053734678,112,770.0201511599241,120C771.6457969463806,128,773.2692188671922,256,774.8926407880036,304C776.5160627088151,352,778.1394846296266,320,779.7629065504381,320C781.3863284712496,320,783.009750392061,352,784.6353961785176,344C786.261041964974,336,787.8889116170753,288,789.5145574035319,288C791.1402031899883,288,792.7636251107998,336,794.3870470316114,352C796.0104689524228,368,797.6338908732343,352,799.2573127940459,344C800.8807347148573,336,802.5041566356688,336,804.1298024221253,344C805.7554482085818,352,807.3833178606832,368,809.0089636471396,360C810.6346094335961,352,812.2580313544076,320,813.8814532752191,320C815.5048751960305,320,817.1282971168421,352,818.7517190376535,368C820.3751409584651,384,821.9985628792765,384,823.624208665733,400C825.2498544521894,416,826.8777241042908,448,828.5033698907473,448C830.1290156772037,448,831.7524375980153,416,833.3758595188268,408C834.9992814396383,400,836.6227033604498,416,838.2461252812614,424C839.8695472020728,432,841.4929691228842,432,843.1186149093407,440C844.7442606957972,448,846.3721303478985,464,847.1860651739491,472L848,480L848,480L847.1860651739491,480C846.3721303478985,480,844.7442606957972,480,843.1186149093406,480C841.4929691228842,480,839.8695472020728,480,838.2461252812614,480C836.6227033604498,480,834.9992814396383,480,833.3758595188267,480C831.7524375980153,480,830.1290156772037,480,828.5033698907472,480C826.8777241042908,480,825.2498544521894,480,823.624208665733,480C821.9985628792765,480,820.3751409584651,480,818.7517190376536,480C817.1282971168421,480,815.5048751960305,480,813.8814532752191,480C812.2580313544076,480,810.6346094335961,480,809.0089636471396,480C807.3833178606832,480,805.7554482085818,480,804.1298024221253,480C802.5041566356688,480,800.8807347148573,480,799.2573127940459,480C797.6338908732343,480,796.0104689524228,480,794.3870470316112,480C792.7636251107998,480,791.1402031899883,480,789.5145574035317,480C787.8889116170753,480,786.261041964974,480,784.6353961785176,480C783.009750392061,480,781.3863284712496,480,779.7629065504382,480C778.1394846296266,480,776.5160627088151,480,774.8926407880036,480C773.2692188671922,480,771.6457969463806,480,770.0201511599241,480C768.3945053734678,480,766.7666357213664,480,765.1409899349101,480C763.5153441484536,480,761.891922227642,480,760.2685003068306,480C758.645078386019,480,757.0216564652076,480,755.398234544396,480C753.7748126235845,480,752.1513907027729,480,750.5257449163165,480C748.9000991298601,480,747.2722294777586,480,745.6465836913023,480C744.0209379048458,480,742.3975159840343,480,740.7740940632228,480C739.1506721424113,480,737.5272502215998,480,735.9038283007883,480C734.2804063799767,480,732.6569844591653,480,731.0313386727089,480C729.4056928862524,480,727.777823234151,480,726.1521774476946,480C724.5265316612381,480,722.9031097404265,480,721.2796878196151,480C719.6562658988036,480,718.0328439779921,480,716.4094220571806,480C714.786000136369,480,713.1625782155576,480,711.5369324291012,480C709.9112866426447,480,708.2834169905433,480,706.6577712040869,480C705.0321254176304,480,703.4087034968189,480,701.7852815760075,480C700.1618596551959,480,698.5384377343844,480,696.915015813573,480C695.2915938927614,480,693.66817197195,480,692.0425261854934,480C690.4168803990369,480,688.7890107469356,480,687.1633649604792,480C685.5377191740226,480,683.9142972532111,480,682.2908753323997,480C680.6674534115882,480,679.0440314907767,480,677.4206095699651,480C675.7971876491537,480,674.1737657283422,480,672.5481199418857,480C670.9224741554293,480,669.294604503328,480,667.6689587168715,480C666.043312930415,480,664.4198910096036,480,662.796469088792,480C661.1730471679805,480,659.5496252471689,480,657.9262033263575,480C656.3027814055459,480,654.6793594847345,480,653.053713698278,480C651.4280679118217,480,649.8001982597202,480,648.1745524732638,480C646.5489066868073,480,644.9254847659959,480,643.3020628451843,480C641.6786409243728,480,640.0552190035612,480,638.4317970827498,480C636.8083751619382,480,635.1849532411268,480,633.5593074546703,480C631.933661668214,480,630.3057920161125,480,628.6801462296561,480C627.0545004431997,480,625.4310785223881,480,623.8076566015766,480C622.1842346807651,480,620.5608127599537,480,618.9373908391422,480C617.3139689183306,480,615.690546997519,480,614.0649012110625,480C612.4392554246062,480,610.8113857725048,480,609.1857399860484,480C607.560094199592,480,605.9366722787804,480,604.3132503579689,480C602.6898284371574,480,601.066406516346,480,599.4429845955344,480C597.8195626747229,480,596.1961407539113,480,594.5704949674549,480C592.9448491809985,480,591.3169795288971,480,589.6913337424406,480C588.0656879559842,480,586.4422660351727,480,584.8188441143612,480C583.1954221935497,480,581.5720002727383,480,579.9485783519267,480C578.3251564311153,480,576.7017345103037,480,575.0760887238473,480C573.4504429373908,480,571.8225732852894,480,570.196927498833,480C568.5712817123765,480,566.947859791565,480,565.3244378707535,480C563.701015949942,480,562.0775940291305,480,560.454172108319,480C558.8307501875075,480,557.207328266696,480,555.5816824802396,480C553.9560366937831,480,552.3281670416817,480,550.7025212552253,480C549.0768754687688,480,547.4534535479573,480,545.8300316271459,480C544.2066097063343,480,542.5831877855228,480,540.9597658647114,480C539.3363439438999,480,537.7129220230884,480,536.087276236632,480C534.4616304501754,480,532.8337607980741,480,531.2081150116176,480C529.582469225161,480,527.9590473043496,480,526.3356253835382,480C524.7122034627266,480,523.0887815419151,480,521.4653596211036,480C519.8419377002921,480,518.2185157794805,480,516.5928699930241,480C514.9672242065676,480,513.3393545544664,480,511.71370876800984,480C510.08806298155343,480,508.46464106074194,480,506.84121913993044,480C505.21779721911895,480,503.59437529830745,480,501.97095337749596,480C500.34753145668446,480,498.7241095358729,480,497.0984637494165,480C495.47281796296,480,493.8449483108586,480,492.21930252440217,480C490.5936567379457,480,488.9702348171342,480,487.3468128963227,480C485.7233909755112,480,484.0999690546997,480,482.47654713388823,480C480.85312521307674,480,479.22970329226524,480,477.6040575058088,480C475.9784117193524,480,474.35054206725096,480,472.7248962807945,480C471.0992504943381,480,469.47582857352654,480,467.0406956923093,480C464.60556281109206,480,461.358718969469,480,458.10965126220106,480C454.8605835549331,480,451.60929198202024,480,449.171935235158,480C446.7345784882958,480,445.1111565674843,480,443.4877346466728,480C441.8643127258613,480,440.2408908050498,480,438.6152450185933,480C436.9895992321369,480,435.36172958003556,480,433.7360837935791,480C432.11043800712264,480,430.4870160863111,480,428.8635941654996,480C427.2401722446881,480,425.6167503238766,480,422.3676826166087,480C419.11861490934075,480,414.2439014156164,480,410.99483370834844,480C407.7457660010805,480,406.122344080269,480,404.49892215945744,480C402.87550023864594,480,401.25207831783445,480,399.626432531378,480C398.0007867449215,480,396.3729170928201,480,393.9355603459579,480C391.49820359909575,480,388.25135975747276,480,385.81622687625554,480C383.38109399503827,480,381.7576720742268,480,380.1320262877703,480C378.50638050131386,480,376.8785108492125,480,375.25286506275603,480C373.62721927629957,480,372.0037973554881,480,370.3803754346766,480C368.7569535138651,480,367.1335315930536,480,365.51010967224204,480C363.8866877514306,480,362.26326583061905,480,359.82590908375687,480C357.3885523368947,480,354.13726076398177,480,351.69990401711954,480C349.26254727025736,480,347.63912534944586,480,344.3900576421779,480C341.14098993490995,480,336.26627644118554,480,333.0172087339176,480C329.76814102664963,480,328.14471910583813,480,326.52129718502664,480C324.89787526421514,480,323.27445334340365,480,321.6488075569472,480C320.0231617704908,480,318.39529211838936,480,316.76964633193296,480C315.1440005454765,480,313.520578624665,480,310.27151091739705,480C307.0224432101291,480,302.1477297164047,480,297.27524008832523,480C292.4027504602458,480,287.53248469781124,480,281.850507974971,480C276.1685312521307,480,269.67484356888474,480,265.614064901211,480C261.55328623353734,480,259.9254165814359,480,258.29977079497945,480C256.67412500852305,480,255.05070308771155,480,252.6155702064943,480C250.18043732527707,480,246.93359348365402,480,244.49623673679184,480C242.05887998992964,480,240.43101033782824,480,235.55629684410385,480C230.68158335037947,480,222.56002601503207,480,217.68753638695262,480C212.81504675887317,480,211.19162483806167,480,209.56820291725018,480C207.94478099643868,480,206.32135907562716,480,202.26058040795346,480C198.19980174027975,480,191.70166632574387,480,187.63866379242523,480C183.5756612591066,480,181.94779160700517,480,178.69872389973722,480C175.44965619246926,480,170.57939043003478,480,167.33032272276682,480C164.08125501549887,480,162.45338536339747,480,158.39038283007883,480C154.32738029676017,480,147.82924488222426,480,142.9567552541448,480C138.08426562606536,480,134.83742178444237,480,131.58835407717442,480C128.33928636990646,480,125.08799479699357,480,122.65063805013138,480C120.21328130326918,480,118.58985938245769,480,116.9664374616462,480C115.34301554083468,480,113.71959362002318,480,112.09617169921168,480C110.47274977840017,480,108.84932785758868,480,107.22368207113223,480C105.59803628467579,480,103.97016663257439,480,102.34452084611794,480C100.71887505966149,480,99.09545313884998,480,95.03467447117627,480C90.97389580350257,480,84.47576038896668,480,69.04213281303268,480C53.6085052370987,480,29.2393854997666,480,16.2431146706948,480C3.2468438416230017,480,1.6234219208115008,480,0.8117109604057504,480L0,480Z" style="fill: rgb(191, 105, 105);"></path><text x="842" y="474" style="font-size: 10px; fill: rgb(34, 34, 34); font-family: Arial, Helvetica; text-anchor: end;">OUI</text></g></svg>