<svg width="848" height="500" xmlns="http://www.w3.org/2000/svg" version="1.1"><g><g class="x axis" transform="translate(0,480)" style="stroke-width: 1px; font-size: 10px; font-family: Arial, Helvetica;"><g class="tick" transform="translate(82.8478907368653,0)" style="opacity: 1;"><line y2="-480" x2="0" style="shape-rendering: crispEdges; fill: none; stroke: rgb(204, 204, 204);"></line><text dy=".71em" y="3" x="0" style="text-anchor: middle;">1860</text></g><g class="tick" transform="translate(180.31992195490378,0)" style="opacity: 1;"><line y2="-480" x2="0" style="shape-rendering: crispEdges; fill: none; stroke: rgb(204, 204, 204);"></line><text dy=".71em" y="3" x="0" style="text-anchor: middle;">1880</text></g><g class="tick" transform="translate(277.79195317294227,0)" style="opacity: 1;"><line y2="-480" x2="0" style="shape-rendering: crispEdges; fill: none; stroke: rgb(204, 204, 204);"></line><text dy=".71em" y="3" x="0" style="text-anchor: middle;">1900</text></g><g class="tick" transform="translate(375.25064119711107,0)" style="opacity: 1;"><line y2="-480" x2="0" style="shape-rendering: crispEdges; fill: none; stroke: rgb(204, 204, 204);"></line><text dy=".71em" y="3" x="0" style="text-anchor: middle;">1920</text></g><g class="tick" transform="translate(472.7226724151496,0)" style="opacity: 1;"><line y2="-480" x2="0" style="shape-rendering: crispEdges; fill: none; stroke: rgb(204, 204, 204);"></line><text dy=".71em" y="3" x="0" style="text-anchor: middle;">1940</text></g><g class="tick" transform="translate(570.194703633188,0)" style="opacity: 1;"><line y2="-480" x2="0" style="shape-rendering: crispEdges; fill: none; stroke: rgb(204, 204, 204);"></line><text dy=".71em" y="3" x="0" style="text-anchor: middle;">1960</text></g><g class="tick" transform="translate(667.6667348512266,0)" style="opacity: 1;"><line y2="-480" x2="0" style="shape-rendering: crispEdges; fill: none; stroke: rgb(204, 204, 204);"></line><text dy=".71em" y="3" x="0" style="text-anchor: middle;">1980</text></g><g class="tick" transform="translate(765.1387660692651,0)" style="opacity: 1;"><line y2="-480" x2="0" style="shape-rendering: crispEdges; fill: none; stroke: rgb(204, 204, 204);"></line><text dy=".71em" y="3" x="0" style="text-anchor: middle;">2000</text></g><path class="domain" d="M0,-480V0H848V-480" style="shape-rendering: crispEdges; fill: none; stroke: rgb(204, 204, 204);"></path></g><path class="layer" d="M0,0L0.8117109604057504,0C1.6234219208115008,0,3.2468438416230017,0,16.2431146706948,0C29.2393854997666,0,53.6085052370987,0,69.04213281303268,80C84.47576038896668,160,90.97389580350257,320,95.03467447117629,400C99.09545313884998,480,100.71887505966149,480,102.34452084611794,453.6C103.97016663257439,427.2,105.59803628467579,374.4,107.22368207113223,374.4C108.84932785758868,374.4,110.47274977840017,427.2,112.09617169921168,453.6C113.71959362002318,480,115.34301554083468,480,116.9664374616462,480C118.58985938245769,480,120.21328130326918,480,122.65063805013138,480C125.08799479699357,480,128.33928636990646,480,131.58835407717442,400C134.83742178444237,320,138.08426562606536,160,142.9567552541448,160C147.82924488222426,160,154.32738029676017,320,158.3903828300788,400C162.45338536339747,480,164.08125501549887,480,167.33032272276682,480C170.57939043003478,480,175.44965619246926,480,178.69872389973722,440C181.94779160700517,400,183.5756612591066,320,187.63866379242523,320C191.70166632574387,320,198.19980174027975,400,202.26058040795346,440C206.32135907562716,480,207.94478099643868,480,209.56820291725018,480C211.19162483806167,480,212.81504675887317,480,217.68753638695262,480C222.56002601503207,480,230.68158335037947,480,235.55629684410385,480C240.43101033782824,480,242.05887998992964,480,244.49623673679184,480C246.93359348365402,480,250.18043732527707,480,252.61557020649428,480C255.05070308771155,480,256.67412500852305,480,258.2997707949795,400C259.9254165814359,320,261.55328623353734,160,265.61406490121107,80C269.67484356888474,0,276.1685312521307,0,281.850507974971,40C287.53248469781124,80,292.4027504602458,160,297.27524008832523,240C302.1477297164047,320,307.0224432101291,400,310.2715109173971,360C313.520578624665,320,315.1440005454765,160,316.76964633193296,160C318.39529211838936,160,320.0231617704908,320,321.6488075569472,400C323.27445334340365,480,324.89787526421514,480,326.52129718502664,480C328.14471910583813,480,329.76814102664963,480,333.0172087339176,453.6C336.26627644118554,427.2,341.14098993490995,374.4,344.3900576421779,374.4C347.63912534944586,374.4,349.26254727025736,427.2,351.6999040171196,427.20000000000005C354.13726076398177,427.2,357.3885523368947,374.4,359.82590908375687,374.4C362.26326583061905,374.4,363.8866877514306,427.2,365.5101096722421,453.6C367.1335315930536,480,368.7569535138651,480,370.3803754346766,453.6C372.0037973554881,427.2,373.62721927629957,374.4,375.252865062756,374.4C376.8785108492125,374.4,378.50638050131386,427.2,380.1320262877703,433.6C381.7576720742268,440,383.38109399503827,400,385.81622687625554,320C388.25135975747276,240,391.49820359909575,120,393.9355603459579,140C396.3729170928201,160,398.0007867449215,320,399.626432531378,360C401.25207831783445,400,402.87550023864594,320,404.4989221594575,320C406.122344080269,320,407.7457660010805,400,410.99483370834844,400C414.2439014156164,400,419.11861490934075,320,422.3676826166087,320C425.6167503238766,320,427.2401722446881,400,428.8635941654996,420C430.4870160863111,440,432.11043800712264,400,433.7360837935791,360C435.36172958003556,320,436.9895992321369,280,438.6152450185933,300C440.2408908050498,320,441.8643127258613,400,443.4877346466728,440C445.1111565674843,480,446.7345784882958,480,449.17193523515806,464C451.60929198202024,448,454.8605835549331,416,458.10965126220106,396C461.358718969469,376,464.60556281109206,368,467.0406956923093,330.4C469.47582857352654,292.8,471.0992504943381,225.59999999999997,472.7248962807945,245.59999999999997C474.35054206725096,265.59999999999997,475.9784117193524,372.8,477.6040575058088,426.4C479.22970329226524,480,480.85312521307674,480,482.47654713388823,440C484.0999690546997,400,485.7233909755112,320,487.3468128963227,280C488.9702348171342,240,490.5936567379457,240,492.21930252440217,262.4C493.8449483108586,284.8,495.47281796296,329.6,497.0984637494164,335.20000000000005C498.7241095358729,340.8,500.34753145668446,307.20000000000005,501.97095337749596,289.6C503.59437529830745,272,505.21779721911895,270.4,506.84121913993044,269.59999999999997C508.46464106074194,268.79999999999995,510.08806298155343,268.79999999999995,511.71370876800984,304C513.3393545544664,339.2,514.9672242065676,409.6,516.5928699930241,430.4C518.2185157794805,451.2,519.8419377002921,422.4,521.4653596211036,396C523.0887815419151,369.59999999999997,524.7122034627266,345.59999999999997,526.3356253835382,340C527.9590473043496,334.4,529.582469225161,347.2,531.2081150116176,373.6C532.8337607980741,400,534.4616304501754,440,536.087276236632,406.4C537.7129220230884,372.8,539.3363439438999,265.59999999999997,540.9597658647114,265.59999999999997C542.5831877855228,265.59999999999997,544.2066097063343,372.8,545.8300316271459,403.2C547.4534535479573,433.59999999999997,549.0768754687688,387.19999999999993,550.7025212552253,360.79999999999995C552.3281670416817,334.4,553.9560366937831,327.99999999999994,555.5816824802396,335.2C557.207328266696,342.4,558.8307501875075,363.2,560.4541721083191,336C562.0775940291305,308.8,563.701015949942,233.59999999999997,565.3244378707535,203.99999999999997C566.947859791565,174.39999999999998,568.5712817123765,190.4,570.1969274988329,244.00000000000003C571.8225732852894,297.6,573.4504429373908,388.8,575.0760887238473,389.59999999999997C576.7017345103037,390.4,578.3251564311153,300.79999999999995,579.9485783519268,300.79999999999995C581.5720002727383,300.79999999999995,583.1954221935497,390.4,584.8188441143612,400C586.4422660351727,409.6,588.0656879559842,339.2,589.6913337424406,324.79999999999995C591.3169795288971,310.4,592.9448491809985,352,594.5704949674549,356.8C596.1961407539113,361.59999999999997,597.8195626747229,329.6,599.4429845955344,301.6C601.066406516346,273.6,602.6898284371574,249.59999999999997,604.3132503579689,266.4C605.9366722787804,283.19999999999993,607.560094199592,340.79999999999995,609.1857399860484,383.19999999999993C610.8113857725048,425.59999999999997,612.4392554246062,452.79999999999995,614.0649012110626,434.4C615.690546997519,416,617.3139689183306,352,618.9373908391422,312C620.5608127599537,272,622.1842346807651,256,623.8076566015766,266.4C625.4310785223881,276.79999999999995,627.0545004431997,313.59999999999997,628.6801462296561,323.2C630.3057920161125,332.79999999999995,631.933661668214,315.2,633.5593074546704,322.4C635.1849532411268,329.6,636.8083751619382,361.59999999999997,638.4317970827498,365.6C640.0552190035612,369.59999999999997,641.6786409243728,345.59999999999997,643.3020628451843,360C644.9254847659959,374.4,646.5489066868073,427.2,648.1745524732638,429.6C649.8001982597202,432,651.4280679118217,384,653.0537136982781,353.6C654.6793594847345,323.2,656.3027814055459,310.4,657.9262033263575,319.2C659.5496252471689,328,661.1730471679805,358.4,662.796469088792,374.4C664.4198910096036,390.4,666.043312930415,392,667.6689587168715,392.79999999999995C669.294604503328,393.59999999999997,670.9224741554293,393.59999999999997,672.5481199418858,384.8C674.1737657283422,375.99999999999994,675.7971876491537,358.4,677.4206095699651,357.59999999999997C679.0440314907767,356.79999999999995,680.6674534115882,372.79999999999995,682.2908753323997,367.2C683.9142972532111,361.59999999999997,685.5377191740226,334.4,687.163364960479,323.19999999999993C688.7890107469356,312,690.4168803990369,316.79999999999995,692.0425261854934,324.79999999999995C693.66817197195,332.79999999999995,695.2915938927614,344,696.915015813573,355.2C698.5384377343844,366.4,700.1618596551959,377.59999999999997,701.7852815760074,384C703.4087034968189,390.4,705.0321254176304,392,706.6577712040869,394.4C708.2834169905433,396.79999999999995,709.9112866426447,399.99999999999994,711.5369324291012,397.59999999999997C713.1625782155576,395.19999999999993,714.786000136369,387.2,716.4094220571806,389.6C718.0328439779921,392,719.6562658988036,404.79999999999995,721.2796878196151,407.19999999999993C722.9031097404265,409.59999999999997,724.5265316612381,401.59999999999997,726.1521774476945,400C727.777823234151,398.4,729.4056928862524,403.2,731.0313386727089,412.8C732.6569844591653,422.4,734.2804063799767,436.79999999999995,735.9038283007883,442.4C737.5272502215998,447.99999999999994,739.1506721424113,444.79999999999995,740.7740940632228,439.19999999999993C742.3975159840343,433.59999999999997,744.0209379048458,425.59999999999997,745.6465836913023,424.8C747.2722294777586,424,748.9000991298601,430.4,750.5257449163165,439.19999999999993C752.1513907027729,448,753.7748126235845,459.19999999999993,755.398234544396,460C757.0216564652076,460.79999999999995,758.645078386019,451.19999999999993,760.2685003068306,446.4C761.891922227642,441.59999999999997,763.5153441484536,441.59999999999997,765.14098993491,429.6C766.7666357213664,417.59999999999997,768.3945053734678,393.6,770.0201511599241,393.6C771.6457969463806,393.6,773.2692188671922,417.59999999999997,774.8926407880036,427.2C776.5160627088151,436.79999999999995,778.1394846296266,431.99999999999994,779.7629065504381,434.4C781.3863284712496,436.79999999999995,783.009750392061,446.4,784.6353961785176,444.79999999999995C786.261041964974,443.2,787.8889116170753,430.4,789.5145574035319,429.59999999999997C791.1402031899883,428.79999999999995,792.7636251107998,439.99999999999994,794.3870470316114,444C796.0104689524228,447.99999999999994,797.6338908732343,444.79999999999995,799.2573127940459,442.4C800.8807347148573,440,802.5041566356688,438.4,804.1298024221253,440.79999999999995C805.7554482085818,443.2,807.3833178606832,449.6,809.0089636471396,448C810.6346094335961,446.4,812.2580313544076,436.79999999999995,813.8814532752191,436.79999999999995C815.5048751960305,436.79999999999995,817.1282971168421,446.4,818.7517190376535,450.4C820.3751409584651,454.4,821.9985628792765,452.79999999999995,823.624208665733,456.79999999999995C825.2498544521894,460.79999999999995,826.8777241042908,470.4,828.5033698907473,466.4C830.1290156772037,462.4,831.7524375980153,444.79999999999995,833.3758595188268,440.79999999999995C834.9992814396383,436.79999999999995,836.6227033604498,446.4,838.2461252812614,444.79999999999995C839.8695472020728,443.2,841.4929691228842,430.4,843.1186149093407,434.4C844.7442606957972,438.4,846.3721303478985,459.2,847.1860651739491,469.6L848,480L848,480L847.1860651739491,480C846.3721303478985,480,844.7442606957972,480,843.1186149093406,480C841.4929691228842,480,839.8695472020728,480,838.2461252812614,480C836.6227033604498,480,834.9992814396383,480,833.3758595188267,480C831.7524375980153,480,830.1290156772037,480,828.5033698907472,480C826.8777241042908,480,825.2498544521894,480,823.624208665733,480C821.9985628792765,480,820.3751409584651,480,818.7517190376536,480C817.1282971168421,480,815.5048751960305,480,813.8814532752191,480C812.2580313544076,480,810.6346094335961,480,809.0089636471396,480C807.3833178606832,480,805.7554482085818,480,804.1298024221253,480C802.5041566356688,480,800.8807347148573,480,799.2573127940459,480C797.6338908732343,480,796.0104689524228,480,794.3870470316112,480C792.7636251107998,480,791.1402031899883,480,789.5145574035317,480C787.8889116170753,480,786.261041964974,480,784.6353961785176,480C783.009750392061,480,781.3863284712496,480,779.7629065504382,480C778.1394846296266,480,776.5160627088151,480,774.8926407880036,480C773.2692188671922,480,771.6457969463806,480,770.0201511599241,480C768.3945053734678,480,766.7666357213664,480,765.1409899349101,480C763.5153441484536,480,761.891922227642,480,760.2685003068306,480C758.645078386019,480,757.0216564652076,480,755.398234544396,480C753.7748126235845,480,752.1513907027729,480,750.5257449163165,480C748.9000991298601,480,747.2722294777586,480,745.6465836913023,480C744.0209379048458,480,742.3975159840343,480,740.7740940632228,480C739.1506721424113,480,737.5272502215998,480,735.9038283007883,480C734.2804063799767,480,732.6569844591653,480,731.0313386727089,480C729.4056928862524,480,727.777823234151,480,726.1521774476946,480C724.5265316612381,480,722.9031097404265,480,721.2796878196151,480C719.6562658988036,480,718.0328439779921,480,716.4094220571806,480C714.786000136369,480,713.1625782155576,480,711.5369324291012,480C709.9112866426447,480,708.2834169905433,480,706.6577712040869,480C705.0321254176304,480,703.4087034968189,480,701.7852815760075,480C700.1618596551959,480,698.5384377343844,480,696.915015813573,480C695.2915938927614,480,693.66817197195,480,692.0425261854934,480C690.4168803990369,480,688.7890107469356,480,687.1633649604792,480C685.5377191740226,480,683.9142972532111,480,682.2908753323997,480C680.6674534115882,480,679.0440314907767,480,677.4206095699651,480C675.7971876491537,480,674.1737657283422,480,672.5481199418857,480C670.9224741554293,480,669.294604503328,480,667.6689587168715,480C666.043312930415,480,664.4198910096036,480,662.796469088792,480C661.1730471679805,480,659.5496252471689,480,657.9262033263575,480C656.3027814055459,480,654.6793594847345,480,653.053713698278,480C651.4280679118217,480,649.8001982597202,480,648.1745524732638,480C646.5489066868073,480,644.9254847659959,480,643.3020628451843,480C641.6786409243728,480,640.0552190035612,480,638.4317970827498,480C636.8083751619382,480,635.1849532411268,480,633.5593074546703,480C631.933661668214,480,630.3057920161125,480,628.6801462296561,480C627.0545004431997,480,625.4310785223881,480,623.8076566015766,480C622.1842346807651,480,620.5608127599537,480,618.9373908391422,480C617.3139689183306,480,615.690546997519,480,614.0649012110625,480C612.4392554246062,480,610.8113857725048,480,609.1857399860484,480C607.560094199592,480,605.9366722787804,480,604.3132503579689,480C602.6898284371574,480,601.066406516346,480,599.4429845955344,480C597.8195626747229,480,596.1961407539113,480,594.5704949674549,480C592.9448491809985,480,591.3169795288971,480,589.6913337424406,480C588.0656879559842,480,586.4422660351727,480,584.8188441143612,480C583.1954221935497,480,581.5720002727383,480,579.9485783519267,480C578.3251564311153,480,576.7017345103037,480,575.0760887238473,480C573.4504429373908,480,571.8225732852894,480,570.196927498833,480C568.5712817123765,480,566.947859791565,480,565.3244378707535,480C563.701015949942,480,562.0775940291305,480,560.454172108319,480C558.8307501875075,480,557.207328266696,480,555.5816824802396,480C553.9560366937831,480,552.3281670416817,480,550.7025212552253,480C549.0768754687688,480,547.4534535479573,480,545.8300316271459,480C544.2066097063343,480,542.5831877855228,480,540.9597658647114,480C539.3363439438999,480,537.7129220230884,480,536.087276236632,480C534.4616304501754,480,532.8337607980741,480,531.2081150116176,480C529.582469225161,480,527.9590473043496,480,526.3356253835382,480C524.7122034627266,480,523.0887815419151,480,521.4653596211036,480C519.8419377002921,480,518.2185157794805,480,516.5928699930241,480C514.9672242065676,480,513.3393545544664,480,511.71370876800984,480C510.08806298155343,480,508.46464106074194,480,506.84121913993044,480C505.21779721911895,480,503.59437529830745,480,501.97095337749596,480C500.34753145668446,480,498.7241095358729,480,497.0984637494165,480C495.47281796296,480,493.8449483108586,480,492.21930252440217,480C490.5936567379457,480,488.9702348171342,480,487.3468128963227,480C485.7233909755112,480,484.0999690546997,480,482.47654713388823,480C480.85312521307674,480,479.22970329226524,480,477.6040575058088,480C475.9784117193524,480,474.35054206725096,480,472.7248962807945,480C471.0992504943381,480,469.47582857352654,480,467.0406956923093,480C464.60556281109206,480,461.358718969469,480,458.10965126220106,480C454.8605835549331,480,451.60929198202024,480,449.171935235158,480C446.7345784882958,480,445.1111565674843,480,443.4877346466728,480C441.8643127258613,480,440.2408908050498,480,438.6152450185933,480C436.9895992321369,480,435.36172958003556,480,433.7360837935791,480C432.11043800712264,480,430.4870160863111,480,428.8635941654996,480C427.2401722446881,480,425.6167503238766,480,422.3676826166087,480C419.11861490934075,480,414.2439014156164,480,410.99483370834844,480C407.7457660010805,480,406.122344080269,480,404.49892215945744,480C402.87550023864594,480,401.25207831783445,480,399.626432531378,480C398.0007867449215,480,396.3729170928201,480,393.9355603459579,480C391.49820359909575,480,388.25135975747276,480,385.81622687625554,480C383.38109399503827,480,381.7576720742268,480,380.1320262877703,480C378.50638050131386,480,376.8785108492125,480,375.25286506275603,480C373.62721927629957,480,372.0037973554881,480,370.3803754346766,480C368.7569535138651,480,367.1335315930536,480,365.51010967224204,480C363.8866877514306,480,362.26326583061905,480,359.82590908375687,480C357.3885523368947,480,354.13726076398177,480,351.69990401711954,480C349.26254727025736,480,347.63912534944586,480,344.3900576421779,480C341.14098993490995,480,336.26627644118554,480,333.0172087339176,480C329.76814102664963,480,328.14471910583813,480,326.52129718502664,480C324.89787526421514,480,323.27445334340365,480,321.6488075569472,480C320.0231617704908,480,318.39529211838936,480,316.76964633193296,480C315.1440005454765,480,313.520578624665,480,310.27151091739705,480C307.0224432101291,480,302.1477297164047,480,297.27524008832523,480C292.4027504602458,480,287.53248469781124,480,281.850507974971,480C276.1685312521307,480,269.67484356888474,480,265.614064901211,480C261.55328623353734,480,259.9254165814359,480,258.29977079497945,480C256.67412500852305,480,255.05070308771155,480,252.6155702064943,480C250.18043732527707,480,246.93359348365402,480,244.49623673679184,480C242.05887998992964,480,240.43101033782824,480,235.55629684410385,480C230.68158335037947,480,222.56002601503207,480,217.68753638695262,480C212.81504675887317,480,211.19162483806167,480,209.56820291725018,480C207.94478099643868,480,206.32135907562716,480,202.26058040795346,480C198.19980174027975,480,191.70166632574387,480,187.63866379242523,480C183.5756612591066,480,181.94779160700517,480,178.69872389973722,480C175.44965619246926,480,170.57939043003478,480,167.33032272276682,480C164.08125501549887,480,162.45338536339747,480,158.39038283007883,480C154.32738029676017,480,147.82924488222426,480,142.9567552541448,480C138.08426562606536,480,134.83742178444237,480,131.58835407717442,480C128.33928636990646,480,125.08799479699357,480,122.65063805013138,480C120.21328130326918,480,118.58985938245769,480,116.9664374616462,480C115.34301554083468,480,113.71959362002318,480,112.09617169921168,480C110.47274977840017,480,108.84932785758868,480,107.22368207113223,480C105.59803628467579,480,103.97016663257439,480,102.34452084611794,480C100.71887505966149,480,99.09545313884998,480,95.03467447117627,480C90.97389580350257,480,84.47576038896668,480,69.04213281303268,480C53.6085052370987,480,29.2393854997666,480,16.2431146706948,480C3.2468438416230017,480,1.6234219208115008,480,0.8117109604057504,480L0,480Z" title="POURC" style="fill: rgb(241, 152, 84);"></path><path class="layer" d="M0,0L0.8117109604057504,0C1.6234219208115008,0,3.2468438416230017,0,16.2431146706948,0C29.2393854997666,0,53.6085052370987,0,69.04213281303268,0C84.47576038896668,0,90.97389580350257,0,95.03467447117629,0C99.09545313884998,0,100.71887505966149,0,102.34452084611794,0C103.97016663257439,0,105.59803628467579,0,107.22368207113223,0C108.84932785758868,0,110.47274977840017,0,112.09617169921168,0C113.71959362002318,0,115.34301554083468,0,116.9664374616462,0C118.58985938245769,0,120.21328130326918,0,122.65063805013138,0C125.08799479699357,0,128.33928636990646,0,131.58835407717442,0C134.83742178444237,0,138.08426562606536,0,142.9567552541448,0C147.82924488222426,0,154.32738029676017,0,158.3903828300788,0C162.45338536339747,0,164.08125501549887,0,167.33032272276682,0C170.57939043003478,0,175.44965619246926,0,178.69872389973722,0C181.94779160700517,0,183.5756612591066,0,187.63866379242523,0C191.70166632574387,0,198.19980174027975,0,202.26058040795346,0C206.32135907562716,0,207.94478099643868,0,209.56820291725018,0C211.19162483806167,0,212.81504675887317,0,217.68753638695262,0C222.56002601503207,0,230.68158335037947,0,235.55629684410385,0C240.43101033782824,0,242.05887998992964,0,244.49623673679184,0C246.93359348365402,0,250.18043732527707,0,252.61557020649428,0C255.05070308771155,0,256.67412500852305,0,258.2997707949795,0C259.9254165814359,0,261.55328623353734,0,265.61406490121107,0C269.67484356888474,0,276.1685312521307,0,281.850507974971,0C287.53248469781124,0,292.4027504602458,0,297.27524008832523,0C302.1477297164047,0,307.0224432101291,0,310.2715109173971,0C313.520578624665,0,315.1440005454765,0,316.76964633193296,0C318.39529211838936,0,320.0231617704908,0,321.6488075569472,0C323.27445334340365,0,324.89787526421514,0,326.52129718502664,0C328.14471910583813,0,329.76814102664963,0,333.0172087339176,0C336.26627644118554,0,341.14098993490995,0,344.3900576421779,0C347.63912534944586,0,349.26254727025736,0,351.6999040171196,0C354.13726076398177,0,357.3885523368947,0,359.82590908375687,0C362.26326583061905,0,363.8866877514306,0,365.5101096722421,0C367.1335315930536,0,368.7569535138651,0,370.3803754346766,0C372.0037973554881,0,373.62721927629957,0,375.252865062756,0C376.8785108492125,0,378.50638050131386,0,380.1320262877703,0C381.7576720742268,0,383.38109399503827,0,385.81622687625554,0C388.25135975747276,0,391.49820359909575,0,393.9355603459579,0C396.3729170928201,0,398.0007867449215,0,399.626432531378,0C401.25207831783445,0,402.87550023864594,0,404.4989221594575,0C406.122344080269,0,407.7457660010805,0,410.99483370834844,0C414.2439014156164,0,419.11861490934075,0,422.3676826166087,0C425.6167503238766,0,427.2401722446881,0,428.8635941654996,0C430.4870160863111,0,432.11043800712264,0,433.7360837935791,0C435.36172958003556,0,436.9895992321369,0,438.6152450185933,0C440.2408908050498,0,441.8643127258613,0,443.4877346466728,0C445.1111565674843,0,446.7345784882958,0,449.17193523515806,0C451.60929198202024,0,454.8605835549331,0,458.10965126220106,0C461.358718969469,0,464.60556281109206,0,467.0406956923093,0C469.47582857352654,0,471.0992504943381,0,472.7248962807945,0C474.35054206725096,0,475.9784117193524,0,477.6040575058088,0C479.22970329226524,0,480.85312521307674,0,482.47654713388823,0C484.0999690546997,0,485.7233909755112,0,487.3468128963227,0C488.9702348171342,0,490.5936567379457,0,492.21930252440217,0C493.8449483108586,0,495.47281796296,0,497.0984637494164,0C498.7241095358729,0,500.34753145668446,0,501.97095337749596,0C503.59437529830745,0,505.21779721911895,0,506.84121913993044,0C508.46464106074194,0,510.08806298155343,0,511.71370876800984,0C513.3393545544664,0,514.9672242065676,0,516.5928699930241,0C518.2185157794805,0,519.8419377002921,0,521.4653596211036,0C523.0887815419151,0,524.7122034627266,0,526.3356253835382,0C527.9590473043496,0,529.582469225161,0,531.2081150116176,0C532.8337607980741,0,534.4616304501754,0,536.087276236632,0C537.7129220230884,0,539.3363439438999,0,540.9597658647114,0C542.5831877855228,0,544.2066097063343,0,545.8300316271459,0C547.4534535479573,0,549.0768754687688,0,550.7025212552253,0C552.3281670416817,0,553.9560366937831,0,555.5816824802396,0C557.207328266696,0,558.8307501875075,0,560.4541721083191,0C562.0775940291305,0,563.701015949942,0,565.3244378707535,0C566.947859791565,0,568.5712817123765,0,570.1969274988329,0C571.8225732852894,0,573.4504429373908,0,575.0760887238473,0C576.7017345103037,0,578.3251564311153,0,579.9485783519268,0C581.5720002727383,0,583.1954221935497,0,584.8188441143612,0C586.4422660351727,0,588.0656879559842,0,589.6913337424406,0C591.3169795288971,0,592.9448491809985,0,594.5704949674549,0C596.1961407539113,0,597.8195626747229,0,599.4429845955344,0C601.066406516346,0,602.6898284371574,0,604.3132503579689,0C605.9366722787804,0,607.560094199592,0,609.1857399860484,0C610.8113857725048,0,612.4392554246062,0,614.0649012110626,0C615.690546997519,0,617.3139689183306,0,618.9373908391422,0C620.5608127599537,0,622.1842346807651,0,623.8076566015766,0C625.4310785223881,0,627.0545004431997,0,628.6801462296561,0C630.3057920161125,0,631.933661668214,0,633.5593074546704,0C635.1849532411268,0,636.8083751619382,0,638.4317970827498,0C640.0552190035612,0,641.6786409243728,0,643.3020628451843,0C644.9254847659959,0,646.5489066868073,0,648.1745524732638,0C649.8001982597202,0,651.4280679118217,0,653.0537136982781,0C654.6793594847345,0,656.3027814055459,0,657.9262033263575,0C659.5496252471689,0,661.1730471679805,0,662.796469088792,0C664.4198910096036,0,666.043312930415,0,667.6689587168715,0C669.294604503328,0,670.9224741554293,0,672.5481199418858,0C674.1737657283422,0,675.7971876491537,0,677.4206095699651,0C679.0440314907767,0,680.6674534115882,0,682.2908753323997,0C683.9142972532111,0,685.5377191740226,0,687.163364960479,0C688.7890107469356,0,690.4168803990369,0,692.0425261854934,0C693.66817197195,0,695.2915938927614,0,696.915015813573,0C698.5384377343844,0,700.1618596551959,0,701.7852815760074,0C703.4087034968189,0,705.0321254176304,0,706.6577712040869,0C708.2834169905433,0,709.9112866426447,0,711.5369324291012,0C713.1625782155576,0,714.786000136369,0,716.4094220571806,0C718.0328439779921,0,719.6562658988036,0,721.2796878196151,0C722.9031097404265,0,724.5265316612381,0,726.1521774476945,0C727.777823234151,0,729.4056928862524,0,731.0313386727089,0C732.6569844591653,0,734.2804063799767,0,735.9038283007883,0C737.5272502215998,0,739.1506721424113,0,740.7740940632228,0C742.3975159840343,0,744.0209379048458,0,745.6465836913023,0C747.2722294777586,0,748.9000991298601,0,750.5257449163165,0C752.1513907027729,0,753.7748126235845,0,755.398234544396,0C757.0216564652076,0,758.645078386019,0,760.2685003068306,0C761.891922227642,0,763.5153441484536,0,765.14098993491,0C766.7666357213664,0,768.3945053734678,0,770.0201511599241,0C771.6457969463806,0,773.2692188671922,0,774.8926407880036,0C776.5160627088151,0,778.1394846296266,0,779.7629065504381,0C781.3863284712496,0,783.009750392061,0,784.6353961785176,0C786.261041964974,0,787.8889116170753,0,789.5145574035319,0C791.1402031899883,0,792.7636251107998,0,794.3870470316114,0C796.0104689524228,0,797.6338908732343,0,799.2573127940459,0C800.8807347148573,0,802.5041566356688,0,804.1298024221253,0C805.7554482085818,0,807.3833178606832,0,809.0089636471396,0C810.6346094335961,0,812.2580313544076,0,813.8814532752191,0C815.5048751960305,0,817.1282971168421,0,818.7517190376535,0C820.3751409584651,0,821.9985628792765,0,823.624208665733,0C825.2498544521894,0,826.8777241042908,0,828.5033698907473,0C830.1290156772037,0,831.7524375980153,0,833.3758595188268,0C834.9992814396383,0,836.6227033604498,0,838.2461252812614,0C839.8695472020728,0,841.4929691228842,0,843.1186149093407,0C844.7442606957972,0,846.3721303478985,0,847.1860651739491,0L848,0L848,480L847.1860651739491,469.6C846.3721303478985,459.2,844.7442606957972,438.4,843.1186149093406,434.4C841.4929691228842,430.4,839.8695472020728,443.2,838.2461252812614,444.8C836.6227033604498,446.4,834.9992814396383,436.79999999999995,833.3758595188267,440.79999999999995C831.7524375980153,444.79999999999995,830.1290156772037,462.4,828.5033698907472,466.4C826.8777241042908,470.4,825.2498544521894,460.79999999999995,823.624208665733,456.79999999999995C821.9985628792765,452.79999999999995,820.3751409584651,454.4,818.7517190376536,450.4C817.1282971168421,446.4,815.5048751960305,436.79999999999995,813.8814532752191,436.79999999999995C812.2580313544076,436.79999999999995,810.6346094335961,446.4,809.0089636471396,448C807.3833178606832,449.6,805.7554482085818,443.2,804.1298024221253,440.79999999999995C802.5041566356688,438.4,800.8807347148573,440,799.2573127940459,442.4C797.6338908732343,444.79999999999995,796.0104689524228,447.99999999999994,794.3870470316112,444C792.7636251107998,439.99999999999994,791.1402031899883,428.79999999999995,789.5145574035317,429.59999999999997C787.8889116170753,430.4,786.261041964974,443.2,784.6353961785176,444.8C783.009750392061,446.4,781.3863284712496,436.79999999999995,779.7629065504382,434.4C778.1394846296266,431.99999999999994,776.5160627088151,436.79999999999995,774.8926407880036,427.2C773.2692188671922,417.59999999999997,771.6457969463806,393.6,770.0201511599241,393.6C768.3945053734678,393.6,766.7666357213664,417.59999999999997,765.1409899349101,429.6C763.5153441484536,441.59999999999997,761.891922227642,441.59999999999997,760.2685003068306,446.4C758.645078386019,451.19999999999993,757.0216564652076,460.79999999999995,755.398234544396,459.99999999999994C753.7748126235845,459.19999999999993,752.1513907027729,448,750.5257449163165,439.19999999999993C748.9000991298601,430.4,747.2722294777586,424,745.6465836913023,424.79999999999995C744.0209379048458,425.59999999999997,742.3975159840343,433.59999999999997,740.7740940632228,439.2C739.1506721424113,444.79999999999995,737.5272502215998,447.99999999999994,735.9038283007883,442.4C734.2804063799767,436.79999999999995,732.6569844591653,422.4,731.0313386727089,412.79999999999995C729.4056928862524,403.2,727.777823234151,398.4,726.1521774476946,400C724.5265316612381,401.59999999999997,722.9031097404265,409.59999999999997,721.2796878196151,407.2C719.6562658988036,404.79999999999995,718.0328439779921,392,716.4094220571806,389.59999999999997C714.786000136369,387.2,713.1625782155576,395.19999999999993,711.5369324291012,397.5999999999999C709.9112866426447,399.99999999999994,708.2834169905433,396.79999999999995,706.6577712040869,394.4C705.0321254176304,392,703.4087034968189,390.4,701.7852815760075,383.99999999999994C700.1618596551959,377.59999999999997,698.5384377343844,366.4,696.915015813573,355.19999999999993C695.2915938927614,344,693.66817197195,332.79999999999995,692.0425261854934,324.79999999999995C690.4168803990369,316.79999999999995,688.7890107469356,312,687.1633649604792,323.2C685.5377191740226,334.4,683.9142972532111,361.59999999999997,682.2908753323997,367.2C680.6674534115882,372.79999999999995,679.0440314907767,356.79999999999995,677.4206095699651,357.5999999999999C675.7971876491537,358.4,674.1737657283422,375.99999999999994,672.5481199418857,384.79999999999995C670.9224741554293,393.59999999999997,669.294604503328,393.59999999999997,667.6689587168715,392.8C666.043312930415,392,664.4198910096036,390.4,662.796469088792,374.4C661.1730471679805,358.4,659.5496252471689,328,657.9262033263575,319.2C656.3027814055459,310.4,654.6793594847345,323.2,653.053713698278,353.6C651.4280679118217,384,649.8001982597202,432,648.1745524732638,429.6C646.5489066868073,427.2,644.9254847659959,374.4,643.3020628451843,360C641.6786409243728,345.59999999999997,640.0552190035612,369.59999999999997,638.4317970827498,365.6C636.8083751619382,361.59999999999997,635.1849532411268,329.6,633.5593074546703,322.4C631.933661668214,315.2,630.3057920161125,332.79999999999995,628.6801462296561,323.2C627.0545004431997,313.59999999999997,625.4310785223881,276.79999999999995,623.8076566015766,266.4C622.1842346807651,256,620.5608127599537,272,618.9373908391422,312C617.3139689183306,352,615.690546997519,416,614.0649012110625,434.4C612.4392554246062,452.79999999999995,610.8113857725048,425.59999999999997,609.1857399860484,383.19999999999993C607.560094199592,340.79999999999995,605.9366722787804,283.19999999999993,604.3132503579689,266.4C602.6898284371574,249.59999999999997,601.066406516346,273.6,599.4429845955344,301.6C597.8195626747229,329.6,596.1961407539113,361.59999999999997,594.5704949674549,356.8C592.9448491809985,352,591.3169795288971,310.4,589.6913337424406,324.79999999999995C588.0656879559842,339.2,586.4422660351727,409.6,584.8188441143612,400C583.1954221935497,390.4,581.5720002727383,300.79999999999995,579.9485783519267,300.79999999999995C578.3251564311153,300.79999999999995,576.7017345103037,390.4,575.0760887238473,389.6C573.4504429373908,388.8,571.8225732852894,297.6,570.196927498833,244.00000000000003C568.5712817123765,190.4,566.947859791565,174.39999999999998,565.3244378707535,204C563.701015949942,233.59999999999997,562.0775940291305,308.8,560.454172108319,336C558.8307501875075,363.2,557.207328266696,342.4,555.5816824802396,335.2C553.9560366937831,327.99999999999994,552.3281670416817,334.4,550.7025212552253,360.79999999999995C549.0768754687688,387.19999999999993,547.4534535479573,433.59999999999997,545.8300316271459,403.2C544.2066097063343,372.8,542.5831877855228,265.59999999999997,540.9597658647114,265.59999999999997C539.3363439438999,265.59999999999997,537.7129220230884,372.8,536.087276236632,406.4C534.4616304501754,440,532.8337607980741,400,531.2081150116176,373.6C529.582469225161,347.2,527.9590473043496,334.4,526.3356253835382,340C524.7122034627266,345.59999999999997,523.0887815419151,369.59999999999997,521.4653596211036,396C519.8419377002921,422.4,518.2185157794805,451.2,516.5928699930241,430.40000000000003C514.9672242065676,409.6,513.3393545544664,339.2,511.71370876800984,304C510.08806298155343,268.79999999999995,508.46464106074194,268.79999999999995,506.84121913993044,269.6C505.21779721911895,270.4,503.59437529830745,272,501.97095337749596,289.6C500.34753145668446,307.20000000000005,498.7241095358729,340.8,497.0984637494165,335.20000000000005C495.47281796296,329.6,493.8449483108586,284.8,492.21930252440217,262.4C490.5936567379457,240,488.9702348171342,240,487.3468128963227,280C485.7233909755112,320,484.0999690546997,400,482.47654713388823,440C480.85312521307674,480,479.22970329226524,480,477.6040575058088,426.4C475.9784117193524,372.8,474.35054206725096,265.59999999999997,472.7248962807945,245.59999999999997C471.0992504943381,225.59999999999997,469.47582857352654,292.8,467.0406956923093,330.4C464.60556281109206,368,461.358718969469,376,458.10965126220106,396C454.8605835549331,416,451.60929198202024,448,449.171935235158,464C446.7345784882958,480,445.1111565674843,480,443.4877346466728,440C441.8643127258613,400,440.2408908050498,320,438.6152450185933,300C436.9895992321369,280,435.36172958003556,320,433.7360837935791,360C432.11043800712264,400,430.4870160863111,440,428.8635941654996,420C427.2401722446881,400,425.6167503238766,320,422.3676826166087,320C419.11861490934075,320,414.2439014156164,400,410.99483370834844,400C407.7457660010805,400,406.122344080269,320,404.49892215945744,320C402.87550023864594,320,401.25207831783445,400,399.626432531378,360C398.0007867449215,320,396.3729170928201,160,393.9355603459579,140C391.49820359909575,120,388.25135975747276,240,385.81622687625554,320C383.38109399503827,400,381.7576720742268,440,380.1320262877703,433.6C378.50638050131386,427.2,376.8785108492125,374.4,375.25286506275603,374.4C373.62721927629957,374.4,372.0037973554881,427.2,370.3803754346766,453.6C368.7569535138651,480,367.1335315930536,480,365.51010967224204,453.6C363.8866877514306,427.2,362.26326583061905,374.4,359.82590908375687,374.4C357.3885523368947,374.4,354.13726076398177,427.2,351.69990401711954,427.20000000000005C349.26254727025736,427.2,347.63912534944586,374.4,344.3900576421779,374.4C341.14098993490995,374.4,336.26627644118554,427.2,333.0172087339176,453.6C329.76814102664963,480,328.14471910583813,480,326.52129718502664,480C324.89787526421514,480,323.27445334340365,480,321.6488075569472,400C320.0231617704908,320,318.39529211838936,160,316.76964633193296,160C315.1440005454765,160,313.520578624665,320,310.27151091739705,360C307.0224432101291,400,302.1477297164047,320,297.27524008832523,240C292.4027504602458,160,287.53248469781124,80,281.850507974971,40C276.1685312521307,0,269.67484356888474,0,265.614064901211,80C261.55328623353734,160,259.9254165814359,320,258.29977079497945,400C256.67412500852305,480,255.05070308771155,480,252.6155702064943,480C250.18043732527707,480,246.93359348365402,480,244.49623673679184,480C242.05887998992964,480,240.43101033782824,480,235.55629684410385,480C230.68158335037947,480,222.56002601503207,480,217.68753638695262,480C212.81504675887317,480,211.19162483806167,480,209.56820291725018,480C207.94478099643868,480,206.32135907562716,480,202.26058040795346,440C198.19980174027975,400,191.70166632574387,320,187.63866379242523,320C183.5756612591066,320,181.94779160700517,400,178.69872389973722,440C175.44965619246926,480,170.57939043003478,480,167.33032272276682,480C164.08125501549887,480,162.45338536339747,480,158.39038283007883,400C154.32738029676017,320,147.82924488222426,160,142.9567552541448,160C138.08426562606536,160,134.83742178444237,320,131.58835407717442,400C128.33928636990646,480,125.08799479699357,480,122.65063805013138,480C120.21328130326918,480,118.58985938245769,480,116.9664374616462,480C115.34301554083468,480,113.71959362002318,480,112.09617169921168,453.6C110.47274977840017,427.2,108.84932785758868,374.4,107.22368207113223,374.4C105.59803628467579,374.4,103.97016663257439,427.2,102.34452084611794,453.6C100.71887505966149,480,99.09545313884998,480,95.03467447117627,400C90.97389580350257,320,84.47576038896668,160,69.04213281303268,80C53.6085052370987,0,29.2393854997666,0,16.2431146706948,0C3.2468438416230017,0,1.6234219208115008,0,0.8117109604057504,0L0,0Z" title="Reste" style="fill: rgb(78, 101, 98);"></path><defs><path id="path-0" d="M0,240L0.8117109604057504,240C1.6234219208115008,240,3.2468438416230017,240,16.2431146706948,240C29.2393854997666,240,53.6085052370987,240,69.04213281303268,280C84.47576038896668,320,90.97389580350257,400,95.03467447117629,440C99.09545313884998,480,100.71887505966149,480,102.34452084611794,466.79999999999995C103.97016663257439,453.59999999999997,105.59803628467579,427.19999999999993,107.22368207113223,427.19999999999993C108.84932785758868,427.19999999999993,110.47274977840017,453.59999999999997,112.09617169921168,466.79999999999995C113.71959362002318,480,115.34301554083468,480,116.9664374616462,480C118.58985938245769,480,120.21328130326918,480,122.65063805013138,480C125.08799479699357,480,128.33928636990646,480,131.58835407717442,440C134.83742178444237,400,138.08426562606536,320,142.9567552541448,320C147.82924488222426,320,154.32738029676017,400,158.3903828300788,440C162.45338536339747,480,164.08125501549887,480,167.33032272276682,480C170.57939043003478,480,175.44965619246926,480,178.69872389973722,460C181.94779160700517,440,183.5756612591066,400,187.63866379242523,400C191.70166632574387,400,198.19980174027975,440,202.26058040795346,460C206.32135907562716,480,207.94478099643868,480,209.56820291725018,480C211.19162483806167,480,212.81504675887317,480,217.68753638695262,480C222.56002601503207,480,230.68158335037947,480,235.55629684410385,480C240.43101033782824,480,242.05887998992964,480,244.49623673679184,480C246.93359348365402,480,250.18043732527707,480,252.61557020649428,480C255.05070308771155,480,256.67412500852305,480,258.2997707949795,440C259.9254165814359,400,261.55328623353734,320,265.61406490121107,280C269.67484356888474,240,276.1685312521307,240,281.850507974971,260C287.53248469781124,280,292.4027504602458,320,297.27524008832523,360C302.1477297164047,400,307.0224432101291,440,310.2715109173971,420C313.520578624665,400,315.1440005454765,320,316.76964633193296,320C318.39529211838936,320,320.0231617704908,400,321.6488075569472,440C323.27445334340365,480,324.89787526421514,480,326.52129718502664,480C328.14471910583813,480,329.76814102664963,480,333.0172087339176,466.79999999999995C336.26627644118554,453.59999999999997,341.14098993490995,427.19999999999993,344.3900576421779,427.19999999999993C347.63912534944586,427.19999999999993,349.26254727025736,453.59999999999997,351.6999040171196,453.5999999999999C354.13726076398177,453.59999999999997,357.3885523368947,427.19999999999993,359.82590908375687,427.19999999999993C362.26326583061905,427.19999999999993,363.8866877514306,453.59999999999997,365.5101096722421,466.79999999999995C367.1335315930536,480,368.7569535138651,480,370.3803754346766,466.79999999999995C372.0037973554881,453.59999999999997,373.62721927629957,427.19999999999993,375.252865062756,427.19999999999993C376.8785108492125,427.19999999999993,378.50638050131386,453.59999999999997,380.1320262877703,456.79999999999995C381.7576720742268,460,383.38109399503827,440,385.81622687625554,400C388.25135975747276,360,391.49820359909575,300,393.9355603459579,310C396.3729170928201,320,398.0007867449215,400,399.626432531378,420C401.25207831783445,440,402.87550023864594,400,404.4989221594575,400C406.122344080269,400,407.7457660010805,440,410.99483370834844,440C414.2439014156164,440,419.11861490934075,400,422.3676826166087,400C425.6167503238766,400,427.2401722446881,440,428.8635941654996,450C430.4870160863111,460,432.11043800712264,440,433.7360837935791,420C435.36172958003556,400,436.9895992321369,380,438.6152450185933,390C440.2408908050498,400,441.8643127258613,440,443.4877346466728,460C445.1111565674843,480,446.7345784882958,480,449.17193523515806,472C451.60929198202024,464,454.8605835549331,448,458.10965126220106,438C461.358718969469,428,464.60556281109206,424,467.0406956923093,405.2C469.47582857352654,386.4,471.0992504943381,352.79999999999995,472.7248962807945,362.79999999999995C474.35054206725096,372.79999999999995,475.9784117193524,426.4,477.6040575058088,453.2C479.22970329226524,480,480.85312521307674,480,482.47654713388823,460C484.0999690546997,440,485.7233909755112,400,487.3468128963227,380C488.9702348171342,360,490.5936567379457,360,492.21930252440217,371.2C493.8449483108586,382.4,495.47281796296,404.8,497.0984637494164,407.6C498.7241095358729,410.4,500.34753145668446,393.6,501.97095337749596,384.79999999999995C503.59437529830745,376,505.21779721911895,375.19999999999993,506.84121913993044,374.79999999999995C508.46464106074194,374.4,510.08806298155343,374.4,511.71370876800984,391.99999999999994C513.3393545544664,409.59999999999997,514.9672242065676,444.79999999999995,516.5928699930241,455.2C518.2185157794805,465.6,519.8419377002921,451.2,521.4653596211036,438C523.0887815419151,424.79999999999995,524.7122034627266,412.79999999999995,526.3356253835382,409.99999999999994C527.9590473043496,407.19999999999993,529.582469225161,413.59999999999997,531.2081150116176,426.79999999999995C532.8337607980741,440,534.4616304501754,460,536.087276236632,443.2C537.7129220230884,426.4,539.3363439438999,372.79999999999995,540.9597658647114,372.79999999999995C542.5831877855228,372.79999999999995,544.2066097063343,426.4,545.8300316271459,441.59999999999997C547.4534535479573,456.79999999999995,549.0768754687688,433.59999999999997,550.7025212552253,420.4C552.3281670416817,407.19999999999993,553.9560366937831,403.9999999999999,555.5816824802396,407.5999999999999C557.207328266696,411.19999999999993,558.8307501875075,421.59999999999997,560.4541721083191,407.99999999999994C562.0775940291305,394.4,563.701015949942,356.79999999999995,565.3244378707535,341.99999999999994C566.947859791565,327.2,568.5712817123765,335.2,570.1969274988329,362C571.8225732852894,388.8,573.4504429373908,434.4,575.0760887238473,434.8C576.7017345103037,435.2,578.3251564311153,390.4,579.9485783519268,390.4C581.5720002727383,390.4,583.1954221935497,435.2,584.8188441143612,440C586.4422660351727,444.79999999999995,588.0656879559842,409.59999999999997,589.6913337424406,402.4C591.3169795288971,395.19999999999993,592.9448491809985,416,594.5704949674549,418.4C596.1961407539113,420.79999999999995,597.8195626747229,404.79999999999995,599.4429845955344,390.8C601.066406516346,376.79999999999995,602.6898284371574,364.79999999999995,604.3132503579689,373.2C605.9366722787804,381.59999999999997,607.560094199592,410.4,609.1857399860484,431.59999999999997C610.8113857725048,452.79999999999995,612.4392554246062,466.4,614.0649012110626,457.2C615.690546997519,448,617.3139689183306,416,618.9373908391422,396C620.5608127599537,376,622.1842346807651,368,623.8076566015766,373.2C625.4310785223881,378.4,627.0545004431997,396.79999999999995,628.6801462296561,401.59999999999997C630.3057920161125,406.4,631.933661668214,397.59999999999997,633.5593074546704,401.2C635.1849532411268,404.79999999999995,636.8083751619382,420.79999999999995,638.4317970827498,422.79999999999995C640.0552190035612,424.79999999999995,641.6786409243728,412.79999999999995,643.3020628451843,419.99999999999994C644.9254847659959,427.19999999999993,646.5489066868073,453.59999999999997,648.1745524732638,454.79999999999995C649.8001982597202,456,651.4280679118217,432,653.0537136982781,416.8C654.6793594847345,401.6,656.3027814055459,395.2,657.9262033263575,399.59999999999997C659.5496252471689,404,661.1730471679805,419.19999999999993,662.796469088792,427.2C664.4198910096036,435.19999999999993,666.043312930415,436,667.6689587168715,436.4C669.294604503328,436.79999999999995,670.9224741554293,436.79999999999995,672.5481199418858,432.4C674.1737657283422,428,675.7971876491537,419.19999999999993,677.4206095699651,418.79999999999995C679.0440314907767,418.4,680.6674534115882,426.4,682.2908753323997,423.5999999999999C683.9142972532111,420.79999999999995,685.5377191740226,407.19999999999993,687.163364960479,401.5999999999999C688.7890107469356,395.99999999999994,690.4168803990369,398.3999999999999,692.0425261854934,402.4C693.66817197195,406.3999999999999,695.2915938927614,411.99999999999994,696.915015813573,417.5999999999999C698.5384377343844,423.19999999999993,700.1618596551959,428.79999999999995,701.7852815760074,431.99999999999994C703.4087034968189,435.19999999999993,705.0321254176304,436,706.6577712040869,437.19999999999993C708.2834169905433,438.4,709.9112866426447,440,711.5369324291012,438.79999999999995C713.1625782155576,437.59999999999997,714.786000136369,433.59999999999997,716.4094220571806,434.8C718.0328439779921,436,719.6562658988036,442.4,721.2796878196151,443.59999999999997C722.9031097404265,444.79999999999995,724.5265316612381,440.79999999999995,726.1521774476945,440C727.777823234151,439.2,729.4056928862524,441.6,731.0313386727089,446.4C732.6569844591653,451.2,734.2804063799767,458.4,735.9038283007883,461.2C737.5272502215998,464,739.1506721424113,462.4,740.7740940632228,459.59999999999997C742.3975159840343,456.79999999999995,744.0209379048458,452.79999999999995,745.6465836913023,452.4C747.2722294777586,452,748.9000991298601,455.19999999999993,750.5257449163165,459.59999999999997C752.1513907027729,463.99999999999994,753.7748126235845,469.5999999999999,755.398234544396,469.99999999999994C757.0216564652076,470.4,758.645078386019,465.59999999999997,760.2685003068306,463.2C761.891922227642,460.79999999999995,763.5153441484536,460.79999999999995,765.14098993491,454.8C766.7666357213664,448.79999999999995,768.3945053734678,436.79999999999995,770.0201511599241,436.8C771.6457969463806,436.79999999999995,773.2692188671922,448.79999999999995,774.8926407880036,453.6C776.5160627088151,458.4,778.1394846296266,456,779.7629065504381,457.2C781.3863284712496,458.4,783.009750392061,463.2,784.6353961785176,462.40000000000003C786.261041964974,461.6,787.8889116170753,455.2,789.5145574035319,454.79999999999995C791.1402031899883,454.4,792.7636251107998,460,794.3870470316114,462C796.0104689524228,464,797.6338908732343,462.4,799.2573127940459,461.19999999999993C800.8807347148573,460,802.5041566356688,459.19999999999993,804.1298024221253,460.4C805.7554482085818,461.59999999999997,807.3833178606832,464.79999999999995,809.0089636471396,464C810.6346094335961,463.2,812.2580313544076,458.4,813.8814532752191,458.4C815.5048751960305,458.4,817.1282971168421,463.2,818.7517190376535,465.20000000000005C820.3751409584651,467.2,821.9985628792765,466.4,823.624208665733,468.4C825.2498544521894,470.4,826.8777241042908,475.2,828.5033698907473,473.20000000000005C830.1290156772037,471.2,831.7524375980153,462.4,833.3758595188268,460.4C834.9992814396383,458.4,836.6227033604498,463.2,838.2461252812614,462.40000000000003C839.8695472020728,461.6,841.4929691228842,455.2,843.1186149093407,457.2C844.7442606957972,459.2,846.3721303478985,469.6,847.1860651739491,474.8L848,480"></path><path id="path-1" d="M0,0L0.8117109604057504,0C1.6234219208115008,0,3.2468438416230017,0,16.2431146706948,0C29.2393854997666,0,53.6085052370987,0,69.04213281303268,40C84.47576038896668,80,90.97389580350257,160,95.03467447117629,200C99.09545313884998,240,100.71887505966149,240,102.34452084611794,226.8C103.97016663257439,213.6,105.59803628467579,187.2,107.22368207113223,187.2C108.84932785758868,187.2,110.47274977840017,213.6,112.09617169921168,226.8C113.71959362002318,240,115.34301554083468,240,116.9664374616462,240C118.58985938245769,240,120.21328130326918,240,122.65063805013138,240C125.08799479699357,240,128.33928636990646,240,131.58835407717442,200C134.83742178444237,160,138.08426562606536,80,142.9567552541448,80C147.82924488222426,80,154.32738029676017,160,158.3903828300788,200C162.45338536339747,240,164.08125501549887,240,167.33032272276682,240C170.57939043003478,240,175.44965619246926,240,178.69872389973722,220C181.94779160700517,200,183.5756612591066,160,187.63866379242523,160C191.70166632574387,160,198.19980174027975,200,202.26058040795346,220C206.32135907562716,240,207.94478099643868,240,209.56820291725018,240C211.19162483806167,240,212.81504675887317,240,217.68753638695262,240C222.56002601503207,240,230.68158335037947,240,235.55629684410385,240C240.43101033782824,240,242.05887998992964,240,244.49623673679184,240C246.93359348365402,240,250.18043732527707,240,252.61557020649428,240C255.05070308771155,240,256.67412500852305,240,258.2997707949795,200C259.9254165814359,160,261.55328623353734,80,265.61406490121107,40C269.67484356888474,0,276.1685312521307,0,281.850507974971,20C287.53248469781124,40,292.4027504602458,80,297.27524008832523,120C302.1477297164047,160,307.0224432101291,200,310.2715109173971,180C313.520578624665,160,315.1440005454765,80,316.76964633193296,80C318.39529211838936,80,320.0231617704908,160,321.6488075569472,200C323.27445334340365,240,324.89787526421514,240,326.52129718502664,240C328.14471910583813,240,329.76814102664963,240,333.0172087339176,226.8C336.26627644118554,213.6,341.14098993490995,187.2,344.3900576421779,187.2C347.63912534944586,187.2,349.26254727025736,213.6,351.6999040171196,213.60000000000002C354.13726076398177,213.6,357.3885523368947,187.2,359.82590908375687,187.2C362.26326583061905,187.2,363.8866877514306,213.6,365.5101096722421,226.8C367.1335315930536,240,368.7569535138651,240,370.3803754346766,226.8C372.0037973554881,213.6,373.62721927629957,187.2,375.252865062756,187.2C376.8785108492125,187.2,378.50638050131386,213.6,380.1320262877703,216.8C381.7576720742268,220,383.38109399503827,200,385.81622687625554,160C388.25135975747276,120,391.49820359909575,60,393.9355603459579,70C396.3729170928201,80,398.0007867449215,160,399.626432531378,180C401.25207831783445,200,402.87550023864594,160,404.4989221594575,160C406.122344080269,160,407.7457660010805,200,410.99483370834844,200C414.2439014156164,200,419.11861490934075,160,422.3676826166087,160C425.6167503238766,160,427.2401722446881,200,428.8635941654996,210C430.4870160863111,220,432.11043800712264,200,433.7360837935791,180C435.36172958003556,160,436.9895992321369,140,438.6152450185933,150C440.2408908050498,160,441.8643127258613,200,443.4877346466728,220C445.1111565674843,240,446.7345784882958,240,449.17193523515806,232C451.60929198202024,224,454.8605835549331,208,458.10965126220106,198C461.358718969469,188,464.60556281109206,184,467.0406956923093,165.2C469.47582857352654,146.4,471.0992504943381,112.79999999999998,472.7248962807945,122.79999999999998C474.35054206725096,132.79999999999998,475.9784117193524,186.4,477.6040575058088,213.2C479.22970329226524,240,480.85312521307674,240,482.47654713388823,220C484.0999690546997,200,485.7233909755112,160,487.3468128963227,140C488.9702348171342,120,490.5936567379457,120,492.21930252440217,131.2C493.8449483108586,142.4,495.47281796296,164.8,497.0984637494164,167.60000000000002C498.7241095358729,170.4,500.34753145668446,153.60000000000002,501.97095337749596,144.8C503.59437529830745,136,505.21779721911895,135.2,506.84121913993044,134.79999999999998C508.46464106074194,134.39999999999998,510.08806298155343,134.39999999999998,511.71370876800984,152C513.3393545544664,169.6,514.9672242065676,204.8,516.5928699930241,215.2C518.2185157794805,225.6,519.8419377002921,211.2,521.4653596211036,198C523.0887815419151,184.79999999999998,524.7122034627266,172.79999999999998,526.3356253835382,170C527.9590473043496,167.2,529.582469225161,173.6,531.2081150116176,186.8C532.8337607980741,200,534.4616304501754,220,536.087276236632,203.2C537.7129220230884,186.4,539.3363439438999,132.79999999999998,540.9597658647114,132.79999999999998C542.5831877855228,132.79999999999998,544.2066097063343,186.4,545.8300316271459,201.6C547.4534535479573,216.79999999999998,549.0768754687688,193.59999999999997,550.7025212552253,180.39999999999998C552.3281670416817,167.2,553.9560366937831,163.99999999999997,555.5816824802396,167.6C557.207328266696,171.2,558.8307501875075,181.6,560.4541721083191,168C562.0775940291305,154.4,563.701015949942,116.79999999999998,565.3244378707535,101.99999999999999C566.947859791565,87.19999999999999,568.5712817123765,95.2,570.1969274988329,122.00000000000001C571.8225732852894,148.8,573.4504429373908,194.4,575.0760887238473,194.79999999999998C576.7017345103037,195.2,578.3251564311153,150.39999999999998,579.9485783519268,150.39999999999998C581.5720002727383,150.39999999999998,583.1954221935497,195.2,584.8188441143612,200C586.4422660351727,204.8,588.0656879559842,169.6,589.6913337424406,162.39999999999998C591.3169795288971,155.2,592.9448491809985,176,594.5704949674549,178.4C596.1961407539113,180.79999999999998,597.8195626747229,164.8,599.4429845955344,150.8C601.066406516346,136.8,602.6898284371574,124.79999999999998,604.3132503579689,133.2C605.9366722787804,141.59999999999997,607.560094199592,170.39999999999998,609.1857399860484,191.59999999999997C610.8113857725048,212.79999999999998,612.4392554246062,226.39999999999998,614.0649012110626,217.2C615.690546997519,208,617.3139689183306,176,618.9373908391422,156C620.5608127599537,136,622.1842346807651,128,623.8076566015766,133.2C625.4310785223881,138.39999999999998,627.0545004431997,156.79999999999998,628.6801462296561,161.6C630.3057920161125,166.39999999999998,631.933661668214,157.6,633.5593074546704,161.2C635.1849532411268,164.8,636.8083751619382,180.79999999999998,638.4317970827498,182.8C640.0552190035612,184.79999999999998,641.6786409243728,172.79999999999998,643.3020628451843,180C644.9254847659959,187.2,646.5489066868073,213.6,648.1745524732638,214.8C649.8001982597202,216,651.4280679118217,192,653.0537136982781,176.8C654.6793594847345,161.6,656.3027814055459,155.2,657.9262033263575,159.6C659.5496252471689,164,661.1730471679805,179.2,662.796469088792,187.2C664.4198910096036,195.2,666.043312930415,196,667.6689587168715,196.39999999999998C669.294604503328,196.79999999999998,670.9224741554293,196.79999999999998,672.5481199418858,192.4C674.1737657283422,187.99999999999997,675.7971876491537,179.2,677.4206095699651,178.79999999999998C679.0440314907767,178.39999999999998,680.6674534115882,186.39999999999998,682.2908753323997,183.6C683.9142972532111,180.79999999999998,685.5377191740226,167.2,687.163364960479,161.59999999999997C688.7890107469356,156,690.4168803990369,158.39999999999998,692.0425261854934,162.39999999999998C693.66817197195,166.39999999999998,695.2915938927614,172,696.915015813573,177.6C698.5384377343844,183.2,700.1618596551959,188.79999999999998,701.7852815760074,192C703.4087034968189,195.2,705.0321254176304,196,706.6577712040869,197.2C708.2834169905433,198.39999999999998,709.9112866426447,199.99999999999997,711.5369324291012,198.79999999999998C713.1625782155576,197.59999999999997,714.786000136369,193.6,716.4094220571806,194.8C718.0328439779921,196,719.6562658988036,202.39999999999998,721.2796878196151,203.59999999999997C722.9031097404265,204.79999999999998,724.5265316612381,200.79999999999998,726.1521774476945,200C727.777823234151,199.2,729.4056928862524,201.6,731.0313386727089,206.4C732.6569844591653,211.2,734.2804063799767,218.39999999999998,735.9038283007883,221.2C737.5272502215998,223.99999999999997,739.1506721424113,222.39999999999998,740.7740940632228,219.59999999999997C742.3975159840343,216.79999999999998,744.0209379048458,212.79999999999998,745.6465836913023,212.4C747.2722294777586,212,748.9000991298601,215.2,750.5257449163165,219.59999999999997C752.1513907027729,224,753.7748126235845,229.59999999999997,755.398234544396,230C757.0216564652076,230.39999999999998,758.645078386019,225.59999999999997,760.2685003068306,223.2C761.891922227642,220.79999999999998,763.5153441484536,220.79999999999998,765.14098993491,214.8C766.7666357213664,208.79999999999998,768.3945053734678,196.8,770.0201511599241,196.8C771.6457969463806,196.8,773.2692188671922,208.79999999999998,774.8926407880036,213.6C776.5160627088151,218.39999999999998,778.1394846296266,215.99999999999997,779.7629065504381,217.2C781.3863284712496,218.39999999999998,783.009750392061,223.2,784.6353961785176,222.39999999999998C786.261041964974,221.6,787.8889116170753,215.2,789.5145574035319,214.79999999999998C791.1402031899883,214.39999999999998,792.7636251107998,219.99999999999997,794.3870470316114,222C796.0104689524228,223.99999999999997,797.6338908732343,222.39999999999998,799.2573127940459,221.2C800.8807347148573,220,802.5041566356688,219.2,804.1298024221253,220.39999999999998C805.7554482085818,221.6,807.3833178606832,224.8,809.0089636471396,224C810.6346094335961,223.2,812.2580313544076,218.39999999999998,813.8814532752191,218.39999999999998C815.5048751960305,218.39999999999998,817.1282971168421,223.2,818.7517190376535,225.2C820.3751409584651,227.2,821.9985628792765,226.39999999999998,823.624208665733,228.39999999999998C825.2498544521894,230.39999999999998,826.8777241042908,235.2,828.5033698907473,233.2C830.1290156772037,231.2,831.7524375980153,222.39999999999998,833.3758595188268,220.39999999999998C834.9992814396383,218.39999999999998,836.6227033604498,223.2,838.2461252812614,222.39999999999998C839.8695472020728,221.6,841.4929691228842,215.2,843.1186149093407,217.2C844.7442606957972,219.2,846.3721303478985,229.6,847.1860651739491,234.8L848,240"></path></defs><text dy="0.5ex" class="label"><textPath xmlns:xlink="http://www.w3.org/1999/xlink" xlink:href="#path-0" startOffset="5%" text-anchor="start" style="font-size: 11px; font-family: Arial, Helvetica; font-weight: normal;">POURC</textPath></text><text dy="0.5ex" class="label"><textPath xmlns:xlink="http://www.w3.org/1999/xlink" xlink:href="#path-1" startOffset="11%" text-anchor="middle" style="font-size: 11px; font-family: Arial, Helvetica; font-weight: normal;">Reste</textPath></text></g></svg>